<svg width="179" height="49" viewBox="0 0 179 49" fill="none" xmlns="http://www.w3.org/2000/svg">
<circle cx="24.5" cy="24.5" r="24.5" fill="#FEC85B"/>
<circle cx="89.5" cy="24.5" r="24.5" fill="#FEC85B"/>
<circle cx="154.5" cy="24.5" r="24.5" fill="#FEC85B"/>
<path d="M168.706 20.1895C167.871 20.5595 166.974 20.8095 166.031 20.9225C167.004 20.3403 167.732 19.424 168.079 18.3445C167.165 18.8875 166.164 19.2697 165.121 19.4745C164.419 18.7254 163.49 18.2288 162.477 18.062C161.465 17.8951 160.425 18.0673 159.52 18.5518C158.615 19.0362 157.896 19.8059 157.473 20.7412C157.051 21.6766 156.949 22.7253 157.183 23.7245C155.331 23.6315 153.519 23.1501 151.864 22.3114C150.21 21.4728 148.751 20.2957 147.581 18.8565C147.181 19.5465 146.951 20.3465 146.951 21.1985C146.951 21.9655 147.139 22.7208 147.501 23.3973C147.862 24.0737 148.385 24.6506 149.023 25.0765C148.283 25.053 147.56 24.8531 146.913 24.4935V24.5535C146.913 25.6293 147.285 26.6719 147.966 27.5045C148.647 28.3371 149.596 28.9084 150.65 29.1215C149.964 29.3072 149.244 29.3346 148.546 29.2015C148.843 30.1271 149.423 30.9365 150.203 31.5164C150.984 32.0963 151.926 32.4177 152.898 32.4355C151.248 33.7309 149.21 34.4336 147.112 34.4305C146.74 34.4306 146.369 34.4089 146 34.3655C148.129 35.7347 150.608 36.4613 153.14 36.4585C161.71 36.4585 166.395 29.3605 166.395 23.2045C166.395 23.0045 166.39 22.8025 166.381 22.6025C167.292 21.9435 168.079 21.1274 168.704 20.1925L168.706 20.1895Z" fill="white"/>
<path d="M30 15.5619C30 15.4146 29.9425 15.2734 29.8402 15.1692C29.7379 15.0651 29.5992 15.0066 29.4545 15.0066H26.7273C25.354 14.9369 24.0094 15.4235 22.9873 16.3601C21.9653 17.2967 21.3489 18.607 21.2727 20.0049V23.0039H18.5455C18.4008 23.0039 18.2621 23.0625 18.1598 23.1666C18.0575 23.2708 18 23.412 18 23.5593V26.4473C18 26.5945 18.0575 26.7358 18.1598 26.84C18.2621 26.9441 18.4008 27.0026 18.5455 27.0026H21.2727V34.4446C21.2727 34.5919 21.3302 34.7332 21.4325 34.8373C21.5348 34.9415 21.6735 35 21.8182 35H25.0909C25.2356 35 25.3743 34.9415 25.4766 34.8373C25.5789 34.7332 25.6364 34.5919 25.6364 34.4446V27.0026H28.4945C28.6158 27.0044 28.7343 26.965 28.8311 26.8905C28.9279 26.8161 28.9976 26.7109 29.0291 26.5917L29.8145 23.7037C29.8362 23.6217 29.8392 23.5356 29.8231 23.4522C29.807 23.3688 29.7723 23.2903 29.7217 23.2227C29.6711 23.1551 29.606 23.1003 29.5313 23.0623C29.4566 23.0244 29.3744 23.0044 29.2909 23.0039H25.6364V20.0049C25.6635 19.73 25.7903 19.4752 25.992 19.2904C26.1937 19.1055 26.4559 19.0039 26.7273 19.0053H29.4545C29.5992 19.0053 29.7379 18.9467 29.8402 18.8426C29.9425 18.7384 30 18.5972 30 18.4499V15.5619Z" fill="white"/>
<path fill-rule="evenodd" clip-rule="evenodd" d="M87.429 17.969H91.143V19.819C91.678 18.755 93.05 17.799 95.111 17.799C99.062 17.799 100 19.917 100 23.803V31H96V24.688C96 22.475 95.465 21.227 94.103 21.227C92.214 21.227 91.429 22.572 91.429 24.687V31H87.429V17.969ZM80.57 30.83H84.57V17.799H80.57V30.83ZM85.143 13.55C85.1431 13.8853 85.0767 14.2172 84.9474 14.5266C84.8181 14.8359 84.6287 15.1165 84.39 15.352C83.9064 15.8326 83.2518 16.1017 82.57 16.1C81.8894 16.0995 81.2363 15.8312 80.752 15.353C80.5142 15.1167 80.3254 14.8358 80.1963 14.5264C80.0673 14.217 80.0006 13.8852 80 13.55C80 12.873 80.27 12.225 80.753 11.747C81.2369 11.2682 81.8902 10.9997 82.571 11C83.253 11 83.907 11.269 84.39 11.747C84.872 12.225 85.143 12.873 85.143 13.55Z" fill="white"/>
</svg>
