<svg width="69" height="70" viewBox="0 0 69 70" fill="none" xmlns="http://www.w3.org/2000/svg">
<circle cx="34.5" cy="34.9496" r="34.5" fill="#2B666C"/>
<g clip-path="url(#clip0_525_120)">
<path d="M39.9456 32.2226C44.1796 32.2226 47.6121 28.7906 47.6121 24.5569C47.6121 20.3233 44.1796 16.8912 39.9456 16.8912C35.7115 16.8912 32.2791 20.3233 32.2791 24.5569C32.2791 28.7906 35.7115 32.2226 39.9456 32.2226Z" fill="url(#paint0_linear_525_120)"/>
<path d="M39.9457 35.4144C32.0947 35.4144 25.729 41.7795 25.729 49.6297C25.729 51.6868 27.3988 53.3564 29.4562 53.3564H50.4353C52.4926 53.3564 54.1716 51.6868 54.1716 49.6297C54.1716 41.7795 47.8059 35.4144 39.9457 35.4144Z" fill="url(#paint1_linear_525_120)"/>
</g>
<g filter="url(#filter0_b_525_120)">
<g clip-path="url(#clip1_525_120)">
<path d="M33.1808 32.3595C37.2175 31.0816 39.454 26.7736 38.1762 22.7374C36.8985 18.7012 32.5903 16.4651 28.5536 17.743C24.517 19.0209 22.2805 23.3289 23.5582 27.3651C24.836 31.4013 29.1442 33.6374 33.1808 32.3595Z" fill="url(#paint2_linear_525_120)"/>
<path d="M34.2922 23.967C34.8908 25.8577 33.8432 27.8765 31.9513 28.4755C30.0593 29.0744 28.0408 28.0263 27.4423 26.1355C26.8437 24.2448 27.8913 22.226 29.7832 21.6271C31.6751 21.0281 33.6936 22.0762 34.2922 23.967Z" stroke="url(#paint3_linear_525_120)" stroke-opacity="0.4" stroke-width="8.14803"/>
<path d="M31.6518 27.5297C33.0208 27.0963 33.7793 25.6353 33.346 24.2665C32.9126 22.8976 31.4515 22.1393 30.0825 22.5727C28.7135 23.0061 27.9551 24.4671 28.3884 25.8359C28.8217 27.2048 30.2828 27.9631 31.6518 27.5297Z" fill="url(#paint4_linear_525_120)"/>
<path d="M34.1443 35.4023C26.6594 37.7719 22.5116 45.7613 24.8809 53.2454C25.5018 55.2066 27.5977 56.2944 29.5591 55.6735L49.5598 49.3417C51.5212 48.7208 52.618 46.6222 51.9972 44.6611C49.6279 37.1769 41.638 33.03 34.1443 35.4023Z" fill="url(#paint5_linear_525_120)"/>
<path d="M48.0028 45.5614L28.6657 51.683C27.1987 46.4423 30.1445 40.9418 35.3739 39.2863C40.6135 37.6276 46.1871 40.4327 48.0028 45.5614Z" stroke="url(#paint6_linear_525_120)" stroke-opacity="0.6" stroke-width="8.14803"/>
<line x1="9.05336" y1="-9.05336" x2="2.68992" y2="-9.05336" transform="matrix(0.944497 -0.328519 0.374099 0.927389 31.3105 47.3586)" stroke="url(#paint7_linear_525_120)" stroke-width="18.1067" stroke-linecap="round"/>
</g>
</g>
<defs>
<filter id="filter0_b_525_120" x="-42.0362" y="-43.5867" width="152.197" height="157.43" filterUnits="userSpaceOnUse" color-interpolation-filters="sRGB">
<feFlood flood-opacity="0" result="BackgroundImageFix"/>
<feGaussianBlur in="BackgroundImageFix" stdDeviation="28.5181"/>
<feComposite in2="SourceAlpha" operator="in" result="effect1_backgroundBlur_525_120"/>
<feBlend mode="normal" in="SourceGraphic" in2="effect1_backgroundBlur_525_120" result="shape"/>
</filter>
<linearGradient id="paint0_linear_525_120" x1="39.9456" y1="16.8912" x2="39.9456" y2="32.2226" gradientUnits="userSpaceOnUse">
<stop stop-color="#FF9900"/>
<stop offset="1" stop-color="#FFBC58"/>
</linearGradient>
<linearGradient id="paint1_linear_525_120" x1="39.9503" y1="35.4144" x2="39.9503" y2="53.3564" gradientUnits="userSpaceOnUse">
<stop stop-color="#FF9900"/>
<stop offset="1" stop-color="#FFBC58"/>
</linearGradient>
<linearGradient id="paint2_linear_525_120" x1="23.3664" y1="33.739" x2="37.1868" y2="25.2932" gradientUnits="userSpaceOnUse">
<stop stop-color="white" stop-opacity="0.1"/>
<stop offset="1" stop-color="white" stop-opacity="0.23"/>
</linearGradient>
<linearGradient id="paint3_linear_525_120" x1="28.5536" y1="17.743" x2="33.1808" y2="32.3595" gradientUnits="userSpaceOnUse">
<stop stop-color="white"/>
<stop offset="1" stop-color="white" stop-opacity="0"/>
</linearGradient>
<linearGradient id="paint4_linear_525_120" x1="30.0825" y1="22.5727" x2="31.6518" y2="27.5297" gradientUnits="userSpaceOnUse">
<stop stop-color="white" stop-opacity="0.67"/>
<stop offset="1" stop-color="white" stop-opacity="0"/>
</linearGradient>
<linearGradient id="paint5_linear_525_120" x1="43.2443" y1="50.7392" x2="28.2389" y2="38.3039" gradientUnits="userSpaceOnUse">
<stop stop-color="white" stop-opacity="0.1"/>
<stop offset="1" stop-color="white" stop-opacity="0.23"/>
</linearGradient>
<linearGradient id="paint6_linear_525_120" x1="34.1487" y1="35.4009" x2="39.5638" y2="52.5062" gradientUnits="userSpaceOnUse">
<stop stop-color="white"/>
<stop offset="1" stop-color="white" stop-opacity="0"/>
</linearGradient>
<linearGradient id="paint7_linear_525_120" x1="-1.30847" y1="0" x2="13.3551" y2="0" gradientUnits="userSpaceOnUse">
<stop stop-color="white" stop-opacity="0.67"/>
<stop offset="1" stop-color="white" stop-opacity="0"/>
</linearGradient>
<clipPath id="clip0_525_120">
<rect width="28.4426" height="36.4744" fill="white" transform="translate(25.729 16.8912)"/>
</clipPath>
<clipPath id="clip1_525_120">
<rect width="28.4426" height="36.4744" fill="white" transform="translate(15 22.0338) rotate(-17.5666)"/>
</clipPath>
</defs>
</svg>
