<svg width="1600" height="1101" viewBox="0 0 1600 1101" fill="none" xmlns="http://www.w3.org/2000/svg">
<rect width="1600" height="1101" fill="#F2EEE5"/>
<path d="M0 492.645C18.4137 527.334 78.047 591.308 169.271 569.695C283.3 542.677 429.765 380.074 570.655 443.614C711.545 507.155 850.465 806.8 999.407 782.33C1147.5 758 1239.5 618 1357 600C1483.57 580.611 1517.99 619.955 1630.5 691" stroke="#DF7948" stroke-width="4"/>
<circle cx="225.5" cy="589.416" r="86.5" fill="#E87E4B"/>
<circle cx="1328.33" cy="630.245" r="86.5" transform="rotate(-45 1328.33 630.245)" fill="#FEC85B"/>
<g style="mix-blend-mode:multiply">
<path d="M494.832 570.678C373.911 756.031 604.915 841.301 751.007 841.301C894.65 841.301 1057.09 787.241 1057.09 620.413C1057.02 191.324 702.322 252.519 494.832 570.678Z" fill="#134148"/>
</g>
</svg>
