<svg width="248" height="256" viewBox="0 0 248 256" fill="none" xmlns="http://www.w3.org/2000/svg">
<g style="mix-blend-mode:multiply">
<path d="M117.773 53.5995C61.9675 25.2869 45.0746 92.8327 49.5496 133.898C53.9497 174.276 74.1214 218.281 121.016 213.171C241.628 200.007 213.561 102.178 117.773 53.5995Z" fill="#DD7847"/>
</g>
<path d="M84.3255 156.365C83.0418 156.557 81.8553 157.161 80.9445 158.086C80.0337 159.01 79.4481 160.206 79.2757 161.492C79.2052 162.36 79.3359 163.231 79.6576 164.04C79.9793 164.848 80.4833 165.571 81.1303 166.152C81.2772 167.105 81.7954 167.961 82.5715 168.532C84.7279 170.09 87.7255 169.072 89.4208 167.316C90.3877 166.337 91.0245 165.081 91.2422 163.723C91.4599 162.364 91.2476 160.972 90.6349 159.74C90.0668 158.59 89.1531 157.646 88.0217 157.041C86.8902 156.435 85.5978 156.199 84.3255 156.365Z" fill="#E42EB1"/>
<path d="M92.8155 120.562C91.6042 121.642 90.7026 123.026 90.2036 124.57C89.7045 126.115 89.626 127.764 89.9761 129.349C89.8066 131.569 90.5197 133.767 91.9604 135.465C95.479 139.596 101.937 139.593 105.944 136.196C110.087 132.682 110.385 126.369 107.139 122.123C103.786 117.763 97.0233 116.841 92.8155 120.562Z" fill="#FFB727"/>
<path d="M112.1 146.979C111.546 146.829 110.96 146.851 110.418 147.042C109.79 147.253 109.245 147.658 108.863 148.2C108.655 148.208 108.452 148.265 108.271 148.367C108.089 148.469 107.935 148.612 107.82 148.786C107.325 149.581 107.154 150.536 107.342 151.454C107.529 152.371 108.061 153.183 108.829 153.72C109.257 154.018 109.746 154.218 110.26 154.306C110.774 154.394 111.302 154.368 111.805 154.229C112.308 154.09 112.774 153.842 113.17 153.502C113.566 153.163 113.883 152.74 114.097 152.264C114.598 151.668 114.885 150.921 114.911 150.142C114.938 149.364 114.703 148.599 114.244 147.97C113.986 147.652 113.658 147.398 113.287 147.226C112.915 147.055 112.509 146.97 112.1 146.979Z" fill="white"/>
<path d="M123.462 125.257C123.204 125.463 122.998 125.726 122.859 126.026C122.72 126.325 122.653 126.653 122.662 126.983C122.451 127.492 122.412 128.057 122.551 128.591C122.689 129.125 122.998 129.599 123.43 129.942C123.72 130.166 124.076 130.29 124.442 130.295C124.809 130.3 125.168 130.185 125.464 129.969C126.121 129.496 126.568 128.785 126.709 127.988C126.726 127.891 126.731 127.789 126.74 127.695C126.741 127.159 126.745 127.03 126.765 127.313C126.784 127.596 126.774 127.455 126.779 127.163C126.773 126.802 126.685 126.448 126.523 126.126C126.36 125.804 126.126 125.523 125.839 125.305C125.504 125.036 125.089 124.886 124.659 124.877C124.229 124.869 123.808 125.002 123.462 125.257Z" fill="white"/>
<path d="M152.711 128.735C145.729 128.606 139.274 132.963 139.339 139.37C138.639 141.975 138.849 144.74 139.935 147.209C141.02 149.678 142.916 151.703 145.309 152.947C153.514 157.256 163.624 152.006 166.533 143.609C169.838 134.151 161.024 128.882 152.711 128.735Z" fill="white"/>
<path d="M144.377 103.391C144.775 102.488 144.97 101.509 144.949 100.522C144.928 99.5357 144.691 98.5656 144.256 97.6801C143.821 96.7945 143.197 96.015 142.428 95.396C141.659 94.7771 140.765 94.3337 139.807 94.0971C135.588 93.1401 131.652 97.1633 133.177 101.207C133.126 102.03 133.267 102.852 133.588 103.611C133.91 104.369 134.403 105.043 135.029 105.578C135.76 106.128 136.604 106.511 137.5 106.699C138.396 106.888 139.322 106.877 140.214 106.669C141.105 106.46 141.94 106.059 142.659 105.492C143.379 104.926 143.965 104.209 144.377 103.391Z" fill="#00D4FF"/>
</svg>
