<svg width="66" height="66" viewBox="0 0 66 66" fill="none" xmlns="http://www.w3.org/2000/svg">
<circle cx="33" cy="33" r="32.5" stroke="white"/>
<path d="M32.5 25.0625C32.7254 25.0625 32.9416 25.1514 33.101 25.3096C33.2604 25.4679 33.35 25.6825 33.35 25.9062V29.2812C33.35 29.505 33.2604 29.7196 33.101 29.8779C32.9416 30.0361 32.7254 30.125 32.5 30.125C32.2746 30.125 32.0584 30.0361 31.899 29.8779C31.7396 29.7196 31.65 29.505 31.65 29.2812V25.9062C31.65 25.6825 31.7396 25.4679 31.899 25.3096C32.0584 25.1514 32.2746 25.0625 32.5 25.0625ZM39.3 38.5625C39.3 40.3527 38.5836 42.0696 37.3083 43.3355C36.0331 44.6013 34.3035 45.3125 32.5 45.3125C30.6965 45.3125 28.9669 44.6013 27.6917 43.3355C26.4164 42.0696 25.7 40.3527 25.7 38.5625V28.4375C25.7 26.6473 26.4164 24.9304 27.6917 23.6645C28.9669 22.3987 30.6965 21.6875 32.5 21.6875C34.3035 21.6875 36.0331 22.3987 37.3083 23.6645C38.5836 24.9304 39.3 26.6473 39.3 28.4375V38.5625ZM32.5 20C30.2457 20 28.0837 20.8889 26.4896 22.4713C24.8955 24.0536 24 26.1997 24 28.4375V38.5625C24 40.8003 24.8955 42.9464 26.4896 44.5287C28.0837 46.1111 30.2457 47 32.5 47C34.7543 47 36.9163 46.1111 38.5104 44.5287C40.1045 42.9464 41 40.8003 41 38.5625V28.4375C41 26.1997 40.1045 24.0536 38.5104 22.4713C36.9163 20.8889 34.7543 20 32.5 20V20Z" fill="#00966B"/>
</svg>
