<svg width="100" height="100" viewBox="0 0 100 100" fill="none" xmlns="http://www.w3.org/2000/svg">
<rect x="0.5" y="0.5" width="99" height="99" rx="31.5" fill="#124851" stroke="#F49A50"/>
<g clip-path="url(#clip0_526_115)">
<path d="M64.95 64.375H35.05C34.4175 64.375 33.9 64.8953 33.9 65.5312V67.8438C33.9 68.4797 34.4175 69 35.05 69H64.95C65.5825 69 66.1 68.4797 66.1 67.8438V65.5312C66.1 64.8953 65.5825 64.375 64.95 64.375ZM69.55 41.25C67.6453 41.25 66.1 42.8037 66.1 44.7188C66.1 45.2318 66.215 45.7088 66.4163 46.1496L61.2125 49.2859C60.1056 49.9508 58.6753 49.575 58.0356 48.4477L52.1778 38.1426C52.9469 37.5066 53.45 36.5527 53.45 35.4688C53.45 33.5537 51.9047 32 50 32C48.0953 32 46.55 33.5537 46.55 35.4688C46.55 36.5527 47.0531 37.5066 47.8222 38.1426L41.9644 48.4477C41.3247 49.575 39.8872 49.9508 38.7875 49.2859L33.5909 46.1496C33.785 45.716 33.9072 45.2318 33.9072 44.7188C33.9072 42.8037 32.3619 41.25 30.4572 41.25C28.5525 41.25 27 42.8037 27 44.7188C27 46.6338 28.5453 48.1875 30.45 48.1875C30.6369 48.1875 30.8238 48.1586 31.0034 48.1297L36.2 62.0625H63.8L68.9966 48.1297C69.1762 48.1586 69.3631 48.1875 69.55 48.1875C71.4547 48.1875 73 46.6338 73 44.7188C73 42.8037 71.4547 41.25 69.55 41.25Z" fill="#F49A50"/>
</g>
<defs>
<clipPath id="clip0_526_115">
<rect width="46" height="37" fill="white" transform="translate(27 32)"/>
</clipPath>
</defs>
</svg>
