<svg width="343" height="241" viewBox="0 0 343 241" fill="none" xmlns="http://www.w3.org/2000/svg">
<g filter="url(#filter0_d_22_599)">
<rect x="30" y="30.3833" width="223" height="120" rx="15" fill="white"/>
<path d="M49.75 73.3951C53.0628 67.6571 58.0028 63.0304 63.9452 60.0999C69.8875 57.1694 76.5655 56.0669 83.1345 56.9317C89.7034 57.7966 95.8685 60.5899 100.85 64.9585C105.831 69.3271 109.405 75.0748 111.12 81.4747C112.835 87.8746 112.614 94.6393 110.484 100.913C108.354 107.187 104.412 112.689 99.1553 116.722C93.8988 120.756 87.5643 123.14 80.9528 123.573C74.3413 124.007 67.7498 122.47 62.0118 119.157L64.245 115.289C69.218 118.16 74.9307 119.492 80.6607 119.117C86.3908 118.741 91.8808 116.675 96.4365 113.179C100.992 109.683 104.409 104.915 106.255 99.4777C108.101 94.0401 108.292 88.1773 106.806 82.6306C105.32 77.084 102.222 72.1026 97.9051 68.3164C93.5878 64.5302 88.2447 62.1093 82.5515 61.3598C76.8583 60.6103 71.0707 61.5658 65.9205 64.1056C60.7704 66.6453 56.489 70.6553 53.6179 75.6283L49.75 73.3951Z" fill="#CDFFDC"/>
<path d="M106.309 105.193C107.441 105.817 107.859 107.246 107.157 108.332C103.535 113.936 98.3096 118.346 92.1368 120.972C85.2439 123.904 77.5673 124.441 70.3332 122.498C63.0991 120.555 56.725 116.243 52.2291 110.252C47.7332 104.261 45.3749 96.9357 45.5311 89.4468C45.6872 81.9579 48.3487 74.7374 53.0905 68.9387C57.8322 63.1401 64.3805 59.0979 71.6893 57.4579C78.9981 55.8179 86.6457 56.6748 93.4104 59.8916C99.4683 62.7724 104.505 67.3969 107.891 73.1468C108.547 74.2608 108.069 75.6712 106.912 76.2478C105.755 76.8244 104.358 76.3479 103.689 75.2414C100.779 70.4254 96.5122 66.5506 91.3998 64.1195C85.5806 61.3523 79.0017 60.6151 72.7143 62.0259C66.4269 63.4367 60.7937 66.914 56.7146 71.9023C52.6356 76.8906 50.346 83.1021 50.2117 89.5444C50.0773 95.9867 52.106 102.288 55.9736 107.442C59.8412 112.596 65.3246 116.305 71.5477 117.977C77.7708 119.649 84.3747 119.186 90.3043 116.664C95.5135 114.448 99.9383 110.755 103.046 106.064C103.761 104.986 105.177 104.569 106.309 105.193Z" fill="#1CBD00"/>
<path d="M72.262 93.6451C71.322 93.6451 70.452 93.9751 69.762 94.5251C68.842 95.2551 68.262 96.3851 68.262 97.6451C68.262 98.3951 68.472 99.1051 68.842 99.7051C69.532 100.865 70.802 101.645 72.262 101.645C73.272 101.645 74.192 101.275 74.892 100.645C75.202 100.385 75.472 100.065 75.682 99.7051C76.052 99.1051 76.262 98.3951 76.262 97.6451C76.262 95.4351 74.472 93.6451 72.262 93.6451ZM74.332 97.2151L72.202 99.1851C72.062 99.3151 71.872 99.3851 71.692 99.3851C71.502 99.3851 71.312 99.3151 71.162 99.1651L70.172 98.1751C69.882 97.8851 69.882 97.4051 70.172 97.1151C70.462 96.8251 70.942 96.8251 71.232 97.1151L71.712 97.5951L73.312 96.1151C73.612 95.8351 74.092 95.8551 74.372 96.1551C74.652 96.4551 74.632 96.9351 74.332 97.2151Z" fill="#1CBD00"/>
<path d="M82.112 82.5952V86.3952H80.612V82.5952C80.612 82.3252 80.372 82.1952 80.212 82.1952C80.162 82.1952 80.112 82.2052 80.062 82.2252L72.132 85.2152C71.602 85.4152 71.262 85.9152 71.262 86.4852V87.1552C70.352 87.8352 69.762 88.9252 69.762 90.1552V86.4852C69.762 85.2952 70.492 84.2352 71.602 83.8152L79.542 80.8152C79.762 80.7352 79.992 80.6952 80.212 80.6952C81.212 80.6952 82.112 81.5052 82.112 82.5952Z" fill="#1CBD00"/>
<path d="M88.7619 93.1451V94.1451C88.7619 94.4151 88.5519 94.6351 88.2719 94.6451H86.8119C86.2819 94.6451 85.8019 94.2551 85.7619 93.7351C85.7319 93.4251 85.8519 93.1351 86.0519 92.9351C86.2319 92.7451 86.4819 92.6451 86.7519 92.6451H88.2619C88.5519 92.6551 88.7619 92.8751 88.7619 93.1451Z" fill="#1CBD00"/>
<path d="M86.742 91.5951H87.762C88.312 91.5951 88.762 91.1451 88.762 90.5951V90.1551C88.762 88.0851 87.072 86.3951 85.002 86.3951H73.522C72.672 86.3951 71.892 86.6751 71.262 87.1551C70.352 87.8351 69.762 88.9251 69.762 90.1551V91.9351C69.762 92.3151 70.162 92.5551 70.522 92.4351C71.082 92.2451 71.672 92.1451 72.262 92.1451C75.292 92.1451 77.762 94.6151 77.762 97.6451C77.762 98.3651 77.572 99.1551 77.272 99.8551C77.112 100.215 77.362 100.645 77.752 100.645H85.002C87.072 100.645 88.762 98.9551 88.762 96.8851V96.6951C88.762 96.1451 88.312 95.6951 87.762 95.6951H86.892C85.932 95.6951 85.012 95.1051 84.762 94.1751C84.562 93.4151 84.802 92.6751 85.302 92.1951C85.672 91.8151 86.182 91.5951 86.742 91.5951ZM81.262 91.3951H76.262C75.852 91.3951 75.512 91.0551 75.512 90.6451C75.512 90.2351 75.852 89.8951 76.262 89.8951H81.262C81.672 89.8951 82.012 90.2351 82.012 90.6451C82.012 91.0551 81.672 91.3951 81.262 91.3951Z" fill="#1CBD00"/>
<path d="M139.488 75.6451H147.616V74.3171H140.864V70.5251H147.088V69.2291H140.864V65.7251H147.36V64.4451H139.488V75.6451ZM148.678 75.6131V75.6451H150.134L152.374 72.4451L154.598 75.6451H156.102V75.6131L153.206 71.5971L155.894 67.7891V67.7411H154.39L152.374 70.7331L150.326 67.7411H148.87V67.7891L151.526 71.5971L148.678 75.6131ZM157.544 79.3731H158.824V74.2211C159.448 75.3411 160.696 75.8211 161.816 75.8211C164.184 75.8211 165.832 74.2051 165.832 71.7091C165.832 69.2771 164.168 67.6771 161.896 67.6291C160.648 67.6291 159.48 68.2371 158.856 69.2931L158.792 67.7731H157.544V79.3731ZM161.736 74.5891C160.136 74.5731 158.968 73.3571 158.968 71.7411C158.968 70.1251 160.088 68.9091 161.736 68.9091C163.352 68.9091 164.52 69.9651 164.52 71.7411C164.52 73.5171 163.32 74.5891 161.736 74.5891ZM174.819 74.3811L173.939 73.5811C173.411 74.2211 172.323 74.5731 171.427 74.5731C169.907 74.5731 168.707 73.6611 168.563 72.2051H175.283C175.587 69.0531 173.747 67.5651 171.331 67.5651C168.947 67.5651 167.235 69.2771 167.235 71.6611C167.235 74.1731 168.947 75.7891 171.395 75.7891C172.627 75.7891 174.003 75.3251 174.803 74.3811H174.819ZM174.035 71.1011H168.563C168.787 69.5811 169.987 68.7491 171.363 68.7491C172.915 68.7491 173.971 69.5811 174.035 71.1171V71.1011ZM177.106 67.7411V75.6451H178.402V71.4051C178.402 69.9811 179.394 68.8451 180.834 68.8291C182.338 68.8291 183.234 69.7731 183.234 71.2931V75.6451H184.546V71.2771C184.546 68.9571 183.074 67.6131 181.074 67.6131C180.018 67.6131 179.058 68.0451 178.37 68.9891L178.306 67.7251H177.106V67.7411ZM191.929 69.4851L192.681 68.6211C191.833 67.8531 190.857 67.5651 189.673 67.5651C188.153 67.5491 186.457 68.2051 186.473 69.8851C186.473 71.5651 188.105 71.9651 189.625 72.1571C190.841 72.3011 191.769 72.5571 191.753 73.4211C191.721 74.3811 190.617 74.6531 189.753 74.6531C188.777 74.6531 187.641 74.3011 186.937 73.4371L186.185 74.3491C187.081 75.4691 188.393 75.8371 189.721 75.8371C191.497 75.8371 193.001 75.0531 193.033 73.4691C193.065 71.5171 191.145 71.2291 189.705 71.0531C188.713 70.9411 187.753 70.7011 187.737 69.8851C187.721 69.1011 188.601 68.7171 189.689 68.7331C190.505 68.7331 191.225 68.8771 191.913 69.5011L191.929 69.4851ZM201.913 74.3811L201.033 73.5811C200.505 74.2211 199.417 74.5731 198.521 74.5731C197.001 74.5731 195.801 73.6611 195.657 72.2051H202.377C202.681 69.0531 200.841 67.5651 198.425 67.5651C196.041 67.5651 194.329 69.2771 194.329 71.6611C194.329 74.1731 196.041 75.7891 198.489 75.7891C199.721 75.7891 201.097 75.3251 201.897 74.3811H201.913ZM201.129 71.1011H195.657C195.881 69.5811 197.081 68.7491 198.457 68.7491C200.009 68.7491 201.065 69.5811 201.129 71.1171V71.1011Z" fill="black"/>
<path d="M144.44 105.525C145.46 105.525 146.46 105.525 147.48 105.525V107.545C147.48 108.965 145.5 109.465 144.56 109.465C143.1 109.465 141.64 108.885 141.64 107.405C141.64 106.565 142.5 105.525 144.44 105.525ZM149.98 105.525H151.14V103.445C148.96 103.445 146.76 103.445 144.58 103.445C143.64 103.445 141.88 103.045 141.88 101.625C141.86 100.805 142.54 99.6651 144.6 99.6651C146.02 99.6651 147.28 100.105 147.28 101.385H149.78C149.76 98.3651 147.1 97.4251 144.66 97.4251C142.16 97.4251 139.34 98.6451 139.32 101.625C139.32 102.725 139.94 104.065 141.2 104.465C139.9 104.905 139.04 106.205 139.04 107.385C139.06 110.845 141.54 111.825 144.6 111.825C146.08 111.825 147.68 111.365 148.6 109.865C149.04 111.465 150.2 111.705 151.24 111.705V109.085C150.34 109.085 149.98 108.385 149.98 107.565V105.525ZM156.018 101.705C156.078 100.305 157.658 99.7451 159.198 99.7451C160.818 99.8051 162.018 100.305 162.018 101.845C162.018 103.465 160.078 103.785 159.018 103.785C156.258 103.785 153.338 104.745 153.338 107.965C153.338 109.205 153.338 110.425 153.338 111.645H164.678V109.185H155.978V107.985C155.978 106.465 157.858 106.165 159.018 106.165C161.958 106.165 164.638 105.345 164.638 101.785C164.638 98.5051 161.818 97.4651 159.198 97.4651C156.518 97.4651 153.658 98.4051 153.398 101.705H156.018ZM172.613 97.6651L166.313 106.305L166.553 108.985H174.033V111.645H176.633V108.985H178.273V106.425H176.633V97.6651H172.613ZM169.293 106.425L174.033 99.9451V106.425H169.293ZM190.632 97.6651H180.492C180.492 100.205 180.492 102.545 180.492 105.065H185.792C187.232 105.065 188.812 105.525 188.792 107.105C188.792 108.765 187.172 109.365 185.892 109.365C184.572 109.365 182.812 108.965 182.812 107.425H180.192C180.212 110.705 182.852 111.805 185.932 111.805C188.752 111.805 191.412 110.285 191.412 107.105C191.432 103.825 188.772 102.605 185.792 102.605H183.072V100.145H190.632V97.6651ZM193.357 110.385C193.357 112.285 196.237 112.285 196.237 110.385C196.237 108.485 193.357 108.485 193.357 110.385ZM201.016 103.565C201.016 98.5051 207.816 98.5651 207.816 103.565V105.725C207.816 110.805 201.016 110.805 201.016 105.725V103.565ZM198.396 105.725C198.396 114.085 210.436 114.065 210.436 105.725V103.565C210.436 95.2251 198.396 95.2051 198.396 103.565V105.725ZM215.216 103.565C215.216 98.5051 222.016 98.5651 222.016 103.565V105.725C222.016 110.805 215.216 110.805 215.216 105.725V103.565ZM212.596 105.725C212.596 114.085 224.636 114.065 224.636 105.725V103.565C224.636 95.2251 212.596 95.2051 212.596 103.565V105.725Z" fill="black"/>
</g>
<defs>
<filter id="filter0_d_22_599" x="0" y="0.383301" width="343" height="240" filterUnits="userSpaceOnUse" color-interpolation-filters="sRGB">
<feFlood flood-opacity="0" result="BackgroundImageFix"/>
<feColorMatrix in="SourceAlpha" type="matrix" values="0 0 0 0 0 0 0 0 0 0 0 0 0 0 0 0 0 0 127 0" result="hardAlpha"/>
<feOffset dx="30" dy="30"/>
<feGaussianBlur stdDeviation="30"/>
<feComposite in2="hardAlpha" operator="out"/>
<feColorMatrix type="matrix" values="0 0 0 0 0 0 0 0 0 0 0 0 0 0 0 0 0 0 0.25 0"/>
<feBlend mode="normal" in2="BackgroundImageFix" result="effect1_dropShadow_22_599"/>
<feBlend mode="normal" in="SourceGraphic" in2="effect1_dropShadow_22_599" result="shape"/>
</filter>
</defs>
</svg>
