<svg width="108" height="74" viewBox="0 0 108 74" fill="none" xmlns="http://www.w3.org/2000/svg">
<g clip-path="url(#clip0_22_750)">
<path d="M8.43011 46.05C6.93315 45.7121 5.36692 45.8698 3.96734 46.4993C2.56776 47.1287 1.41059 48.1959 0.670098 49.54C0.2213 50.4656 -0.00770291 51.4823 0.000969883 52.5109C0.00964267 53.5394 0.255745 54.5522 0.720086 55.47C0.474227 56.5829 0.679181 57.7479 1.29009 58.71C3.00009 61.35 6.7401 61.51 9.3601 60.3C10.8446 59.6353 12.0841 58.5232 12.9054 57.1193C13.7266 55.7153 14.0884 54.0897 13.9401 52.47C13.8064 50.9588 13.2032 49.5272 12.2151 48.376C11.2271 47.2247 9.90358 46.4114 8.43011 46.05Z" fill="#E42EB1"/>
<path d="M33.1099 10.22C31.3125 10.8924 29.7267 12.0315 28.5157 13.5202C27.3047 15.0089 26.5123 16.7934 26.2199 18.69C25.083 21.0648 24.9285 23.7921 25.7899 26.28C27.8999 32.34 35.0199 35.1 40.8899 33.07C46.9599 30.97 49.9899 24.14 48.2299 18.07C46.3999 11.83 39.3399 7.92003 33.1099 10.22Z" fill="#FFB727"/>
<path d="M43.06 47.59C42.5136 47.188 41.8581 46.9614 41.18 46.94C40.3973 46.9036 39.6232 47.1172 38.97 47.55C38.7375 47.4699 38.4893 47.4463 38.2459 47.4811C38.0025 47.5158 37.7708 47.608 37.57 47.75C36.6842 48.4149 36.0869 49.394 35.9009 50.4858C35.7149 51.5777 35.9543 52.6993 36.57 53.62C36.9144 54.132 37.3674 54.5617 37.8967 54.8788C38.426 55.1958 39.0186 55.3924 39.6324 55.4544C40.2463 55.5165 40.8663 55.4425 41.4483 55.2378C42.0304 55.0331 42.5601 54.7027 43 54.27C43.8073 53.8271 44.443 53.1264 44.8055 52.28C45.168 51.4335 45.2365 50.49 45 49.6C44.851 49.1394 44.5988 48.7189 44.2626 48.3706C43.9264 48.0223 43.5151 47.7553 43.06 47.59Z" fill="#17434C"/>
<path d="M64.8799 28.51C64.5075 28.6268 64.1673 28.8285 63.8862 29.0992C63.6051 29.37 63.3907 29.7023 63.2599 30.07C62.8092 30.5414 62.5243 31.1469 62.4486 31.7947C62.3728 32.4424 62.5101 33.0973 62.8399 33.66C63.0637 34.0316 63.4023 34.3202 63.8045 34.4826C64.2067 34.6449 64.6509 34.6721 65.0699 34.56C65.9968 34.3206 66.7934 33.7285 67.2899 32.91C67.3499 32.81 67.3999 32.7 67.4499 32.6C67.6799 32.01 67.7399 31.87 67.6399 32.19C67.5399 32.51 67.5899 32.35 67.7199 32.03C67.8677 31.6301 67.9229 31.2018 67.8814 30.7774C67.8398 30.3531 67.7025 29.9437 67.4799 29.58C67.2246 29.1404 66.8315 28.7973 66.3614 28.6039C65.8914 28.4104 65.3706 28.3774 64.8799 28.51Z" fill="#17434C"/>
<path d="M95.63 44.86C87.99 41.73 79.01 43.77 76.34 50.86C74.4537 53.4313 73.5019 56.5696 73.6419 59.7555C73.7819 62.9414 75.0055 65.9841 77.11 68.38C84.31 76.64 97.7 75.18 104.5 67.17C112.19 58.16 104.73 48.58 95.63 44.86Z" fill="#134148"/>
<path d="M97.2901 13.36C98.1147 12.5346 98.7489 11.5388 99.148 10.4424C99.5472 9.346 99.7017 8.17558 99.6007 7.01318C99.4997 5.85078 99.1456 4.72455 98.5634 3.71344C97.9811 2.70232 97.1847 1.83081 96.2301 1.16C91.9901 -1.7 85.9301 1.05 85.8801 6.16C85.4721 7.04442 85.2751 8.01149 85.3046 8.98501C85.3341 9.95853 85.5893 10.9119 86.0501 11.77C86.6215 12.6894 87.3876 13.4722 88.2945 14.0633C89.2013 14.6543 90.2268 15.0392 91.2986 15.1908C92.3704 15.3424 93.4624 15.2571 94.4976 14.9407C95.5329 14.6244 96.4861 14.0848 97.2901 13.36Z" fill="#00D4FF"/>
</g>
<defs>
<clipPath id="clip0_22_750">
<rect width="107.7" height="73.95" fill="white"/>
</clipPath>
</defs>
</svg>
