<svg width="100" height="100" viewBox="0 0 100 100" fill="none" xmlns="http://www.w3.org/2000/svg">
<rect x="0.5" y="0.5" width="99" height="99" rx="31.5" fill="#124851" stroke="#1EB2BE"/>
<path d="M50 53.7684C52.0812 53.7684 53.7684 52.0812 53.7684 50C53.7684 47.9188 52.0812 46.2317 50 46.2317C47.9188 46.2317 46.2317 47.9188 46.2317 50C46.2317 52.0812 47.9188 53.7684 50 53.7684Z" fill="#1EB2BE"/>
<path d="M62.6667 60.6875C62.4134 60.6875 62.1759 60.6083 61.9542 60.45C61.4317 60.0541 61.3209 59.3099 61.7167 58.7874C63.6325 56.2383 64.6459 53.1983 64.6459 50C64.6459 46.8016 63.6325 43.7616 61.7167 41.2125C61.3209 40.69 61.4317 39.9458 61.9542 39.5499C62.4767 39.1541 63.2209 39.2649 63.6167 39.7874C65.8492 42.7483 67.0209 46.2791 67.0209 50C67.0209 53.7208 65.8492 57.2516 63.6167 60.2125C63.3792 60.5291 63.0309 60.6875 62.6667 60.6875Z" fill="#1EB2BE"/>
<path d="M37.3334 60.6875C36.9692 60.6875 36.6209 60.5291 36.3834 60.2125C34.1509 57.2516 32.9792 53.7208 32.9792 50C32.9792 46.2791 34.1509 42.7483 36.3834 39.7874C36.7792 39.2649 37.5234 39.1541 38.0459 39.5499C38.5684 39.9458 38.6793 40.69 38.2834 41.2125C36.3676 43.7616 35.3542 46.8016 35.3542 50C35.3542 53.1983 36.3676 56.2383 38.2834 58.7874C38.6793 59.3099 38.5684 60.0541 38.0459 60.45C37.8401 60.6083 37.5867 60.6875 37.3334 60.6875Z" fill="#1EB2BE"/>
<path d="M57.6 56.8875C57.3467 56.8875 57.1092 56.8084 56.8875 56.65C56.365 56.2542 56.2542 55.51 56.65 54.9875C57.7425 53.5467 58.3125 51.8208 58.3125 50C58.3125 48.1792 57.7425 46.4533 56.65 45.0125C56.2542 44.49 56.365 43.7458 56.8875 43.35C57.41 42.9541 58.1542 43.065 58.55 43.5875C59.9433 45.4559 60.6875 47.6725 60.6875 50C60.6875 52.3275 59.9433 54.56 58.55 56.4125C58.3125 56.7291 57.9642 56.8875 57.6 56.8875Z" fill="#1EB2BE"/>
<path d="M42.4 56.8875C42.0359 56.8875 41.6875 56.7291 41.45 56.4125C40.0567 54.5441 39.3125 52.3275 39.3125 50C39.3125 47.6725 40.0567 45.44 41.45 43.5875C41.8458 43.065 42.59 42.9541 43.1125 43.35C43.635 43.7458 43.7458 44.49 43.35 45.0125C42.2575 46.4533 41.6875 48.1792 41.6875 50C41.6875 51.8208 42.2575 53.5467 43.35 54.9875C43.7458 55.51 43.635 56.2542 43.1125 56.65C42.9067 56.8084 42.6534 56.8875 42.4 56.8875Z" fill="#1EB2BE"/>
</svg>
