<svg width="69" height="70" viewBox="0 0 69 70" fill="none" xmlns="http://www.w3.org/2000/svg">
<circle cx="34.5" cy="34.9496" r="34.5" fill="#2B666C"/>
<g clip-path="url(#clip0_525_121)">
<path d="M39.479 20.9507L28.3149 33.7559C27.7883 34.3638 28.2176 35.3039 29.0197 35.3039H32.2766H55.1881H56.4358C57.2379 35.3039 57.6673 34.3557 57.1406 33.7559L45.9684 20.9507C44.259 18.9813 41.1965 18.9813 39.479 20.9507Z" fill="url(#paint0_linear_525_121)"/>
<path d="M55.1803 39.1454V44.5268C55.1803 48.1415 52.2474 51.0753 48.6341 51.0753H36.8137C33.2004 51.0753 30.2676 48.1415 30.2676 44.5268V39.1454H55.1803Z" fill="url(#paint1_linear_525_121)"/>
</g>
<g filter="url(#filter0_b_525_121)">
<path d="M18.8536 42.0015C17.4931 38.6318 17.6013 34.8471 19.1524 31.5608L19.3647 31.1108C22.2918 24.9088 29.6617 22.2132 35.8995 25.0631C38.8154 26.3953 41.1097 28.7947 42.3099 31.7673L43.0754 33.6631C45.7203 40.2136 42.5542 47.6678 36.0037 50.3127C29.4533 52.9576 21.999 49.7915 19.3541 43.2411L18.8536 42.0015Z" fill="url(#paint2_linear_525_121)"/>
<path d="M22.6313 40.4762C21.6961 38.16 21.7705 35.5585 22.8367 33.2996L19.1524 31.5608L22.8367 33.2996L23.049 32.8496C25.0242 28.6646 29.9973 26.8456 34.2066 28.7687C36.1742 29.6677 37.7223 31.2867 38.5322 33.2927L39.2977 35.1884C41.1001 39.6525 38.9425 44.7326 34.4784 46.535C30.0143 48.3375 24.9343 46.1798 23.1318 41.7157L22.6313 40.4762Z" stroke="url(#paint3_linear_525_121)" stroke-opacity="0.4" stroke-width="8.14803"/>
</g>
<circle cx="29.7353" cy="34.098" r="2.41082" transform="rotate(-21.9874 29.7353 34.098)" fill="url(#paint4_linear_525_121)"/>
<circle cx="30.7828" cy="30.1036" r="0.648276" transform="rotate(-21.9874 30.7828 30.1036)" fill="url(#paint5_linear_525_121)"/>
<line x1="34.7679" y1="35.0628" x2="26.7669" y2="37.4803" stroke="url(#paint6_linear_525_121)" stroke-width="18.1067" stroke-linecap="round"/>
<defs>
<filter id="filter0_b_525_121" x="-92.5452" y="-86.5236" width="247.005" height="248.221" filterUnits="userSpaceOnUse" color-interpolation-filters="sRGB">
<feFlood flood-opacity="0" result="BackgroundImageFix"/>
<feGaussianBlur in="BackgroundImageFix" stdDeviation="55.2255"/>
<feComposite in2="SourceAlpha" operator="in" result="effect1_backgroundBlur_525_121"/>
<feBlend mode="normal" in="SourceGraphic" in2="effect1_backgroundBlur_525_121" result="shape"/>
</filter>
<linearGradient id="paint0_linear_525_121" x1="36.5228" y1="23.4167" x2="50.5978" y2="34.7849" gradientUnits="userSpaceOnUse">
<stop stop-color="#FF9BCD"/>
<stop offset="0.90859" stop-color="#F63395"/>
</linearGradient>
<linearGradient id="paint1_linear_525_121" x1="42.7239" y1="39.1454" x2="55.0834" y2="48.5504" gradientUnits="userSpaceOnUse">
<stop stop-color="#FF75BA"/>
<stop offset="1" stop-color="#F63395"/>
</linearGradient>
<linearGradient id="paint2_linear_525_121" x1="13.5293" y1="28.815" x2="39.2866" y2="43.2424" gradientUnits="userSpaceOnUse">
<stop stop-color="white" stop-opacity="0.36"/>
<stop offset="1" stop-color="white" stop-opacity="0.04"/>
</linearGradient>
<linearGradient id="paint3_linear_525_121" x1="23.8606" y1="20.2385" x2="36.0037" y2="50.3127" gradientUnits="userSpaceOnUse">
<stop stop-color="white" stop-opacity="0.78"/>
<stop offset="1" stop-color="white" stop-opacity="0"/>
</linearGradient>
<linearGradient id="paint4_linear_525_121" x1="29.7353" y1="31.6872" x2="29.7353" y2="36.5088" gradientUnits="userSpaceOnUse">
<stop stop-color="white" stop-opacity="0.16"/>
<stop offset="1" stop-color="white" stop-opacity="0.75"/>
</linearGradient>
<linearGradient id="paint5_linear_525_121" x1="30.7828" y1="29.4554" x2="30.7828" y2="30.7519" gradientUnits="userSpaceOnUse">
<stop stop-color="white"/>
<stop offset="1" stop-color="white" stop-opacity="0.75"/>
</linearGradient>
<linearGradient id="paint6_linear_525_121" x1="27.6802" y1="46.6619" x2="39.3326" y2="43.1412" gradientUnits="userSpaceOnUse">
<stop stop-color="white"/>
<stop offset="0.0001" stop-color="white" stop-opacity="0.4"/>
<stop offset="1" stop-color="white" stop-opacity="0"/>
</linearGradient>
<clipPath id="clip0_525_121">
<rect width="29.2876" height="31.5998" fill="white" transform="translate(28.0801 19.4756)"/>
</clipPath>
</defs>
</svg>
