<svg width="278" height="278" viewBox="0 0 278 278" fill="none" xmlns="http://www.w3.org/2000/svg">
<g filter="url(#filter0_d_22_766)">
<rect x="56.3389" y="69.6011" width="136.205" height="136.205" rx="20" transform="rotate(-14 56.3389 69.6011)" fill="#FEFEF6"/>
</g>
<g clip-path="url(#clip0_22_766)">
<path d="M155.95 99.6213C155.451 95.8826 154.083 93.4785 151.427 91.6373C148.245 89.4333 143.474 89.3386 137.748 90.7662L121.135 94.9084C120.569 95.0497 120.073 95.3879 119.734 95.8624C119.396 96.3368 119.237 96.9165 119.288 97.4972L123.306 143.096C123.324 143.308 123.388 143.513 123.493 143.698C123.599 143.883 123.743 144.042 123.916 144.166C124.089 144.289 124.287 144.374 124.496 144.413C124.705 144.453 124.92 144.447 125.126 144.395L134.486 142.062L134.884 146.58C134.911 146.896 135.007 147.203 135.165 147.478C135.323 147.754 135.538 147.992 135.797 148.177C136.055 148.361 136.351 148.487 136.663 148.547C136.975 148.606 137.296 148.597 137.604 148.52L146.25 146.364C147.707 146.001 148.681 144.64 148.559 143.152L148.533 142.689L147.587 131.949L147.55 131.366L147.547 131.342C147.521 131.049 147.6 130.757 147.771 130.518C147.942 130.279 148.193 130.109 148.478 130.039L149.768 129.717C154.068 128.645 157.787 126.794 160.358 123.794C161.416 122.556 162.265 121.143 162.879 119.54C163.913 116.939 164.301 114.125 164.009 111.341C163.776 106.905 162.455 103.23 159.402 101.112C158.466 100.477 157.422 100.017 156.322 99.7523L155.951 99.6247L155.95 99.6213ZM134.746 123.33C135.039 123.07 135.39 122.885 135.77 122.79L140.646 121.574C150.223 119.186 156.75 113.432 156.136 101.638L156.132 101.581C156.974 101.819 157.719 102.16 158.364 102.605C160.746 104.258 161.97 107.243 162.187 111.427C162.446 116.402 161.199 119.995 158.973 122.595C156.732 125.21 153.408 126.923 149.329 127.94L148.038 128.262C147.333 128.436 146.713 128.857 146.29 129.448C145.867 130.039 145.668 130.761 145.729 131.485L145.766 132.067L146.713 142.808L146.741 143.27L146.741 143.284C146.766 143.576 146.686 143.867 146.515 144.106C146.344 144.344 146.094 144.514 145.81 144.584L137.164 146.74C137.111 146.753 137.057 146.755 137.004 146.745C136.951 146.735 136.901 146.713 136.857 146.682C136.813 146.651 136.777 146.61 136.75 146.564C136.724 146.517 136.707 146.465 136.703 146.411L136.292 141.752L134.746 123.33Z" fill="#133E44"/>
</g>
<defs>
<filter id="filter0_d_22_766" x="0.578613" y="0.889786" width="276.631" height="276.631" filterUnits="userSpaceOnUse" color-interpolation-filters="sRGB">
<feFlood flood-opacity="0" result="BackgroundImageFix"/>
<feColorMatrix in="SourceAlpha" type="matrix" values="0 0 0 0 0 0 0 0 0 0 0 0 0 0 0 0 0 0 127 0" result="hardAlpha"/>
<feOffset dy="20"/>
<feGaussianBlur stdDeviation="30"/>
<feComposite in2="hardAlpha" operator="out"/>
<feColorMatrix type="matrix" values="0 0 0 0 0 0 0 0 0 0 0 0 0 0 0 0 0 0 0.15 0"/>
<feBlend mode="normal" in2="BackgroundImageFix" result="effect1_dropShadow_22_766"/>
<feBlend mode="normal" in="SourceGraphic" in2="effect1_dropShadow_22_766" result="shape"/>
</filter>
<clipPath id="clip0_22_766">
<rect width="56" height="56" fill="white" transform="translate(105.058 98.9168) rotate(-14)"/>
</clipPath>
</defs>
</svg>
