<svg width="100" height="111" viewBox="0 0 100 111" fill="none" xmlns="http://www.w3.org/2000/svg">
<rect width="100" height="111" rx="15" fill="#FFDCCE"/>
<path d="M44.875 40.0833C40.8359 40.0833 37.5521 43.3671 37.5521 47.4063C37.5521 51.3683 40.6509 54.575 44.69 54.7138C44.8134 54.6983 44.9367 54.6983 45.0292 54.7138C45.06 54.7138 45.0755 54.7138 45.1063 54.7138C45.1217 54.7138 45.1217 54.7138 45.1371 54.7138C49.0838 54.575 52.1825 51.3683 52.198 47.4063C52.198 43.3671 48.9142 40.0833 44.875 40.0833Z" fill="#FF8556"/>
<path d="M52.7066 58.8146C48.4054 55.9471 41.3908 55.9471 37.0587 58.8146C35.1008 60.125 34.0216 61.8979 34.0216 63.7942C34.0216 65.6904 35.1008 67.4479 37.0433 68.7429C39.2016 70.1921 42.0383 70.9167 44.8749 70.9167C47.7116 70.9167 50.5483 70.1921 52.7066 68.7429C54.6491 67.4325 55.7283 65.675 55.7283 63.7633C55.7129 61.8671 54.6491 60.1096 52.7066 58.8146Z" fill="#FF8556"/>
<path d="M61.8179 48.3158C62.0646 51.3067 59.9371 53.9275 56.9925 54.2821C56.9771 54.2821 56.9771 54.2821 56.9617 54.2821H56.9154C56.8229 54.2821 56.7304 54.2821 56.6533 54.3129C55.1579 54.39 53.7858 53.9121 52.7529 53.0333C54.3408 51.615 55.2504 49.4875 55.0654 47.175C54.9575 45.9263 54.5258 44.7854 53.8783 43.8142C54.4642 43.5213 55.1425 43.3363 55.8363 43.2746C58.8579 43.0125 61.5558 45.2633 61.8179 48.3158Z" fill="#FF8556"/>
<path d="M64.9012 62.5763C64.7779 64.0717 63.822 65.3667 62.2187 66.2454C60.677 67.0933 58.7345 67.4942 56.8075 67.4479C57.9175 66.4458 58.565 65.1971 58.6883 63.8713C58.8425 61.9596 57.9329 60.125 56.1137 58.6604C55.0808 57.8433 53.8783 57.1958 52.5679 56.7179C55.975 55.7313 60.2608 56.3942 62.897 58.5217C64.3154 59.6625 65.04 61.0963 64.9012 62.5763Z" fill="#FF8556"/>
</svg>
