<svg width="126" height="143" viewBox="0 0 126 143" fill="none" xmlns="http://www.w3.org/2000/svg">
<rect width="126" height="143" rx="15" fill="#CDFFDC"/>
<path d="M77.8067 81.4767L75.0221 82.4163C74.2534 82.6725 73.6384 83.2704 73.3821 84.0563L72.4425 86.8408C71.6396 89.2496 68.2571 89.1983 67.5054 86.7896L64.345 76.625C63.73 74.6092 65.5921 72.73 67.5909 73.3621L77.7725 76.5225C80.1642 77.2742 80.1984 80.6738 77.8067 81.4767Z" fill="#131523"/>
<path d="M77.875 70.6459C77.875 71.3804 77.8238 72.115 77.7384 72.8325C77.67 73.345 77.1404 73.6525 76.645 73.4988L68.3596 70.9192C66.5146 70.3554 64.55 70.8338 63.1834 72.1834C61.8167 73.55 61.3213 75.5488 61.9021 77.3938L64.4646 85.645C64.6184 86.1404 64.2938 86.67 63.7813 86.7384C63.0638 86.8238 62.3634 86.875 61.6459 86.875C52.5234 86.875 45.1775 79.3754 45.4167 70.1846C45.6559 61.7113 52.7113 54.6559 61.1846 54.4167C70.3754 54.1775 77.875 61.5234 77.875 70.6459Z" fill="#131523"/>
</svg>
