<svg width="69" height="70" viewBox="0 0 69 70" fill="none" xmlns="http://www.w3.org/2000/svg">
<circle cx="34.5" cy="34.9496" r="34.5" fill="#2B666C"/>
<path d="M26.8989 19.2759C18.5603 19.2759 11.7979 26.2151 11.7979 34.7717C11.7979 37.3026 12.3941 39.6995 13.4476 41.8114L10.1726 48.0718C9.57642 49.2115 10.6218 50.5189 11.8224 50.1502L18.9441 47.9544C21.2554 49.4294 23.9751 50.2759 26.8989 50.2759C35.2376 50.2759 42 43.3367 42 34.7801C42 26.2151 35.2376 19.2759 26.8989 19.2759Z" fill="url(#paint0_linear_525_119)"/>
<g filter="url(#filter0_b_525_119)">
<path d="M43.6451 50.5149C52.244 47.7927 57.0083 38.6158 54.2863 30.0177C51.5644 21.4197 42.387 16.6564 33.788 19.3786C25.1891 22.1008 20.4248 31.2777 23.1468 39.8758C25.8687 48.4738 35.0461 53.2371 43.6451 50.5149Z" fill="url(#paint1_linear_525_119)"/>
<path d="M50.4023 31.2473C52.445 37.6999 48.8697 44.5876 42.4155 46.6309C35.9612 48.6741 29.0735 45.0988 27.0308 38.6462C24.9881 32.1936 28.5634 25.3059 35.0176 23.2626C41.4719 21.2194 48.3595 24.7947 50.4023 31.2473Z" stroke="url(#paint2_linear_525_119)" stroke-opacity="0.4" stroke-width="8.14803"/>
</g>
<circle cx="31.4929" cy="34.9467" r="2.03509" fill="url(#paint3_linear_525_119)"/>
<circle cx="38.7165" cy="34.9467" r="2.03509" fill="url(#paint4_linear_525_119)"/>
<circle cx="45.9404" cy="34.9467" r="2.03509" fill="url(#paint5_linear_525_119)"/>
<defs>
<filter id="filter0_b_525_119" x="-69.9634" y="-73.7317" width="217.36" height="217.357" filterUnits="userSpaceOnUse" color-interpolation-filters="sRGB">
<feFlood flood-opacity="0" result="BackgroundImageFix"/>
<feGaussianBlur in="BackgroundImageFix" stdDeviation="46.1721"/>
<feComposite in2="SourceAlpha" operator="in" result="effect1_backgroundBlur_525_119"/>
<feBlend mode="normal" in="SourceGraphic" in2="effect1_backgroundBlur_525_119" result="shape"/>
</filter>
<linearGradient id="paint0_linear_525_119" x1="13.7796" y1="26.3171" x2="35.6874" y2="47.6669" gradientUnits="userSpaceOnUse">
<stop stop-color="#8FFF00"/>
<stop offset="1" stop-color="#04AA5A"/>
</linearGradient>
<linearGradient id="paint1_linear_525_119" x1="35.4441" y1="30.7664" x2="43.8184" y2="47.515" gradientUnits="userSpaceOnUse">
<stop stop-color="white" stop-opacity="0.15"/>
<stop offset="1" stop-color="white" stop-opacity="0.12"/>
</linearGradient>
<linearGradient id="paint2_linear_525_119" x1="33.788" y1="19.3786" x2="43.6451" y2="50.5149" gradientUnits="userSpaceOnUse">
<stop stop-color="white"/>
<stop offset="1" stop-color="white" stop-opacity="0"/>
</linearGradient>
<linearGradient id="paint3_linear_525_119" x1="31.4929" y1="32.9116" x2="33.5279" y2="38.1355" gradientUnits="userSpaceOnUse">
<stop stop-color="white" stop-opacity="0.27"/>
<stop offset="1" stop-color="white" stop-opacity="0.49"/>
</linearGradient>
<linearGradient id="paint4_linear_525_119" x1="38.7165" y1="32.9116" x2="40.7516" y2="38.1355" gradientUnits="userSpaceOnUse">
<stop stop-color="white" stop-opacity="0.27"/>
<stop offset="1" stop-color="white" stop-opacity="0.49"/>
</linearGradient>
<linearGradient id="paint5_linear_525_119" x1="45.9404" y1="32.9116" x2="47.9755" y2="38.1355" gradientUnits="userSpaceOnUse">
<stop stop-color="white" stop-opacity="0.27"/>
<stop offset="1" stop-color="white" stop-opacity="0.49"/>
</linearGradient>
</defs>
</svg>
