<svg width="236" height="65" viewBox="0 0 236 65" fill="none" xmlns="http://www.w3.org/2000/svg">
<path d="M235.821 24.7482C235.821 26.4804 233.118 27.3171 232.098 25.8711C231.778 25.4014 231.435 24.961 231.092 24.5059C230.8 24.4914 230.513 24.4189 230.25 24.2928C229.986 24.1667 229.751 23.9895 229.558 23.7719C228.814 23.0379 228.069 22.304 227.324 21.57C217.87 34.1713 204.4 43.2819 189.07 47.4432C174.921 51.2086 156.504 50.9591 142.192 44.3091C133.65 53.0363 121.914 58.8128 110.17 62.0056C92.2975 66.872 70.2101 67.0555 56.4036 52.9849L56.1281 52.6913C52.5536 53.3665 49.128 53.8363 46.1493 54.1593C28.53 56.2511 7.20211 52.3316 0.112681 34.0258C-0.579878 32.2349 2.1159 30.9651 2.86803 32.7634C10.65 51.3407 33.0502 52.5812 50.394 49.7773L53.3727 49.2856C45.7918 38.2757 45.9259 22.0911 58.0047 13.9291C68.9144 6.54513 87.0922 13.0263 87.7103 26.9868C88.3582 41.6667 74.6038 48.346 61.11 51.5976C66.5166 56.0974 73.0671 59.0566 80.0549 60.156C98.9551 63.092 123.708 56.6695 138.215 42.2319C134.548 40.1233 131.255 37.4382 128.467 34.2827C118.652 23.0453 120.328 0.944763 138.632 0.0272675C157.197 -0.9049 155.939 22.2966 150.085 33.468C148.784 35.9257 147.256 38.2599 145.52 40.4409C149.041 41.9172 152.696 43.0577 156.437 43.8467C182.226 49.2635 208.394 38.7087 223.608 18.4798C221.583 16.9524 219.453 15.5643 217.234 14.3254C217.011 14.2035 216.818 14.0357 216.668 13.8337C216.323 13.8191 215.992 13.695 215.724 13.4798C215.457 13.2646 215.267 12.97 215.183 12.6398C215.099 12.3096 215.126 11.9615 215.26 11.6476C215.393 11.3336 215.626 11.0706 215.923 10.8977C219.84 8.69573 223.809 6.60384 227.838 4.556L228.024 4.36515C228.451 3.91687 229.04 3.65301 229.663 3.63116C230.814 3.04396 231.971 2.4592 233.133 1.8769C234.622 1.14291 236.015 2.43475 236 3.86604C235.948 10.8316 235.866 17.7899 235.821 24.7482ZM75.2591 42.0777C82.4751 37.0866 87.3826 26.6272 80.2783 19.4634C69.2346 8.29202 53.4174 18.5239 52.3302 32.0294C52.1007 35.0077 52.4837 38.0011 53.4562 40.8301C54.4287 43.6591 55.9707 46.2654 57.9898 48.4928C64.1111 47.2964 70.2399 45.5495 75.2591 42.0777ZM148.782 25.1372C150.837 18.2229 150.875 6.29556 141.514 4.65142C134.521 3.42565 128.11 8.66634 126.948 15.3163C125.019 26.1501 132.444 33.8056 141.581 38.606C144.85 34.6228 147.297 30.0471 148.782 25.1372Z" fill="#FEC85B"/>
</svg>
