<svg width="11" height="6" viewBox="0 0 11 6" fill="none" xmlns="http://www.w3.org/2000/svg">
<path d="M5.84268 5.8583L10.8693 0.766689C10.9532 0.681733 11 0.568863 11 0.451489C11 0.334116 10.9532 0.221247 10.8693 0.136291L10.8636 0.130809C10.8229 0.0894813 10.774 0.0565729 10.7197 0.0340852C10.6654 0.0115976 10.607 9.19313e-07 10.5479 9.1415e-07C10.4888 9.08987e-07 10.4304 0.0115976 10.3761 0.0340852C10.3218 0.0565729 10.2729 0.0894813 10.2322 0.130809L5.49905 4.92549L0.767806 0.130808C0.727127 0.0894805 0.67816 0.056572 0.623888 0.0340844C0.569614 0.0115967 0.511169 3.67115e-08 0.452105 3.1548e-08C0.393042 2.63846e-08 0.334596 0.0115967 0.280324 0.0340843C0.226051 0.056572 0.177084 0.0894804 0.136405 0.130808L0.130724 0.13629C0.0468116 0.221246 -4.58347e-07 0.334115 -4.68608e-07 0.451488C-4.78869e-07 0.568862 0.0468116 0.681732 0.130724 0.766688L5.15732 5.8583C5.20152 5.90308 5.25469 5.93872 5.3136 5.96308C5.3725 5.98744 5.43592 6 5.5 6C5.56408 6 5.6275 5.98744 5.6864 5.96308C5.74531 5.93872 5.79847 5.90308 5.84268 5.8583Z" fill="white"/>
</svg>
