<svg width="258" height="243" viewBox="0 0 258 243" fill="none" xmlns="http://www.w3.org/2000/svg">
<g filter="url(#filter0_d_22_763)">
<rect y="59.344" width="136.205" height="136.205" rx="20" transform="rotate(-19 0 59.344)" fill="#FEFEF6"/>
</g>
<path d="M100.369 83.4316C98.2686 83.355 96.1849 83.6711 94.2162 84.365C87.8338 86.5626 84.4978 91.5173 86.1477 96.4126C87.3434 100.015 91.2827 100.92 94.1488 101.274C97.0903 101.64 98.1995 102.127 98.5709 103.232C99.132 104.913 97.3991 106.36 95.5442 106.999C92.9953 107.876 91.4737 107.98 89.0075 107.776L88.0785 107.657L89.1092 113.592C90.8964 113.741 93.8947 113.365 96.8002 112.422C103.586 110.085 106.857 105.176 105.119 99.9617C104.188 97.0761 101.687 95.5148 97.3773 94.9967C94.7317 94.6091 93.0721 94.3117 92.6666 93.1339C92.3075 92.0911 93.1165 90.566 95.6096 89.7075C97.2542 89.0937 99.0167 88.8554 100.781 89.0082L101.477 89.085L100.512 83.3401L100.369 83.4316ZM116.724 77.1251L111.737 78.842C110.186 79.3763 109.172 80.2304 109.055 82.0934L107.382 108.386L114.167 106.05L114.226 101.813L122.51 98.9697C123.009 99.7847 124.599 102.458 124.599 102.458L130.582 100.398L116.724 77.1251ZM74.1999 91.531L80.6661 89.3046L85.2585 115.782L78.8003 118.005L74.197 91.5226L74.1999 91.531ZM62.5457 111.009L64.4151 114.261L64.8466 94.9878L71.6957 92.6294L70.141 121.171L63.3079 123.524L50.4233 104.246C50.2125 103.928 49.8967 103.701 49.5397 103.611C47.1479 103.204 44.7277 103.103 42.333 103.311L42.2391 102.753L52.6464 99.1697C54.0788 98.7426 55.3771 98.8197 56.3055 100.285L62.5461 111.023L62.5417 111.01L62.5457 111.009ZM114.314 96.0449L114.475 88.1414C114.47 88.2283 114.507 86.5107 114.51 85.4566L115.699 87.4698L119.686 94.1905L114.309 96.042L114.31 96.0462L114.314 96.0449Z" fill="#2F9565"/>
<defs>
<filter id="filter0_d_22_763" x="5.41626" y="0.41629" width="252.296" height="242.296" filterUnits="userSpaceOnUse" color-interpolation-filters="sRGB">
<feFlood flood-opacity="0" result="BackgroundImageFix"/>
<feColorMatrix in="SourceAlpha" type="matrix" values="0 0 0 0 0 0 0 0 0 0 0 0 0 0 0 0 0 0 127 0" result="hardAlpha"/>
<feOffset dx="50" dy="20"/>
<feGaussianBlur stdDeviation="20"/>
<feComposite in2="hardAlpha" operator="out"/>
<feColorMatrix type="matrix" values="0 0 0 0 0 0 0 0 0 0 0 0 0 0 0 0 0 0 0.15 0"/>
<feBlend mode="normal" in2="BackgroundImageFix" result="effect1_dropShadow_22_763"/>
<feBlend mode="normal" in="SourceGraphic" in2="effect1_dropShadow_22_763" result="shape"/>
</filter>
</defs>
</svg>
