<svg width="325" height="206" viewBox="0 0 325 206" fill="none" xmlns="http://www.w3.org/2000/svg">
<rect width="105.672" height="105.672" rx="21.6783" transform="matrix(0.68264 -0.730755 0.68264 0.730755 220.145 188.474)" fill="url(#paint0_linear_1473_3)"/>
<rect width="167.528" height="167.528" rx="21.6783" transform="matrix(-0.68264 -0.730755 0.68264 -0.730755 83.9307 138.368)" fill="url(#paint1_linear_1473_3)"/>
<path d="M183.483 192.817C183.483 251.278 139.216 298.633 84.6556 298.633C30.0948 298.633 -14.1719 251.278 -14.1719 192.817C-14.1719 134.356 30.0948 87.0011 84.6556 87.0011C139.216 87.0011 183.483 134.356 183.483 192.817Z" stroke="#2D57C5" stroke-width="0.637597"/>
<path d="M159.343 192.817C159.343 237.006 125.884 272.791 84.6558 272.791C43.4271 272.791 9.96821 237.006 9.96821 192.817C9.96821 148.627 43.4271 112.843 84.6558 112.843C125.884 112.843 159.343 148.627 159.343 192.817Z" stroke="#2D57C5" stroke-width="0.637597"/>
<path d="M135.203 192.817C135.203 222.734 112.552 246.95 84.6559 246.95C56.7594 246.95 34.1083 222.734 34.1083 192.817C34.1083 162.899 56.7594 138.684 84.6559 138.684C112.552 138.684 135.203 162.899 135.203 192.817Z" stroke="#2D57C5" stroke-width="0.637597"/>
<path d="M339.694 25.5951C339.694 46.7378 323.689 63.8397 303.989 63.8397C284.29 63.8397 268.284 46.7378 268.284 25.5951C268.284 4.45242 284.29 -12.6495 303.989 -12.6495C323.689 -12.6495 339.694 4.45242 339.694 25.5951Z" stroke="#567EE3" stroke-width="0.637597"/>
<path d="M330.923 25.5952C330.923 41.5523 318.844 54.4504 303.989 54.4504C289.134 54.4504 277.055 41.5523 277.055 25.5952C277.055 9.63807 289.134 -3.26006 303.989 -3.26006C318.844 -3.26006 330.923 9.63807 330.923 25.5952Z" stroke="#567EE3" stroke-width="0.637597"/>
<path d="M322.152 25.5951C322.152 36.3666 314 45.061 303.989 45.061C293.978 45.061 285.826 36.3666 285.826 25.5951C285.826 14.8236 293.978 6.12922 303.989 6.12922C314 6.12922 322.152 14.8236 322.152 25.5951Z" stroke="#567EE3" stroke-width="0.637597"/>
<defs>
<linearGradient id="paint0_linear_1473_3" x1="52.836" y1="0" x2="52.836" y2="105.672" gradientUnits="userSpaceOnUse">
<stop stop-color="#587FE2"/>
<stop offset="1" stop-color="#587FE3"/>
</linearGradient>
<linearGradient id="paint1_linear_1473_3" x1="83.764" y1="0" x2="83.764" y2="167.528" gradientUnits="userSpaceOnUse">
<stop stop-color="#4A67B0"/>
<stop offset="1" stop-color="#496ECC"/>
</linearGradient>
</defs>
</svg>
