<svg width="395" height="407" viewBox="0 0 395 407" fill="none" xmlns="http://www.w3.org/2000/svg">
<rect x="34.4307" y="107.428" width="316.248" height="197.936" rx="19.1279" fill="#496ECC"/>
<mask id="mask0_2_364" style="mask-type:alpha" maskUnits="userSpaceOnUse" x="34" y="107" width="317" height="199">
<rect x="34.4307" y="107.428" width="316.248" height="197.936" rx="19.1279" fill="#C4C4C4"/>
</mask>
<g mask="url(#mask0_2_364)">
</g>
<rect width="105.672" height="105.672" rx="21.6783" transform="matrix(0.68264 -0.730755 0.68264 0.730755 250.576 295.902)" fill="url(#paint0_linear_2_364)"/>
<rect width="167.528" height="167.528" rx="21.6783" transform="matrix(-0.68264 -0.730755 0.68264 -0.730755 114.361 245.796)" fill="url(#paint1_linear_2_364)"/>
<path d="M213.914 300.245C213.914 358.706 169.647 406.061 115.086 406.061C60.5254 406.061 16.2587 358.706 16.2587 300.245C16.2587 241.784 60.5254 194.429 115.086 194.429C169.647 194.429 213.914 241.784 213.914 300.245Z" stroke="#2D57C5" stroke-width="0.637597"/>
<path d="M189.774 300.245C189.774 344.434 156.315 380.219 115.086 380.219C73.8577 380.219 40.3989 344.434 40.3989 300.245C40.3989 256.056 73.8577 220.271 115.086 220.271C156.315 220.271 189.774 256.056 189.774 300.245Z" stroke="#2D57C5" stroke-width="0.637597"/>
<path d="M165.634 300.245C165.634 330.163 142.983 354.378 115.087 354.378C87.19 354.378 64.539 330.163 64.539 300.245C64.539 270.327 87.19 246.112 115.087 246.112C142.983 246.112 165.634 270.327 165.634 300.245Z" stroke="#2D57C5" stroke-width="0.637597"/>
<path d="M370.125 133.023C370.125 154.166 354.119 171.268 334.42 171.268C314.72 171.268 298.714 154.166 298.714 133.023C298.714 111.881 314.72 94.7786 334.42 94.7786C354.119 94.7786 370.125 111.881 370.125 133.023Z" stroke="#567EE3" stroke-width="0.637597"/>
<path d="M361.354 133.023C361.354 148.98 349.275 161.879 334.42 161.879C319.564 161.879 307.485 148.98 307.485 133.023C307.485 117.066 319.564 104.168 334.42 104.168C349.275 104.168 361.354 117.066 361.354 133.023Z" stroke="#567EE3" stroke-width="0.637597"/>
<path d="M352.583 133.023C352.583 143.795 344.431 152.489 334.419 152.489C324.408 152.489 316.256 143.795 316.256 133.023C316.256 122.252 324.408 113.557 334.419 113.557C344.431 113.557 352.583 122.252 352.583 133.023Z" stroke="#567EE3" stroke-width="0.637597"/>
<defs>
<linearGradient id="paint0_linear_2_364" x1="52.836" y1="0" x2="52.836" y2="105.672" gradientUnits="userSpaceOnUse">
<stop stop-color="#587FE2"/>
<stop offset="1" stop-color="#587FE3"/>
</linearGradient>
<linearGradient id="paint1_linear_2_364" x1="83.764" y1="0" x2="83.764" y2="167.528" gradientUnits="userSpaceOnUse">
<stop stop-color="#4A67B0"/>
<stop offset="1" stop-color="#496ECC"/>
</linearGradient>
</defs>
</svg>
