<svg width="52" height="154" viewBox="0 0 52 154" fill="none" xmlns="http://www.w3.org/2000/svg">
<rect x="6.36621" y="9.33649" width="45.2694" height="135.142" rx="14.0271" fill="white" fill-opacity="0.44"/>
<rect x="0.62793" y="0.463501" width="45.2694" height="152.888" rx="14.0271" fill="white"/>
<rect x="6.36621" y="9.33649" width="33.7926" height="36.1745" rx="12.1143" fill="#FAFAFA"/>
<path fill-rule="evenodd" clip-rule="evenodd" d="M24.5079 31.5584C26.2009 30.88 27.4082 29.1305 27.4082 27.0825C27.4082 25.7638 26.9076 24.5694 26.0998 23.7046C25.8097 23.394 25.8097 22.8892 26.0998 22.5786C26.3906 22.2681 26.8615 22.2681 27.1523 22.5786C28.2294 23.7317 28.8959 25.3243 28.8959 27.0825C28.8959 29.856 27.2364 32.2178 24.923 33.0913L25.6006 33.5946C25.9376 33.8454 26.0217 34.3415 25.7873 34.703C25.5538 35.0637 25.0896 35.1537 24.7526 34.9029L22.521 33.2458C22.1848 32.9965 22.1 32.5028 22.3314 32.1413L23.8191 29.8177C24.0512 29.4546 24.5146 29.3623 24.8531 29.6107C25.1915 29.8591 25.2778 30.3552 25.0457 30.7176L24.5079 31.5584ZM20.9842 21.0665L20.3006 20.5783C19.9592 20.3347 19.8662 19.8394 20.0938 19.4739C20.3222 19.1084 20.7841 19.0096 21.1256 19.2533L23.3571 20.8459C23.6993 21.0896 23.7916 21.5841 23.5639 21.9504L22.0762 24.3392C21.8478 24.7047 21.3859 24.8035 21.0445 24.5598C20.703 24.3161 20.6101 23.8209 20.8377 23.4554L21.3621 22.6145C19.6787 23.2985 18.4819 25.0416 18.4819 27.0825C18.4819 28.4011 18.9817 29.5948 19.7896 30.4604C20.0797 30.7709 20.0797 31.275 19.7896 31.5863C19.4995 31.8969 19.0279 31.8969 18.7378 31.5863C17.6606 30.4333 16.9941 28.8407 16.9941 27.0825C16.9941 24.3018 18.6619 21.9344 20.9842 21.0665Z" fill="#969BA0"/>
<path d="M19.1179 134.241L22.9435 138.336L26.769 134.241" fill="#9FA4A6"/>
<path d="M26.8614 115.193C26.8614 115.771 26.7892 116.248 26.6446 116.624C26.4929 116.993 26.2617 117.285 25.9509 117.502C25.6402 117.719 25.2464 117.871 24.7695 117.957C24.2853 118.037 23.7108 118.076 23.046 118.076C22.374 118.076 21.7995 118.037 21.3226 117.957C20.8385 117.871 20.441 117.719 20.1303 117.502C19.8196 117.285 19.5884 116.989 19.4366 116.613C19.2849 116.23 19.209 115.742 19.209 115.15C19.209 114.911 19.2234 114.662 19.2523 114.402C19.2812 114.142 19.3174 113.893 19.3607 113.654C19.3969 113.408 19.4366 113.199 19.48 113.025L20.6723 113.069C20.6434 113.213 20.6181 113.394 20.5964 113.611C20.5675 113.828 20.5458 114.048 20.5314 114.272C20.5169 114.496 20.5097 114.705 20.5097 114.901C20.5097 115.247 20.553 115.529 20.6397 115.746C20.7265 115.963 20.871 116.133 21.0733 116.255C21.2756 116.371 21.5394 116.451 21.8646 116.494C22.1825 116.537 22.5763 116.559 23.046 116.559C23.5085 116.559 23.9023 116.537 24.2275 116.494C24.5455 116.451 24.8056 116.371 25.0079 116.255C25.203 116.14 25.3476 115.974 25.4415 115.757C25.5282 115.533 25.5716 115.244 25.5716 114.89C25.5716 114.601 25.5571 114.283 25.5282 113.936C25.4921 113.582 25.4596 113.289 25.4307 113.058L26.6121 113.025C26.6482 113.199 26.688 113.405 26.7313 113.643C26.7675 113.882 26.7964 114.135 26.8181 114.402C26.847 114.669 26.8614 114.933 26.8614 115.193ZM26.7422 112.093L19.0789 112.093L19.0789 110.651L21.496 110.651C21.431 110.471 21.3624 110.239 21.2901 109.958C21.2178 109.676 21.1817 109.416 21.1817 109.177C21.1817 108.671 21.272 108.277 21.4527 107.996C21.6261 107.714 21.9115 107.519 22.309 107.41C22.7064 107.295 23.2339 107.237 23.8915 107.237L26.7422 107.237L26.7422 108.689L23.9999 108.689C23.6241 108.689 23.3242 108.711 23.1002 108.754C22.869 108.798 22.7028 108.881 22.6016 109.004C22.5005 109.119 22.4499 109.3 22.4499 109.546C22.4499 109.741 22.4752 109.943 22.5258 110.153C22.5763 110.355 22.6233 110.521 22.6667 110.651L26.7422 110.651L26.7422 112.093ZM26.8614 104.682C26.8614 105.245 26.7205 105.672 26.4387 105.961C26.1496 106.243 25.7161 106.383 25.138 106.383C24.7333 106.383 24.419 106.311 24.195 106.167C23.9638 106.022 23.7976 105.809 23.6964 105.527C23.588 105.238 23.523 104.888 23.5013 104.476L23.3821 103.153L23.0569 103.153C22.7967 103.153 22.6161 103.218 22.5149 103.349C22.4065 103.479 22.3523 103.67 22.3523 103.923C22.3523 104.125 22.3596 104.36 22.374 104.628C22.3885 104.888 22.4065 105.148 22.4282 105.408C22.4499 105.661 22.4716 105.881 22.4932 106.069L21.4744 106.112C21.431 105.925 21.3876 105.701 21.3443 105.44C21.2937 105.173 21.254 104.895 21.2251 104.606C21.1962 104.317 21.1817 104.049 21.1817 103.804C21.1817 103.341 21.2395 102.955 21.3551 102.644C21.4707 102.333 21.6622 102.098 21.9296 101.939C22.1897 101.78 22.5438 101.701 22.9918 101.701L25.474 101.701C25.5752 101.687 25.6547 101.632 25.7125 101.538C25.7631 101.444 25.7992 101.336 25.8209 101.213L26.8181 101.246C26.8253 101.419 26.8289 101.589 26.8289 101.755C26.8289 101.921 26.8181 102.062 26.7964 102.178C26.7747 102.344 26.7313 102.489 26.6663 102.611C26.6013 102.727 26.5326 102.821 26.4604 102.893C26.511 103.009 26.5688 103.164 26.6338 103.359C26.6988 103.554 26.753 103.768 26.7964 103.999C26.8397 104.223 26.8614 104.45 26.8614 104.682ZM25.7883 104.335C25.7883 104.198 25.7739 104.053 25.745 103.901C25.7161 103.75 25.6836 103.609 25.6474 103.479C25.6041 103.341 25.5643 103.233 25.5282 103.153L24.2817 103.153L24.3793 104.259C24.4009 104.497 24.4732 104.671 24.596 104.779C24.7117 104.88 24.8779 104.931 25.0946 104.931C25.3114 104.931 25.4812 104.884 25.6041 104.79C25.7269 104.689 25.7883 104.537 25.7883 104.335ZM26.7422 100.428L21.3009 100.428L21.3009 98.9864L21.6478 98.9864C21.5755 98.8708 21.5069 98.7299 21.4418 98.5637C21.3696 98.3975 21.3082 98.2241 21.2576 98.0434C21.207 97.8556 21.1817 97.6749 21.1817 97.5015C21.1817 96.9956 21.272 96.6054 21.4527 96.3308C21.6261 96.049 21.9152 95.8503 22.3198 95.7347C22.7172 95.6191 23.252 95.5613 23.924 95.5613L26.7422 95.5613L26.7422 97.0137L23.9999 97.0137C23.6241 97.0137 23.3242 97.0354 23.1002 97.0787C22.869 97.1221 22.7028 97.2052 22.6016 97.328C22.5005 97.4509 22.4499 97.6315 22.4499 97.87C22.4499 98.0001 22.4643 98.1374 22.4932 98.2819C22.5149 98.4192 22.5474 98.5529 22.5908 98.6829C22.6342 98.8058 22.6775 98.9069 22.7209 98.9864L26.7422 98.9864L26.7422 100.428ZM29.2244 92.0414C29.2244 92.6195 29.181 93.1037 29.0943 93.4939C29.0076 93.8768 28.8486 94.1659 28.6174 94.361C28.3933 94.5561 28.0682 94.6537 27.6418 94.6537C27.454 94.6537 27.2841 94.6284 27.1324 94.5778C26.9879 94.52 26.8506 94.4333 26.7205 94.3176C26.5904 94.1948 26.4568 94.043 26.3195 93.8624C26.2472 93.9636 26.1424 94.0467 26.0051 94.1117C25.8606 94.1695 25.7052 94.1984 25.539 94.1984C25.4523 94.1984 25.3259 94.1478 25.1597 94.0467C24.9862 93.9383 24.8345 93.8335 24.7044 93.7323C24.6394 93.8768 24.5455 94.0141 24.4226 94.1442C24.2925 94.2743 24.1191 94.3827 23.9023 94.4694C23.6855 94.5489 23.4073 94.5886 23.0677 94.5886C22.3812 94.5886 21.8971 94.3935 21.6153 94.0033C21.3262 93.6059 21.1817 93.0422 21.1817 92.3124C21.1817 92.1245 21.1962 91.9222 21.2251 91.7054C21.254 91.4886 21.2829 91.3152 21.3118 91.1851L21.2793 89.4183L22.2548 89.4183L22.2439 90.2421C22.3307 90.1771 22.4427 90.1193 22.58 90.0687C22.71 90.0109 22.8726 89.982 23.0677 89.982C23.5663 89.982 23.9529 90.0687 24.2275 90.2421C24.5021 90.4083 24.6936 90.6612 24.802 91.0009C24.9031 91.3405 24.9537 91.7704 24.9537 92.2907C24.9537 92.3485 24.9501 92.428 24.9429 92.5292C24.9284 92.6303 24.9176 92.7134 24.9104 92.7785C24.9826 92.8074 25.0657 92.8363 25.1597 92.8652C25.2464 92.8941 25.3078 92.9086 25.3439 92.9086C25.4379 92.9086 25.5101 92.8796 25.5607 92.8218C25.6113 92.7568 25.6474 92.6303 25.6691 92.4425C25.6836 92.2474 25.6908 91.9547 25.6908 91.5645C25.6908 91.0514 25.7378 90.6432 25.8317 90.3397C25.9256 90.029 26.0918 89.8086 26.3303 89.6785C26.5688 89.5484 26.9048 89.4834 27.3383 89.4834C27.9815 89.4834 28.4548 89.711 28.7583 90.1662C29.069 90.6143 29.2244 91.2393 29.2244 92.0414ZM28.1513 92.1173C28.1513 91.6693 28.0971 91.3477 27.9887 91.1526C27.8875 90.9503 27.7177 90.8491 27.4792 90.8491C27.2914 90.8491 27.1541 90.8852 27.0674 90.9575C26.9806 91.0225 26.9228 91.1345 26.8939 91.2935C26.8723 91.4525 26.8614 91.6693 26.8614 91.9439C26.8614 92.0161 26.8578 92.1028 26.8506 92.204C26.8506 92.3052 26.847 92.41 26.8397 92.5183C26.8397 92.6195 26.8361 92.7134 26.8289 92.8002C26.8217 92.8796 26.8181 92.9375 26.8181 92.9736C26.9265 93.1326 27.024 93.241 27.1107 93.2988C27.2047 93.3566 27.3275 93.3855 27.4792 93.3855C27.6454 93.3855 27.7755 93.3457 27.8695 93.2662C27.9706 93.1868 28.0429 93.0567 28.0862 92.876C28.1296 92.6882 28.1513 92.4352 28.1513 92.1173ZM23.9348 92.3016C23.9348 91.9692 23.8698 91.7343 23.7397 91.597C23.6024 91.4525 23.3784 91.3802 23.0677 91.3802C22.757 91.3802 22.533 91.4525 22.3957 91.597C22.2584 91.7343 22.1897 91.9692 22.1897 92.3016C22.1897 92.6195 22.2584 92.8507 22.3957 92.9953C22.533 93.1326 22.757 93.2012 23.0677 93.2012C23.3784 93.2012 23.6024 93.1326 23.7397 92.9953C23.8698 92.8507 23.9348 92.6195 23.9348 92.3016ZM26.8614 86.4571C26.8614 87.0568 26.7603 87.5337 26.5579 87.8878C26.3556 88.2347 26.0485 88.484 25.6366 88.6357C25.2247 88.7875 24.708 88.8633 24.0866 88.8633C23.4146 88.8633 22.8654 88.7694 22.439 88.5815C22.0127 88.3864 21.6984 88.1046 21.496 87.7361C21.2865 87.3675 21.1817 86.9123 21.1817 86.3703C21.1817 85.5682 21.384 84.9649 21.7887 84.5602C22.1934 84.1483 22.8329 83.9424 23.7072 83.9424L24.5093 84.0074L24.5093 87.4109C24.914 87.4037 25.2175 87.3206 25.4198 87.1616C25.6221 87.0026 25.7233 86.728 25.7233 86.3378C25.7233 86.1138 25.7197 85.8681 25.7125 85.6008C25.698 85.3334 25.6836 85.0696 25.6691 84.8095C25.6547 84.5421 25.6402 84.3145 25.6258 84.1266L26.6338 84.0941C26.6627 84.2748 26.6952 84.5024 26.7313 84.777C26.7675 85.0516 26.7964 85.337 26.8181 85.6333C26.847 85.9223 26.8614 86.1969 26.8614 86.4571ZM23.588 87.4109L23.588 85.384C23.0966 85.384 22.7534 85.4635 22.5583 85.6224C22.3632 85.7742 22.2656 86.0235 22.2656 86.3703C22.2656 86.71 22.3668 86.9701 22.5691 87.1508C22.7714 87.3242 23.1111 87.4109 23.588 87.4109Z" fill="#030303"/>
</svg>
