<svg width="35" height="37" viewBox="0 0 35 37" fill="none" xmlns="http://www.w3.org/2000/svg">
<rect x="0.400879" y="0.396729" width="33.7926" height="36.1745" rx="12.1143" fill="#FAFAFA"/>
<path fill-rule="evenodd" clip-rule="evenodd" d="M18.5426 22.6187C20.2356 21.9402 21.4429 20.1908 21.4429 18.1427C21.4429 16.824 20.9423 15.6296 20.1344 14.7648C19.8443 14.4543 19.8443 13.9494 20.1344 13.6389C20.4253 13.3283 20.8962 13.3283 21.187 13.6389C22.2641 14.7919 22.9306 16.3845 22.9306 18.1427C22.9306 20.9162 21.2711 23.278 18.9576 24.1515L19.6353 24.6548C19.9723 24.9056 20.0563 25.4017 19.822 25.7632C19.5884 26.124 19.1243 26.2139 18.7873 25.9631L16.5557 24.306C16.2195 24.0568 16.1347 23.5631 16.366 23.2016L17.8538 20.878C18.0858 20.5149 18.5493 20.4225 18.8877 20.6709C19.2262 20.9194 19.3125 21.4155 19.0804 21.7778L18.5426 22.6187ZM15.0189 12.1267L14.3353 11.6386C13.9938 11.3949 13.9009 10.8996 14.1285 10.5341C14.3569 10.1686 14.8188 10.0699 15.1602 10.3135L17.3918 11.9061C17.734 12.1498 17.8262 12.6443 17.5986 13.0106L16.1109 15.3995C15.8825 15.765 15.4206 15.8637 15.0791 15.6201C14.7377 15.3764 14.6447 14.8811 14.8723 14.5156L15.3968 13.6747C13.7134 14.3587 12.5165 16.1018 12.5165 18.1427C12.5165 19.4614 13.0164 20.655 13.8242 21.5206C14.1144 21.8311 14.1144 22.3352 13.8242 22.6466C13.5341 22.9571 13.0625 22.9571 12.7724 22.6466C11.6953 21.4935 11.0288 19.9009 11.0288 18.1427C11.0288 15.3621 12.6965 12.9947 15.0189 12.1267Z" fill="#969BA0"/>
</svg>
