<svg width="19" height="15" viewBox="0 0 19 15" fill="none" xmlns="http://www.w3.org/2000/svg">
<path fill-rule="evenodd" clip-rule="evenodd" d="M18.9678 3.79763C18.9678 1.80242 17.35 0.184753 15.3546 0.184753C12.3466 0.184753 7.52211 0.184753 4.51504 0.184753C2.51966 0.184753 0.901855 1.80242 0.901855 3.79763V11.0234C0.901855 13.0186 2.51966 14.6363 4.51504 14.6363H15.3546C17.35 14.6363 18.9678 13.0186 18.9678 11.0234V3.79763ZM17.1612 11.0234H2.70845C2.70845 12.0215 3.5169 12.8298 4.51504 12.8298H15.3546C16.3518 12.8298 17.1612 12.0215 17.1612 11.0234ZM2.70845 8.31374V9.21696H17.1612V8.31374H2.70845ZM17.1612 6.5073V3.79763C17.1612 2.80048 16.3518 1.99119 15.3546 1.99119C12.3466 1.99119 7.52211 1.99119 4.51504 1.99119C3.5169 1.99119 2.70845 2.80048 2.70845 3.79763V6.5073H17.1612Z" fill="#969BA0"/>
</svg>
