<svg width="41" height="40" viewBox="0 0 41 40" fill="none" xmlns="http://www.w3.org/2000/svg">
<rect x="0.757812" y="3.40308" width="35.7054" height="35.7054" rx="17.8527" fill="#F7F7F7"/>
<path fill-rule="evenodd" clip-rule="evenodd" d="M26.0491 17.5365C26.0491 15.8933 24.7169 14.561 23.0737 14.561C20.5974 14.561 16.6236 14.561 14.1473 14.561C12.5041 14.561 11.1719 15.8933 11.1719 17.5365V27.2067C11.1719 27.508 11.3534 27.7787 11.6308 27.894C11.909 28.0093 12.2289 27.9454 12.4416 27.7326C12.4416 27.7326 13.8877 26.2866 14.764 25.411C15.0429 25.1321 15.4208 24.9751 15.8158 24.9751H23.0737C24.7169 24.9751 26.0491 23.6429 26.0491 21.9997V17.5365ZM24.5614 17.5365C24.5614 16.7153 23.8957 16.0488 23.0737 16.0488C20.5974 16.0488 16.6236 16.0488 14.1473 16.0488C13.3261 16.0488 12.6596 16.7153 12.6596 17.5365V25.411L13.7114 24.3592C14.2693 23.8013 15.0266 23.4874 15.8158 23.4874H23.0737C23.8957 23.4874 24.5614 22.8216 24.5614 21.9997V17.5365ZM14.8912 21.9997H20.8421C21.2527 21.9997 21.586 21.6664 21.586 21.2558C21.586 20.8452 21.2527 20.5119 20.8421 20.5119H14.8912C14.4806 20.5119 14.1473 20.8452 14.1473 21.2558C14.1473 21.6664 14.4806 21.9997 14.8912 21.9997ZM14.8912 19.0242H22.3298C22.7404 19.0242 23.0737 18.691 23.0737 18.2803C23.0737 17.8697 22.7404 17.5365 22.3298 17.5365H14.8912C14.4806 17.5365 14.1473 17.8697 14.1473 18.2803C14.1473 18.691 14.4806 19.0242 14.8912 19.0242Z" fill="#4F7086"/>
<circle cx="28.812" cy="11.6919" r="10.5203" fill="#5BCFC5" stroke="#F7F7F7" stroke-width="1.91279"/>
<path d="M28.779 15.5013C28.5528 15.5013 28.3088 15.4834 28.047 15.4477C27.7852 15.418 27.5322 15.3793 27.2882 15.3317C27.0443 15.2841 26.836 15.2424 26.6634 15.2067L26.7705 14.2962C26.9312 14.32 27.1216 14.3498 27.3418 14.3855C27.562 14.4152 27.7881 14.439 28.0202 14.4569C28.2523 14.4747 28.4636 14.4837 28.654 14.4837C28.9575 14.4837 29.1985 14.4063 29.377 14.2516C29.5555 14.0909 29.6448 13.8588 29.6448 13.5553C29.6448 13.347 29.6061 13.1834 29.5288 13.0644C29.4574 12.9454 29.3502 12.862 29.2074 12.8144C29.0705 12.7609 28.9099 12.7341 28.7254 12.7341C28.5826 12.7341 28.4397 12.749 28.2969 12.7787C28.1541 12.8025 28.0202 12.8353 27.8952 12.8769C27.7703 12.9126 27.6691 12.9513 27.5917 12.993L26.7884 12.868L26.9312 9.51168H30.6178V10.5918H27.8952L27.7792 11.9039C27.8625 11.8682 27.9667 11.8325 28.0916 11.7968C28.2166 11.7552 28.3505 11.7195 28.4933 11.6897C28.6421 11.66 28.7849 11.6451 28.9218 11.6451C29.3324 11.6451 29.6805 11.7016 29.9662 11.8147C30.2518 11.9277 30.469 12.1152 30.6178 12.377C30.7725 12.6389 30.8499 12.9959 30.8499 13.4482C30.8499 13.9183 30.7636 14.3051 30.591 14.6086C30.4244 14.9062 30.1863 15.1293 29.8769 15.2781C29.5734 15.4269 29.2074 15.5013 28.779 15.5013Z" fill="white"/>
</svg>
