<svg width="201" height="57" viewBox="0 0 201 57" fill="none" xmlns="http://www.w3.org/2000/svg">
<rect x="0.13916" y="0.732483" width="200.205" height="55.9681" rx="11.4767" fill="#EBF8F6"/>
<rect x="10.979" y="7.55783" width="38.2558" height="40.9523" rx="11.4767" fill="#C4C4C4"/>
<ellipse cx="180.58" cy="28.034" rx="9.56395" ry="10.2381" fill="#5BCFC5"/>
<path d="M185.19 25.6988C184.774 24.7542 184.114 23.961 183.284 23.4045C182.129 22.6326 180.76 22.3874 179.434 22.7158C178.107 23.042 176.978 23.9034 176.257 25.1401C175.534 26.3768 175.304 27.8396 175.611 29.2618C175.918 30.6818 176.723 31.8908 177.876 32.6627C178.689 33.2064 179.621 33.4943 180.575 33.4943H180.637C181.587 33.4815 182.511 33.1872 183.312 32.6456C183.545 32.4879 183.612 32.1595 183.465 31.91C183.318 31.6605 183.011 31.588 182.778 31.7458C182.135 32.1829 181.39 32.4196 180.625 32.4303C179.84 32.4409 179.073 32.2085 178.404 31.7629C177.474 31.1403 176.826 30.168 176.581 29.0251C176.336 27.8822 176.52 26.7052 177.101 25.7094C178.3 23.6561 180.838 23.0292 182.756 24.3128C183.425 24.7606 183.955 25.3981 184.29 26.1572C184.616 26.8971 184.744 27.718 184.658 28.5283C184.628 28.8204 184.824 29.0848 185.098 29.1168C185.371 29.1488 185.618 28.9398 185.648 28.6455C185.754 27.637 185.594 26.6178 185.19 25.6988Z" fill="white"/>
<path d="M182.227 26.1832L179.825 28.7549L178.934 27.8017C178.739 27.5927 178.424 27.5927 178.229 27.8017C178.034 28.0107 178.034 28.3476 178.229 28.5566L179.472 29.8872C179.57 29.9917 179.697 30.0429 179.825 30.0429C179.952 30.0429 180.08 29.9917 180.177 29.8872L182.93 26.9381C183.125 26.7291 183.125 26.3921 182.93 26.1832C182.735 25.9763 182.42 25.9763 182.227 26.1832Z" fill="white"/>
<path d="M63.5271 23.39C63.3094 23.39 63.0578 23.3764 62.7721 23.3492C62.4933 23.322 62.2179 23.288 61.9458 23.2472C61.6738 23.2064 61.4357 23.1724 61.2317 23.1452L61.3133 22.3495C61.5105 22.3699 61.7418 22.3971 62.007 22.4311C62.2791 22.4583 62.5443 22.4821 62.8027 22.5025C63.0612 22.5229 63.2822 22.5331 63.4658 22.5331C63.9351 22.5331 64.282 22.4311 64.5064 22.227C64.7376 22.023 64.8533 21.7034 64.8533 21.2681C64.8533 21.0301 64.8056 20.843 64.7104 20.707C64.622 20.5642 64.469 20.452 64.2514 20.3704C64.0337 20.282 63.7413 20.2037 63.374 20.1357C62.8708 20.0337 62.4559 19.9113 62.1294 19.7685C61.803 19.6257 61.5616 19.425 61.4051 19.1666C61.2487 18.9013 61.1705 18.5443 61.1705 18.0954C61.1705 17.6193 61.2623 17.2385 61.4459 16.9528C61.6364 16.6672 61.905 16.4598 62.2519 16.3306C62.6055 16.2013 63.017 16.1367 63.4862 16.1367C63.6971 16.1367 63.9351 16.1503 64.2004 16.1775C64.4724 16.1979 64.7376 16.2251 64.9961 16.2591C65.2613 16.2931 65.4892 16.3272 65.6796 16.3612L65.6082 17.1671C65.4109 17.1399 65.1797 17.1161 64.9145 17.0957C64.656 17.0685 64.4044 17.0447 64.1595 17.0243C63.9147 17.0039 63.7175 16.9937 63.5679 16.9937C63.0986 16.9937 62.7449 17.0787 62.5069 17.2487C62.2757 17.4119 62.16 17.6704 62.16 18.024C62.16 18.2961 62.2111 18.5035 62.3131 18.6463C62.4151 18.7891 62.5851 18.9013 62.8231 18.983C63.0612 19.0646 63.374 19.153 63.7617 19.2482C64.1289 19.3298 64.4418 19.4182 64.7002 19.5134C64.9655 19.6087 65.1831 19.7277 65.3531 19.8705C65.5232 20.0133 65.6456 20.1901 65.7204 20.401C65.802 20.6118 65.8428 20.877 65.8428 21.1967C65.8428 21.7204 65.7476 22.142 65.5572 22.4617C65.3735 22.7813 65.1083 23.016 64.7614 23.1656C64.4146 23.3152 64.0031 23.39 63.5271 23.39ZM68.1371 23.39C67.6542 23.39 67.287 23.2574 67.0354 22.9922C66.7837 22.7269 66.6579 22.3359 66.6579 21.819C66.6579 21.4721 66.7191 21.1933 66.8415 20.9825C66.9639 20.7648 67.1442 20.6016 67.3822 20.4928C67.627 20.384 67.9297 20.3194 68.2901 20.299L69.7694 20.1561V19.7583C69.7694 19.4386 69.698 19.2142 69.5551 19.085C69.4123 18.949 69.1981 18.8809 68.9124 18.8809C68.7356 18.8809 68.5282 18.8877 68.2901 18.9013C68.0521 18.9149 67.8175 18.9319 67.5862 18.9524C67.355 18.9728 67.1476 18.9932 66.9639 19.0136L66.9231 18.3199C67.0932 18.279 67.2938 18.2416 67.525 18.2076C67.7631 18.1736 68.0113 18.143 68.2697 18.1158C68.5282 18.0886 68.7662 18.075 68.9838 18.075C69.3851 18.075 69.715 18.1328 69.9734 18.2484C70.2318 18.3641 70.4223 18.5443 70.5447 18.7891C70.6671 19.034 70.7283 19.3502 70.7283 19.7379V22.2475C70.7419 22.3835 70.7963 22.4855 70.8915 22.5535C70.9936 22.6147 71.1194 22.6555 71.269 22.6759L71.2384 23.3798C71.0888 23.3798 70.9459 23.373 70.8099 23.3594C70.6807 23.3526 70.5617 23.3322 70.4529 23.2982C70.3441 23.271 70.2454 23.2336 70.157 23.186C70.0754 23.1316 69.9972 23.0704 69.9224 23.0024C69.8 23.0568 69.6401 23.1146 69.4429 23.1758C69.2457 23.237 69.0349 23.288 68.8104 23.3288C68.586 23.3696 68.3616 23.39 68.1371 23.39ZM68.3309 22.6351C68.501 22.6351 68.6744 22.6181 68.8512 22.5841C69.0349 22.5501 69.2083 22.5127 69.3715 22.4719C69.5347 22.4243 69.6674 22.3835 69.7694 22.3495V20.8192L68.4126 20.9519C68.1269 20.9723 67.9229 21.0539 67.8005 21.1967C67.678 21.3327 67.6168 21.5299 67.6168 21.7884C67.6168 22.0536 67.6746 22.2611 67.7903 22.4107C67.9127 22.5603 68.0929 22.6351 68.3309 22.6351ZM72.1444 23.288V18.177H73.0932V18.5341C73.2496 18.4389 73.4638 18.3403 73.7359 18.2382C74.0147 18.1294 74.2833 18.075 74.5418 18.075C74.875 18.075 75.1437 18.1158 75.3477 18.1974C75.5517 18.279 75.7184 18.4117 75.8476 18.5953C75.9768 18.5205 76.1366 18.4423 76.327 18.3607C76.5243 18.279 76.7351 18.211 76.9595 18.1566C77.184 18.1022 77.405 18.075 77.6226 18.075C78.0919 18.075 78.4524 18.1566 78.704 18.3199C78.9624 18.4831 79.1393 18.7517 79.2345 19.1258C79.3297 19.493 79.3773 19.9827 79.3773 20.5948V23.288H78.4388V20.656C78.4388 20.2343 78.415 19.8977 78.3674 19.6461C78.3198 19.3944 78.2245 19.2108 78.0817 19.0952C77.9457 18.9796 77.7349 18.9217 77.4492 18.9217C77.1976 18.9217 76.9493 18.9592 76.7045 19.034C76.4665 19.1088 76.2794 19.1836 76.1434 19.2584C76.191 19.4216 76.2216 19.6325 76.2352 19.8909C76.2556 20.1425 76.2658 20.401 76.2658 20.6662V23.288H75.3171V20.6866C75.3171 20.2513 75.2933 19.9079 75.2457 19.6563C75.2049 19.3978 75.1131 19.2108 74.9702 19.0952C74.8274 18.9796 74.6166 18.9217 74.3377 18.9217C74.0997 18.9217 73.8617 18.9592 73.6236 19.034C73.3924 19.1088 73.2156 19.1836 73.0932 19.2584V23.288H72.1444ZM82.2834 23.39C81.8413 23.39 81.5013 23.3016 81.2632 23.1248C81.032 22.9412 80.8722 22.6623 80.7838 22.2883C80.6954 21.9142 80.6511 21.4313 80.6511 20.8396V18.177H81.5999V20.8294C81.5999 21.2511 81.6203 21.5878 81.6611 21.8394C81.7019 22.091 81.7903 22.2713 81.9263 22.3801C82.0692 22.4889 82.28 22.5433 82.5588 22.5433C82.8309 22.5433 83.0791 22.5059 83.3036 22.4311C83.5348 22.3563 83.7218 22.2849 83.8646 22.2168V18.177H84.8032V23.288H83.8646V22.9412C83.647 23.0636 83.4124 23.169 83.1607 23.2574C82.9159 23.3458 82.6234 23.39 82.2834 23.39ZM88.0586 23.39C87.5349 23.39 87.12 23.2948 86.814 23.1044C86.5148 22.9072 86.2971 22.6147 86.1611 22.227C86.0251 21.8394 85.9571 21.3531 85.9571 20.7682C85.9571 20.1289 86.0455 19.6121 86.2223 19.2176C86.4059 18.8231 86.661 18.5341 86.9874 18.3505C87.3139 18.1668 87.7049 18.075 88.1606 18.075C88.8611 18.075 89.3882 18.2654 89.7418 18.6463C90.1023 19.0204 90.2825 19.6257 90.2825 20.4622L90.2315 21.1049H86.9262C86.933 21.5946 87.0248 21.9652 87.2017 22.2168C87.3785 22.4617 87.6981 22.5841 88.1606 22.5841C88.3578 22.5841 88.5721 22.5807 88.8033 22.5739C89.0413 22.5603 89.276 22.5467 89.5072 22.5331C89.7384 22.5195 89.9357 22.5059 90.0989 22.4923L90.1193 23.2064C89.9493 23.2336 89.7452 23.2608 89.5072 23.288C89.2692 23.322 89.0209 23.3458 88.7625 23.3594C88.5109 23.3798 88.2762 23.39 88.0586 23.39ZM86.9262 20.401H89.3338C89.3338 19.8229 89.2386 19.4182 89.0481 19.187C88.8645 18.9558 88.5687 18.8401 88.1606 18.8401C87.7593 18.8401 87.4533 18.9592 87.2425 19.1972C87.0316 19.4352 86.9262 19.8365 86.9262 20.401ZM91.4431 23.288V16.0041H92.3817V23.288H91.4431Z" fill="#030303"/>
<path d="M64.5676 38.8817C64.0014 38.8817 63.5041 38.8255 63.0756 38.7133C62.6523 38.6062 62.2978 38.42 62.0121 38.1548C61.7265 37.8896 61.5097 37.53 61.3618 37.076C61.219 36.6169 61.1475 36.0431 61.1475 35.3545C61.1475 34.7118 61.219 34.1685 61.3618 33.7248C61.5097 33.2759 61.7265 32.9138 62.0121 32.6383C62.3029 32.3629 62.6599 32.1614 63.0833 32.0339C63.5118 31.9063 64.0065 31.8426 64.5676 31.8426C65.3429 31.8426 65.9678 31.9574 66.4421 32.1869C66.9216 32.4164 67.2685 32.7658 67.4827 33.2351C67.702 33.7044 67.8117 34.2986 67.8117 35.0178V35.1402C67.8117 35.5636 67.7913 35.9156 67.7505 36.1961C67.7097 36.4766 67.651 36.6985 67.5745 36.8618C67.5031 37.025 67.4138 37.1474 67.3067 37.229C67.1996 37.3106 67.0797 37.3616 66.9471 37.382C66.8196 37.4075 66.6793 37.4203 66.5263 37.4203C66.2611 37.4203 66.0596 37.3667 65.9219 37.2596C65.7892 37.1474 65.7102 37.0428 65.6847 36.9459C65.5725 37.0071 65.4322 37.076 65.2639 37.1525C65.1006 37.2239 64.9298 37.2851 64.7512 37.3361C64.5778 37.3871 64.4171 37.4126 64.2692 37.4126C64.1366 37.4126 63.9938 37.3948 63.8408 37.3591C63.6877 37.3234 63.5449 37.2443 63.4123 37.1219C63.2797 36.9995 63.17 36.8082 63.0833 36.5481C62.9966 36.2879 62.9532 35.9334 62.9532 35.4845C62.9532 35.051 62.9991 34.6837 63.0909 34.3828C63.1879 34.0818 63.3511 33.8548 63.5806 33.7018C63.8101 33.5437 64.1315 33.4646 64.5447 33.4646C64.6977 33.4646 64.866 33.4876 65.0496 33.5335C65.2384 33.5794 65.3914 33.6253 65.5087 33.6712V33.5411H65.8836V35.0484C65.8836 35.5075 65.8887 35.8748 65.8989 36.1502C65.9091 36.4256 65.9346 36.6322 65.9754 36.7699C66.0213 36.9026 66.0902 36.9918 66.182 37.0377C66.2738 37.0785 66.3988 37.0989 66.5569 37.0989C66.6895 37.0989 66.8069 37.0836 66.9089 37.053C67.016 37.0224 67.1078 36.9459 67.1843 36.8235C67.2608 36.696 67.3195 36.4996 67.3603 36.2344C67.4011 35.9691 67.4215 35.6044 67.4215 35.1402V35.0102C67.4215 34.5205 67.3705 34.0971 67.2685 33.7401C67.1665 33.383 67.0032 33.0897 66.7788 32.8602C66.5544 32.6256 66.2585 32.4521 65.8913 32.3399C65.5291 32.2277 65.0879 32.1716 64.5676 32.1716C64.0524 32.1716 63.6036 32.2302 63.221 32.3476C62.8435 32.4598 62.5273 32.6409 62.2723 32.8908C62.0223 33.1407 61.8361 33.4672 61.7137 33.8701C61.5913 34.2731 61.5301 34.7679 61.5301 35.3545C61.5301 35.9666 61.5913 36.4792 61.7137 36.8924C61.8361 37.3004 62.0198 37.6269 62.2646 37.8717C62.5145 38.1165 62.8308 38.29 63.2134 38.392C63.5959 38.4991 64.0473 38.5527 64.5676 38.5527C64.6441 38.5527 64.7461 38.5476 64.8737 38.5374C65.0063 38.5323 65.1414 38.5221 65.2792 38.5068C65.422 38.4965 65.5495 38.4863 65.6617 38.4761L65.6847 38.8128C65.5776 38.823 65.4551 38.8332 65.3174 38.8434C65.1797 38.8536 65.042 38.8613 64.9043 38.8664C64.7716 38.8766 64.6594 38.8817 64.5676 38.8817ZM64.2769 37.076C64.3993 37.076 64.5396 37.0556 64.6977 37.0148C64.8609 36.9689 65.0216 36.9128 65.1797 36.8464C65.3378 36.7801 65.4755 36.7164 65.5929 36.6552C65.5827 36.5328 65.5699 36.3848 65.5546 36.2114C65.5393 36.038 65.5266 35.8569 65.5164 35.6682C65.5113 35.4743 65.5087 35.2882 65.5087 35.1096V33.9926C65.3965 33.9467 65.2486 33.9033 65.0649 33.8625C64.8864 33.8217 64.7232 33.8013 64.5753 33.8013C64.2386 33.8013 63.9785 33.8676 63.7948 34.0002C63.6163 34.1277 63.4939 34.319 63.4276 34.5741C63.3613 34.8291 63.3281 35.1377 63.3281 35.4998C63.3281 35.8569 63.3587 36.14 63.4199 36.3491C63.4811 36.5583 63.5577 36.7164 63.6495 36.8235C63.7413 36.9255 63.8433 36.9944 63.9555 37.0301C64.0677 37.0607 64.1749 37.076 64.2769 37.076ZM69.9046 37.4203C69.7924 37.4203 69.6572 37.4126 69.4991 37.3973C69.3461 37.3871 69.1905 37.3718 69.0324 37.3514C68.8742 37.331 68.734 37.3106 68.6115 37.2902L68.6422 36.9612C68.7646 36.9765 68.9023 36.9944 69.0553 37.0148C69.2134 37.0352 69.3665 37.053 69.5144 37.0683C69.6623 37.0785 69.7822 37.0836 69.874 37.0836C70.1035 37.0836 70.2999 37.0632 70.4631 37.0224C70.6315 36.9765 70.759 36.8949 70.8457 36.7776C70.9375 36.6552 70.9834 36.4843 70.9834 36.265C70.9834 36.1017 70.9503 35.9742 70.8839 35.8824C70.8176 35.7906 70.7029 35.7217 70.5396 35.6758C70.3815 35.6248 70.152 35.5764 69.851 35.5304C69.5603 35.4845 69.318 35.4284 69.1242 35.3621C68.9354 35.2958 68.7952 35.1989 68.7034 35.0714C68.6115 34.9388 68.5656 34.7526 68.5656 34.5128C68.5656 34.2374 68.632 34.0232 68.7646 33.8701C68.8972 33.7171 69.0655 33.61 69.2695 33.5488C69.4736 33.4876 69.6827 33.457 69.8969 33.457C70.0398 33.457 70.1928 33.4646 70.356 33.4799C70.5243 33.4901 70.685 33.5054 70.838 33.5258C70.9962 33.5462 71.1288 33.5641 71.2359 33.5794L71.2206 33.9161C71.1033 33.8957 70.9656 33.8778 70.8074 33.8625C70.6544 33.8421 70.4963 33.8268 70.3331 33.8166C70.1749 33.8013 70.0321 33.7936 69.9046 33.7936C69.7465 33.7936 69.5934 33.814 69.4455 33.8548C69.2976 33.8905 69.1777 33.9594 69.0859 34.0614C68.9941 34.1583 68.9482 34.3012 68.9482 34.4899C68.9482 34.6378 68.9763 34.7551 69.0324 34.8418C69.0885 34.9235 69.193 34.9923 69.3461 35.0484C69.4991 35.0994 69.7184 35.1479 70.0041 35.1938C70.3356 35.2448 70.6009 35.306 70.7998 35.3774C70.9987 35.4488 71.1415 35.5509 71.2282 35.6835C71.3201 35.811 71.366 35.9972 71.366 36.242C71.366 36.6909 71.2359 36.9995 70.9758 37.1678C70.7207 37.3361 70.3637 37.4203 69.9046 37.4203ZM73.1096 37.4203C72.7831 37.4203 72.5281 37.3259 72.3445 37.1372C72.166 36.9485 72.0767 36.6654 72.0767 36.2879C72.0767 36.0584 72.1149 35.8671 72.1915 35.7141C72.268 35.5611 72.3878 35.4412 72.5511 35.3545C72.7143 35.2627 72.9234 35.204 73.1785 35.1785L74.5404 35.0331V34.6582C74.5404 34.3522 74.4741 34.1328 74.3414 34.0002C74.2088 33.8625 74.0099 33.7936 73.7446 33.7936C73.612 33.7936 73.4564 33.8013 73.2779 33.8166C73.1045 33.8319 72.9311 33.8497 72.7576 33.8701C72.5842 33.8854 72.4312 33.9008 72.2986 33.9161L72.2756 33.6024C72.398 33.582 72.546 33.5615 72.7194 33.5411C72.8928 33.5156 73.0713 33.4952 73.255 33.4799C73.4386 33.4646 73.6069 33.457 73.7599 33.457C74.0303 33.457 74.2496 33.5029 74.4179 33.5947C74.5863 33.6814 74.7112 33.814 74.7929 33.9926C74.8745 34.166 74.9153 34.3879 74.9153 34.6582V36.7776C74.9255 36.8898 74.9841 36.9714 75.0912 37.0224C75.1984 37.0683 75.3157 37.0964 75.4432 37.1066L75.4279 37.4203C75.331 37.4203 75.2392 37.4126 75.1525 37.3973C75.0708 37.3871 74.9918 37.3667 74.9153 37.3361C74.8541 37.3106 74.7954 37.28 74.7393 37.2443C74.6883 37.2035 74.6398 37.1576 74.5939 37.1066C74.4868 37.1474 74.3516 37.1933 74.1884 37.2443C74.0252 37.2953 73.8492 37.3361 73.6605 37.3667C73.4718 37.4024 73.2881 37.4203 73.1096 37.4203ZM73.1402 37.0989C73.3085 37.0989 73.4794 37.0836 73.6528 37.053C73.8263 37.0224 73.992 36.9842 74.1502 36.9383C74.3083 36.8924 74.4383 36.849 74.5404 36.8082V35.3468L73.2167 35.4769C72.9413 35.5024 72.7474 35.5815 72.6352 35.7141C72.523 35.8467 72.4669 36.0354 72.4669 36.2803C72.4669 36.5404 72.523 36.7419 72.6352 36.8847C72.7525 37.0275 72.9209 37.0989 73.1402 37.0989ZM76.1247 37.3514V33.5258H76.4919V33.8166C76.6195 33.7401 76.7954 33.661 77.0199 33.5794C77.2494 33.4978 77.4764 33.457 77.7008 33.457C77.9763 33.457 78.1905 33.4876 78.3435 33.5488C78.4966 33.61 78.619 33.7146 78.7108 33.8625C78.8128 33.8013 78.9378 33.7401 79.0857 33.6789C79.2336 33.6126 79.3968 33.559 79.5754 33.5182C79.7539 33.4774 79.9299 33.457 80.1033 33.457C80.4501 33.457 80.7154 33.5156 80.899 33.633C81.0826 33.7452 81.2076 33.939 81.2739 34.2144C81.3402 34.4899 81.3734 34.8673 81.3734 35.3468V37.3514H81.0061V35.3698C81.0061 34.9668 80.9832 34.6506 80.9373 34.421C80.8914 34.1915 80.8021 34.0308 80.6695 33.939C80.542 33.8421 80.343 33.7936 80.0727 33.7936C79.8279 33.7936 79.5907 33.8319 79.3611 33.9084C79.1316 33.9849 78.9582 34.0614 78.8409 34.1379C78.8919 34.2757 78.925 34.4491 78.9403 34.6582C78.9556 34.8673 78.9633 35.102 78.9633 35.3621V37.3514H78.596V35.3774C78.596 34.9694 78.5731 34.6506 78.5272 34.421C78.4864 34.1915 78.3996 34.0308 78.267 33.939C78.1344 33.8421 77.9355 33.7936 77.6702 33.7936C77.4356 33.7936 77.2086 33.8319 76.9893 33.9084C76.775 33.9849 76.6093 34.0614 76.4919 34.1379V37.3514H76.1247ZM82.4672 37.3514V37.0224L84.1122 35.278C84.3213 35.0637 84.4999 34.8673 84.6478 34.6888C84.8008 34.5103 84.9181 34.3318 84.9997 34.1532C85.0865 33.9696 85.1298 33.7732 85.1298 33.5641C85.1298 33.1968 85.0252 32.9418 84.8161 32.799C84.607 32.6562 84.3035 32.5848 83.9056 32.5848C83.7679 32.5848 83.6149 32.595 83.4466 32.6154C83.2782 32.6307 83.115 32.6536 82.9569 32.6842C82.7988 32.7097 82.6636 32.7378 82.5514 32.7684L82.5131 32.4317C82.6151 32.4011 82.7426 32.3705 82.8957 32.3399C83.0538 32.3093 83.2247 32.2838 83.4083 32.2634C83.5919 32.243 83.7705 32.2328 83.9439 32.2328C84.4591 32.2328 84.8518 32.3323 85.1222 32.5312C85.3925 32.7301 85.5277 33.0668 85.5277 33.5411C85.5277 33.7911 85.4869 34.0155 85.4053 34.2144C85.3236 34.4083 85.2063 34.5996 85.0533 34.7883C84.9054 34.9719 84.7218 35.1734 84.5024 35.3927L82.9492 37.0148H85.673V37.3514H82.4672ZM86.7486 37.3514V37.0224L88.3936 35.278C88.6027 35.0637 88.7812 34.8673 88.9292 34.6888C89.0822 34.5103 89.1995 34.3318 89.2811 34.1532C89.3678 33.9696 89.4112 33.7732 89.4112 33.5641C89.4112 33.1968 89.3066 32.9418 89.0975 32.799C88.8883 32.6562 88.5848 32.5848 88.187 32.5848C88.0493 32.5848 87.8962 32.595 87.7279 32.6154C87.5596 32.6307 87.3964 32.6536 87.2382 32.6842C87.0801 32.7097 86.9449 32.7378 86.8327 32.7684L86.7945 32.4317C86.8965 32.4011 87.024 32.3705 87.177 32.3399C87.3352 32.3093 87.506 32.2838 87.6897 32.2634C87.8733 32.243 88.0518 32.2328 88.2252 32.2328C88.7404 32.2328 89.1332 32.3323 89.4035 32.5312C89.6739 32.7301 89.809 33.0668 89.809 33.5411C89.809 33.7911 89.7682 34.0155 89.6866 34.2144C89.605 34.4083 89.4877 34.5996 89.3347 34.7883C89.1867 34.9719 89.0031 35.1734 88.7838 35.3927L87.2306 37.0148H89.9544V37.3514H86.7486ZM93.3788 37.3514V36.2956H90.7927V35.9895L92.3153 32.3017H92.7361L91.2212 35.9513H93.3788V34.3063H93.7614V35.9513H94.473V36.2956H93.7614V37.3514H93.3788Z" fill="black" fill-opacity="0.6"/>
</svg>
