<svg width="17" height="19" viewBox="0 0 17 19" fill="none" xmlns="http://www.w3.org/2000/svg">
<path fill-rule="evenodd" clip-rule="evenodd" d="M9.19961 17.7709C9.19961 18.2704 9.60337 18.6741 10.1029 18.6741H12.8127C13.771 18.6741 14.6896 18.2939 15.3671 17.6164C16.0445 16.939 16.4257 16.0194 16.4257 15.0611C16.4257 14.5426 16.4257 14.1578 16.4257 14.1578C16.4257 13.6592 16.0211 13.2546 15.5225 13.2546H10.1029C9.60337 13.2546 9.19961 13.6592 9.19961 14.1578V17.7709ZM6.48983 18.6741C6.98843 18.6741 7.39309 18.2704 7.39309 17.7709V8.73825C7.39309 8.23965 6.98843 7.83499 6.48983 7.83499H1.07025C0.57075 7.83499 0.166992 8.23965 0.166992 8.73825V15.0611C0.166992 16.0194 0.547263 16.939 1.22471 17.6164C1.90216 18.2939 2.82168 18.6741 3.78004 18.6741H6.48983ZM14.6192 15.0611H11.0061V16.8676H12.8127C13.2914 16.8676 13.7512 16.6779 14.0899 16.3392C14.4286 16.0005 14.6192 15.5407 14.6192 15.0611ZM5.58657 16.8676V9.64151H1.97352V15.0611C1.97352 15.5407 2.1632 16.0005 2.50283 16.3392C2.84155 16.6779 3.30041 16.8676 3.78004 16.8676H5.58657ZM10.1029 0.608887C9.60337 0.608887 9.19961 1.01355 9.19961 1.51215V10.5448C9.19961 11.0443 9.60337 11.448 10.1029 11.448H15.5225C16.0211 11.448 16.4257 11.0443 16.4257 10.5448V4.22194C16.4257 3.26448 16.0445 2.34495 15.3671 1.66751C14.6896 0.990061 13.771 0.608887 12.8127 0.608887H10.1029ZM11.0061 2.41541V9.64151H14.6192V4.22194C14.6192 3.74321 14.4286 3.28345 14.0899 2.94472C13.7512 2.606 13.2914 2.41541 12.8127 2.41541H11.0061ZM7.39309 1.51215C7.39309 1.01355 6.98843 0.608887 6.48983 0.608887H3.78004C2.82168 0.608887 1.90216 0.990061 1.22471 1.66751C0.547263 2.34495 0.166992 3.26448 0.166992 4.22194V5.1252C0.166992 5.6247 0.57075 6.02846 1.07025 6.02846H6.48983C6.98843 6.02846 7.39309 5.6247 7.39309 5.1252V1.51215ZM5.58657 2.41541H3.78004C3.30041 2.41541 2.84155 2.606 2.50283 2.94472C2.1632 3.28345 1.97352 3.74321 1.97352 4.22194H5.58657V2.41541Z" fill="#5BCFC5"/>
</svg>
