<svg width="11" height="12" viewBox="0 0 11 12" fill="none" xmlns="http://www.w3.org/2000/svg">
<path d="M10.37 10.8755C10.37 11.2524 10.0845 11.558 9.73241 11.558H0.806054C0.453921 11.558 0.168457 11.2524 0.168457 10.8755C0.168457 10.4985 0.453921 10.1929 0.806054 10.1929H9.73241C10.0845 10.1929 10.37 10.4985 10.37 10.8755ZM4.81839 8.71329C4.9429 8.84658 5.10605 8.91321 5.26923 8.91321C5.43238 8.91321 5.5956 8.84656 5.72007 8.71329L7.97912 6.29504C8.22812 6.02849 8.22812 5.59633 7.97912 5.32978C7.73012 5.06323 7.32642 5.06323 7.07742 5.32978L5.90683 6.58288V1.31996C5.90683 0.943006 5.62136 0.637421 5.26923 0.637421C4.9171 0.637421 4.63163 0.943006 4.63163 1.31996V6.58288L3.46105 5.32978C3.21205 5.06323 2.80835 5.06323 2.55935 5.32978C2.31034 5.59633 2.31034 6.02849 2.55935 6.29504L4.81839 8.71329Z" fill="white"/>
</svg>
