<svg width="192" height="124" viewBox="0 0 192 124" fill="none" xmlns="http://www.w3.org/2000/svg">
<rect x="37.2388" y="90.7075" width="154.472" height="0.79568" rx="0.39784" fill="#E4E4E4"/>
<rect x="37.2388" y="50.1278" width="154.472" height="0.79568" rx="0.39784" fill="#E4E4E4"/>
<rect x="37.2388" y="9.54819" width="154.472" height="0.79568" rx="0.39784" fill="#E4E4E4"/>
<path d="M1.30586 51.7839V51.1769L3.00187 49.4006C3.24585 49.1447 3.45711 48.9156 3.63564 48.7133C3.81417 48.505 3.95104 48.3027 4.04625 48.1063C4.14147 47.9039 4.18907 47.6897 4.18907 47.4636C4.18907 47.0768 4.08196 46.812 3.86772 46.6691C3.65944 46.5204 3.34404 46.446 2.92153 46.446C2.76681 46.446 2.59423 46.4579 2.4038 46.4817C2.21337 46.4995 2.02889 46.5233 1.85037 46.5531C1.67779 46.5769 1.52902 46.6037 1.40405 46.6334L1.35049 46.0443C1.47546 46.0086 1.63018 45.9729 1.81466 45.9372C1.99914 45.9015 2.1985 45.8717 2.41273 45.8479C2.63291 45.8182 2.84714 45.8033 3.05543 45.8033C3.68027 45.8033 4.14742 45.9282 4.45686 46.1782C4.77226 46.4281 4.92996 46.8298 4.92996 47.3832C4.92996 47.6748 4.88235 47.9367 4.78714 48.1688C4.69788 48.4008 4.561 48.63 4.37653 48.8561C4.198 49.0763 3.96889 49.3232 3.6892 49.597L2.14494 51.1591H5.07278V51.7839H1.30586ZM8.18425 51.8732C7.84504 51.8732 7.54155 51.8256 7.27376 51.7304C7.01192 51.6352 6.78578 51.4775 6.59535 51.2573C6.41088 51.0311 6.26805 50.7276 6.16689 50.3468C6.07167 49.9659 6.02407 49.4928 6.02407 48.9275C6.02407 48.3265 6.07167 47.8236 6.16689 47.4189C6.2621 47.0143 6.40195 46.6929 6.58643 46.4549C6.77686 46.2169 7.00299 46.0473 7.26483 45.9461C7.53262 45.8449 7.83612 45.7944 8.17532 45.7944C8.52642 45.7944 8.83587 45.8449 9.10366 45.9461C9.37145 46.0473 9.59461 46.2169 9.77314 46.4549C9.95761 46.6929 10.0975 47.0143 10.1927 47.4189C10.2879 47.8177 10.3355 48.3205 10.3355 48.9275C10.3355 49.6773 10.2492 50.2665 10.0766 50.6949C9.90406 51.1234 9.65709 51.4269 9.33575 51.6054C9.02035 51.7839 8.63651 51.8732 8.18425 51.8732ZM8.18425 51.2394C8.41633 51.2394 8.61866 51.2037 8.79124 51.1323C8.96976 51.0609 9.11854 50.9389 9.23756 50.7663C9.35657 50.5938 9.44584 50.3587 9.50535 50.0611C9.56486 49.7577 9.59461 49.3798 9.59461 48.9275C9.59461 48.4336 9.56486 48.0259 9.50535 47.7046C9.45179 47.3832 9.3655 47.1303 9.24648 46.9458C9.13341 46.7554 8.98762 46.6215 8.80909 46.5442C8.63651 46.4668 8.42823 46.4281 8.18425 46.4281C7.94621 46.4281 7.73793 46.4668 7.5594 46.5442C7.38087 46.6215 7.2321 46.7524 7.11308 46.9369C7.00002 47.1214 6.91373 47.3773 6.85422 47.7046C6.79471 48.0259 6.76495 48.4366 6.76495 48.9364C6.76495 49.3887 6.79471 49.7666 6.85422 50.0701C6.91968 50.3676 7.01192 50.6027 7.13094 50.7753C7.2559 50.9419 7.40468 51.0609 7.57725 51.1323C7.75578 51.2037 7.95811 51.2394 8.18425 51.2394Z" fill="#3E4954"/>
<path d="M8.70592 94.0443C8.36672 94.0443 8.06323 93.9967 7.79543 93.9015C7.53359 93.8062 7.30746 93.6485 7.11703 93.4284C6.93255 93.2022 6.78973 92.8987 6.68857 92.5179C6.59335 92.137 6.54574 91.6639 6.54574 91.0986C6.54574 90.4975 6.59335 89.9947 6.68857 89.59C6.78378 89.1854 6.92363 88.864 7.1081 88.626C7.29853 88.3879 7.52467 88.2183 7.78651 88.1172C8.0543 88.016 8.35779 87.9654 8.697 87.9654C9.0481 87.9654 9.35755 88.016 9.62534 88.1172C9.89313 88.2183 10.1163 88.3879 10.2948 88.626C10.4793 88.864 10.6191 89.1854 10.7144 89.59C10.8096 89.9887 10.8572 90.4916 10.8572 91.0986C10.8572 91.8484 10.7709 92.4375 10.5983 92.866C10.4257 93.2945 10.1788 93.598 9.85742 93.7765C9.54202 93.955 9.15819 94.0443 8.70592 94.0443ZM8.70592 93.4105C8.93801 93.4105 9.14034 93.3748 9.31292 93.3034C9.49144 93.232 9.64021 93.11 9.75923 92.9374C9.87825 92.7648 9.96751 92.5298 10.027 92.2322C10.0865 91.9287 10.1163 91.5509 10.1163 91.0986C10.1163 90.6047 10.0865 90.197 10.027 89.8757C9.97347 89.5543 9.88718 89.3014 9.76816 89.1169C9.65509 88.9265 9.5093 88.7926 9.33077 88.7152C9.15819 88.6379 8.94991 88.5992 8.70592 88.5992C8.46789 88.5992 8.25961 88.6379 8.08108 88.7152C7.90255 88.7926 7.75378 88.9235 7.63476 89.108C7.52169 89.2925 7.4354 89.5484 7.3759 89.8757C7.31639 90.197 7.28663 90.6076 7.28663 91.1075C7.28663 91.5598 7.31639 91.9377 7.3759 92.2412C7.44136 92.5387 7.53359 92.7738 7.65261 92.9463C7.77758 93.113 7.92635 93.232 8.09893 93.3034C8.27746 93.3748 8.47979 93.4105 8.70592 93.4105Z" fill="#3E4954"/>
<path d="M3.19564 12V10.8574H0.357054V10.304L2.02628 6.1086H2.8118L1.10687 10.2237H3.19564V8.40268H3.90974V10.2237H4.65063V10.8574H3.90974V12H3.19564ZM7.4943 12.0893C7.1551 12.0893 6.85161 12.0417 6.58382 11.9464C6.32198 11.8512 6.09584 11.6935 5.90541 11.4733C5.72093 11.2472 5.57811 10.9437 5.47695 10.5629C5.38173 10.182 5.33413 9.7089 5.33413 9.14357C5.33413 8.54252 5.38173 8.03967 5.47695 7.63501C5.57216 7.23035 5.71201 6.909 5.89649 6.67097C6.08692 6.43293 6.31305 6.26333 6.57489 6.16216C6.84268 6.061 7.14618 6.01041 7.48538 6.01041C7.83648 6.01041 8.14593 6.061 8.41372 6.16216C8.68151 6.26333 8.90467 6.43293 9.0832 6.67097C9.26767 6.909 9.40752 7.23035 9.50273 7.63501C9.59795 8.03372 9.64556 8.53657 9.64556 9.14357C9.64556 9.89338 9.55927 10.4825 9.38669 10.911C9.21412 11.3394 8.96715 11.6429 8.6458 11.8215C8.33041 12 7.94657 12.0893 7.4943 12.0893ZM7.4943 11.4555C7.72639 11.4555 7.92872 11.4198 8.1013 11.3484C8.27982 11.277 8.4286 11.155 8.54761 10.9824C8.66663 10.8098 8.7559 10.5748 8.8154 10.2772C8.87491 9.97372 8.90467 9.59583 8.90467 9.14357C8.90467 8.64964 8.87491 8.242 8.8154 7.92066C8.76185 7.59931 8.67556 7.34639 8.55654 7.16191C8.44347 6.97149 8.29768 6.83759 8.11915 6.76023C7.94657 6.68287 7.73829 6.64419 7.4943 6.64419C7.25627 6.64419 7.04799 6.68287 6.86946 6.76023C6.69093 6.83759 6.54216 6.96851 6.42314 7.15299C6.31007 7.33747 6.22379 7.59336 6.16428 7.92066C6.10477 8.242 6.07501 8.65262 6.07501 9.15249C6.07501 9.60476 6.10477 9.98264 6.16428 10.2861C6.22974 10.5837 6.32198 10.8187 6.44099 10.9913C6.56596 11.1579 6.71474 11.277 6.88731 11.3484C7.06584 11.4198 7.26817 11.4555 7.4943 11.4555Z" fill="#3E4954"/>
<path d="M31.4003 114.723C31.2217 114.723 31.0135 114.711 30.7754 114.687C30.5374 114.669 30.2994 114.646 30.0613 114.616C29.8292 114.58 29.6239 114.55 29.4454 114.527L29.5168 113.937C29.6894 113.955 29.8887 113.976 30.1149 114C30.347 114.024 30.5731 114.045 30.7933 114.062C31.0194 114.08 31.2098 114.089 31.3646 114.089C31.799 114.089 32.1233 113.991 32.3375 113.795C32.5518 113.598 32.6589 113.292 32.6589 112.875C32.6589 112.649 32.6143 112.471 32.525 112.34C32.4417 112.203 32.2989 112.096 32.0965 112.018C31.9002 111.935 31.6353 111.861 31.3021 111.795C30.8736 111.706 30.5166 111.602 30.2309 111.483C29.9512 111.358 29.74 111.182 29.5972 110.956C29.4603 110.73 29.3918 110.423 29.3918 110.037C29.3918 109.638 29.4722 109.317 29.6329 109.073C29.7995 108.829 30.0316 108.65 30.3291 108.537C30.6326 108.424 30.9837 108.367 31.3824 108.367C31.5609 108.367 31.7633 108.379 31.9894 108.403C32.2215 108.421 32.4476 108.445 32.6678 108.475C32.894 108.498 33.0874 108.525 33.248 108.555L33.1855 109.153C33.013 109.129 32.8136 109.108 32.5875 109.09C32.3613 109.067 32.1441 109.046 31.9359 109.028C31.7276 109.01 31.5609 109.001 31.436 109.001C31.0016 109.001 30.6713 109.082 30.4452 109.242C30.225 109.403 30.1149 109.653 30.1149 109.992C30.1149 110.254 30.1625 110.453 30.2577 110.59C30.3589 110.727 30.5195 110.834 30.7397 110.911C30.9599 110.989 31.2485 111.069 31.6056 111.152C31.915 111.224 32.1798 111.301 32.4 111.385C32.6262 111.468 32.8106 111.572 32.9535 111.697C33.1022 111.816 33.2093 111.968 33.2748 112.152C33.3462 112.331 33.3819 112.554 33.3819 112.822C33.3819 113.274 33.3016 113.64 33.1409 113.92C32.9802 114.199 32.7511 114.405 32.4536 114.536C32.156 114.66 31.8049 114.723 31.4003 114.723ZM35.8009 114.732C35.42 114.732 35.1284 114.655 34.9261 114.5C34.7238 114.345 34.5839 114.104 34.5066 113.777C34.4352 113.449 34.3995 113.027 34.3995 112.509V110.179H35.0868V112.509C35.0868 112.902 35.1046 113.214 35.1403 113.447C35.182 113.679 35.2683 113.848 35.3992 113.955C35.5301 114.056 35.7265 114.107 35.9884 114.107C36.2502 114.107 36.4882 114.071 36.7025 114C36.9167 113.929 37.0893 113.857 37.2202 113.786V110.179H37.9075V114.643H37.2202V114.33C37.0298 114.437 36.8215 114.533 36.5953 114.616C36.3752 114.693 36.1103 114.732 35.8009 114.732ZM39.1949 114.643V110.179H39.8823V110.492C39.9834 110.432 40.1084 110.373 40.2572 110.313C40.4119 110.254 40.5755 110.203 40.7481 110.162C40.9207 110.114 41.0873 110.09 41.248 110.09C41.6586 110.09 41.971 110.165 42.1853 110.313C42.4054 110.456 42.5572 110.688 42.6405 111.01C42.7238 111.331 42.7655 111.753 42.7655 112.277V114.643H42.0692V112.304C42.0692 111.917 42.0454 111.608 41.9978 111.376C41.9562 111.144 41.8669 110.977 41.73 110.876C41.5991 110.769 41.3968 110.715 41.123 110.715C40.9743 110.715 40.8195 110.733 40.6589 110.769C40.5041 110.798 40.3583 110.84 40.2215 110.894C40.0846 110.941 39.9715 110.989 39.8823 111.036V114.643H39.1949ZM45.4084 114.732C45.2299 114.732 45.0603 114.711 44.8996 114.669C44.739 114.634 44.5902 114.568 44.4533 114.473C44.3224 114.378 44.2064 114.247 44.1052 114.08C44.004 113.908 43.9267 113.688 43.8731 113.42C43.8196 113.152 43.7928 112.828 43.7928 112.447C43.7928 111.917 43.8553 111.48 43.9802 111.135C44.1052 110.783 44.3046 110.522 44.5783 110.349C44.852 110.176 45.215 110.09 45.6673 110.09C45.8399 110.09 46.0333 110.105 46.2475 110.135C46.4618 110.159 46.6284 110.182 46.7474 110.206V108.242H47.4437V114.643H46.7563V114.348C46.6611 114.402 46.5361 114.458 46.3814 114.518C46.2326 114.577 46.072 114.628 45.8994 114.669C45.7328 114.711 45.5691 114.732 45.4084 114.732ZM45.4977 114.107C45.6524 114.107 45.8072 114.089 45.9619 114.053C46.1226 114.018 46.2713 113.976 46.4082 113.929C46.5451 113.875 46.6581 113.827 46.7474 113.786V110.795C46.676 110.783 46.5778 110.772 46.4528 110.76C46.3279 110.742 46.1969 110.727 46.0601 110.715C45.9292 110.703 45.8101 110.697 45.703 110.697C45.3995 110.697 45.1615 110.763 44.9889 110.894C44.8163 111.024 44.6914 111.221 44.614 111.483C44.5426 111.739 44.5069 112.06 44.5069 112.447C44.5069 112.804 44.5337 113.092 44.5872 113.313C44.6408 113.527 44.7122 113.693 44.8015 113.812C44.8967 113.926 45.0038 114.003 45.1228 114.045C45.2418 114.086 45.3668 114.107 45.4977 114.107ZM49.7045 114.732C49.2939 114.732 48.9814 114.616 48.7672 114.384C48.553 114.152 48.4458 113.812 48.4458 113.366C48.4458 113.075 48.4964 112.837 48.5976 112.652C48.6988 112.468 48.8505 112.328 49.0528 112.233C49.2611 112.131 49.517 112.069 49.8205 112.045L51.1952 111.911V111.527C51.1952 111.224 51.1267 111.01 50.9899 110.885C50.8589 110.76 50.6626 110.697 50.4007 110.697C50.2519 110.697 50.0734 110.703 49.8651 110.715C49.6628 110.727 49.4605 110.742 49.2581 110.76C49.0558 110.778 48.8773 110.795 48.7226 110.813L48.6869 110.287C48.8297 110.257 49.0023 110.227 49.2046 110.197C49.4069 110.168 49.6182 110.144 49.8384 110.126C50.0585 110.102 50.2609 110.09 50.4454 110.09C50.7846 110.09 51.0613 110.144 51.2755 110.251C51.4897 110.352 51.6445 110.51 51.7397 110.724C51.8408 110.932 51.8914 111.2 51.8914 111.527V113.786C51.9033 113.917 51.9539 114.012 52.0432 114.071C52.1384 114.131 52.2574 114.17 52.4002 114.187L52.3734 114.732C52.2425 114.732 52.1235 114.723 52.0164 114.705C51.9093 114.693 51.8081 114.672 51.7129 114.643C51.6355 114.613 51.5611 114.577 51.4897 114.536C51.4243 114.494 51.3588 114.443 51.2934 114.384C51.1803 114.431 51.0345 114.482 50.856 114.536C50.6834 114.589 50.4959 114.634 50.2936 114.669C50.0972 114.711 49.9008 114.732 49.7045 114.732ZM49.8205 114.152C49.9812 114.152 50.1478 114.137 50.3204 114.107C50.493 114.077 50.6566 114.042 50.8113 114C50.9661 113.958 51.094 113.92 51.1952 113.884V112.429L49.9008 112.554C49.6331 112.578 49.4397 112.655 49.3206 112.786C49.2076 112.917 49.151 113.104 49.151 113.348C49.151 113.598 49.2076 113.795 49.3206 113.937C49.4337 114.08 49.6003 114.152 49.8205 114.152ZM54.1404 116.615L54.7207 114.643H54.0512L52.7926 110.179H53.4888L54.5778 114.045H54.8813L55.9793 110.179H56.6755L54.8367 116.615H54.1404Z" fill="#3E4954"/>
<path d="M89.0189 114.643V108.475H90.3132L92.0181 113.652L93.732 108.475H95.0263V114.643H94.3122V109.233H94.1783L92.4198 114.419H91.6254L89.8669 109.233H89.733V114.643H89.0189ZM98.1311 114.732C97.6312 114.732 97.2414 114.646 96.9617 114.473C96.688 114.3 96.4946 114.039 96.3815 113.688C96.2744 113.336 96.2208 112.893 96.2208 112.357C96.2208 111.846 96.2803 111.423 96.3993 111.09C96.5243 110.757 96.7266 110.507 97.0063 110.34C97.286 110.174 97.6609 110.09 98.1311 110.09C98.6071 110.09 98.985 110.174 99.2647 110.34C99.5444 110.507 99.7438 110.757 99.8628 111.09C99.9877 111.423 100.05 111.846 100.05 112.357C100.05 112.893 99.9937 113.336 99.8806 113.688C99.7735 114.039 99.5801 114.3 99.3004 114.473C99.0267 114.646 98.6369 114.732 98.1311 114.732ZM98.1311 114.134C98.4762 114.134 98.7351 114.074 98.9077 113.955C99.0802 113.83 99.1933 113.637 99.2469 113.375C99.3064 113.113 99.3361 112.774 99.3361 112.357C99.3361 111.947 99.3004 111.62 99.229 111.376C99.1576 111.132 99.0356 110.956 98.863 110.849C98.6904 110.742 98.4465 110.688 98.1311 110.688C97.8216 110.688 97.5776 110.742 97.3991 110.849C97.2265 110.956 97.1045 111.132 97.0331 111.376C96.9617 111.62 96.926 111.947 96.926 112.357C96.926 112.774 96.9528 113.113 97.0063 113.375C97.0659 113.637 97.1819 113.83 97.3545 113.955C97.527 114.074 97.7859 114.134 98.1311 114.134ZM101.142 114.643V110.179H101.829V110.492C101.93 110.432 102.055 110.373 102.204 110.313C102.359 110.254 102.523 110.203 102.695 110.162C102.868 110.114 103.034 110.09 103.195 110.09C103.606 110.09 103.918 110.165 104.132 110.313C104.352 110.456 104.504 110.688 104.587 111.01C104.671 111.331 104.712 111.753 104.712 112.277V114.643H104.016V112.304C104.016 111.917 103.992 111.608 103.945 111.376C103.903 111.144 103.814 110.977 103.677 110.876C103.546 110.769 103.344 110.715 103.07 110.715C102.921 110.715 102.766 110.733 102.606 110.769C102.451 110.798 102.305 110.84 102.168 110.894C102.032 110.941 101.918 110.989 101.829 111.036V114.643H101.142ZM107.355 114.732C107.177 114.732 107.007 114.711 106.847 114.669C106.686 114.634 106.537 114.568 106.4 114.473C106.269 114.378 106.153 114.247 106.052 114.08C105.951 113.908 105.874 113.688 105.82 113.42C105.767 113.152 105.74 112.828 105.74 112.447C105.74 111.917 105.802 111.48 105.927 111.135C106.052 110.783 106.252 110.522 106.525 110.349C106.799 110.176 107.162 110.09 107.614 110.09C107.787 110.09 107.98 110.105 108.194 110.135C108.409 110.159 108.575 110.182 108.694 110.206V108.242H109.391V114.643H108.703V114.348C108.608 114.402 108.483 114.458 108.328 114.518C108.18 114.577 108.019 114.628 107.846 114.669C107.68 114.711 107.516 114.732 107.355 114.732ZM107.445 114.107C107.599 114.107 107.754 114.089 107.909 114.053C108.07 114.018 108.218 113.976 108.355 113.929C108.492 113.875 108.605 113.827 108.694 113.786V110.795C108.623 110.783 108.525 110.772 108.4 110.76C108.275 110.742 108.144 110.727 108.007 110.715C107.876 110.703 107.757 110.697 107.65 110.697C107.346 110.697 107.108 110.763 106.936 110.894C106.763 111.024 106.638 111.221 106.561 111.483C106.49 111.739 106.454 112.06 106.454 112.447C106.454 112.804 106.481 113.092 106.534 113.313C106.588 113.527 106.659 113.693 106.748 113.812C106.844 113.926 106.951 114.003 107.07 114.045C107.189 114.086 107.314 114.107 107.445 114.107ZM111.651 114.732C111.241 114.732 110.928 114.616 110.714 114.384C110.5 114.152 110.393 113.812 110.393 113.366C110.393 113.075 110.443 112.837 110.545 112.652C110.646 112.468 110.797 112.328 111 112.233C111.208 112.131 111.464 112.069 111.767 112.045L113.142 111.911V111.527C113.142 111.224 113.074 111.01 112.937 110.885C112.806 110.76 112.61 110.697 112.348 110.697C112.199 110.697 112.02 110.703 111.812 110.715C111.61 110.727 111.407 110.742 111.205 110.76C111.003 110.778 110.824 110.795 110.67 110.813L110.634 110.287C110.777 110.257 110.949 110.227 111.152 110.197C111.354 110.168 111.565 110.144 111.785 110.126C112.006 110.102 112.208 110.09 112.392 110.09C112.732 110.09 113.008 110.144 113.222 110.251C113.437 110.352 113.591 110.51 113.687 110.724C113.788 110.932 113.838 111.2 113.838 111.527V113.786C113.85 113.917 113.901 114.012 113.99 114.071C114.085 114.131 114.204 114.17 114.347 114.187L114.32 114.732C114.189 114.732 114.07 114.723 113.963 114.705C113.856 114.693 113.755 114.672 113.66 114.643C113.582 114.613 113.508 114.577 113.437 114.536C113.371 114.494 113.306 114.443 113.24 114.384C113.127 114.431 112.981 114.482 112.803 114.536C112.63 114.589 112.443 114.634 112.241 114.669C112.044 114.711 111.848 114.732 111.651 114.732ZM111.767 114.152C111.928 114.152 112.095 114.137 112.267 114.107C112.44 114.077 112.604 114.042 112.758 114C112.913 113.958 113.041 113.92 113.142 113.884V112.429L111.848 112.554C111.58 112.578 111.387 112.655 111.268 112.786C111.155 112.917 111.098 113.104 111.098 113.348C111.098 113.598 111.155 113.795 111.268 113.937C111.381 114.08 111.547 114.152 111.767 114.152ZM116.087 116.615L116.668 114.643H115.998L114.74 110.179H115.436L116.525 114.045H116.828L117.926 110.179H118.622L116.784 116.615H116.087Z" fill="#3E4954"/>
<path d="M152.333 114.643V109.117H150.45V108.475H154.913V109.117H153.047V114.643H152.333ZM157.032 114.732C156.651 114.732 156.359 114.655 156.157 114.5C155.954 114.345 155.815 114.104 155.737 113.777C155.666 113.449 155.63 113.027 155.63 112.509V110.179H156.317V112.509C156.317 112.902 156.335 113.214 156.371 113.447C156.413 113.679 156.499 113.848 156.63 113.955C156.761 114.056 156.957 114.107 157.219 114.107C157.481 114.107 157.719 114.071 157.933 114C158.147 113.929 158.32 113.857 158.451 113.786V110.179H159.138V114.643H158.451V114.33C158.26 114.437 158.052 114.533 157.826 114.616C157.606 114.693 157.341 114.732 157.032 114.732ZM162.006 114.732C161.559 114.732 161.205 114.646 160.943 114.473C160.687 114.3 160.503 114.045 160.39 113.705C160.277 113.366 160.22 112.944 160.22 112.438C160.22 111.872 160.298 111.42 160.452 111.081C160.607 110.736 160.824 110.486 161.104 110.331C161.384 110.171 161.714 110.09 162.095 110.09C162.69 110.09 163.139 110.257 163.443 110.59C163.746 110.917 163.898 111.447 163.898 112.179L163.862 112.706H160.925C160.931 113.17 161.018 113.521 161.184 113.759C161.351 113.997 161.651 114.116 162.086 114.116C162.253 114.116 162.434 114.113 162.63 114.107C162.833 114.095 163.032 114.083 163.228 114.071C163.425 114.059 163.591 114.048 163.728 114.036L163.746 114.58C163.603 114.604 163.428 114.628 163.22 114.652C163.017 114.675 162.809 114.693 162.595 114.705C162.38 114.723 162.184 114.732 162.006 114.732ZM160.925 112.143H163.202C163.202 111.596 163.112 111.215 162.934 111.001C162.761 110.781 162.482 110.67 162.095 110.67C161.72 110.67 161.431 110.783 161.229 111.01C161.027 111.236 160.925 111.614 160.925 112.143ZM166.325 114.732C166.188 114.732 166.021 114.723 165.825 114.705C165.635 114.687 165.444 114.666 165.254 114.643C165.063 114.613 164.894 114.586 164.745 114.562L164.781 113.964C164.929 113.982 165.096 114.003 165.28 114.027C165.471 114.051 165.655 114.071 165.834 114.089C166.012 114.101 166.155 114.107 166.262 114.107C166.506 114.107 166.709 114.086 166.869 114.045C167.03 113.997 167.152 113.92 167.235 113.812C167.319 113.705 167.36 113.554 167.36 113.357C167.36 113.208 167.328 113.092 167.262 113.009C167.203 112.926 167.087 112.857 166.914 112.804C166.747 112.75 166.503 112.7 166.182 112.652C165.849 112.599 165.569 112.533 165.343 112.456C165.123 112.372 164.959 112.25 164.852 112.09C164.745 111.929 164.691 111.7 164.691 111.402C164.691 111.069 164.769 110.807 164.923 110.617C165.078 110.426 165.277 110.293 165.521 110.215C165.771 110.132 166.03 110.09 166.298 110.09C166.465 110.09 166.646 110.099 166.843 110.117C167.045 110.135 167.241 110.159 167.432 110.188C167.622 110.212 167.786 110.236 167.923 110.26L167.905 110.858C167.762 110.834 167.595 110.813 167.405 110.795C167.215 110.772 167.024 110.754 166.834 110.742C166.643 110.724 166.477 110.715 166.334 110.715C166.155 110.715 165.995 110.736 165.852 110.778C165.709 110.813 165.596 110.879 165.513 110.974C165.429 111.069 165.388 111.203 165.388 111.376C165.388 111.507 165.417 111.614 165.477 111.697C165.536 111.774 165.649 111.84 165.816 111.893C165.983 111.947 166.224 112 166.539 112.054C166.908 112.114 167.203 112.188 167.423 112.277C167.649 112.366 167.813 112.491 167.914 112.652C168.015 112.813 168.065 113.039 168.065 113.33C168.065 113.854 167.911 114.22 167.601 114.428C167.292 114.631 166.866 114.732 166.325 114.732ZM170.501 114.732C170.322 114.732 170.153 114.711 169.992 114.669C169.831 114.634 169.683 114.568 169.546 114.473C169.415 114.378 169.299 114.247 169.198 114.08C169.096 113.908 169.019 113.688 168.965 113.42C168.912 113.152 168.885 112.828 168.885 112.447C168.885 111.917 168.948 111.48 169.073 111.135C169.198 110.783 169.397 110.522 169.671 110.349C169.944 110.176 170.307 110.09 170.76 110.09C170.932 110.09 171.126 110.105 171.34 110.135C171.554 110.159 171.721 110.182 171.84 110.206V108.242H172.536V114.643H171.849V114.348C171.753 114.402 171.628 114.458 171.474 114.518C171.325 114.577 171.164 114.628 170.992 114.669C170.825 114.711 170.661 114.732 170.501 114.732ZM170.59 114.107C170.745 114.107 170.899 114.089 171.054 114.053C171.215 114.018 171.364 113.976 171.501 113.929C171.637 113.875 171.75 113.827 171.84 113.786V110.795C171.768 110.783 171.67 110.772 171.545 110.76C171.42 110.742 171.289 110.727 171.152 110.715C171.021 110.703 170.902 110.697 170.795 110.697C170.492 110.697 170.254 110.763 170.081 110.894C169.909 111.024 169.784 111.221 169.706 111.483C169.635 111.739 169.599 112.06 169.599 112.447C169.599 112.804 169.626 113.092 169.68 113.313C169.733 113.527 169.805 113.693 169.894 113.812C169.989 113.926 170.096 114.003 170.215 114.045C170.334 114.086 170.459 114.107 170.59 114.107ZM174.797 114.732C174.386 114.732 174.074 114.616 173.86 114.384C173.645 114.152 173.538 113.812 173.538 113.366C173.538 113.075 173.589 112.837 173.69 112.652C173.791 112.468 173.943 112.328 174.145 112.233C174.353 112.131 174.609 112.069 174.913 112.045L176.288 111.911V111.527C176.288 111.224 176.219 111.01 176.082 110.885C175.951 110.76 175.755 110.697 175.493 110.697C175.344 110.697 175.166 110.703 174.957 110.715C174.755 110.727 174.553 110.742 174.35 110.76C174.148 110.778 173.97 110.795 173.815 110.813L173.779 110.287C173.922 110.257 174.095 110.227 174.297 110.197C174.499 110.168 174.711 110.144 174.931 110.126C175.151 110.102 175.353 110.09 175.538 110.09C175.877 110.09 176.154 110.144 176.368 110.251C176.582 110.352 176.737 110.51 176.832 110.724C176.933 110.932 176.984 111.2 176.984 111.527V113.786C176.996 113.917 177.046 114.012 177.136 114.071C177.231 114.131 177.35 114.17 177.493 114.187L177.466 114.732C177.335 114.732 177.216 114.723 177.109 114.705C177.002 114.693 176.9 114.672 176.805 114.643C176.728 114.613 176.653 114.577 176.582 114.536C176.517 114.494 176.451 114.443 176.386 114.384C176.273 114.431 176.127 114.482 175.948 114.536C175.776 114.589 175.588 114.634 175.386 114.669C175.19 114.711 174.993 114.732 174.797 114.732ZM174.913 114.152C175.074 114.152 175.24 114.137 175.413 114.107C175.585 114.077 175.749 114.042 175.904 114C176.058 113.958 176.186 113.92 176.288 113.884V112.429L174.993 112.554C174.725 112.578 174.532 112.655 174.413 112.786C174.3 112.917 174.243 113.104 174.243 113.348C174.243 113.598 174.3 113.795 174.413 113.937C174.526 114.08 174.693 114.152 174.913 114.152ZM179.233 116.615L179.813 114.643H179.144L177.885 110.179H178.581L179.67 114.045H179.974L181.072 110.179H181.768L179.929 116.615H179.233Z" fill="#3E4954"/>
<path d="M182.432 64.8019C182.432 62.1358 180.271 59.9746 177.605 59.9746V59.9746C174.939 59.9746 172.778 62.1358 172.778 64.8019V91.5032H182.432V64.8019Z" fill="url(#paint0_linear_19_123)"/>
<path d="M169.33 75.7683C169.33 73.1023 167.168 70.941 164.502 70.941V70.941C161.836 70.941 159.675 73.1023 159.675 75.7683V91.5031H169.33V75.7683Z" fill="url(#paint1_linear_19_123)"/>
<path d="M100.369 62.6272C100.369 59.9612 98.2079 57.8 95.5419 57.8V57.8C92.8759 57.8 90.7147 59.9612 90.7147 62.6272V91.5032H100.369V62.6272Z" fill="url(#paint2_linear_19_123)"/>
<path d="M87.7686 56.368C87.7686 53.702 85.6073 51.5408 82.9413 51.5408V51.5408C80.2753 51.5408 78.1141 53.702 78.1141 56.368V91.5032H87.7686V56.368Z" fill="url(#paint3_linear_19_123)"/>
<path d="M59.4941 16.7625C59.4941 14.0964 57.3329 11.9352 54.6669 11.9352V11.9352C52.0009 11.9352 49.8397 14.0964 49.8397 16.7625V91.5032H59.4941V16.7625Z" fill="url(#paint4_linear_19_123)"/>
<path d="M46.8931 30.6629C46.8931 27.9969 44.7318 25.8357 42.0658 25.8357V25.8357C39.3998 25.8357 37.2386 27.9969 37.2386 30.6629V91.5032H46.8931V30.6629Z" fill="url(#paint5_linear_19_123)"/>
<path d="M141.056 25.9679C141.056 23.3019 138.894 21.1406 136.228 21.1406V21.1406C133.562 21.1406 131.401 23.3019 131.401 25.9679V91.5032H141.056V25.9679Z" fill="url(#paint6_linear_19_123)"/>
<mask id="mask0_19_123" style="mask-type:alpha" maskUnits="userSpaceOnUse" x="131" y="21" width="11" height="71">
<path d="M141.056 25.9679C141.056 23.3019 138.894 21.1406 136.228 21.1406V21.1406C133.562 21.1406 131.401 23.3019 131.401 25.9679V91.5032H141.056V25.9679Z" fill="#1EAAE7"/>
</mask>
<g mask="url(#mask0_19_123)">
<path d="M147.366 3.02982L148.829 4.15365L120.547 25.8811L119.084 24.7573L147.366 3.02982Z" fill="white" fill-opacity="0.17"/>
<path d="M147.366 8.32762L148.829 9.45145L120.547 31.1789L119.084 30.0551L147.366 8.32762Z" fill="white" fill-opacity="0.17"/>
<path d="M147.366 13.6254L148.829 14.7493L120.547 36.4767L119.084 35.3529L147.366 13.6254Z" fill="white" fill-opacity="0.17"/>
<path d="M147.366 18.9232L148.829 20.0471L120.547 41.7745L119.084 40.6507L147.366 18.9232Z" fill="white" fill-opacity="0.17"/>
<path d="M147.366 24.221L148.829 25.3449L120.547 47.0723L119.084 45.9485L147.366 24.221Z" fill="white" fill-opacity="0.17"/>
<path d="M147.366 29.5188L148.829 30.6427L120.547 52.3701L119.084 51.2463L147.366 29.5188Z" fill="white" fill-opacity="0.17"/>
<path d="M147.366 34.8166L148.829 35.9405L120.547 57.6679L119.084 56.5441L147.366 34.8166Z" fill="white" fill-opacity="0.17"/>
<path d="M147.366 40.1144L148.829 41.2383L120.547 62.9657L119.084 61.8419L147.366 40.1144Z" fill="white" fill-opacity="0.17"/>
<path d="M147.366 45.4123L148.829 46.5361L120.547 68.2635L119.084 67.1397L147.366 45.4123Z" fill="white" fill-opacity="0.17"/>
<path d="M147.366 50.7101L148.829 51.8339L120.547 73.5613L119.084 72.4375L147.366 50.7101Z" fill="white" fill-opacity="0.17"/>
<path d="M147.366 56.0079L148.829 57.1317L120.547 78.8592L119.084 77.7353L147.366 56.0079Z" fill="white" fill-opacity="0.17"/>
<path d="M147.366 61.3057L148.829 62.4295L120.547 84.157L119.084 83.0331L147.366 61.3057Z" fill="white" fill-opacity="0.17"/>
<path d="M147.366 66.6035L148.829 67.7273L120.547 89.4548L119.084 88.3309L147.366 66.6035Z" fill="white" fill-opacity="0.17"/>
<path d="M147.366 71.9013L148.829 73.0251L120.547 94.7526L119.084 93.6287L147.366 71.9013Z" fill="white" fill-opacity="0.17"/>
<path d="M147.366 77.1991L148.829 78.3229L120.547 100.05L119.084 98.9265L147.366 77.1991Z" fill="white" fill-opacity="0.17"/>
<path d="M147.366 82.4969L148.829 83.6207L120.547 105.348L119.084 104.224L147.366 82.4969Z" fill="white" fill-opacity="0.17"/>
</g>
<path d="M128.643 44.4236C128.643 41.7576 126.481 39.5963 123.815 39.5963V39.5963C121.149 39.5963 118.988 41.7576 118.988 44.4236V91.5031H128.643V44.4236Z" fill="url(#paint7_linear_19_123)"/>
<defs>
<linearGradient id="paint0_linear_19_123" x1="177.605" y1="59.9746" x2="177.605" y2="91.5032" gradientUnits="userSpaceOnUse">
<stop stop-color="#FE6565"/>
<stop offset="1" stop-color="#FE9C65"/>
</linearGradient>
<linearGradient id="paint1_linear_19_123" x1="164.502" y1="70.941" x2="164.502" y2="91.5031" gradientUnits="userSpaceOnUse">
<stop stop-color="#67DF64"/>
<stop offset="1" stop-color="#B6FF6D"/>
</linearGradient>
<linearGradient id="paint2_linear_19_123" x1="95.5419" y1="57.8" x2="95.5419" y2="91.5032" gradientUnits="userSpaceOnUse">
<stop stop-color="#FE6565"/>
<stop offset="1" stop-color="#FE9C65"/>
</linearGradient>
<linearGradient id="paint3_linear_19_123" x1="82.9413" y1="51.5408" x2="82.9413" y2="91.5032" gradientUnits="userSpaceOnUse">
<stop stop-color="#68E365"/>
<stop offset="1" stop-color="#B6FF6D"/>
</linearGradient>
<linearGradient id="paint4_linear_19_123" x1="54.6669" y1="11.9352" x2="54.6669" y2="91.5032" gradientUnits="userSpaceOnUse">
<stop stop-color="#FE6565"/>
<stop offset="1" stop-color="#FE9C65"/>
</linearGradient>
<linearGradient id="paint5_linear_19_123" x1="42.0658" y1="25.8357" x2="42.0658" y2="91.5032" gradientUnits="userSpaceOnUse">
<stop stop-color="#68E365"/>
<stop offset="1" stop-color="#B6FF6D"/>
</linearGradient>
<linearGradient id="paint6_linear_19_123" x1="136.228" y1="21.1406" x2="136.228" y2="91.5032" gradientUnits="userSpaceOnUse">
<stop stop-color="#FE6565"/>
<stop offset="1" stop-color="#FE9C65"/>
</linearGradient>
<linearGradient id="paint7_linear_19_123" x1="123.815" y1="39.5963" x2="123.815" y2="91.5031" gradientUnits="userSpaceOnUse">
<stop stop-color="#68E365"/>
<stop offset="1" stop-color="#B6FF6D"/>
</linearGradient>
</defs>
</svg>
