<svg width="418" height="264" viewBox="0 0 418 264" fill="none" xmlns="http://www.w3.org/2000/svg">
<rect x="34.5327" y="224.621" width="382.558" height="0.682538" rx="0.341269" fill="#E9ECFF"/>
<rect x="34.5327" y="189.811" width="382.558" height="0.682538" rx="0.341269" fill="#E9ECFF"/>
<rect x="34.5327" y="155.002" width="382.558" height="0.682538" rx="0.341269" fill="#E9ECFF"/>
<rect x="34.5327" y="120.192" width="382.558" height="0.682538" rx="0.341269" fill="#E9ECFF"/>
<rect x="34.5327" y="85.3829" width="382.558" height="0.682538" rx="0.341269" fill="#E9ECFF"/>
<rect x="34.5327" y="50.5735" width="382.558" height="0.682538" rx="0.341269" fill="#E9ECFF"/>
<path d="M307.429 125.739C307.429 119.331 302.576 114.136 296.59 114.136C290.603 114.136 285.75 119.331 285.75 125.739V227.19H307.429V125.739Z" fill="url(#paint0_linear_19_334)"/>
<path d="M282.563 163.667C282.563 157.259 277.71 152.064 271.723 152.064C265.737 152.064 260.884 157.259 260.884 163.667V227.19H282.563V163.667Z" fill="url(#paint1_linear_19_334)"/>
<path d="M160.781 140.074C160.781 133.533 155.828 128.231 149.717 128.231C143.607 128.231 138.654 133.533 138.654 140.074V227.19H160.781V140.074Z" fill="url(#paint2_linear_19_334)"/>
<path d="M134.64 56.7896C134.64 50.1928 129.644 44.8452 123.482 44.8452C117.319 44.8452 112.324 50.1929 112.324 56.7896V227.19H134.64V56.7896Z" fill="url(#paint3_linear_19_334)"/>
<path d="M411.358 92.9842H410.72C407.903 92.9842 405.619 95.4289 405.619 98.4445V227.19H411.358V92.9842Z" fill="url(#paint4_linear_19_334)"/>
<path d="M87.4578 15.8435C87.4578 9.30251 82.5045 4.00002 76.3942 4.00002C70.2839 4.00002 65.3306 9.30251 65.3306 15.8435V227.19H87.4578V15.8435Z" fill="url(#paint5_linear_19_334)"/>
<path d="M61.3159 104.929C61.3159 98.3319 56.3203 92.9842 50.1579 92.9842C43.9956 92.9842 39 98.3319 39 104.929V227.19H61.3159V104.929Z" fill="url(#paint6_linear_19_334)"/>
<path d="M380.752 72.1065C380.752 65.5098 375.757 60.1621 369.594 60.1621C363.432 60.1621 358.437 65.5098 358.437 72.1065V227.19H380.752V72.1065Z" fill="url(#paint7_linear_19_334)"/>
<mask id="mask0_19_334" style="mask-type:alpha" maskUnits="userSpaceOnUse" x="358" y="60" width="23" height="168">
<path d="M380.753 71.3201C380.753 65.1577 375.757 60.1622 369.595 60.1622C363.433 60.1622 358.437 65.1577 358.437 71.3201V227.19H380.753V71.3201Z" fill="url(#paint8_linear_19_334)"/>
</mask>
<g mask="url(#mask0_19_334)">
<path d="M387.689 22.296L391.07 25.5958L325.697 89.3918L322.315 86.092L387.689 22.296Z" fill="white" fill-opacity="0.11"/>
<path d="M387.689 37.8514L391.07 41.1512L325.697 104.947L322.315 101.647L387.689 37.8514Z" fill="white" fill-opacity="0.11"/>
<path d="M387.689 53.4068L391.07 56.7066L325.697 120.503L322.315 117.203L387.689 53.4068Z" fill="white" fill-opacity="0.11"/>
<path d="M387.689 68.9621L391.07 72.2619L325.697 136.058L322.315 132.758L387.689 68.9621Z" fill="white" fill-opacity="0.11"/>
<path d="M387.689 84.5175L391.07 87.8173L325.697 151.613L322.315 148.313L387.689 84.5175Z" fill="white" fill-opacity="0.11"/>
<path d="M387.689 100.073L391.07 103.373L325.697 167.169L322.315 163.869L387.689 100.073Z" fill="white" fill-opacity="0.11"/>
<path d="M387.689 115.628L391.07 118.928L325.697 182.724L322.315 179.424L387.689 115.628Z" fill="white" fill-opacity="0.11"/>
<path d="M387.689 131.184L391.07 134.483L325.697 198.279L322.315 194.98L387.689 131.184Z" fill="white" fill-opacity="0.11"/>
<path d="M387.689 146.739L391.07 150.039L325.697 213.835L322.315 210.535L387.689 146.739Z" fill="white" fill-opacity="0.11"/>
<path d="M387.689 162.294L391.07 165.594L325.697 229.39L322.315 226.09L387.689 162.294Z" fill="white" fill-opacity="0.11"/>
<path d="M387.689 177.85L391.07 181.15L325.697 244.945L322.315 241.646L387.689 177.85Z" fill="white" fill-opacity="0.11"/>
<path d="M387.689 193.405L391.07 196.705L325.697 260.501L322.315 257.201L387.689 193.405Z" fill="white" fill-opacity="0.11"/>
<path d="M387.689 208.96L391.07 212.26L325.697 276.056L322.315 272.756L387.689 208.96Z" fill="white" fill-opacity="0.11"/>
<path d="M387.689 224.516L391.07 227.816L325.697 291.612L322.315 288.312L387.689 224.516Z" fill="white" fill-opacity="0.11"/>
<path d="M387.689 240.071L391.07 243.371L325.697 307.167L322.315 303.867L387.689 240.071Z" fill="white" fill-opacity="0.11"/>
<path d="M387.689 255.627L391.07 258.926L325.697 322.722L322.315 319.423L387.689 255.627Z" fill="white" fill-opacity="0.11"/>
</g>
<path d="M354.611 167.655C354.611 161.058 349.615 155.711 343.453 155.711C337.291 155.711 332.295 161.058 332.295 167.655V227.19H354.611V167.655Z" fill="url(#paint9_linear_19_334)"/>
<path d="M234.105 199.748C234.105 193.151 229.11 187.803 222.947 187.803C216.785 187.803 211.79 193.151 211.79 199.748V227.19H234.105V199.748Z" fill="url(#paint10_linear_19_334)"/>
<path d="M207.963 104.618C207.963 98.0209 202.968 92.6733 196.805 92.6733C190.643 92.6733 185.647 98.021 185.647 104.618V227.19H207.963V104.618Z" fill="url(#paint11_linear_19_334)"/>
<g filter="url(#filter0_d_19_334)">
<path d="M280.65 12.9713C280.65 8.39354 284.361 4.68254 288.939 4.68254H379.478C384.056 4.68254 387.767 8.39355 387.767 12.9713V46.9483C387.767 51.5003 384.077 55.1903 379.525 55.1903C376.543 55.1903 373.793 56.8012 372.335 59.4025L371.983 60.0311C371.496 60.9 370.245 60.9 369.758 60.0311L369.419 59.4265C367.953 56.8103 365.188 55.1903 362.189 55.1903H288.939C284.361 55.1903 280.65 51.4793 280.65 46.9016V12.9713Z" fill="white"/>
</g>
<path d="M318.869 27.9311L319.018 25.6242L319.649 25.6931L319.512 27.9311H318.869ZM320.212 19.1743L319.569 19.0825L319.718 17.338H320.349L320.212 19.1743ZM319.615 26.6342C319.339 26.6342 319.033 26.6151 318.697 26.5768C318.36 26.5462 318.035 26.5079 317.721 26.462C317.415 26.4161 317.151 26.3702 316.929 26.3243L317.021 25.1193C317.251 25.1499 317.515 25.1805 317.813 25.2111C318.119 25.2417 318.421 25.2685 318.72 25.2914C319.026 25.3144 319.286 25.3258 319.5 25.3258C319.921 25.3258 320.227 25.2455 320.418 25.0848C320.61 24.9165 320.705 24.6564 320.705 24.3044C320.705 24.1131 320.663 23.9639 320.579 23.8568C320.502 23.7421 320.365 23.6502 320.166 23.5814C319.974 23.5125 319.703 23.4437 319.351 23.3748C318.754 23.26 318.272 23.1223 317.905 22.9616C317.545 22.801 317.281 22.5753 317.113 22.2845C316.952 21.9861 316.872 21.5883 316.872 21.0909C316.872 20.5171 316.979 20.0657 317.193 19.7367C317.408 19.4 317.71 19.1628 318.1 19.0251C318.498 18.8874 318.968 18.8185 319.512 18.8185C319.756 18.8185 320.036 18.8338 320.349 18.8644C320.663 18.8874 320.973 18.918 321.279 18.9563C321.585 18.9945 321.849 19.0328 322.071 19.071L321.991 20.299C321.769 20.2761 321.512 20.2493 321.222 20.2187C320.931 20.1881 320.644 20.1651 320.361 20.1498C320.078 20.1269 319.837 20.1154 319.638 20.1154C319.225 20.1154 318.919 20.1843 318.72 20.322C318.521 20.4521 318.421 20.6625 318.421 20.9532C318.421 21.1674 318.463 21.3358 318.548 21.4582C318.639 21.573 318.789 21.6686 318.995 21.7451C319.202 21.814 319.489 21.8866 319.856 21.9632C320.292 22.0626 320.663 22.1697 320.969 22.2845C321.275 22.3916 321.524 22.5217 321.715 22.6747C321.906 22.8277 322.044 23.0267 322.128 23.2715C322.22 23.5163 322.266 23.8262 322.266 24.2011C322.266 24.7903 322.159 25.2646 321.945 25.6242C321.738 25.9762 321.436 26.2325 321.038 26.3932C320.648 26.5539 320.173 26.6342 319.615 26.6342ZM325.82 26.6342L324.305 26.2669L326.784 20.6663V20.3679H323.49V18.9333H328.391V20.6433L325.82 26.6342ZM332.381 26.6342C331.394 26.6342 330.671 26.2937 330.212 25.6128C329.753 24.9318 329.523 23.9716 329.523 22.7321C329.523 21.9976 329.596 21.3817 329.741 20.8843C329.894 20.3794 330.105 19.9777 330.372 19.6793C330.648 19.3732 330.973 19.1514 331.348 19.0136C331.723 18.8759 332.136 18.8071 332.587 18.8071C332.825 18.8071 333.081 18.8224 333.356 18.853C333.639 18.8836 333.915 18.9218 334.183 18.9677C334.45 19.006 334.676 19.0442 334.86 19.0825L334.733 20.2646C334.573 20.2493 334.37 20.2302 334.125 20.2072C333.888 20.1843 333.639 20.1651 333.379 20.1498C333.119 20.1269 332.87 20.1154 332.633 20.1154C332.113 20.1154 331.723 20.2799 331.463 20.6089C331.202 20.9303 331.065 21.3931 331.049 21.9976C331.126 21.9746 331.222 21.9479 331.336 21.9173C331.459 21.879 331.589 21.8407 331.727 21.8025C331.872 21.7566 332.017 21.7221 332.163 21.6992C332.308 21.6686 332.446 21.6533 332.576 21.6533C333.425 21.6533 334.06 21.8522 334.481 22.2501C334.909 22.6403 335.124 23.2562 335.124 24.0978C335.124 24.664 335.013 25.1346 334.791 25.5095C334.569 25.8844 334.255 26.1675 333.85 26.3588C333.444 26.5424 332.955 26.6342 332.381 26.6342ZM332.381 25.3488C332.802 25.3488 333.115 25.2417 333.322 25.0274C333.536 24.8056 333.643 24.4957 333.643 24.0978C333.643 23.7 333.536 23.4092 333.322 23.2256C333.108 23.0343 332.805 22.9387 332.415 22.9387C332.255 22.9387 332.086 22.954 331.91 22.9846C331.734 23.0152 331.57 23.0573 331.417 23.1108C331.264 23.1567 331.137 23.2026 331.038 23.2486C331.046 23.6541 331.092 24.0175 331.176 24.3388C331.26 24.6525 331.398 24.9012 331.589 25.0848C331.788 25.2608 332.052 25.3488 332.381 25.3488ZM335.786 27.8278L336.199 24.8897H337.874L337.048 27.8278H335.786ZM341.409 26.6342C341.126 26.6342 340.828 26.6189 340.514 26.5883C340.208 26.5577 339.914 26.5194 339.63 26.4735C339.355 26.42 339.126 26.3741 338.942 26.3358L339.011 25.1078C339.194 25.1307 339.412 25.1575 339.665 25.1881C339.925 25.2187 340.189 25.2455 340.457 25.2685C340.732 25.2838 340.985 25.2914 341.214 25.2914C341.65 25.2914 341.976 25.2111 342.19 25.0504C342.404 24.8897 342.511 24.6296 342.511 24.27C342.511 24.0251 342.461 23.8339 342.362 23.6961C342.27 23.5508 342.132 23.4437 341.949 23.3748C341.773 23.3059 341.566 23.2677 341.329 23.26H339.768V21.9976H341.295C341.471 21.9976 341.639 21.9593 341.8 21.8828C341.968 21.8063 342.102 21.6954 342.201 21.55C342.308 21.4046 342.362 21.2286 342.362 21.0221C342.362 20.7007 342.262 20.475 342.064 20.3449C341.872 20.2072 341.559 20.1384 341.122 20.1384C340.893 20.1384 340.652 20.1498 340.399 20.1728C340.147 20.1957 339.906 20.2225 339.676 20.2531C339.447 20.2761 339.256 20.3029 339.103 20.3335L339.034 19.1284C339.202 19.0825 339.409 19.0366 339.653 18.9907C339.898 18.9371 340.158 18.895 340.434 18.8644C340.709 18.8262 340.969 18.8071 341.214 18.8071C341.865 18.8071 342.389 18.8759 342.787 19.0136C343.192 19.1437 343.487 19.3618 343.67 19.6678C343.854 19.9662 343.946 20.3602 343.946 20.8499C343.946 21.1177 343.911 21.3434 343.842 21.527C343.781 21.7107 343.697 21.8675 343.59 21.9976C343.49 22.1277 343.387 22.2348 343.28 22.3189C343.173 22.3955 343.074 22.4643 342.982 22.5255C343.211 22.6326 343.41 22.7512 343.578 22.8813C343.747 23.0114 343.877 23.1835 343.969 23.3978C344.061 23.612 344.106 23.8989 344.106 24.2585C344.106 24.8323 344.007 25.2952 343.808 25.6472C343.609 25.9915 343.311 26.244 342.913 26.4047C342.515 26.5577 342.014 26.6342 341.409 26.6342ZM347.787 26.6342C347.503 26.6342 347.205 26.6189 346.891 26.5883C346.585 26.5577 346.291 26.5194 346.008 26.4735C345.732 26.42 345.503 26.3741 345.319 26.3358L345.388 25.1078C345.572 25.1307 345.79 25.1575 346.042 25.1881C346.302 25.2187 346.566 25.2455 346.834 25.2685C347.109 25.2838 347.362 25.2914 347.591 25.2914C348.028 25.2914 348.353 25.2111 348.567 25.0504C348.781 24.8897 348.888 24.6296 348.888 24.27C348.888 24.0251 348.839 23.8339 348.739 23.6961C348.647 23.5508 348.51 23.4437 348.326 23.3748C348.15 23.3059 347.943 23.2677 347.706 23.26H346.145V21.9976H347.672C347.848 21.9976 348.016 21.9593 348.177 21.8828C348.345 21.8063 348.479 21.6954 348.578 21.55C348.686 21.4046 348.739 21.2286 348.739 21.0221C348.739 20.7007 348.64 20.475 348.441 20.3449C348.249 20.2072 347.936 20.1384 347.5 20.1384C347.27 20.1384 347.029 20.1498 346.777 20.1728C346.524 20.1957 346.283 20.2225 346.054 20.2531C345.824 20.2761 345.633 20.3029 345.48 20.3335L345.411 19.1284C345.579 19.0825 345.786 19.0366 346.031 18.9907C346.275 18.9371 346.536 18.895 346.811 18.8644C347.087 18.8262 347.347 18.8071 347.591 18.8071C348.242 18.8071 348.766 18.8759 349.164 19.0136C349.569 19.1437 349.864 19.3618 350.048 19.6678C350.231 19.9662 350.323 20.3602 350.323 20.8499C350.323 21.1177 350.289 21.3434 350.22 21.527C350.158 21.7107 350.074 21.8675 349.967 21.9976C349.868 22.1277 349.764 22.2348 349.657 22.3189C349.55 22.3955 349.451 22.4643 349.359 22.5255C349.588 22.6326 349.787 22.7512 349.956 22.8813C350.124 23.0114 350.254 23.1835 350.346 23.3978C350.438 23.612 350.484 23.8989 350.484 24.2585C350.484 24.8323 350.384 25.2952 350.185 25.6472C349.986 25.9915 349.688 26.244 349.29 26.4047C348.892 26.5577 348.391 26.6342 347.787 26.6342ZM354.91 26.5079V25.2455H351.467V24.0978L353.188 18.9333H354.956L353.039 23.9257H354.91L355.002 21.9746L356.471 21.9517V23.9257H357.171V25.2455H356.471V26.5079H354.91Z" fill="#202020"/>
<path d="M312.492 43.3967L310.657 38.5624H310.627C310.637 38.6646 310.646 38.7891 310.654 38.936C310.661 39.083 310.667 39.2436 310.672 39.418C310.677 39.5898 310.68 39.7654 310.68 39.9447V43.3967H310.089V37.9348H311.031L312.761 42.4777H312.787L314.543 37.9348H315.477V43.3967H314.849V39.8999C314.849 39.738 314.852 39.5761 314.857 39.4142C314.861 39.2499 314.868 39.0954 314.875 38.951C314.883 38.804 314.89 38.677 314.898 38.5699H314.868L313.011 43.3967H312.492ZM318.409 39.2349C318.898 39.2349 319.26 39.3445 319.497 39.5637C319.733 39.7828 319.851 40.1328 319.851 40.6135V43.3967H319.399L319.28 42.7915H319.25C319.135 42.9409 319.016 43.0667 318.891 43.1688C318.767 43.2685 318.622 43.3444 318.458 43.3967C318.296 43.4465 318.097 43.4714 317.86 43.4714C317.611 43.4714 317.389 43.4279 317.195 43.3407C317.003 43.2535 316.851 43.1215 316.739 42.9447C316.63 42.7678 316.575 42.5437 316.575 42.2722C316.575 41.8638 316.737 41.5499 317.061 41.3308C317.384 41.1116 317.878 40.992 318.54 40.9721L319.246 40.9422V40.6919C319.246 40.3383 319.17 40.0904 319.018 39.9485C318.866 39.8065 318.652 39.7355 318.376 39.7355C318.162 39.7355 317.957 39.7667 317.763 39.8289C317.569 39.8912 317.384 39.9647 317.21 40.0493L317.02 39.5786C317.204 39.484 317.416 39.403 317.655 39.3358C317.894 39.2685 318.145 39.2349 318.409 39.2349ZM319.239 41.3793L318.615 41.4055C318.104 41.4254 317.744 41.5088 317.535 41.6558C317.326 41.8027 317.221 42.0107 317.221 42.2797C317.221 42.5138 317.292 42.6869 317.434 42.799C317.576 42.9111 317.764 42.9671 317.998 42.9671C318.362 42.9671 318.66 42.8662 318.891 42.6645C319.123 42.4627 319.239 42.1601 319.239 41.7567V41.3793ZM320.483 39.3022H321.148L322.052 41.6782C322.104 41.8177 322.153 41.9522 322.198 42.0817C322.242 42.2087 322.282 42.3307 322.317 42.4478C322.352 42.5649 322.379 42.6782 322.399 42.7878H322.425C322.46 42.6632 322.51 42.5001 322.575 42.2984C322.64 42.0941 322.709 41.8862 322.784 41.6745L323.64 39.3022H324.308L322.526 43.9982C322.432 44.2498 322.321 44.4689 322.194 44.6557C322.069 44.8425 321.917 44.9857 321.738 45.0854C321.559 45.1875 321.342 45.2385 321.088 45.2385C320.971 45.2385 320.868 45.2311 320.778 45.2161C320.688 45.2037 320.611 45.1887 320.546 45.1713V44.6744C320.601 44.6869 320.667 44.6981 320.744 44.708C320.824 44.718 320.906 44.723 320.991 44.723C321.145 44.723 321.279 44.6931 321.391 44.6333C321.505 44.576 321.604 44.4914 321.686 44.3793C321.768 44.2672 321.839 44.1339 321.899 43.9795L322.123 43.4042L320.483 39.3022ZM330.252 43.3967H326.673V42.8774L328.134 41.3943C328.405 41.1203 328.633 40.8762 328.818 40.662C329.004 40.4478 329.146 40.2374 329.244 40.0307C329.341 39.8215 329.389 39.5923 329.389 39.3433C329.389 39.0344 329.297 38.7991 329.113 38.6372C328.931 38.4728 328.691 38.3906 328.392 38.3906C328.13 38.3906 327.899 38.4354 327.697 38.5251C327.495 38.6148 327.288 38.7418 327.077 38.9062L326.744 38.4877C326.889 38.3657 327.046 38.2573 327.215 38.1627C327.387 38.0681 327.57 37.9933 327.764 37.9386C327.961 37.8838 328.17 37.8564 328.392 37.8564C328.728 37.8564 329.018 37.9149 329.262 38.0319C329.506 38.149 329.694 38.3159 329.826 38.5326C329.961 38.7492 330.028 39.007 330.028 39.3059C330.028 39.5948 329.971 39.8638 329.856 40.1129C329.742 40.3594 329.581 40.6048 329.374 40.8488C329.168 41.0904 328.926 41.347 328.65 41.6184L327.461 42.8027V42.8289H330.252V43.3967ZM333.361 43.3967H332.755V39.5263C332.755 39.3794 332.755 39.2536 332.755 39.149C332.758 39.0419 332.76 38.9448 332.763 38.8576C332.768 38.7679 332.774 38.677 332.781 38.5849C332.704 38.6646 332.632 38.7331 332.565 38.7903C332.498 38.8451 332.414 38.9136 332.314 38.9958L331.691 39.4964L331.366 39.0743L332.845 37.9348H333.361V43.3967ZM337.029 42.9634C337.131 42.9634 337.236 42.9546 337.343 42.9372C337.45 42.9198 337.537 42.8986 337.605 42.8737V43.3556C337.532 43.388 337.431 43.4154 337.302 43.4378C337.175 43.4602 337.05 43.4714 336.928 43.4714C336.712 43.4714 336.515 43.4341 336.338 43.3594C336.161 43.2822 336.019 43.1526 335.912 42.9708C335.808 42.789 335.755 42.5375 335.755 42.2162V39.7878H335.172V39.4852L335.759 39.2424L336.006 38.3532H336.379V39.3022H337.578V39.7878H336.379V42.1975C336.379 42.454 336.438 42.6458 336.555 42.7728C336.674 42.8999 336.832 42.9634 337.029 42.9634ZM339.054 37.5836V39.3208C339.054 39.4205 339.052 39.5213 339.047 39.6235C339.042 39.7231 339.033 39.8152 339.02 39.8999H339.062C339.146 39.7555 339.253 39.6347 339.383 39.5375C339.515 39.4379 339.664 39.3632 339.831 39.3134C339.998 39.2611 340.175 39.2349 340.362 39.2349C340.69 39.2349 340.964 39.2872 341.184 39.3918C341.405 39.4964 341.571 39.6583 341.68 39.8775C341.792 40.0967 341.849 40.3806 341.849 40.7293V43.3967H341.236V40.7704C341.236 40.4292 341.157 40.1739 341 40.0045C340.846 39.8352 340.608 39.7505 340.287 39.7505C339.983 39.7505 339.74 39.809 339.558 39.9261C339.379 40.0406 339.25 40.21 339.17 40.4341C339.093 40.6583 339.054 40.9323 339.054 41.256V43.3967H338.434V37.5836H339.054ZM343.836 42.5076L343.885 42.5935C343.84 42.7753 343.782 42.9696 343.713 43.1763C343.645 43.383 343.571 43.5898 343.489 43.7965C343.409 44.0057 343.328 44.2012 343.246 44.383H342.782C342.835 44.1838 342.886 43.9733 342.936 43.7516C342.985 43.5325 343.03 43.3158 343.07 43.1016C343.113 42.8849 343.146 42.6869 343.171 42.5076H343.836ZM350.396 43.3967H346.817V42.8774L348.278 41.3943C348.55 41.1203 348.777 40.8762 348.962 40.662C349.149 40.4478 349.29 40.2374 349.388 40.0307C349.485 39.8215 349.533 39.5923 349.533 39.3433C349.533 39.0344 349.441 38.7991 349.257 38.6372C349.075 38.4728 348.835 38.3906 348.536 38.3906C348.274 38.3906 348.043 38.4354 347.841 38.5251C347.639 38.6148 347.432 38.7418 347.221 38.9062L346.888 38.4877C347.033 38.3657 347.19 38.2573 347.359 38.1627C347.531 38.0681 347.714 37.9933 347.908 37.9386C348.105 37.8838 348.314 37.8564 348.536 37.8564C348.872 37.8564 349.162 37.9149 349.406 38.0319C349.65 38.149 349.838 38.3159 349.97 38.5326C350.105 38.7492 350.172 39.007 350.172 39.3059C350.172 39.5948 350.115 39.8638 350 40.1129C349.886 40.3594 349.725 40.6048 349.518 40.8488C349.312 41.0904 349.07 41.347 348.794 41.6184L347.606 42.8027V42.8289H350.396V43.3967ZM354.805 40.6583C354.805 41.1016 354.771 41.4976 354.704 41.8463C354.637 42.195 354.531 42.4901 354.386 42.7317C354.242 42.9733 354.055 43.1576 353.826 43.2847C353.597 43.4092 353.322 43.4714 353 43.4714C352.594 43.4714 352.258 43.3606 351.992 43.139C351.728 42.9173 351.53 42.5972 351.398 42.1788C351.268 41.7579 351.203 41.2511 351.203 40.6583C351.203 40.0755 351.262 39.5749 351.379 39.1565C351.498 38.7355 351.69 38.413 351.954 38.1889C352.218 37.9622 352.567 37.8489 353 37.8489C353.411 37.8489 353.75 37.961 354.016 38.1851C354.283 38.4068 354.481 38.7281 354.61 39.149C354.74 39.5674 354.805 40.0705 354.805 40.6583ZM351.827 40.6583C351.827 41.1664 351.866 41.5898 351.943 41.9285C352.02 42.2672 352.145 42.5213 352.317 42.6906C352.491 42.8575 352.719 42.9409 353 42.9409C353.282 42.9409 353.508 42.8575 353.68 42.6906C353.855 42.5238 353.98 42.271 354.058 41.9322C354.137 41.5935 354.177 41.1689 354.177 40.6583C354.177 40.1577 354.138 39.7393 354.061 39.403C353.984 39.0643 353.859 38.8103 353.688 38.6409C353.516 38.4691 353.287 38.3831 353 38.3831C352.714 38.3831 352.485 38.4691 352.313 38.6409C352.141 38.8103 352.016 39.0643 351.939 39.403C351.865 39.7393 351.827 40.1577 351.827 40.6583ZM359.153 43.3967H355.574V42.8774L357.035 41.3943C357.307 41.1203 357.534 40.8762 357.719 40.662C357.905 40.4478 358.047 40.2374 358.145 40.0307C358.242 39.8215 358.29 39.5923 358.29 39.3433C358.29 39.0344 358.198 38.7991 358.014 38.6372C357.832 38.4728 357.592 38.3906 357.293 38.3906C357.031 38.3906 356.8 38.4354 356.598 38.5251C356.396 38.6148 356.189 38.7418 355.978 38.9062L355.645 38.4877C355.79 38.3657 355.947 38.2573 356.116 38.1627C356.288 38.0681 356.471 37.9933 356.665 37.9386C356.862 37.8838 357.071 37.8564 357.293 37.8564C357.629 37.8564 357.919 37.9149 358.163 38.0319C358.407 38.149 358.595 38.3159 358.727 38.5326C358.862 38.7492 358.929 39.007 358.929 39.3059C358.929 39.5948 358.872 39.8638 358.757 40.1129C358.643 40.3594 358.482 40.6048 358.275 40.8488C358.069 41.0904 357.827 41.347 357.551 41.6184L356.363 42.8027V42.8289H359.153V43.3967ZM363.562 40.6583C363.562 41.1016 363.528 41.4976 363.461 41.8463C363.394 42.195 363.288 42.4901 363.143 42.7317C362.999 42.9733 362.812 43.1576 362.583 43.2847C362.354 43.4092 362.079 43.4714 361.757 43.4714C361.351 43.4714 361.015 43.3606 360.749 43.139C360.485 42.9173 360.287 42.5972 360.155 42.1788C360.025 41.7579 359.96 41.2511 359.96 40.6583C359.96 40.0755 360.019 39.5749 360.136 39.1565C360.255 38.7355 360.447 38.413 360.711 38.1889C360.975 37.9622 361.324 37.8489 361.757 37.8489C362.168 37.8489 362.507 37.961 362.773 38.1851C363.04 38.4068 363.238 38.7281 363.367 39.149C363.497 39.5674 363.562 40.0705 363.562 40.6583ZM360.584 40.6583C360.584 41.1664 360.623 41.5898 360.7 41.9285C360.777 42.2672 360.902 42.5213 361.074 42.6906C361.248 42.8575 361.476 42.9409 361.757 42.9409C362.039 42.9409 362.265 42.8575 362.437 42.6906C362.612 42.5238 362.737 42.271 362.814 41.9322C362.894 41.5935 362.934 41.1689 362.934 40.6583C362.934 40.1577 362.895 39.7393 362.818 39.403C362.741 39.0643 362.616 38.8103 362.445 38.6409C362.273 38.4691 362.044 38.3831 361.757 38.3831C361.471 38.3831 361.242 38.4691 361.07 38.6409C360.898 38.8103 360.773 39.0643 360.696 39.403C360.622 39.7393 360.584 40.1577 360.584 40.6583Z" fill="#A5A5A5"/>
<rect y="226" width="403.279" height="0.926831" rx="0.463415" fill="#E9ECFF"/>
<path d="M28.6498 251.983C28.4713 251.983 28.263 251.971 28.0249 251.947C27.7869 251.929 27.5489 251.905 27.3108 251.876C27.0787 251.84 26.8734 251.81 26.6949 251.786L26.7663 251.197C26.9389 251.215 27.1383 251.236 27.3644 251.26C27.5965 251.284 27.8226 251.304 28.0428 251.322C28.2689 251.34 28.4594 251.349 28.6141 251.349C29.0485 251.349 29.3728 251.251 29.5871 251.054C29.8013 250.858 29.9084 250.552 29.9084 250.135C29.9084 249.909 29.8638 249.73 29.7745 249.599C29.6912 249.463 29.5484 249.355 29.346 249.278C29.1497 249.195 28.8848 249.12 28.5516 249.055C28.1231 248.966 27.7661 248.861 27.4804 248.742C27.2007 248.618 26.9895 248.442 26.8467 248.216C26.7098 247.99 26.6414 247.683 26.6414 247.296C26.6414 246.898 26.7217 246.576 26.8824 246.332C27.049 246.088 27.2811 245.91 27.5786 245.797C27.8821 245.684 28.2332 245.627 28.6319 245.627C28.8105 245.627 29.0128 245.639 29.2389 245.663C29.471 245.681 29.6971 245.705 29.9173 245.734C30.1435 245.758 30.3369 245.785 30.4975 245.815L30.4351 246.413C30.2625 246.389 30.0631 246.368 29.837 246.35C29.6109 246.326 29.3936 246.306 29.1854 246.288C28.9771 246.27 28.8105 246.261 28.6855 246.261C28.2511 246.261 27.9208 246.341 27.6947 246.502C27.4745 246.663 27.3644 246.913 27.3644 247.252C27.3644 247.514 27.412 247.713 27.5072 247.85C27.6084 247.987 27.7691 248.094 27.9892 248.171C28.2094 248.249 28.498 248.329 28.8551 248.412C29.1645 248.484 29.4294 248.561 29.6495 248.644C29.8757 248.728 30.0602 248.832 30.203 248.957C30.3517 249.076 30.4589 249.227 30.5243 249.412C30.5957 249.59 30.6314 249.814 30.6314 250.081C30.6314 250.534 30.5511 250.9 30.3904 251.179C30.2298 251.459 30.0006 251.664 29.7031 251.795C29.4056 251.92 29.0544 251.983 28.6498 251.983ZM33.0504 251.992C32.6696 251.992 32.378 251.914 32.1756 251.76C31.9733 251.605 31.8335 251.364 31.7561 251.037C31.6847 250.709 31.649 250.287 31.649 249.769V247.439H32.3363V249.769C32.3363 250.162 32.3542 250.474 32.3899 250.706C32.4315 250.938 32.5178 251.108 32.6487 251.215C32.7796 251.316 32.976 251.367 33.2379 251.367C33.4997 251.367 33.7377 251.331 33.952 251.26C34.1662 251.188 34.3388 251.117 34.4697 251.045V247.439H35.157V251.902H34.4697V251.59C34.2793 251.697 34.071 251.792 33.8449 251.876C33.6247 251.953 33.3599 251.992 33.0504 251.992ZM36.4444 251.902V247.439H37.1318V247.752C37.2329 247.692 37.3579 247.633 37.5067 247.573C37.6614 247.514 37.8251 247.463 37.9976 247.421C38.1702 247.374 38.3368 247.35 38.4975 247.35C38.9081 247.35 39.2205 247.424 39.4348 247.573C39.655 247.716 39.8067 247.948 39.89 248.269C39.9733 248.591 40.015 249.013 40.015 249.537V251.902H39.3187V249.564C39.3187 249.177 39.2949 248.867 39.2473 248.635C39.2057 248.403 39.1164 248.237 38.9795 248.135C38.8486 248.028 38.6463 247.975 38.3725 247.975C38.2238 247.975 38.069 247.993 37.9084 248.028C37.7536 248.058 37.6078 248.1 37.471 248.153C37.3341 248.201 37.221 248.249 37.1318 248.296V251.902H36.4444Z" fill="#787878"/>
<path d="M100.897 251.902V245.734H102.192L103.897 250.912L105.61 245.734H106.905V251.902H106.191V246.493H106.057L104.298 251.679H103.504L101.745 246.493H101.611V251.902H100.897ZM110.009 251.992C109.51 251.992 109.12 251.905 108.84 251.733C108.566 251.56 108.373 251.298 108.26 250.947C108.153 250.596 108.099 250.153 108.099 249.617C108.099 249.105 108.159 248.683 108.278 248.35C108.403 248.016 108.605 247.767 108.885 247.6C109.164 247.433 109.539 247.35 110.009 247.35C110.486 247.35 110.863 247.433 111.143 247.6C111.423 247.767 111.622 248.016 111.741 248.35C111.866 248.683 111.929 249.105 111.929 249.617C111.929 250.153 111.872 250.596 111.759 250.947C111.652 251.298 111.459 251.56 111.179 251.733C110.905 251.905 110.515 251.992 110.009 251.992ZM110.009 251.394C110.355 251.394 110.613 251.334 110.786 251.215C110.959 251.09 111.072 250.897 111.125 250.635C111.185 250.373 111.215 250.034 111.215 249.617C111.215 249.207 111.179 248.879 111.107 248.635C111.036 248.391 110.914 248.216 110.741 248.109C110.569 248.002 110.325 247.948 110.009 247.948C109.7 247.948 109.456 248.002 109.278 248.109C109.105 248.216 108.983 248.391 108.912 248.635C108.84 248.879 108.804 249.207 108.804 249.617C108.804 250.034 108.831 250.373 108.885 250.635C108.944 250.897 109.06 251.09 109.233 251.215C109.405 251.334 109.664 251.394 110.009 251.394ZM113.02 251.902V247.439H113.708V247.752C113.809 247.692 113.934 247.633 114.083 247.573C114.237 247.514 114.401 247.463 114.573 247.421C114.746 247.374 114.913 247.35 115.073 247.35C115.484 247.35 115.796 247.424 116.011 247.573C116.231 247.716 116.383 247.948 116.466 248.269C116.549 248.591 116.591 249.013 116.591 249.537V251.902H115.895V249.564C115.895 249.177 115.871 248.867 115.823 248.635C115.782 248.403 115.692 248.237 115.555 248.135C115.424 248.028 115.222 247.975 114.948 247.975C114.8 247.975 114.645 247.993 114.484 248.028C114.33 248.058 114.184 248.1 114.047 248.153C113.91 248.201 113.797 248.249 113.708 248.296V251.902H113.02Z" fill="#787878"/>
<path d="M178.77 251.902V246.377H176.887V245.734H181.35V246.377H179.484V251.902H178.77ZM183.469 251.992C183.088 251.992 182.796 251.914 182.594 251.76C182.391 251.605 182.252 251.364 182.174 251.037C182.103 250.709 182.067 250.287 182.067 249.769V247.439H182.754V249.769C182.754 250.162 182.772 250.474 182.808 250.706C182.85 250.938 182.936 251.108 183.067 251.215C183.198 251.316 183.394 251.367 183.656 251.367C183.918 251.367 184.156 251.331 184.37 251.26C184.584 251.188 184.757 251.117 184.888 251.045V247.439H185.575V251.902H184.888V251.59C184.697 251.697 184.489 251.792 184.263 251.876C184.043 251.953 183.778 251.992 183.469 251.992ZM188.443 251.992C187.996 251.992 187.642 251.905 187.38 251.733C187.124 251.56 186.94 251.304 186.827 250.965C186.714 250.626 186.657 250.203 186.657 249.698C186.657 249.132 186.735 248.68 186.889 248.341C187.044 247.996 187.261 247.746 187.541 247.591C187.821 247.43 188.151 247.35 188.532 247.35C189.127 247.35 189.576 247.517 189.88 247.85C190.183 248.177 190.335 248.707 190.335 249.439L190.299 249.965H187.362C187.368 250.43 187.455 250.781 187.621 251.019C187.788 251.257 188.088 251.376 188.523 251.376C188.69 251.376 188.871 251.373 189.067 251.367C189.27 251.355 189.469 251.343 189.665 251.331C189.862 251.319 190.028 251.307 190.165 251.295L190.183 251.84C190.04 251.864 189.865 251.888 189.657 251.911C189.454 251.935 189.246 251.953 189.032 251.965C188.817 251.983 188.621 251.992 188.443 251.992ZM187.362 249.403H189.639C189.639 248.856 189.549 248.475 189.371 248.26C189.198 248.04 188.919 247.93 188.532 247.93C188.157 247.93 187.868 248.043 187.666 248.269C187.464 248.496 187.362 248.873 187.362 249.403Z" fill="#787878"/>
<path d="M250.869 251.902L249.628 245.734H250.369L251.404 251.278H251.654L252.904 245.779H253.743L254.993 251.278H255.243L256.278 245.734H257.019L255.769 251.902H254.484L253.261 246.35H253.386L252.163 251.902H250.869ZM259.507 251.992C259.061 251.992 258.707 251.905 258.445 251.733C258.189 251.56 258.004 251.304 257.891 250.965C257.778 250.626 257.722 250.203 257.722 249.698C257.722 249.132 257.799 248.68 257.954 248.341C258.108 247.996 258.326 247.746 258.605 247.591C258.885 247.43 259.215 247.35 259.596 247.35C260.191 247.35 260.641 247.517 260.944 247.85C261.248 248.177 261.399 248.707 261.399 249.439L261.364 249.965H258.427C258.433 250.43 258.519 250.781 258.686 251.019C258.852 251.257 259.153 251.376 259.587 251.376C259.754 251.376 259.935 251.373 260.132 251.367C260.334 251.355 260.533 251.343 260.73 251.331C260.926 251.319 261.093 251.307 261.23 251.295L261.248 251.84C261.105 251.864 260.929 251.888 260.721 251.911C260.519 251.935 260.31 251.953 260.096 251.965C259.882 251.983 259.685 251.992 259.507 251.992ZM258.427 249.403H260.703C260.703 248.856 260.614 248.475 260.435 248.26C260.263 248.04 259.983 247.93 259.596 247.93C259.221 247.93 258.933 248.043 258.73 248.269C258.528 248.496 258.427 248.873 258.427 249.403ZM263.844 251.992C263.666 251.992 263.496 251.971 263.335 251.929C263.175 251.893 263.026 251.828 262.889 251.733C262.758 251.638 262.642 251.507 262.541 251.34C262.44 251.167 262.362 250.947 262.309 250.679C262.255 250.412 262.228 250.087 262.228 249.707C262.228 249.177 262.291 248.74 262.416 248.394C262.541 248.043 262.74 247.781 263.014 247.609C263.288 247.436 263.651 247.35 264.103 247.35C264.276 247.35 264.469 247.365 264.683 247.395C264.897 247.418 265.064 247.442 265.183 247.466V245.502H265.879V251.902H265.192V251.608C265.097 251.661 264.972 251.718 264.817 251.777C264.668 251.837 264.508 251.888 264.335 251.929C264.168 251.971 264.005 251.992 263.844 251.992ZM263.933 251.367C264.088 251.367 264.243 251.349 264.397 251.313C264.558 251.278 264.707 251.236 264.844 251.188C264.981 251.135 265.094 251.087 265.183 251.045V248.055C265.112 248.043 265.013 248.031 264.888 248.019C264.763 248.002 264.633 247.987 264.496 247.975C264.365 247.963 264.246 247.957 264.139 247.957C263.835 247.957 263.597 248.022 263.425 248.153C263.252 248.284 263.127 248.481 263.05 248.742C262.978 248.998 262.943 249.32 262.943 249.707C262.943 250.064 262.969 250.352 263.023 250.572C263.076 250.787 263.148 250.953 263.237 251.072C263.332 251.185 263.439 251.263 263.558 251.304C263.677 251.346 263.802 251.367 263.933 251.367Z" fill="#787878"/>
<path d="M327.983 251.902V246.377H326.1V245.734H330.563V246.377H328.697V251.902H327.983ZM331.325 251.902V245.502H332.012V247.68C332.167 247.609 332.372 247.537 332.628 247.466C332.89 247.389 333.14 247.35 333.378 247.35C333.789 247.35 334.101 247.424 334.315 247.573C334.536 247.716 334.684 247.948 334.762 248.269C334.845 248.591 334.887 249.013 334.887 249.537V251.902H334.19V249.564C334.19 249.177 334.167 248.867 334.119 248.635C334.077 248.403 333.991 248.237 333.86 248.135C333.729 248.028 333.527 247.975 333.253 247.975C333.027 247.975 332.798 248.005 332.566 248.064C332.334 248.124 332.149 248.18 332.012 248.234V251.902H331.325ZM337.485 251.992C337.104 251.992 336.813 251.914 336.61 251.76C336.408 251.605 336.268 251.364 336.191 251.037C336.119 250.709 336.084 250.287 336.084 249.769V247.439H336.771V249.769C336.771 250.162 336.789 250.474 336.825 250.706C336.866 250.938 336.952 251.108 337.083 251.215C337.214 251.316 337.411 251.367 337.673 251.367C337.934 251.367 338.172 251.331 338.387 251.26C338.601 251.188 338.773 251.117 338.904 251.045V247.439H339.592V251.902H338.904V251.59C338.714 251.697 338.506 251.792 338.28 251.876C338.059 251.953 337.795 251.992 337.485 251.992Z" fill="#787878"/>
<path d="M400.668 251.902V245.734H404.372V246.368H401.382V248.742H403.908V249.376H401.382V251.902H400.668ZM405.259 251.902V247.439H405.947V248.037C406.06 247.96 406.202 247.877 406.375 247.787C406.548 247.692 406.738 247.603 406.946 247.52C407.155 247.436 407.363 247.377 407.571 247.341V248.046C407.369 248.088 407.163 248.144 406.955 248.216C406.747 248.281 406.554 248.353 406.375 248.43C406.202 248.507 406.06 248.576 405.947 248.635V251.902H405.259ZM408.354 251.902V247.439H409.041V251.902H408.354ZM408.354 246.457V245.654H409.041V246.457H408.354Z" fill="#787878"/>
<path d="M5.18135 192.938V192.331L6.87736 190.555C7.12134 190.299 7.3326 190.07 7.51113 189.867C7.68965 189.659 7.82653 189.457 7.92174 189.26C8.01695 189.058 8.06456 188.844 8.06456 188.618C8.06456 188.231 7.95745 187.966 7.74321 187.823C7.53493 187.675 7.21953 187.6 6.79702 187.6C6.6423 187.6 6.46972 187.612 6.27929 187.636C6.08886 187.654 5.90438 187.678 5.72586 187.707C5.55328 187.731 5.40451 187.758 5.27954 187.788L5.22598 187.198C5.35095 187.163 5.50567 187.127 5.69015 187.091C5.87463 187.056 6.07398 187.026 6.28822 187.002C6.5084 186.972 6.72263 186.957 6.93091 186.957C7.55576 186.957 8.02291 187.082 8.33235 187.332C8.64775 187.582 8.80545 187.984 8.80545 188.537C8.80545 188.829 8.75784 189.091 8.66263 189.323C8.57336 189.555 8.43649 189.784 8.25202 190.01C8.07349 190.23 7.84438 190.477 7.56469 190.751L6.02043 192.313H8.94827V192.938H5.18135ZM12.0597 193.027C11.7205 193.027 11.417 192.98 11.1492 192.885C10.8874 192.789 10.6613 192.632 10.4708 192.411C10.2864 192.185 10.1435 191.882 10.0424 191.501C9.94716 191.12 9.89956 190.647 9.89956 190.082C9.89956 189.481 9.94716 188.978 10.0424 188.573C10.1376 188.168 10.2774 187.847 10.4619 187.609C10.6523 187.371 10.8785 187.201 11.1403 187.1C11.4081 186.999 11.7116 186.949 12.0508 186.949C12.4019 186.949 12.7114 186.999 12.9791 187.1C13.2469 187.201 13.4701 187.371 13.6486 187.609C13.8331 187.847 13.9729 188.168 14.0682 188.573C14.1634 188.972 14.211 189.475 14.211 190.082C14.211 190.832 14.1247 191.421 13.9521 191.849C13.7795 192.278 13.5326 192.581 13.2112 192.76C12.8958 192.938 12.512 193.027 12.0597 193.027ZM12.0597 192.394C12.2918 192.394 12.4941 192.358 12.6667 192.287C12.8453 192.215 12.994 192.093 13.113 191.921C13.2321 191.748 13.3213 191.513 13.3808 191.215C13.4403 190.912 13.4701 190.534 13.4701 190.082C13.4701 189.588 13.4403 189.18 13.3808 188.859C13.3273 188.537 13.241 188.285 13.122 188.1C13.0089 187.91 12.8631 187.776 12.6846 187.698C12.512 187.621 12.3037 187.582 12.0597 187.582C11.8217 187.582 11.6134 187.621 11.4349 187.698C11.2564 187.776 11.1076 187.907 10.9886 188.091C10.8755 188.276 10.7892 188.531 10.7297 188.859C10.6702 189.18 10.6404 189.591 10.6404 190.091C10.6404 190.543 10.6702 190.921 10.7297 191.224C10.7952 191.522 10.8874 191.757 11.0064 191.929C11.1314 192.096 11.2802 192.215 11.4527 192.287C11.6313 192.358 11.8336 192.394 12.0597 192.394Z" fill="#787878"/>
<path d="M12.1664 229.202C11.8272 229.202 11.5237 229.154 11.2559 229.059C10.994 228.964 10.7679 228.806 10.5775 228.586C10.393 228.36 10.2502 228.056 10.149 227.675C10.0538 227.295 10.0062 226.822 10.0062 226.256C10.0062 225.655 10.0538 225.152 10.149 224.748C10.2442 224.343 10.3841 224.022 10.5686 223.784C10.759 223.546 10.9851 223.376 11.247 223.275C11.5147 223.174 11.8182 223.123 12.1574 223.123C12.5085 223.123 12.818 223.174 13.0858 223.275C13.3536 223.376 13.5767 223.546 13.7553 223.784C13.9397 224.022 14.0796 224.343 14.1748 224.748C14.27 225.146 14.3176 225.649 14.3176 226.256C14.3176 227.006 14.2313 227.595 14.0588 228.024C13.8862 228.452 13.6392 228.756 13.3179 228.934C13.0025 229.113 12.6186 229.202 12.1664 229.202ZM12.1664 228.568C12.3985 228.568 12.6008 228.532 12.7734 228.461C12.9519 228.39 13.1007 228.268 13.2197 228.095C13.3387 227.922 13.428 227.687 13.4875 227.39C13.547 227.086 13.5767 226.708 13.5767 226.256C13.5767 225.762 13.547 225.355 13.4875 225.033C13.4339 224.712 13.3476 224.459 13.2286 224.275C13.1155 224.084 12.9697 223.95 12.7912 223.873C12.6186 223.795 12.4104 223.757 12.1664 223.757C11.9283 223.757 11.7201 223.795 11.5415 223.873C11.363 223.95 11.2142 224.081 11.0952 224.266C10.9821 224.45 10.8959 224.706 10.8363 225.033C10.7768 225.355 10.7471 225.765 10.7471 226.265C10.7471 226.717 10.7768 227.095 10.8363 227.399C10.9018 227.696 10.994 227.931 11.1131 228.104C11.238 228.271 11.3868 228.39 11.5594 228.461C11.7379 228.532 11.9402 228.568 12.1664 228.568Z" fill="#787878"/>
<path d="M7.12386 158.811V157.669H4.28528V157.115L5.95451 152.92H6.74003L5.03509 157.035H7.12386V155.214H7.83797V157.035H8.57885V157.669H7.83797V158.811H7.12386ZM11.4225 158.9C11.0833 158.9 10.7798 158.853 10.512 158.758C10.2502 158.662 10.0241 158.505 9.83364 158.285C9.64916 158.058 9.50634 157.755 9.40517 157.374C9.30996 156.993 9.26235 156.52 9.26235 155.955C9.26235 155.354 9.30996 154.851 9.40517 154.446C9.50038 154.042 9.64023 153.72 9.82471 153.482C10.0151 153.244 10.2413 153.075 10.5031 152.973C10.7709 152.872 11.0744 152.822 11.4136 152.822C11.7647 152.822 12.0742 152.872 12.3419 152.973C12.6097 153.075 12.8329 153.244 13.0114 153.482C13.1959 153.72 13.3357 154.042 13.431 154.446C13.5262 154.845 13.5738 155.348 13.5738 155.955C13.5738 156.705 13.4875 157.294 13.3149 157.722C13.1423 158.151 12.8954 158.454 12.574 158.633C12.2586 158.811 11.8748 158.9 11.4225 158.9ZM11.4225 158.267C11.6546 158.267 11.8569 158.231 12.0295 158.16C12.208 158.088 12.3568 157.966 12.4758 157.794C12.5949 157.621 12.6841 157.386 12.7436 157.088C12.8031 156.785 12.8329 156.407 12.8329 155.955C12.8329 155.461 12.8031 155.053 12.7436 154.732C12.6901 154.411 12.6038 154.158 12.4848 153.973C12.3717 153.783 12.2259 153.649 12.0474 153.571C11.8748 153.494 11.6665 153.455 11.4225 153.455C11.1845 153.455 10.9762 153.494 10.7977 153.571C10.6192 153.649 10.4704 153.78 10.3514 153.964C10.2383 154.149 10.152 154.405 10.0925 154.732C10.033 155.053 10.0032 155.464 10.0032 155.964C10.0032 156.416 10.033 156.794 10.0925 157.097C10.158 157.395 10.2502 157.63 10.3692 157.803C10.4942 157.969 10.643 158.088 10.8155 158.16C10.9941 158.231 11.1964 158.267 11.4225 158.267Z" fill="#787878"/>
<path d="M6.48116 124.091C5.74325 124.091 5.20469 123.82 4.86549 123.279C4.53224 122.731 4.36561 121.981 4.36561 121.029C4.36561 120.494 4.41917 120.036 4.52629 119.655C4.6334 119.274 4.78813 118.964 4.99046 118.726C5.19279 118.482 5.43678 118.304 5.72242 118.191C6.00806 118.078 6.32644 118.021 6.67754 118.021C6.86202 118.021 7.05542 118.03 7.25775 118.048C7.46008 118.066 7.65349 118.087 7.83797 118.11C8.02244 118.134 8.17717 118.158 8.30214 118.182L8.23073 118.753C8.11766 118.741 7.97186 118.729 7.79334 118.717C7.62076 118.7 7.43628 118.685 7.2399 118.673C7.04947 118.661 6.86202 118.655 6.67754 118.655C6.17171 118.655 5.7849 118.827 5.51711 119.173C5.24932 119.518 5.11245 120.012 5.1065 120.654C5.16006 120.643 5.23742 120.619 5.33859 120.583C5.4457 120.547 5.5677 120.509 5.70457 120.467C5.84739 120.425 5.99319 120.39 6.14196 120.36C6.29073 120.33 6.43355 120.315 6.57042 120.315C7.21907 120.315 7.71002 120.464 8.04327 120.762C8.37652 121.059 8.54315 121.52 8.54315 122.145C8.54315 122.562 8.46281 122.916 8.30214 123.207C8.14146 123.499 7.9064 123.719 7.59696 123.868C7.29346 124.017 6.92153 124.091 6.48116 124.091ZM6.48116 123.457C6.90963 123.457 7.23693 123.344 7.46306 123.118C7.69515 122.892 7.81119 122.568 7.81119 122.145C7.81119 121.74 7.69515 121.44 7.46306 121.244C7.23693 121.047 6.92153 120.949 6.51687 120.949C6.35619 120.949 6.18659 120.967 6.00806 121.003C5.82954 121.038 5.65994 121.083 5.49926 121.136C5.33859 121.184 5.20469 121.232 5.09758 121.279C5.10353 121.69 5.15113 122.062 5.2404 122.395C5.32966 122.722 5.47546 122.981 5.67779 123.172C5.88012 123.362 6.14791 123.457 6.48116 123.457ZM11.4225 124.091C11.0833 124.091 10.7798 124.043 10.512 123.948C10.2502 123.853 10.0241 123.695 9.83364 123.475C9.64916 123.249 9.50634 122.946 9.40517 122.565C9.30996 122.184 9.26235 121.711 9.26235 121.145C9.26235 120.544 9.30996 120.041 9.40517 119.637C9.50038 119.232 9.64023 118.911 9.82471 118.673C10.0151 118.435 10.2413 118.265 10.5031 118.164C10.7709 118.063 11.0744 118.012 11.4136 118.012C11.7647 118.012 12.0742 118.063 12.3419 118.164C12.6097 118.265 12.8329 118.435 13.0114 118.673C13.1959 118.911 13.3357 119.232 13.431 119.637C13.5262 120.036 13.5738 120.538 13.5738 121.145C13.5738 121.895 13.4875 122.484 13.3149 122.913C13.1423 123.341 12.8954 123.645 12.574 123.823C12.2586 124.002 11.8748 124.091 11.4225 124.091ZM11.4225 123.457C11.6546 123.457 11.8569 123.422 12.0295 123.35C12.208 123.279 12.3568 123.157 12.4758 122.984C12.5949 122.812 12.6841 122.577 12.7436 122.279C12.8031 121.976 12.8329 121.598 12.8329 121.145C12.8329 120.651 12.8031 120.244 12.7436 119.922C12.6901 119.601 12.6038 119.348 12.4848 119.164C12.3717 118.973 12.2259 118.839 12.0474 118.762C11.8748 118.685 11.6665 118.646 11.4225 118.646C11.1845 118.646 10.9762 118.685 10.7977 118.762C10.6192 118.839 10.4704 118.97 10.3514 119.155C10.2383 119.339 10.152 119.595 10.0925 119.922C10.033 120.244 10.0032 120.654 10.0032 121.154C10.0032 121.607 10.033 121.984 10.0925 122.288C10.158 122.585 10.2502 122.821 10.3692 122.993C10.4942 123.16 10.643 123.279 10.8155 123.35C10.9941 123.422 11.1964 123.457 11.4225 123.457Z" fill="#787878"/>
<path d="M6.40975 89.2817C6.01699 89.2817 5.65101 89.2341 5.31181 89.1389C4.97856 89.0436 4.71077 88.88 4.50844 88.6479C4.30611 88.4158 4.20494 88.0974 4.20494 87.6928C4.20494 87.3893 4.2466 87.1423 4.32991 86.9519C4.41917 86.7615 4.53819 86.6038 4.68696 86.4788C4.84169 86.3479 5.01724 86.2259 5.21362 86.1128C4.91012 85.9581 4.68101 85.7796 4.52629 85.5772C4.37752 85.3749 4.30313 85.0922 4.30313 84.7292C4.30313 84.39 4.38942 84.1074 4.56199 83.8812C4.73457 83.6551 4.97856 83.4855 5.29396 83.3724C5.60935 83.2594 5.98128 83.2028 6.40975 83.2028C6.83226 83.2028 7.2042 83.2594 7.52554 83.3724C7.84689 83.4855 8.09683 83.6551 8.27536 83.8812C8.45984 84.1074 8.55208 84.393 8.55208 84.7382C8.55208 85.119 8.47471 85.4047 8.31999 85.5951C8.16527 85.7855 7.9183 85.9581 7.5791 86.1128C7.78738 86.208 7.97186 86.3181 8.13254 86.4431C8.29321 86.5681 8.41818 86.7228 8.50744 86.9073C8.59671 87.0858 8.64134 87.3149 8.64134 87.5946C8.64134 88.029 8.54017 88.3682 8.33784 88.6122C8.13551 88.8562 7.86475 89.0288 7.52554 89.1299C7.19229 89.2311 6.82036 89.2817 6.40975 89.2817ZM6.40975 88.6301C6.69539 88.6301 6.94831 88.5973 7.16849 88.5319C7.38867 88.4664 7.56125 88.3533 7.68622 88.1927C7.81119 88.026 7.87367 87.8029 7.87367 87.5232C7.87367 87.2971 7.82904 87.1185 7.73978 86.9876C7.65051 86.8507 7.52852 86.7436 7.3738 86.6663C7.22502 86.5829 7.05245 86.5145 6.85607 86.4609H5.9188C5.62125 86.5443 5.38917 86.6692 5.22254 86.8359C5.05592 87.0025 4.97261 87.2465 4.97261 87.5678C4.97261 87.8297 5.03509 88.0409 5.16006 88.2016C5.28503 88.3563 5.45463 88.4664 5.66886 88.5319C5.88905 88.5973 6.13601 88.6301 6.40975 88.6301ZM5.9188 85.8361H6.85607C7.15361 85.7349 7.38272 85.61 7.5434 85.4612C7.70407 85.3065 7.78441 85.0952 7.78441 84.8274C7.78441 84.4763 7.66242 84.2264 7.41843 84.0776C7.18039 83.9288 6.84714 83.8545 6.41868 83.8545C6.00211 83.8545 5.67184 83.9288 5.42785 84.0776C5.18981 84.2204 5.0708 84.4674 5.0708 84.8185C5.0708 85.0863 5.14221 85.2975 5.28503 85.4523C5.42785 85.607 5.63911 85.7349 5.9188 85.8361ZM11.4225 89.2817C11.0833 89.2817 10.7798 89.2341 10.512 89.1389C10.2502 89.0436 10.0241 88.8859 9.83364 88.6658C9.64916 88.4396 9.50634 88.1361 9.40517 87.7553C9.30996 87.3744 9.26235 86.9013 9.26235 86.336C9.26235 85.7349 9.30996 85.2321 9.40517 84.8274C9.50038 84.4228 9.64023 84.1014 9.82471 83.8634C10.0151 83.6253 10.2413 83.4557 10.5031 83.3546C10.7709 83.2534 11.0744 83.2028 11.4136 83.2028C11.7647 83.2028 12.0742 83.2534 12.3419 83.3546C12.6097 83.4557 12.8329 83.6253 13.0114 83.8634C13.1959 84.1014 13.3357 84.4228 13.431 84.8274C13.5262 85.2261 13.5738 85.729 13.5738 86.336C13.5738 87.0858 13.4875 87.6749 13.3149 88.1034C13.1423 88.5319 12.8954 88.8354 12.574 89.0139C12.2586 89.1924 11.8748 89.2817 11.4225 89.2817ZM11.4225 88.6479C11.6546 88.6479 11.8569 88.6122 12.0295 88.5408C12.208 88.4694 12.3568 88.3474 12.4758 88.1748C12.5949 88.0022 12.6841 87.7672 12.7436 87.4696C12.8031 87.1661 12.8329 86.7882 12.8329 86.336C12.8329 85.8421 12.8031 85.4344 12.7436 85.1131C12.6901 84.7917 12.6038 84.5388 12.4848 84.3543C12.3717 84.1639 12.2259 84.03 12.0474 83.9526C11.8748 83.8753 11.6665 83.8366 11.4225 83.8366C11.1845 83.8366 10.9762 83.8753 10.7977 83.9526C10.6192 84.03 10.4704 84.1609 10.3514 84.3454C10.2383 84.5299 10.152 84.7858 10.0925 85.1131C10.033 85.4344 10.0032 85.845 10.0032 86.3449C10.0032 86.7972 10.033 87.1751 10.0925 87.4786C10.158 87.7761 10.2502 88.0112 10.3692 88.1837C10.4942 88.3504 10.643 88.4694 10.8155 88.5408C10.9941 88.6122 11.1964 88.6479 11.4225 88.6479Z" fill="#787878"/>
<path d="M3.5074 55.0656V49.9686L2.00778 50.9684L1.6775 50.4238L3.55204 49.1742H4.22151V55.0656H3.5074ZM8.23454 55.1548C7.89534 55.1548 7.59184 55.1072 7.32405 55.012C7.06221 54.9168 6.83608 54.7591 6.64565 54.5389C6.46117 54.3128 6.31835 54.0093 6.21718 53.6284C6.12197 53.2476 6.07436 52.7745 6.07436 52.2091C6.07436 51.6081 6.12197 51.1052 6.21718 50.7006C6.3124 50.2959 6.45224 49.9746 6.63672 49.7365C6.82715 49.4985 7.05328 49.3289 7.31512 49.2277C7.58291 49.1265 7.88641 49.076 8.22561 49.076C8.57672 49.076 8.88616 49.1265 9.15395 49.2277C9.42174 49.3289 9.6449 49.4985 9.82343 49.7365C10.0079 49.9746 10.1478 50.2959 10.243 50.7006C10.3382 51.0993 10.3858 51.6021 10.3858 52.2091C10.3858 52.9589 10.2995 53.5481 10.1269 53.9765C9.95435 54.405 9.70739 54.7085 9.38604 54.887C9.07064 55.0656 8.68681 55.1548 8.23454 55.1548ZM8.23454 54.521C8.46662 54.521 8.66895 54.4853 8.84153 54.4139C9.02006 54.3425 9.16883 54.2205 9.28785 54.0479C9.40687 53.8754 9.49613 53.6403 9.55564 53.3428C9.61515 53.0393 9.6449 52.6614 9.6449 52.2091C9.6449 51.7152 9.61515 51.3076 9.55564 50.9862C9.50208 50.6649 9.41579 50.4119 9.29677 50.2275C9.18371 50.037 9.03791 49.9031 8.85938 49.8258C8.68681 49.7484 8.47853 49.7097 8.23454 49.7097C7.9965 49.7097 7.78822 49.7484 7.60969 49.8258C7.43117 49.9031 7.28239 50.0341 7.16338 50.2185C7.05031 50.403 6.96402 50.6589 6.90451 50.9862C6.845 51.3076 6.81525 51.7182 6.81525 52.218C6.81525 52.6703 6.845 53.0482 6.90451 53.3517C6.96997 53.6492 7.06221 53.8843 7.18123 54.0569C7.3062 54.2235 7.45497 54.3425 7.62755 54.4139C7.80607 54.4853 8.0084 54.521 8.23454 54.521ZM13.2295 55.1548C12.8903 55.1548 12.5868 55.1072 12.319 55.012C12.0571 54.9168 11.831 54.7591 11.6406 54.5389C11.4561 54.3128 11.3133 54.0093 11.2121 53.6284C11.1169 53.2476 11.0693 52.7745 11.0693 52.2091C11.0693 51.6081 11.1169 51.1052 11.2121 50.7006C11.3073 50.2959 11.4472 49.9746 11.6316 49.7365C11.8221 49.4985 12.0482 49.3289 12.31 49.2277C12.5778 49.1265 12.8813 49.076 13.2205 49.076C13.5716 49.076 13.8811 49.1265 14.1489 49.2277C14.4167 49.3289 14.6398 49.4985 14.8184 49.7365C15.0028 49.9746 15.1427 50.2959 15.2379 50.7006C15.3331 51.0993 15.3807 51.6021 15.3807 52.2091C15.3807 52.9589 15.2944 53.5481 15.1218 53.9765C14.9493 54.405 14.7023 54.7085 14.381 54.887C14.0656 55.0656 13.6817 55.1548 13.2295 55.1548ZM13.2295 54.521C13.4615 54.521 13.6639 54.4853 13.8365 54.4139C14.015 54.3425 14.1638 54.2205 14.2828 54.0479C14.4018 53.8754 14.4911 53.6403 14.5506 53.3428C14.6101 53.0393 14.6398 52.6614 14.6398 52.2091C14.6398 51.7152 14.6101 51.3076 14.5506 50.9862C14.497 50.6649 14.4107 50.4119 14.2917 50.2275C14.1786 50.037 14.0328 49.9031 13.8543 49.8258C13.6817 49.7484 13.4734 49.7097 13.2295 49.7097C12.9914 49.7097 12.7831 49.7484 12.6046 49.8258C12.4261 49.9031 12.2773 50.0341 12.1583 50.2185C12.0452 50.403 11.9589 50.6589 11.8994 50.9862C11.8399 51.3076 11.8102 51.7182 11.8102 52.218C11.8102 52.6703 11.8399 53.0482 11.8994 53.3517C11.9649 53.6492 12.0571 53.8843 12.1762 54.0569C12.3011 54.2235 12.4499 54.3425 12.6225 54.4139C12.801 54.4853 13.0033 54.521 13.2295 54.521Z" fill="#787878"/>
<defs>
<filter id="filter0_d_19_334" x="267.261" y="0.85696" width="133.895" height="82.7793" filterUnits="userSpaceOnUse" color-interpolation-filters="sRGB">
<feFlood flood-opacity="0" result="BackgroundImageFix"/>
<feColorMatrix in="SourceAlpha" type="matrix" values="0 0 0 0 0 0 0 0 0 0 0 0 0 0 0 0 0 0 127 0" result="hardAlpha"/>
<feOffset dy="9.56395"/>
<feGaussianBlur stdDeviation="6.69477"/>
<feColorMatrix type="matrix" values="0 0 0 0 0 0 0 0 0 0 0 0 0 0 0 0 0 0 0.06 0"/>
<feBlend mode="normal" in2="BackgroundImageFix" result="effect1_dropShadow_19_334"/>
<feBlend mode="normal" in="SourceGraphic" in2="effect1_dropShadow_19_334" result="shape"/>
</filter>
<linearGradient id="paint0_linear_19_334" x1="296.59" y1="114.136" x2="296.59" y2="227.19" gradientUnits="userSpaceOnUse">
<stop stop-color="#68E365"/>
<stop offset="1" stop-color="#A9FF74"/>
</linearGradient>
<linearGradient id="paint1_linear_19_334" x1="271.723" y1="152.064" x2="271.723" y2="227.19" gradientUnits="userSpaceOnUse">
<stop stop-color="#FF4B4B"/>
<stop offset="1" stop-color="#FFA14B"/>
</linearGradient>
<linearGradient id="paint2_linear_19_334" x1="149.717" y1="128.231" x2="149.717" y2="227.19" gradientUnits="userSpaceOnUse">
<stop stop-color="#68E365"/>
<stop offset="1" stop-color="#A9FF74"/>
</linearGradient>
<linearGradient id="paint3_linear_19_334" x1="123.482" y1="44.8452" x2="123.482" y2="227.19" gradientUnits="userSpaceOnUse">
<stop stop-color="#FF4B4B"/>
<stop offset="1" stop-color="#FFA14B"/>
</linearGradient>
<linearGradient id="paint4_linear_19_334" x1="408.488" y1="92.9842" x2="408.488" y2="227.19" gradientUnits="userSpaceOnUse">
<stop stop-color="#FF4B4B"/>
<stop offset="1" stop-color="#FFA14B"/>
</linearGradient>
<linearGradient id="paint5_linear_19_334" x1="76.3942" y1="4.00002" x2="76.3942" y2="227.19" gradientUnits="userSpaceOnUse">
<stop stop-color="#68E365"/>
<stop offset="1" stop-color="#A9FF74"/>
</linearGradient>
<linearGradient id="paint6_linear_19_334" x1="50.1579" y1="92.9842" x2="50.1579" y2="227.19" gradientUnits="userSpaceOnUse">
<stop stop-color="#FF4B4B"/>
<stop offset="1" stop-color="#FFA14B"/>
</linearGradient>
<linearGradient id="paint7_linear_19_334" x1="369.594" y1="60.1621" x2="369.594" y2="227.19" gradientUnits="userSpaceOnUse">
<stop stop-color="#68E365"/>
<stop offset="1" stop-color="#A9FF74"/>
</linearGradient>
<linearGradient id="paint8_linear_19_334" x1="369.595" y1="60.1622" x2="369.595" y2="227.19" gradientUnits="userSpaceOnUse">
<stop stop-color="#38E25D"/>
<stop offset="1" stop-color="#77FF74"/>
</linearGradient>
<linearGradient id="paint9_linear_19_334" x1="343.453" y1="155.711" x2="343.453" y2="227.19" gradientUnits="userSpaceOnUse">
<stop stop-color="#FF4B4B"/>
<stop offset="1" stop-color="#FFA14B"/>
</linearGradient>
<linearGradient id="paint10_linear_19_334" x1="222.947" y1="187.803" x2="222.947" y2="227.19" gradientUnits="userSpaceOnUse">
<stop stop-color="#68E365"/>
<stop offset="1" stop-color="#A9FF74"/>
</linearGradient>
<linearGradient id="paint11_linear_19_334" x1="196.805" y1="92.6733" x2="196.805" y2="227.19" gradientUnits="userSpaceOnUse">
<stop stop-color="#FF4B4B"/>
<stop offset="1" stop-color="#FFA14B"/>
</linearGradient>
</defs>
</svg>
