<svg width="178" height="120" viewBox="0 0 178 120" fill="none" xmlns="http://www.w3.org/2000/svg">
<rect x="34.7192" y="78.479" width="142.822" height="0.682538" rx="0.341269" fill="#E4E4E4"/>
<rect x="34.7192" y="43.6695" width="142.822" height="0.682538" rx="0.341269" fill="#E4E4E4"/>
<rect x="34.7192" y="8.86011" width="142.822" height="0.682538" rx="0.341269" fill="#E4E4E4"/>
<path d="M1.54268 46.7965V46.1895L3.23868 44.4132C3.48267 44.1573 3.69393 43.9282 3.87246 43.7258C4.05098 43.5176 4.18785 43.3152 4.28307 43.1188C4.37828 42.9165 4.42589 42.7023 4.42589 42.4762C4.42589 42.0893 4.31877 41.8245 4.10454 41.6817C3.89626 41.5329 3.58086 41.4585 3.15835 41.4585C3.00362 41.4585 2.83105 41.4704 2.64062 41.4943C2.45019 41.5121 2.26571 41.5359 2.08718 41.5657C1.91461 41.5895 1.76584 41.6162 1.64087 41.646L1.58731 41.0569C1.71228 41.0212 1.867 40.9855 2.05148 40.9497C2.23596 40.914 2.43531 40.8843 2.64954 40.8605C2.86973 40.8307 3.08396 40.8158 3.29224 40.8158C3.91709 40.8158 4.38423 40.9408 4.69368 41.1908C5.00908 41.4407 5.16678 41.8424 5.16678 42.3958C5.16678 42.6874 5.11917 42.9492 5.02396 43.1813C4.93469 43.4134 4.79782 43.6425 4.61334 43.8687C4.43482 44.0888 4.20571 44.3358 3.92601 44.6096L2.38175 46.1717H5.3096V46.7965H1.54268ZM8.42106 46.8858C8.08186 46.8858 7.77836 46.8382 7.51057 46.743C7.24873 46.6477 7.0226 46.49 6.83217 46.2699C6.64769 46.0437 6.50487 45.7402 6.40371 45.3594C6.30849 44.9785 6.26088 44.5054 6.26088 43.9401C6.26088 43.339 6.30849 42.8362 6.40371 42.4315C6.49892 42.0269 6.63877 41.7055 6.82324 41.4675C7.01367 41.2294 7.23981 41.0598 7.50165 40.9587C7.76944 40.8575 8.07293 40.8069 8.41214 40.8069C8.76324 40.8069 9.07269 40.8575 9.34048 40.9587C9.60827 41.0598 9.83143 41.2294 10.01 41.4675C10.1944 41.7055 10.3343 42.0269 10.4295 42.4315C10.5247 42.8302 10.5723 43.3331 10.5723 43.9401C10.5723 44.6899 10.486 45.279 10.3134 45.7075C10.1409 46.136 9.89391 46.4395 9.57256 46.618C9.25716 46.7965 8.87333 46.8858 8.42106 46.8858ZM8.42106 46.252C8.65315 46.252 8.85548 46.2163 9.02805 46.1449C9.20658 46.0735 9.35535 45.9515 9.47437 45.7789C9.59339 45.6063 9.68265 45.3713 9.74216 45.0737C9.80167 44.7702 9.83143 44.3923 9.83143 43.9401C9.83143 43.4461 9.80167 43.0385 9.74216 42.7172C9.6886 42.3958 9.60232 42.1429 9.4833 41.9584C9.37023 41.768 9.22443 41.6341 9.04591 41.5567C8.87333 41.4794 8.66505 41.4407 8.42106 41.4407C8.18303 41.4407 7.97474 41.4794 7.79622 41.5567C7.61769 41.6341 7.46892 41.765 7.3499 41.9495C7.23683 42.134 7.15054 42.3899 7.09103 42.7172C7.03153 43.0385 7.00177 43.4491 7.00177 43.949C7.00177 44.4013 7.03153 44.7792 7.09103 45.0826C7.15649 45.3802 7.24873 45.6153 7.36775 45.7878C7.49272 45.9545 7.64149 46.0735 7.81407 46.1449C7.9926 46.2163 8.19493 46.252 8.42106 46.252Z" fill="#3E4954"/>
<path d="M8.52672 83.0603C8.18752 83.0603 7.88403 83.0127 7.61624 82.9175C7.3544 82.8223 7.12826 82.6646 6.93783 82.4444C6.75335 82.2183 6.61053 81.9148 6.50937 81.5339C6.41415 81.1531 6.36655 80.68 6.36655 80.1146C6.36655 79.5136 6.41415 79.0107 6.50937 78.6061C6.60458 78.2014 6.74443 77.8801 6.92891 77.642C7.11933 77.404 7.34547 77.2344 7.60731 77.1332C7.8751 77.0321 8.1786 76.9815 8.5178 76.9815C8.8689 76.9815 9.17835 77.0321 9.44614 77.1332C9.71393 77.2344 9.93709 77.404 10.1156 77.642C10.3001 77.8801 10.4399 78.2014 10.5352 78.6061C10.6304 79.0048 10.678 79.5076 10.678 80.1146C10.678 80.8644 10.5917 81.4536 10.4191 81.8821C10.2465 82.3105 9.99957 82.614 9.67822 82.7925C9.36283 82.9711 8.97899 83.0603 8.52672 83.0603ZM8.52672 82.4266C8.75881 82.4266 8.96114 82.3909 9.13372 82.3194C9.31224 82.248 9.46102 82.126 9.58003 81.9535C9.69905 81.7809 9.78832 81.5458 9.84782 81.2483C9.90733 80.9448 9.93709 80.5669 9.93709 80.1146C9.93709 79.6207 9.90733 79.2131 9.84782 78.8917C9.79427 78.5704 9.70798 78.3175 9.58896 78.133C9.47589 77.9426 9.3301 77.8087 9.15157 77.7313C8.97899 77.6539 8.77071 77.6153 8.52672 77.6153C8.28869 77.6153 8.08041 77.6539 7.90188 77.7313C7.72335 77.8087 7.57458 77.9396 7.45556 78.1241C7.34249 78.3085 7.25621 78.5644 7.1967 78.8917C7.13719 79.2131 7.10743 79.6237 7.10743 80.1236C7.10743 80.5758 7.13719 80.9537 7.1967 81.2572C7.26216 81.5548 7.3544 81.7898 7.47341 81.9624C7.59838 82.129 7.74716 82.248 7.91973 82.3194C8.09826 82.3909 8.30059 82.4266 8.52672 82.4266Z" fill="#3E4954"/>
<path d="M3.4847 12.6697V11.5271H0.646117V10.9737L2.31535 6.77828H3.10086L1.39593 10.8933H3.4847V9.07236H4.19881V10.8933H4.93969V11.5271H4.19881V12.6697H3.4847ZM7.78337 12.7589C7.44416 12.7589 7.14067 12.7113 6.87288 12.6161C6.61104 12.5209 6.3849 12.3632 6.19447 12.143C6.01 11.9169 5.86718 11.6134 5.76601 11.2325C5.6708 10.8517 5.62319 10.3786 5.62319 9.81324C5.62319 9.2122 5.6708 8.70935 5.76601 8.30469C5.86122 7.90003 6.00107 7.57868 6.18555 7.34064C6.37598 7.10261 6.60211 6.93301 6.86395 6.83184C7.13174 6.73068 7.43524 6.68009 7.77444 6.68009C8.12554 6.68009 8.43499 6.73068 8.70278 6.83184C8.97057 6.93301 9.19373 7.10261 9.37226 7.34064C9.55674 7.57868 9.69658 7.90003 9.7918 8.30469C9.88701 8.7034 9.93462 9.20625 9.93462 9.81324C9.93462 10.5631 9.84833 11.1522 9.67575 11.5807C9.50318 12.0091 9.25622 12.3126 8.93487 12.4912C8.61947 12.6697 8.23564 12.7589 7.78337 12.7589ZM7.78337 12.1252C8.01545 12.1252 8.21778 12.0895 8.39036 12.0181C8.56889 11.9466 8.71766 11.8246 8.83668 11.6521C8.95569 11.4795 9.04496 11.2444 9.10447 10.9469C9.16398 10.6434 9.19373 10.2655 9.19373 9.81324C9.19373 9.31932 9.16398 8.91168 9.10447 8.59033C9.05091 8.26898 8.96462 8.01607 8.8456 7.83159C8.73254 7.64116 8.58674 7.50727 8.40821 7.42991C8.23564 7.35254 8.02735 7.31386 7.78337 7.31386C7.54533 7.31386 7.33705 7.35254 7.15852 7.42991C6.97999 7.50727 6.83122 7.63819 6.7122 7.82267C6.59914 8.00714 6.51285 8.26303 6.45334 8.59033C6.39383 8.91168 6.36408 9.32229 6.36408 9.82217C6.36408 10.2744 6.39383 10.6523 6.45334 10.9558C6.5188 11.2534 6.61104 11.4884 6.73006 11.661C6.85503 11.8276 7.0038 11.9466 7.17637 12.0181C7.3549 12.0895 7.55723 12.1252 7.78337 12.1252Z" fill="#3E4954"/>
<path d="M29.5048 100.797C29.3262 100.797 29.118 100.785 28.8799 100.762C28.6419 100.744 28.4038 100.72 28.1658 100.69C27.9337 100.655 27.7284 100.625 27.5499 100.601L27.6213 100.012C27.7939 100.03 27.9932 100.051 28.2194 100.074C28.4515 100.098 28.6776 100.119 28.8978 100.137C29.1239 100.155 29.3143 100.164 29.4691 100.164C29.9035 100.164 30.2278 100.065 30.442 99.869C30.6563 99.6727 30.7634 99.3662 30.7634 98.9496C30.7634 98.7235 30.7188 98.545 30.6295 98.414C30.5462 98.2772 30.4034 98.1701 30.201 98.0927C30.0046 98.0094 29.7398 97.935 29.4066 97.8695C28.9781 97.7803 28.6211 97.6761 28.3354 97.5571C28.0557 97.4321 27.8445 97.2566 27.7016 97.0305C27.5648 96.8043 27.4963 96.4978 27.4963 96.111C27.4963 95.7123 27.5767 95.391 27.7373 95.147C27.904 94.903 28.1361 94.7245 28.4336 94.6114C28.7371 94.4983 29.0882 94.4418 29.4869 94.4418C29.6654 94.4418 29.8678 94.4537 30.0939 94.4775C30.326 94.4954 30.5521 94.5192 30.7723 94.5489C30.9984 94.5727 31.1918 94.5995 31.3525 94.6293L31.29 95.2273C31.1175 95.2035 30.9181 95.1827 30.692 95.1648C30.4658 95.141 30.2486 95.1202 30.0403 95.1024C29.8321 95.0845 29.6654 95.0756 29.5405 95.0756C29.1061 95.0756 28.7758 95.1559 28.5496 95.3166C28.3295 95.4773 28.2194 95.7272 28.2194 96.0664C28.2194 96.3282 28.267 96.5276 28.3622 96.6645C28.4634 96.8013 28.624 96.9085 28.8442 96.9858C29.0644 97.0632 29.353 97.1435 29.7101 97.2268C30.0195 97.2982 30.2843 97.3756 30.5045 97.4589C30.7307 97.5422 30.9151 97.6464 31.058 97.7713C31.2067 97.8904 31.3138 98.0421 31.3793 98.2266C31.4507 98.4051 31.4864 98.6283 31.4864 98.8961C31.4864 99.3483 31.4061 99.7143 31.2454 99.994C31.0847 100.274 30.8556 100.479 30.5581 100.61C30.2605 100.735 29.9094 100.797 29.5048 100.797ZM33.9054 100.806C33.5245 100.806 33.2329 100.729 33.0306 100.574C32.8283 100.419 32.6884 100.178 32.6111 99.8512C32.5397 99.5239 32.504 99.1014 32.504 98.5836V96.2539H33.1913V98.5836C33.1913 98.9764 33.2091 99.2888 33.2448 99.5209C33.2865 99.753 33.3728 99.9226 33.5037 100.03C33.6346 100.131 33.831 100.181 34.0928 100.181C34.3547 100.181 34.5927 100.146 34.807 100.074C35.0212 100.003 35.1938 99.9315 35.3247 99.8601V96.2539H36.012V100.717H35.3247V100.405C35.1343 100.512 34.926 100.607 34.6998 100.69C34.4797 100.768 34.2148 100.806 33.9054 100.806ZM37.2994 100.717V96.2539H37.9868V96.5663C38.0879 96.5068 38.2129 96.4473 38.3617 96.3878C38.5164 96.3282 38.68 96.2777 38.8526 96.236C39.0252 96.1884 39.1918 96.1646 39.3525 96.1646C39.7631 96.1646 40.0755 96.239 40.2898 96.3878C40.5099 96.5306 40.6617 96.7627 40.745 97.084C40.8283 97.4054 40.87 97.8279 40.87 98.3516V100.717H40.1737V98.3783C40.1737 97.9915 40.1499 97.6821 40.1023 97.45C40.0606 97.2179 39.9714 97.0513 39.8345 96.9501C39.7036 96.843 39.5013 96.7894 39.2275 96.7894C39.0787 96.7894 38.924 96.8073 38.7634 96.843C38.6086 96.8728 38.4628 96.9144 38.326 96.968C38.1891 97.0156 38.076 97.0632 37.9868 97.1108V100.717H37.2994ZM43.5129 100.806C43.3344 100.806 43.1648 100.785 43.0041 100.744C42.8435 100.708 42.6947 100.643 42.5578 100.547C42.4269 100.452 42.3109 100.321 42.2097 100.155C42.1085 99.9821 42.0312 99.7619 41.9776 99.4941C41.924 99.2263 41.8973 98.902 41.8973 98.5212C41.8973 97.9915 41.9598 97.5541 42.0847 97.209C42.2097 96.8579 42.409 96.596 42.6828 96.4235C42.9565 96.2509 43.3195 96.1646 43.7718 96.1646C43.9444 96.1646 44.1378 96.1795 44.352 96.2092C44.5662 96.233 44.7329 96.2568 44.8519 96.2806V94.3168H45.5481V100.717H44.8608V100.422C44.7656 100.476 44.6406 100.533 44.4859 100.592C44.3371 100.652 44.1765 100.702 44.0039 100.744C43.8373 100.785 43.6736 100.806 43.5129 100.806ZM43.6022 100.181C43.7569 100.181 43.9116 100.164 44.0664 100.128C44.227 100.092 44.3758 100.051 44.5127 100.003C44.6496 99.9494 44.7626 99.9018 44.8519 99.8601V96.8698C44.7805 96.8579 44.6823 96.846 44.5573 96.8341C44.4324 96.8162 44.3014 96.8013 44.1646 96.7894C44.0336 96.7775 43.9146 96.7716 43.8075 96.7716C43.504 96.7716 43.266 96.8371 43.0934 96.968C42.9208 97.0989 42.7959 97.2953 42.7185 97.5571C42.6471 97.813 42.6114 98.1343 42.6114 98.5212C42.6114 98.8782 42.6382 99.1668 42.6917 99.387C42.7453 99.6012 42.8167 99.7679 42.9059 99.8869C43.0012 100 43.1083 100.077 43.2273 100.119C43.3463 100.161 43.4713 100.181 43.6022 100.181ZM47.809 100.806C47.3983 100.806 47.0859 100.69 46.8717 100.458C46.6575 100.226 46.5503 99.8869 46.5503 99.4406C46.5503 99.149 46.6009 98.9109 46.7021 98.7265C46.8033 98.542 46.955 98.4021 47.1573 98.3069C47.3656 98.2058 47.6215 98.1433 47.925 98.1195L49.2997 97.9856V97.6017C49.2997 97.2982 49.2312 97.084 49.0944 96.959C48.9634 96.8341 48.7671 96.7716 48.5052 96.7716C48.3564 96.7716 48.1779 96.7775 47.9696 96.7894C47.7673 96.8013 47.565 96.8162 47.3626 96.8341C47.1603 96.8519 46.9818 96.8698 46.8271 96.8876L46.7914 96.361C46.9342 96.3312 47.1068 96.3015 47.3091 96.2717C47.5114 96.242 47.7227 96.2182 47.9429 96.2003C48.163 96.1765 48.3654 96.1646 48.5498 96.1646C48.889 96.1646 49.1658 96.2182 49.38 96.3253C49.5942 96.4264 49.749 96.5841 49.8442 96.7984C49.9453 97.0067 49.9959 97.2744 49.9959 97.6017V99.8601C50.0078 99.991 50.0584 100.086 50.1477 100.146C50.2429 100.205 50.3619 100.244 50.5047 100.262L50.4779 100.806C50.347 100.806 50.228 100.797 50.1209 100.78C50.0138 100.768 49.9126 100.747 49.8174 100.717C49.74 100.687 49.6656 100.652 49.5942 100.61C49.5288 100.568 49.4633 100.518 49.3978 100.458C49.2848 100.506 49.139 100.556 48.9605 100.61C48.7879 100.663 48.6004 100.708 48.3981 100.744C48.2017 100.785 48.0053 100.806 47.809 100.806ZM47.925 100.226C48.0857 100.226 48.2523 100.211 48.4249 100.181C48.5975 100.152 48.7611 100.116 48.9158 100.074C49.0705 100.033 49.1985 99.994 49.2997 99.9583V98.5033L48.0053 98.6283C47.7375 98.6521 47.5441 98.7294 47.4251 98.8604C47.3121 98.9913 47.2555 99.1787 47.2555 99.4227C47.2555 99.6727 47.3121 99.869 47.4251 100.012C47.5382 100.155 47.7048 100.226 47.925 100.226ZM52.2449 102.69L52.8252 100.717H52.1557L50.8971 96.2539H51.5933L52.6823 100.119H52.9858L54.0838 96.2539H54.78L52.9412 102.69H52.2449Z" fill="#3E4954"/>
<path d="M82.6507 100.717V94.5489H83.945L85.6499 99.7262L87.3638 94.5489H88.6581V100.717H87.944V95.3077H87.8101L86.0516 100.494H85.2572L83.4987 95.3077H83.3648V100.717H82.6507ZM91.7629 100.806C91.263 100.806 90.8732 100.72 90.5935 100.547C90.3198 100.375 90.1264 100.113 90.0133 99.7619C89.9062 99.4108 89.8527 98.9675 89.8527 98.4319C89.8527 97.9201 89.9122 97.4976 90.0312 97.1644C90.1562 96.8311 90.3585 96.5812 90.6382 96.4145C90.9179 96.2479 91.2928 96.1646 91.7629 96.1646C92.239 96.1646 92.6169 96.2479 92.8965 96.4145C93.1762 96.5812 93.3756 96.8311 93.4946 97.1644C93.6196 97.4976 93.6821 97.9201 93.6821 98.4319C93.6821 98.9675 93.6255 99.4108 93.5125 99.7619C93.4053 100.113 93.2119 100.375 92.9323 100.547C92.6585 100.72 92.2687 100.806 91.7629 100.806ZM91.7629 100.208C92.1081 100.208 92.3669 100.149 92.5395 100.03C92.7121 99.9047 92.8251 99.7113 92.8787 99.4495C92.9382 99.1877 92.968 98.8485 92.968 98.4319C92.968 98.0213 92.9323 97.694 92.8608 97.45C92.7894 97.206 92.6674 97.0305 92.4949 96.9233C92.3223 96.8162 92.0783 96.7627 91.7629 96.7627C91.4535 96.7627 91.2095 96.8162 91.0309 96.9233C90.8584 97.0305 90.7364 97.206 90.665 97.45C90.5935 97.694 90.5578 98.0213 90.5578 98.4319C90.5578 98.8485 90.5846 99.1877 90.6382 99.4495C90.6977 99.7113 90.8137 99.9047 90.9863 100.03C91.1589 100.149 91.4177 100.208 91.7629 100.208ZM94.7737 100.717V96.2539H95.4611V96.5663C95.5622 96.5068 95.6872 96.4473 95.836 96.3878C95.9907 96.3282 96.1543 96.2777 96.3269 96.236C96.4995 96.1884 96.6661 96.1646 96.8268 96.1646C97.2374 96.1646 97.5498 96.239 97.7641 96.3878C97.9842 96.5306 98.136 96.7627 98.2193 97.084C98.3026 97.4054 98.3443 97.8279 98.3443 98.3516V100.717H97.648V98.3783C97.648 97.9915 97.6242 97.6821 97.5766 97.45C97.535 97.2179 97.4457 97.0513 97.3088 96.9501C97.1779 96.843 96.9756 96.7894 96.7018 96.7894C96.5531 96.7894 96.3983 96.8073 96.2377 96.843C96.0829 96.8728 95.9371 96.9144 95.8003 96.968C95.6634 97.0156 95.5503 97.0632 95.4611 97.1108V100.717H94.7737ZM100.987 100.806C100.809 100.806 100.639 100.785 100.478 100.744C100.318 100.708 100.169 100.643 100.032 100.547C99.9012 100.452 99.7852 100.321 99.684 100.155C99.5828 99.9821 99.5055 99.7619 99.4519 99.4941C99.3983 99.2263 99.3716 98.902 99.3716 98.5212C99.3716 97.9915 99.4341 97.5541 99.559 97.209C99.684 96.8579 99.8833 96.596 100.157 96.4235C100.431 96.2509 100.794 96.1646 101.246 96.1646C101.419 96.1646 101.612 96.1795 101.826 96.2092C102.041 96.233 102.207 96.2568 102.326 96.2806V94.3168H103.022V100.717H102.335V100.422C102.24 100.476 102.115 100.533 101.96 100.592C101.811 100.652 101.651 100.702 101.478 100.744C101.312 100.785 101.148 100.806 100.987 100.806ZM101.077 100.181C101.231 100.181 101.386 100.164 101.541 100.128C101.701 100.092 101.85 100.051 101.987 100.003C102.124 99.9494 102.237 99.9018 102.326 99.8601V96.8698C102.255 96.8579 102.157 96.846 102.032 96.8341C101.907 96.8162 101.776 96.8013 101.639 96.7894C101.508 96.7775 101.389 96.7716 101.282 96.7716C100.978 96.7716 100.74 96.8371 100.568 96.968C100.395 97.0989 100.27 97.2953 100.193 97.5571C100.121 97.813 100.086 98.1343 100.086 98.5212C100.086 98.8782 100.112 99.1668 100.166 99.387C100.22 99.6012 100.291 99.7679 100.38 99.8869C100.475 100 100.583 100.077 100.702 100.119C100.821 100.161 100.946 100.181 101.077 100.181ZM105.283 100.806C104.873 100.806 104.56 100.69 104.346 100.458C104.132 100.226 104.025 99.8869 104.025 99.4406C104.025 99.149 104.075 98.9109 104.176 98.7265C104.278 98.542 104.429 98.4021 104.632 98.3069C104.84 98.2058 105.096 98.1433 105.399 98.1195L106.774 97.9856V97.6017C106.774 97.2982 106.706 97.084 106.569 96.959C106.438 96.8341 106.241 96.7716 105.98 96.7716C105.831 96.7716 105.652 96.7775 105.444 96.7894C105.242 96.8013 105.039 96.8162 104.837 96.8341C104.635 96.8519 104.456 96.8698 104.301 96.8876L104.266 96.361C104.408 96.3312 104.581 96.3015 104.783 96.2717C104.986 96.242 105.197 96.2182 105.417 96.2003C105.637 96.1765 105.84 96.1646 106.024 96.1646C106.363 96.1646 106.64 96.2182 106.854 96.3253C107.069 96.4264 107.223 96.5841 107.318 96.7984C107.42 97.0067 107.47 97.2744 107.47 97.6017V99.8601C107.482 99.991 107.533 100.086 107.622 100.146C107.717 100.205 107.836 100.244 107.979 100.262L107.952 100.806C107.821 100.806 107.702 100.797 107.595 100.78C107.488 100.768 107.387 100.747 107.292 100.717C107.214 100.687 107.14 100.652 107.069 100.61C107.003 100.568 106.938 100.518 106.872 100.458C106.759 100.506 106.613 100.556 106.435 100.61C106.262 100.663 106.075 100.708 105.872 100.744C105.676 100.785 105.48 100.806 105.283 100.806ZM105.399 100.226C105.56 100.226 105.727 100.211 105.899 100.181C106.072 100.152 106.235 100.116 106.39 100.074C106.545 100.033 106.673 99.994 106.774 99.9583V98.5033L105.48 98.6283C105.212 98.6521 105.018 98.7294 104.899 98.8604C104.786 98.9913 104.73 99.1787 104.73 99.4227C104.73 99.6727 104.786 99.869 104.899 100.012C105.012 100.155 105.179 100.226 105.399 100.226ZM109.719 102.69L110.299 100.717H109.63L108.371 96.2539H109.068L110.157 100.119H110.46L111.558 96.2539H112.254L110.415 102.69H109.719Z" fill="#3E4954"/>
<path d="M141.284 100.717V95.1916H139.401V94.5489H143.864V95.1916H141.998V100.717H141.284ZM145.983 100.806C145.602 100.806 145.31 100.729 145.108 100.574C144.906 100.419 144.766 100.178 144.688 99.8512C144.617 99.5239 144.581 99.1014 144.581 98.5836V96.2539H145.269V98.5836C145.269 98.9764 145.286 99.2888 145.322 99.5209C145.364 99.753 145.45 99.9226 145.581 100.03C145.712 100.131 145.908 100.181 146.17 100.181C146.432 100.181 146.67 100.146 146.884 100.074C147.099 100.003 147.271 99.9315 147.402 99.8601V96.2539H148.089V100.717H147.402V100.405C147.212 100.512 147.003 100.607 146.777 100.69C146.557 100.768 146.292 100.806 145.983 100.806ZM150.957 100.806C150.51 100.806 150.156 100.72 149.894 100.547C149.639 100.375 149.454 100.119 149.341 99.7798C149.228 99.4406 149.171 99.0181 149.171 98.5122C149.171 97.9469 149.249 97.4946 149.404 97.1554C149.558 96.8103 149.775 96.5603 150.055 96.4056C150.335 96.2449 150.665 96.1646 151.046 96.1646C151.641 96.1646 152.09 96.3312 152.394 96.6645C152.697 96.9918 152.849 97.5214 152.849 98.2534L152.813 98.78H149.877C149.883 99.2442 149.969 99.5953 150.135 99.8333C150.302 100.071 150.603 100.19 151.037 100.19C151.204 100.19 151.385 100.187 151.582 100.181C151.784 100.17 151.983 100.158 152.18 100.146C152.376 100.134 152.543 100.122 152.68 100.11L152.697 100.655C152.555 100.678 152.379 100.702 152.171 100.726C151.968 100.75 151.76 100.768 151.546 100.78C151.332 100.797 151.135 100.806 150.957 100.806ZM149.877 98.2177H152.153C152.153 97.6702 152.064 97.2893 151.885 97.0751C151.712 96.8549 151.433 96.7448 151.046 96.7448C150.671 96.7448 150.382 96.8579 150.18 97.084C149.978 97.3101 149.877 97.688 149.877 98.2177ZM155.276 100.806C155.139 100.806 154.973 100.797 154.776 100.78C154.586 100.762 154.395 100.741 154.205 100.717C154.014 100.687 153.845 100.661 153.696 100.637L153.732 100.039C153.881 100.056 154.047 100.077 154.232 100.101C154.422 100.125 154.607 100.146 154.785 100.164C154.964 100.176 155.106 100.181 155.214 100.181C155.458 100.181 155.66 100.161 155.821 100.119C155.981 100.071 156.103 99.994 156.187 99.8869C156.27 99.7798 156.311 99.628 156.311 99.4316C156.311 99.2829 156.279 99.1668 156.213 99.0835C156.154 99.0002 156.038 98.9318 155.865 98.8782C155.699 98.8247 155.455 98.7741 155.133 98.7265C154.8 98.6729 154.52 98.6074 154.294 98.5301C154.074 98.4468 153.91 98.3248 153.803 98.1641C153.696 98.0034 153.643 97.7743 153.643 97.4768C153.643 97.1435 153.72 96.8817 153.875 96.6913C154.029 96.5008 154.229 96.3669 154.473 96.2896C154.723 96.2063 154.981 96.1646 155.249 96.1646C155.416 96.1646 155.597 96.1735 155.794 96.1914C155.996 96.2092 156.192 96.233 156.383 96.2628C156.573 96.2866 156.737 96.3104 156.874 96.3342L156.856 96.9323C156.713 96.9085 156.547 96.8876 156.356 96.8698C156.166 96.846 155.975 96.8281 155.785 96.8162C155.594 96.7984 155.428 96.7894 155.285 96.7894C155.106 96.7894 154.946 96.8103 154.803 96.8519C154.66 96.8876 154.547 96.9531 154.464 97.0483C154.38 97.1435 154.339 97.2774 154.339 97.45C154.339 97.5809 154.369 97.688 154.428 97.7713C154.488 97.8487 154.601 97.9142 154.767 97.9677C154.934 98.0213 155.175 98.0748 155.49 98.1284C155.859 98.1879 156.154 98.2623 156.374 98.3516C156.6 98.4408 156.764 98.5658 156.865 98.7265C156.966 98.8871 157.017 99.1133 157.017 99.4049C157.017 99.9285 156.862 100.295 156.552 100.503C156.243 100.705 155.818 100.806 155.276 100.806ZM141.338 117.806C141.159 117.806 140.99 117.785 140.829 117.744C140.668 117.708 140.519 117.643 140.383 117.547C140.252 117.452 140.136 117.321 140.034 117.155C139.933 116.982 139.856 116.762 139.802 116.494C139.749 116.226 139.722 115.902 139.722 115.521C139.722 114.992 139.785 114.554 139.91 114.209C140.034 113.858 140.234 113.596 140.508 113.423C140.781 113.251 141.144 113.165 141.597 113.165C141.769 113.165 141.963 113.179 142.177 113.209C142.391 113.233 142.558 113.257 142.677 113.281V111.317H143.373V117.717H142.686V117.422C142.59 117.476 142.465 117.533 142.311 117.592C142.162 117.652 142.001 117.702 141.829 117.744C141.662 117.785 141.498 117.806 141.338 117.806ZM141.427 117.181C141.582 117.181 141.736 117.164 141.891 117.128C142.052 117.092 142.201 117.051 142.337 117.003C142.474 116.949 142.587 116.902 142.677 116.86V113.87C142.605 113.858 142.507 113.846 142.382 113.834C142.257 113.816 142.126 113.801 141.989 113.789C141.858 113.778 141.739 113.772 141.632 113.772C141.329 113.772 141.091 113.837 140.918 113.968C140.746 114.099 140.621 114.295 140.543 114.557C140.472 114.813 140.436 115.134 140.436 115.521C140.436 115.878 140.463 116.167 140.517 116.387C140.57 116.601 140.641 116.768 140.731 116.887C140.826 117 140.933 117.077 141.052 117.119C141.171 117.161 141.296 117.181 141.427 117.181ZM145.634 117.806C145.223 117.806 144.911 117.69 144.696 117.458C144.482 117.226 144.375 116.887 144.375 116.441C144.375 116.149 144.426 115.911 144.527 115.726C144.628 115.542 144.78 115.402 144.982 115.307C145.19 115.206 145.446 115.143 145.75 115.119L147.124 114.986V114.602C147.124 114.298 147.056 114.084 146.919 113.959C146.788 113.834 146.592 113.772 146.33 113.772C146.181 113.772 146.003 113.778 145.794 113.789C145.592 113.801 145.39 113.816 145.187 113.834C144.985 113.852 144.807 113.87 144.652 113.888L144.616 113.361C144.759 113.331 144.932 113.301 145.134 113.272C145.336 113.242 145.547 113.218 145.768 113.2C145.988 113.177 146.19 113.165 146.375 113.165C146.714 113.165 146.991 113.218 147.205 113.325C147.419 113.426 147.574 113.584 147.669 113.798C147.77 114.007 147.821 114.274 147.821 114.602V116.86C147.833 116.991 147.883 117.086 147.972 117.146C148.068 117.205 148.187 117.244 148.33 117.262L148.303 117.806C148.172 117.806 148.053 117.797 147.946 117.78C147.839 117.768 147.737 117.747 147.642 117.717C147.565 117.687 147.49 117.652 147.419 117.61C147.354 117.568 147.288 117.518 147.223 117.458C147.11 117.506 146.964 117.556 146.785 117.61C146.613 117.663 146.425 117.708 146.223 117.744C146.027 117.785 145.83 117.806 145.634 117.806ZM145.75 117.226C145.91 117.226 146.077 117.211 146.25 117.181C146.422 117.152 146.586 117.116 146.741 117.074C146.895 117.033 147.023 116.994 147.124 116.958V115.503L145.83 115.628C145.562 115.652 145.369 115.729 145.25 115.86C145.137 115.991 145.08 116.179 145.08 116.423C145.08 116.673 145.137 116.869 145.25 117.012C145.363 117.155 145.53 117.226 145.75 117.226ZM150.07 119.69L150.65 117.717H149.98L148.722 113.254H149.418L150.507 117.119H150.811L151.909 113.254H152.605L150.766 119.69H150.07Z" fill="#3E4954"/>
<path d="M168.962 56.5793C168.962 54.1144 166.964 52.1161 164.499 52.1161C162.034 52.1161 160.036 54.1144 160.036 56.5793V79.1615H168.962V56.5793Z" fill="url(#paint0_linear_19_123)"/>
<path d="M156.848 65.9864C156.848 63.5214 154.85 61.5232 152.385 61.5232C149.92 61.5232 147.922 63.5214 147.922 65.9864V79.1615H156.848V65.9864Z" fill="url(#paint1_linear_19_123)"/>
<path d="M93.0884 54.7139C93.0884 52.249 91.0901 50.2507 88.6252 50.2507C86.1603 50.2507 84.162 52.249 84.162 54.7139V79.1615H93.0884V54.7139Z" fill="url(#paint2_linear_19_123)"/>
<path d="M81.438 49.3448C81.438 46.8798 79.4398 44.8816 76.9748 44.8816C74.5099 44.8816 72.5116 46.8798 72.5116 49.3448V79.1615H81.438V49.3448Z" fill="url(#paint3_linear_19_123)"/>
<path d="M55.2964 15.3709C55.2964 12.906 53.2982 10.9077 50.8332 10.9077C48.3683 10.9077 46.37 12.9059 46.37 15.3709V79.1615H55.2964V15.3709Z" fill="url(#paint4_linear_19_123)"/>
<path d="M43.6455 27.2947C43.6455 24.8298 41.6473 22.8315 39.1823 22.8315C36.7174 22.8315 34.7192 24.8298 34.7192 27.2947V79.1615H43.6455V27.2947Z" fill="url(#paint5_linear_19_123)"/>
<path d="M130.707 23.2674C130.707 20.8024 128.708 18.8042 126.243 18.8042C123.778 18.8042 121.78 20.8024 121.78 23.2674V79.1615H130.707V23.2674Z" fill="url(#paint6_linear_19_123)"/>
<mask id="mask0_19_123" style="mask-type:alpha" maskUnits="userSpaceOnUse" x="121" y="18" width="10" height="62">
<path d="M130.707 23.2674C130.707 20.8024 128.708 18.8042 126.243 18.8042C123.778 18.8042 121.78 20.8024 121.78 23.2674V79.1615H130.707V23.2674Z" fill="#1EAAE7"/>
</mask>
<g mask="url(#mask0_19_123)">
<path d="M136.541 3.26868L137.894 4.23271L111.745 22.8706L110.392 21.9066L136.541 3.26868Z" fill="white" fill-opacity="0.17"/>
<path d="M136.541 7.81316L137.894 8.77719L111.745 27.4151L110.392 26.4511L136.541 7.81316Z" fill="white" fill-opacity="0.17"/>
<path d="M136.541 12.3576L137.894 13.3217L111.745 31.9596L110.392 30.9956L136.541 12.3576Z" fill="white" fill-opacity="0.17"/>
<path d="M136.541 16.9021L137.894 17.8661L111.745 36.5041L110.392 35.54L136.541 16.9021Z" fill="white" fill-opacity="0.17"/>
<path d="M136.541 21.4466L137.894 22.4106L111.745 41.0485L110.392 40.0845L136.541 21.4466Z" fill="white" fill-opacity="0.17"/>
<path d="M136.541 25.9911L137.894 26.9551L111.745 45.593L110.392 44.629L136.541 25.9911Z" fill="white" fill-opacity="0.17"/>
<path d="M136.541 30.5356L137.894 31.4996L111.745 50.1375L110.392 49.1735L136.541 30.5356Z" fill="white" fill-opacity="0.17"/>
<path d="M136.541 35.08L137.894 36.0441L111.745 54.682L110.392 53.718L136.541 35.08Z" fill="white" fill-opacity="0.17"/>
<path d="M136.541 39.6245L137.894 40.5886L111.745 59.2265L110.392 58.2624L136.541 39.6245Z" fill="white" fill-opacity="0.17"/>
<path d="M136.541 44.169L137.894 45.133L111.745 63.771L110.392 62.8069L136.541 44.169Z" fill="white" fill-opacity="0.17"/>
<path d="M136.541 48.7135L137.894 49.6775L111.745 68.3154L110.392 67.3514L136.541 48.7135Z" fill="white" fill-opacity="0.17"/>
<path d="M136.541 53.258L137.894 54.222L111.745 72.8599L110.392 71.8959L136.541 53.258Z" fill="white" fill-opacity="0.17"/>
<path d="M136.541 57.8024L137.894 58.7665L111.745 77.4044L110.392 76.4404L136.541 57.8024Z" fill="white" fill-opacity="0.17"/>
<path d="M136.541 62.3469L137.894 63.311L111.745 81.9489L110.392 80.9848L136.541 62.3469Z" fill="white" fill-opacity="0.17"/>
<path d="M136.541 66.8914L137.894 67.8554L111.745 86.4934L110.392 85.5293L136.541 66.8914Z" fill="white" fill-opacity="0.17"/>
<path d="M136.541 71.4359L137.894 72.3999L111.745 91.0378L110.392 90.0738L136.541 71.4359Z" fill="white" fill-opacity="0.17"/>
</g>
<path d="M119.229 39.0988C119.229 36.6339 117.231 34.6356 114.766 34.6356C112.301 34.6356 110.303 36.6339 110.303 39.0988V79.1615H119.229V39.0988Z" fill="url(#paint7_linear_19_123)"/>
<defs>
<linearGradient id="paint0_linear_19_123" x1="164.499" y1="52.1161" x2="164.499" y2="79.1615" gradientUnits="userSpaceOnUse">
<stop stop-color="#FE6565"/>
<stop offset="1" stop-color="#FE9C65"/>
</linearGradient>
<linearGradient id="paint1_linear_19_123" x1="152.385" y1="61.5232" x2="152.385" y2="79.1615" gradientUnits="userSpaceOnUse">
<stop stop-color="#67DF64"/>
<stop offset="1" stop-color="#B6FF6D"/>
</linearGradient>
<linearGradient id="paint2_linear_19_123" x1="88.6252" y1="50.2507" x2="88.6252" y2="79.1615" gradientUnits="userSpaceOnUse">
<stop stop-color="#FE6565"/>
<stop offset="1" stop-color="#FE9C65"/>
</linearGradient>
<linearGradient id="paint3_linear_19_123" x1="76.9748" y1="44.8816" x2="76.9748" y2="79.1615" gradientUnits="userSpaceOnUse">
<stop stop-color="#68E365"/>
<stop offset="1" stop-color="#B6FF6D"/>
</linearGradient>
<linearGradient id="paint4_linear_19_123" x1="50.8332" y1="10.9077" x2="50.8332" y2="79.1615" gradientUnits="userSpaceOnUse">
<stop stop-color="#FE6565"/>
<stop offset="1" stop-color="#FE9C65"/>
</linearGradient>
<linearGradient id="paint5_linear_19_123" x1="39.1823" y1="22.8315" x2="39.1823" y2="79.1615" gradientUnits="userSpaceOnUse">
<stop stop-color="#68E365"/>
<stop offset="1" stop-color="#B6FF6D"/>
</linearGradient>
<linearGradient id="paint6_linear_19_123" x1="126.243" y1="18.8042" x2="126.243" y2="79.1615" gradientUnits="userSpaceOnUse">
<stop stop-color="#FE6565"/>
<stop offset="1" stop-color="#FE9C65"/>
</linearGradient>
<linearGradient id="paint7_linear_19_123" x1="114.766" y1="34.6356" x2="114.766" y2="79.1615" gradientUnits="userSpaceOnUse">
<stop stop-color="#68E365"/>
<stop offset="1" stop-color="#B6FF6D"/>
</linearGradient>
</defs>
</svg>
