<svg width="16" height="16" viewBox="0 0 16 16" fill="none" xmlns="http://www.w3.org/2000/svg">
<path d="M4.55588 9.21222H1.68669C1.42259 9.21222 1.2085 9.42632 1.2085 9.69042V14.4724C1.2085 14.7365 1.42259 14.9506 1.68669 14.9506H4.55588C4.81998 14.9506 5.03408 14.7365 5.03408 14.4724V9.69042C5.03408 9.42632 4.81998 9.21222 4.55588 9.21222Z" fill="white"/>
<path d="M14.1198 5.3866H11.2507C10.9866 5.3866 10.7725 5.60069 10.7725 5.86479V14.4724C10.7725 14.7365 10.9866 14.9506 11.2507 14.9506H14.1198C14.3839 14.9506 14.598 14.7365 14.598 14.4724V5.86479C14.598 5.60069 14.3839 5.3866 14.1198 5.3866Z" fill="white"/>
<path d="M9.33762 1.56104H6.46843C6.20433 1.56104 5.99023 1.77513 5.99023 2.03923V14.4724C5.99023 14.7365 6.20433 14.9506 6.46843 14.9506H9.33762C9.60172 14.9506 9.81582 14.7365 9.81582 14.4724V2.03923C9.81582 1.77513 9.60172 1.56104 9.33762 1.56104Z" fill="white"/>
</svg>
