<svg width="424" height="266" viewBox="0 0 424 266" fill="none" xmlns="http://www.w3.org/2000/svg">
<rect x="34.5332" y="225.621" width="382.558" height="0.682538" rx="0.341269" fill="#E9ECFF"/>
<rect x="34.5332" y="190.811" width="382.558" height="0.682538" rx="0.341269" fill="#E9ECFF"/>
<rect x="34.5332" y="156.002" width="382.558" height="0.682538" rx="0.341269" fill="#E9ECFF"/>
<rect x="34.5332" y="121.192" width="382.558" height="0.682538" rx="0.341269" fill="#E9ECFF"/>
<rect x="34.5332" y="86.3829" width="382.558" height="0.682538" rx="0.341269" fill="#E9ECFF"/>
<rect x="34.5332" y="51.5735" width="382.558" height="0.682538" rx="0.341269" fill="#E9ECFF"/>
<path d="M309.975 125.535C309.975 119.127 305.122 113.932 299.136 113.932C293.149 113.932 288.296 119.127 288.296 125.535V226.986H309.975V125.535Z" fill="url(#paint0_linear_19_334)"/>
<path d="M285.108 163.463C285.108 157.055 280.256 151.86 274.269 151.86C268.283 151.86 263.43 157.055 263.43 163.463V226.986H285.108V163.463Z" fill="url(#paint1_linear_19_334)"/>
<path d="M163.327 139.87C163.327 133.329 158.374 128.026 152.263 128.026C146.153 128.026 141.2 133.329 141.2 139.87V226.986H163.327V139.87Z" fill="url(#paint2_linear_19_334)"/>
<path d="M137.186 56.5854C137.186 49.9887 132.19 44.641 126.028 44.641C119.865 44.641 114.87 49.9887 114.87 56.5854V226.986H137.186V56.5854Z" fill="url(#paint3_linear_19_334)"/>
<path d="M413.903 92.78H413.266C410.449 92.78 408.165 95.2247 408.165 98.2403V226.986H413.903V92.78Z" fill="url(#paint4_linear_19_334)"/>
<path d="M90.0037 15.6393C90.0037 9.09835 85.0504 3.79585 78.9401 3.79585C72.8298 3.79585 67.8765 9.09835 67.8765 15.6393V226.986H90.0037V15.6393Z" fill="url(#paint5_linear_19_334)"/>
<path d="M63.8618 104.724C63.8618 98.1277 58.8662 92.78 52.7038 92.78C46.5415 92.78 41.5459 98.1277 41.5459 104.724V226.986H63.8618V104.724Z" fill="url(#paint6_linear_19_334)"/>
<path d="M383.298 71.9024C383.298 65.3057 378.303 59.958 372.14 59.958C365.978 59.958 360.982 65.3057 360.982 71.9024V226.986H383.298V71.9024Z" fill="url(#paint7_linear_19_334)"/>
<mask id="mask0_19_334" style="mask-type:alpha" maskUnits="userSpaceOnUse" x="360" y="59" width="24" height="168">
<path d="M383.299 71.1159C383.299 64.9536 378.303 59.958 372.141 59.958C365.979 59.958 360.983 64.9536 360.983 71.1159V226.986H383.299V71.1159Z" fill="url(#paint8_linear_19_334)"/>
</mask>
<g mask="url(#mask0_19_334)">
<path d="M390.234 22.0919L393.616 25.3916L328.243 89.1876L324.861 85.8878L390.234 22.0919Z" fill="white" fill-opacity="0.11"/>
<path d="M390.234 37.6472L393.616 40.947L328.243 104.743L324.861 101.443L390.234 37.6472Z" fill="white" fill-opacity="0.11"/>
<path d="M390.234 53.2026L393.616 56.5024L328.243 120.298L324.861 116.999L390.234 53.2026Z" fill="white" fill-opacity="0.11"/>
<path d="M390.234 68.758L393.616 72.0578L328.243 135.854L324.861 132.554L390.234 68.758Z" fill="white" fill-opacity="0.11"/>
<path d="M390.234 84.3133L393.616 87.6131L328.243 151.409L324.861 148.109L390.234 84.3133Z" fill="white" fill-opacity="0.11"/>
<path d="M390.234 99.8687L393.616 103.168L328.243 166.964L324.861 163.665L390.234 99.8687Z" fill="white" fill-opacity="0.11"/>
<path d="M390.234 115.424L393.616 118.724L328.243 182.52L324.861 179.22L390.234 115.424Z" fill="white" fill-opacity="0.11"/>
<path d="M390.234 130.979L393.616 134.279L328.243 198.075L324.861 194.775L390.234 130.979Z" fill="white" fill-opacity="0.11"/>
<path d="M390.234 146.535L393.616 149.835L328.243 213.631L324.861 210.331L390.234 146.535Z" fill="white" fill-opacity="0.11"/>
<path d="M390.234 162.09L393.616 165.39L328.243 229.186L324.861 225.886L390.234 162.09Z" fill="white" fill-opacity="0.11"/>
<path d="M390.234 177.646L393.616 180.945L328.243 244.741L324.861 241.442L390.234 177.646Z" fill="white" fill-opacity="0.11"/>
<path d="M390.234 193.201L393.616 196.501L328.243 260.297L324.861 256.997L390.234 193.201Z" fill="white" fill-opacity="0.11"/>
<path d="M390.234 208.756L393.616 212.056L328.243 275.852L324.861 272.552L390.234 208.756Z" fill="white" fill-opacity="0.11"/>
<path d="M390.234 224.312L393.616 227.611L328.243 291.407L324.861 288.108L390.234 224.312Z" fill="white" fill-opacity="0.11"/>
<path d="M390.234 239.867L393.616 243.167L328.243 306.963L324.861 303.663L390.234 239.867Z" fill="white" fill-opacity="0.11"/>
<path d="M390.234 255.422L393.616 258.722L328.243 322.518L324.861 319.218L390.234 255.422Z" fill="white" fill-opacity="0.11"/>
</g>
<path d="M357.157 167.451C357.157 160.854 352.161 155.507 345.999 155.507C339.836 155.507 334.841 160.854 334.841 167.451V226.986H357.157V167.451Z" fill="url(#paint9_linear_19_334)"/>
<path d="M236.651 199.544C236.651 192.947 231.656 187.599 225.493 187.599C219.331 187.599 214.335 192.947 214.335 199.544V226.986H236.651V199.544Z" fill="url(#paint10_linear_19_334)"/>
<path d="M210.509 104.413C210.509 97.8168 205.514 92.4691 199.351 92.4691C193.189 92.4691 188.193 97.8168 188.193 104.414V226.986H210.509V104.413Z" fill="url(#paint11_linear_19_334)"/>
<g filter="url(#filter0_d_19_334)">
<path d="M283.196 12.7671C283.196 8.18938 286.907 4.47838 291.485 4.47838H382.024C386.602 4.47838 390.313 8.18938 390.313 12.7671V46.7442C390.313 51.2961 386.623 54.9862 382.071 54.9862C379.088 54.9862 376.339 56.597 374.881 59.1984L374.529 59.8269C374.042 60.6958 372.791 60.6958 372.304 59.8269L371.965 59.2223C370.499 56.6062 367.734 54.9862 364.735 54.9862H291.485C286.907 54.9862 283.196 51.2752 283.196 46.6974V12.7671Z" fill="white"/>
</g>
<path d="M321.415 27.7269L321.564 25.4201L322.195 25.4889L322.057 27.7269H321.415ZM322.758 18.9701L322.115 18.8783L322.264 17.1339H322.895L322.758 18.9701ZM322.161 26.43C321.885 26.43 321.579 26.4109 321.243 26.3726C320.906 26.342 320.581 26.3038 320.267 26.2579C319.961 26.212 319.697 26.1661 319.475 26.1202L319.567 24.9151C319.797 24.9457 320.061 24.9763 320.359 25.0069C320.665 25.0375 320.967 25.0643 321.266 25.0873C321.572 25.1102 321.832 25.1217 322.046 25.1217C322.467 25.1217 322.773 25.0413 322.964 24.8807C323.155 24.7123 323.251 24.4522 323.251 24.1003C323.251 23.909 323.209 23.7598 323.125 23.6527C323.048 23.5379 322.911 23.4461 322.712 23.3772C322.52 23.3084 322.249 23.2395 321.897 23.1706C321.3 23.0559 320.818 22.9181 320.451 22.7575C320.091 22.5968 319.827 22.3711 319.659 22.0803C319.498 21.782 319.418 21.3841 319.418 20.8868C319.418 20.3129 319.525 19.8615 319.739 19.5325C319.953 19.1959 320.256 18.9587 320.646 18.821C321.044 18.6832 321.514 18.6144 322.057 18.6144C322.302 18.6144 322.582 18.6297 322.895 18.6603C323.209 18.6832 323.519 18.7138 323.825 18.7521C324.131 18.7903 324.395 18.8286 324.617 18.8669L324.536 20.0949C324.315 20.0719 324.058 20.0451 323.768 20.0145C323.477 19.9839 323.19 19.961 322.907 19.9457C322.624 19.9227 322.383 19.9112 322.184 19.9112C321.771 19.9112 321.465 19.9801 321.266 20.1178C321.067 20.2479 320.967 20.4583 320.967 20.749C320.967 20.9633 321.009 21.1316 321.093 21.254C321.185 21.3688 321.334 21.4644 321.541 21.5409C321.748 21.6098 322.035 21.6825 322.402 21.759C322.838 21.8585 323.209 21.9656 323.515 22.0803C323.821 22.1875 324.07 22.3175 324.261 22.4706C324.452 22.6236 324.59 22.8225 324.674 23.0673C324.766 23.3122 324.812 23.6221 324.812 23.997C324.812 24.5861 324.705 25.0605 324.491 25.4201C324.284 25.772 323.982 26.0283 323.584 26.189C323.194 26.3497 322.719 26.43 322.161 26.43ZM328.366 26.43L326.851 26.0628L329.33 20.4621V20.1637H326.036V18.7291H330.937V20.4392L328.366 26.43ZM334.927 26.43C333.94 26.43 333.217 26.0896 332.758 25.4086C332.298 24.7276 332.069 23.7674 332.069 22.5279C332.069 21.7934 332.142 21.1775 332.287 20.6802C332.44 20.1752 332.65 19.7735 332.918 19.4751C333.194 19.1691 333.519 18.9472 333.894 18.8095C334.269 18.6718 334.682 18.6029 335.133 18.6029C335.37 18.6029 335.627 18.6182 335.902 18.6488C336.185 18.6794 336.461 18.7177 336.729 18.7636C336.996 18.8018 337.222 18.8401 337.406 18.8783L337.279 20.0604C337.119 20.0451 336.916 20.026 336.671 20.0031C336.434 19.9801 336.185 19.961 335.925 19.9457C335.665 19.9227 335.416 19.9112 335.179 19.9112C334.659 19.9112 334.269 20.0757 334.009 20.4047C333.748 20.7261 333.611 21.189 333.595 21.7934C333.672 21.7705 333.768 21.7437 333.882 21.7131C334.005 21.6748 334.135 21.6366 334.272 21.5983C334.418 21.5524 334.563 21.518 334.709 21.495C334.854 21.4644 334.992 21.4491 335.122 21.4491C335.971 21.4491 336.606 21.6481 337.027 22.0459C337.455 22.4361 337.67 23.052 337.67 23.8937C337.67 24.4599 337.559 24.9304 337.337 25.3053C337.115 25.6802 336.801 25.9633 336.396 26.1546C335.99 26.3382 335.501 26.43 334.927 26.43ZM334.927 25.1446C335.347 25.1446 335.661 25.0375 335.868 24.8233C336.082 24.6014 336.189 24.2915 336.189 23.8937C336.189 23.4958 336.082 23.2051 335.868 23.0214C335.654 22.8302 335.351 22.7345 334.961 22.7345C334.8 22.7345 334.632 22.7498 334.456 22.7804C334.28 22.811 334.116 22.8531 333.963 22.9067C333.81 22.9526 333.683 22.9985 333.584 23.0444C333.592 23.4499 333.637 23.8133 333.722 24.1347C333.806 24.4484 333.943 24.697 334.135 24.8807C334.334 25.0566 334.598 25.1446 334.927 25.1446ZM338.331 27.6236L338.745 24.6856H340.42L339.594 27.6236H338.331ZM343.955 26.43C343.672 26.43 343.374 26.4147 343.06 26.3841C342.754 26.3535 342.459 26.3153 342.176 26.2694C341.901 26.2158 341.671 26.1699 341.488 26.1316L341.557 24.9036C341.74 24.9266 341.958 24.9534 342.211 24.984C342.471 25.0146 342.735 25.0413 343.003 25.0643C343.278 25.0796 343.531 25.0873 343.76 25.0873C344.196 25.0873 344.521 25.0069 344.736 24.8462C344.95 24.6856 345.057 24.4254 345.057 24.0658C345.057 23.821 345.007 23.6297 344.908 23.492C344.816 23.3466 344.678 23.2395 344.495 23.1706C344.319 23.1018 344.112 23.0635 343.875 23.0559H342.314V21.7934H343.841C344.016 21.7934 344.185 21.7552 344.345 21.6787C344.514 21.6021 344.648 21.4912 344.747 21.3458C344.854 21.2005 344.908 21.0245 344.908 20.8179C344.908 20.4966 344.808 20.2708 344.609 20.1408C344.418 20.0031 344.104 19.9342 343.668 19.9342C343.439 19.9342 343.198 19.9457 342.945 19.9686C342.693 19.9916 342.452 20.0184 342.222 20.049C341.993 20.0719 341.801 20.0987 341.648 20.1293L341.58 18.9242C341.748 18.8783 341.954 18.8324 342.199 18.7865C342.444 18.733 342.704 18.6909 342.98 18.6603C343.255 18.622 343.515 18.6029 343.76 18.6029C344.411 18.6029 344.935 18.6718 345.332 18.8095C345.738 18.9395 346.033 19.1576 346.216 19.4636C346.4 19.762 346.492 20.1561 346.492 20.6458C346.492 20.9135 346.457 21.1393 346.388 21.3229C346.327 21.5065 346.243 21.6634 346.136 21.7934C346.036 21.9235 345.933 22.0306 345.826 22.1148C345.719 22.1913 345.619 22.2601 345.528 22.3214C345.757 22.4285 345.956 22.5471 346.124 22.6771C346.293 22.8072 346.423 22.9794 346.515 23.1936C346.606 23.4078 346.652 23.6947 346.652 24.0543C346.652 24.6282 346.553 25.0911 346.354 25.443C346.155 25.7873 345.857 26.0398 345.459 26.2005C345.061 26.3535 344.56 26.43 343.955 26.43ZM350.332 26.43C350.049 26.43 349.751 26.4147 349.437 26.3841C349.131 26.3535 348.837 26.3153 348.554 26.2694C348.278 26.2158 348.049 26.1699 347.865 26.1316L347.934 24.9036C348.117 24.9266 348.336 24.9534 348.588 24.984C348.848 25.0146 349.112 25.0413 349.38 25.0643C349.655 25.0796 349.908 25.0873 350.137 25.0873C350.574 25.0873 350.899 25.0069 351.113 24.8462C351.327 24.6856 351.434 24.4254 351.434 24.0658C351.434 23.821 351.385 23.6297 351.285 23.492C351.193 23.3466 351.056 23.2395 350.872 23.1706C350.696 23.1018 350.489 23.0635 350.252 23.0559H348.691V21.7934H350.218C350.394 21.7934 350.562 21.7552 350.723 21.6787C350.891 21.6021 351.025 21.4912 351.124 21.3458C351.232 21.2005 351.285 21.0245 351.285 20.8179C351.285 20.4966 351.186 20.2708 350.987 20.1408C350.795 20.0031 350.482 19.9342 350.046 19.9342C349.816 19.9342 349.575 19.9457 349.323 19.9686C349.07 19.9916 348.829 20.0184 348.6 20.049C348.37 20.0719 348.179 20.0987 348.026 20.1293L347.957 18.9242C348.125 18.8783 348.332 18.8324 348.577 18.7865C348.821 18.733 349.082 18.6909 349.357 18.6603C349.632 18.622 349.893 18.6029 350.137 18.6029C350.788 18.6029 351.312 18.6718 351.71 18.8095C352.115 18.9395 352.41 19.1576 352.593 19.4636C352.777 19.762 352.869 20.1561 352.869 20.6458C352.869 20.9135 352.834 21.1393 352.766 21.3229C352.704 21.5065 352.62 21.6634 352.513 21.7934C352.414 21.9235 352.31 22.0306 352.203 22.1148C352.096 22.1913 351.997 22.2601 351.905 22.3214C352.134 22.4285 352.333 22.5471 352.502 22.6771C352.67 22.8072 352.8 22.9794 352.892 23.1936C352.984 23.4078 353.03 23.6947 353.03 24.0543C353.03 24.6282 352.93 25.0911 352.731 25.443C352.532 25.7873 352.234 26.0398 351.836 26.2005C351.438 26.3535 350.937 26.43 350.332 26.43ZM357.456 26.3038V25.0413H354.013V23.8937L355.734 18.7291H357.502L355.585 23.7215H357.456L357.548 21.7705L359.017 21.7475V23.7215H359.717V25.0413H359.017V26.3038H357.456Z" fill="#202020"/>
<path d="M315.038 43.1926L313.203 38.3583H313.173C313.183 38.4604 313.192 38.5849 313.199 38.7319C313.207 38.8788 313.213 39.0395 313.218 39.2138C313.223 39.3857 313.226 39.5613 313.226 39.7406V43.1926H312.635V37.7307H313.577L315.307 42.2735H315.333L317.089 37.7307H318.023V43.1926H317.395V39.6957C317.395 39.5339 317.397 39.372 317.402 39.2101C317.407 39.0457 317.414 38.8913 317.421 38.7468C317.429 38.5999 317.436 38.4729 317.443 38.3658H317.414L315.557 43.1926H315.038ZM320.955 39.0308C321.443 39.0308 321.806 39.1403 322.042 39.3595C322.279 39.5787 322.397 39.9286 322.397 40.4093V43.1926H321.945L321.826 42.5873H321.796C321.681 42.7368 321.562 42.8626 321.437 42.9647C321.313 43.0643 321.168 43.1403 321.004 43.1926C320.842 43.2424 320.643 43.2673 320.406 43.2673C320.157 43.2673 319.935 43.2237 319.741 43.1365C319.549 43.0494 319.397 42.9174 319.285 42.7405C319.176 42.5637 319.121 42.3395 319.121 42.0681C319.121 41.6596 319.283 41.3458 319.607 41.1266C319.93 40.9074 320.424 40.7879 321.086 40.768L321.792 40.7381V40.4878C321.792 40.1341 321.716 39.8863 321.564 39.7443C321.412 39.6023 321.198 39.5314 320.922 39.5314C320.707 39.5314 320.503 39.5625 320.309 39.6248C320.115 39.687 319.93 39.7605 319.756 39.8452L319.565 39.3745C319.75 39.2798 319.962 39.1989 320.201 39.1316C320.44 39.0644 320.691 39.0308 320.955 39.0308ZM321.785 41.1752L321.161 41.2013C320.65 41.2212 320.29 41.3047 320.081 41.4516C319.872 41.5986 319.767 41.8065 319.767 42.0755C319.767 42.3096 319.838 42.4827 319.98 42.5948C320.122 42.7069 320.31 42.7629 320.544 42.7629C320.908 42.7629 321.206 42.6621 321.437 42.4603C321.669 42.2586 321.785 41.956 321.785 41.5525V41.1752ZM323.029 39.098H323.694L324.598 41.474C324.65 41.6135 324.699 41.748 324.743 41.8775C324.788 42.0045 324.828 42.1266 324.863 42.2436C324.898 42.3607 324.925 42.474 324.945 42.5836H324.971C325.006 42.4591 325.056 42.2959 325.121 42.0942C325.186 41.89 325.255 41.682 325.33 41.4703L326.186 39.098H326.854L325.072 43.794C324.978 44.0456 324.867 44.2648 324.74 44.4516C324.615 44.6384 324.463 44.7816 324.284 44.8812C324.105 44.9833 323.888 45.0344 323.634 45.0344C323.517 45.0344 323.413 45.0269 323.324 45.012C323.234 44.9995 323.157 44.9846 323.092 44.9671V44.4703C323.147 44.4827 323.213 44.4939 323.29 44.5039C323.37 44.5138 323.452 44.5188 323.537 44.5188C323.691 44.5188 323.824 44.4889 323.937 44.4292C324.051 44.3719 324.149 44.2872 324.232 44.1751C324.314 44.063 324.385 43.9298 324.445 43.7754L324.669 43.2L323.029 39.098ZM332.798 43.1926H329.219V42.6733L330.68 41.1901C330.951 40.9161 331.179 40.6721 331.364 40.4579C331.55 40.2437 331.692 40.0332 331.789 39.8265C331.887 39.6173 331.935 39.3882 331.935 39.1391C331.935 38.8303 331.843 38.5949 331.659 38.433C331.477 38.2686 331.237 38.1864 330.938 38.1864C330.676 38.1864 330.444 38.2313 330.243 38.3209C330.041 38.4106 329.834 38.5376 329.623 38.702L329.29 38.2836C329.435 38.1615 329.591 38.0532 329.761 37.9585C329.933 37.8639 330.116 37.7892 330.31 37.7344C330.507 37.6796 330.716 37.6522 330.938 37.6522C331.274 37.6522 331.564 37.7107 331.808 37.8278C332.052 37.9448 332.24 38.1117 332.372 38.3284C332.507 38.5451 332.574 38.8029 332.574 39.1017C332.574 39.3906 332.517 39.6596 332.402 39.9087C332.288 40.1553 332.127 40.4006 331.92 40.6447C331.713 40.8863 331.472 41.1428 331.195 41.4143L330.007 42.5986V42.6247H332.798V43.1926ZM335.906 43.1926H335.301V39.3222C335.301 39.1752 335.301 39.0494 335.301 38.9448C335.304 38.8377 335.306 38.7406 335.309 38.6534C335.314 38.5638 335.32 38.4729 335.327 38.3807C335.25 38.4604 335.178 38.5289 335.111 38.5862C335.043 38.641 334.96 38.7095 334.86 38.7917L334.236 39.2923L333.911 38.8701L335.391 37.7307H335.906V43.1926ZM339.575 42.7592C339.677 42.7592 339.782 42.7505 339.889 42.733C339.996 42.7156 340.083 42.6944 340.15 42.6695V43.1515C340.078 43.1838 339.977 43.2112 339.848 43.2337C339.721 43.2561 339.596 43.2673 339.474 43.2673C339.258 43.2673 339.061 43.2299 338.884 43.1552C338.707 43.078 338.565 42.9485 338.458 42.7667C338.353 42.5849 338.301 42.3333 338.301 42.012V39.5837H337.718V39.2811L338.305 39.0382L338.551 38.1491H338.925V39.098H340.124V39.5837H338.925V41.9933C338.925 42.2499 338.984 42.4416 339.101 42.5687C339.22 42.6957 339.378 42.7592 339.575 42.7592ZM341.6 37.3795V39.1167C341.6 39.2163 341.597 39.3172 341.592 39.4193C341.587 39.5189 341.579 39.6111 341.566 39.6957H341.607C341.692 39.5513 341.799 39.4305 341.929 39.3334C342.061 39.2337 342.21 39.159 342.377 39.1092C342.544 39.0569 342.721 39.0308 342.908 39.0308C343.236 39.0308 343.51 39.0831 343.729 39.1877C343.951 39.2923 344.117 39.4542 344.226 39.6733C344.338 39.8925 344.394 40.1764 344.394 40.5251V43.1926H343.782V40.5662C343.782 40.225 343.703 39.9697 343.546 39.8004C343.392 39.631 343.154 39.5463 342.833 39.5463C342.529 39.5463 342.286 39.6048 342.104 39.7219C341.925 39.8365 341.795 40.0058 341.716 40.23C341.639 40.4541 341.6 40.7281 341.6 41.0519V43.1926H340.98V37.3795H341.6ZM346.382 42.3034L346.43 42.3893C346.386 42.5712 346.328 42.7654 346.259 42.9721C346.191 43.1789 346.117 43.3856 346.034 43.5923C345.955 43.8015 345.874 43.997 345.792 44.1788H345.328C345.381 43.9796 345.432 43.7691 345.482 43.5475C345.531 43.3283 345.576 43.1116 345.616 42.8974C345.658 42.6807 345.692 42.4827 345.717 42.3034H346.382ZM352.942 43.1926H349.363V42.6733L350.824 41.1901C351.095 40.9161 351.323 40.6721 351.508 40.4579C351.694 40.2437 351.836 40.0332 351.933 39.8265C352.031 39.6173 352.079 39.3882 352.079 39.1391C352.079 38.8303 351.987 38.5949 351.803 38.433C351.621 38.2686 351.381 38.1864 351.082 38.1864C350.82 38.1864 350.589 38.2313 350.387 38.3209C350.185 38.4106 349.978 38.5376 349.767 38.702L349.434 38.2836C349.579 38.1615 349.736 38.0532 349.905 37.9585C350.077 37.8639 350.26 37.7892 350.454 37.7344C350.651 37.6796 350.86 37.6522 351.082 37.6522C351.418 37.6522 351.708 37.7107 351.952 37.8278C352.196 37.9448 352.384 38.1117 352.516 38.3284C352.651 38.5451 352.718 38.8029 352.718 39.1017C352.718 39.3906 352.661 39.6596 352.546 39.9087C352.432 40.1553 352.271 40.4006 352.064 40.6447C351.858 40.8863 351.616 41.1428 351.339 41.4143L350.151 42.5986V42.6247H352.942V43.1926ZM357.351 40.4541C357.351 40.8975 357.317 41.2935 357.25 41.6422C357.182 41.9908 357.077 42.286 356.932 42.5276C356.788 42.7692 356.601 42.9535 356.372 43.0805C356.143 43.205 355.867 43.2673 355.546 43.2673C355.14 43.2673 354.804 43.1565 354.537 42.9348C354.273 42.7131 354.075 42.3931 353.943 41.9747C353.814 41.5537 353.749 41.0469 353.749 40.4541C353.749 39.8713 353.808 39.3707 353.925 38.9523C354.044 38.5314 354.236 38.2088 354.5 37.9847C354.764 37.758 355.113 37.6447 355.546 37.6447C355.957 37.6447 356.296 37.7568 356.562 37.981C356.829 38.2026 357.027 38.5239 357.156 38.9448C357.286 39.3632 357.351 39.8664 357.351 40.4541ZM354.373 40.4541C354.373 40.9622 354.412 41.3856 354.489 41.7243C354.566 42.0631 354.691 42.3171 354.862 42.4865C355.037 42.6533 355.265 42.7368 355.546 42.7368C355.828 42.7368 356.054 42.6533 356.226 42.4865C356.4 42.3196 356.526 42.0668 356.603 41.7281C356.683 41.3894 356.723 40.9647 356.723 40.4541C356.723 39.9535 356.684 39.5351 356.607 39.1989C356.53 38.8601 356.405 38.6061 356.234 38.4367C356.062 38.2649 355.833 38.179 355.546 38.179C355.26 38.179 355.031 38.2649 354.859 38.4367C354.687 38.6061 354.562 38.8601 354.485 39.1989C354.41 39.5351 354.373 39.9535 354.373 40.4541ZM361.699 43.1926H358.12V42.6733L359.581 41.1901C359.852 40.9161 360.08 40.6721 360.265 40.4579C360.451 40.2437 360.593 40.0332 360.69 39.8265C360.788 39.6173 360.836 39.3882 360.836 39.1391C360.836 38.8303 360.744 38.5949 360.56 38.433C360.378 38.2686 360.138 38.1864 359.839 38.1864C359.577 38.1864 359.346 38.2313 359.144 38.3209C358.942 38.4106 358.735 38.5376 358.524 38.702L358.191 38.2836C358.336 38.1615 358.493 38.0532 358.662 37.9585C358.834 37.8639 359.017 37.7892 359.211 37.7344C359.408 37.6796 359.617 37.6522 359.839 37.6522C360.175 37.6522 360.465 37.7107 360.709 37.8278C360.953 37.9448 361.141 38.1117 361.273 38.3284C361.408 38.5451 361.475 38.8029 361.475 39.1017C361.475 39.3906 361.418 39.6596 361.303 39.9087C361.189 40.1553 361.028 40.4006 360.821 40.6447C360.615 40.8863 360.373 41.1428 360.096 41.4143L358.908 42.5986V42.6247H361.699V43.1926ZM366.108 40.4541C366.108 40.8975 366.074 41.2935 366.007 41.6422C365.939 41.9908 365.834 42.286 365.689 42.5276C365.545 42.7692 365.358 42.9535 365.129 43.0805C364.9 43.205 364.624 43.2673 364.303 43.2673C363.897 43.2673 363.561 43.1565 363.294 42.9348C363.03 42.7131 362.832 42.3931 362.7 41.9747C362.571 41.5537 362.506 41.0469 362.506 40.4541C362.506 39.8713 362.565 39.3707 362.682 38.9523C362.801 38.5314 362.993 38.2088 363.257 37.9847C363.521 37.758 363.87 37.6447 364.303 37.6447C364.714 37.6447 365.053 37.7568 365.319 37.981C365.586 38.2026 365.784 38.5239 365.913 38.9448C366.043 39.3632 366.108 39.8664 366.108 40.4541ZM363.13 40.4541C363.13 40.9622 363.169 41.3856 363.246 41.7243C363.323 42.0631 363.448 42.3171 363.619 42.4865C363.794 42.6533 364.022 42.7368 364.303 42.7368C364.585 42.7368 364.811 42.6533 364.983 42.4865C365.157 42.3196 365.283 42.0668 365.36 41.7281C365.44 41.3894 365.48 40.9647 365.48 40.4541C365.48 39.9535 365.441 39.5351 365.364 39.1989C365.287 38.8601 365.162 38.6061 364.991 38.4367C364.819 38.2649 364.59 38.179 364.303 38.179C364.017 38.179 363.788 38.2649 363.616 38.4367C363.444 38.6061 363.319 38.8601 363.242 39.1989C363.167 39.5351 363.13 39.9535 363.13 40.4541Z" fill="#A5A5A5"/>
<rect x="34.5332" y="226.303" width="382.558" height="0.682538" rx="0.341269" fill="#E9ECFF"/>
<path d="M61.8363 248.621C61.6578 248.621 61.4495 248.61 61.2115 248.586C60.9734 248.568 60.7354 248.544 60.4974 248.514C60.2653 248.479 60.06 248.449 59.8814 248.425L59.9528 247.836C60.1254 247.854 60.3248 247.875 60.5509 247.898C60.783 247.922 61.0091 247.943 61.2293 247.961C61.4555 247.979 61.6459 247.988 61.8006 247.988C62.235 247.988 62.5593 247.89 62.7736 247.693C62.9878 247.497 63.0949 247.19 63.0949 246.774C63.0949 246.548 63.0503 246.369 62.961 246.238C62.8777 246.101 62.7349 245.994 62.5326 245.917C62.3362 245.833 62.0714 245.759 61.7381 245.694C61.3097 245.604 60.9526 245.5 60.667 245.381C60.3873 245.256 60.176 245.081 60.0332 244.855C59.8963 244.628 59.8279 244.322 59.8279 243.935C59.8279 243.536 59.9082 243.215 60.0689 242.971C60.2355 242.727 60.4676 242.549 60.7651 242.436C61.0686 242.322 61.4197 242.266 61.8185 242.266C61.997 242.266 62.1993 242.278 62.4254 242.302C62.6575 242.319 62.8837 242.343 63.1039 242.373C63.33 242.397 63.5234 242.424 63.6841 242.453L63.6216 243.051C63.449 243.028 63.2496 243.007 63.0235 242.989C62.7974 242.965 62.5802 242.944 62.3719 242.926C62.1636 242.909 61.997 242.9 61.872 242.9C61.4376 242.9 61.1073 242.98 60.8812 243.141C60.661 243.301 60.5509 243.551 60.5509 243.89C60.5509 244.152 60.5985 244.352 60.6937 244.489C60.7949 244.625 60.9556 244.733 61.1758 244.81C61.3959 244.887 61.6846 244.968 62.0416 245.051C62.3511 245.122 62.6159 245.2 62.8361 245.283C63.0622 245.366 63.2467 245.47 63.3895 245.595C63.5383 245.714 63.6454 245.866 63.7108 246.051C63.7823 246.229 63.818 246.452 63.818 246.72C63.818 247.172 63.7376 247.538 63.5769 247.818C63.4163 248.098 63.1872 248.303 62.8896 248.434C62.5921 248.559 62.241 248.621 61.8363 248.621ZM66.2369 248.63C65.8561 248.63 65.5645 248.553 65.3622 248.398C65.1598 248.244 65.02 248.003 64.9426 247.675C64.8712 247.348 64.8355 246.925 64.8355 246.408V244.078H65.5228V246.408C65.5228 246.8 65.5407 247.113 65.5764 247.345C65.618 247.577 65.7043 247.747 65.8352 247.854C65.9662 247.955 66.1625 248.006 66.4244 248.006C66.6862 248.006 66.9243 247.97 67.1385 247.898C67.3527 247.827 67.5253 247.756 67.6562 247.684V244.078H68.3436V248.541H67.6562V248.229C67.4658 248.336 67.2575 248.431 67.0314 248.514C66.8112 248.592 66.5464 248.63 66.2369 248.63ZM69.631 248.541V244.078H70.3183V244.39C70.4195 244.331 70.5444 244.271 70.6932 244.212C70.8479 244.152 71.0116 244.102 71.1842 244.06C71.3567 244.012 71.5234 243.989 71.684 243.989C72.0946 243.989 72.4071 244.063 72.6213 244.212C72.8415 244.355 72.9932 244.587 73.0765 244.908C73.1599 245.229 73.2015 245.652 73.2015 246.176V248.541H72.5053V246.202C72.5053 245.816 72.4815 245.506 72.4338 245.274C72.3922 245.042 72.3029 244.875 72.1661 244.774C72.0351 244.667 71.8328 244.614 71.5591 244.614C71.4103 244.614 71.2556 244.631 71.0949 244.667C70.9402 244.697 70.7944 244.739 70.6575 244.792C70.5206 244.84 70.4076 244.887 70.3183 244.935V248.541H69.631Z" fill="#787878"/>
<path d="M130.285 248.541V242.373H131.579L133.284 247.55L134.998 242.373H136.292V248.541H135.578V243.132H135.444L133.686 248.318H132.891L131.133 243.132H130.999V248.541H130.285ZM139.397 248.63C138.897 248.63 138.508 248.544 138.228 248.372C137.954 248.199 137.761 247.937 137.648 247.586C137.54 247.235 137.487 246.792 137.487 246.256C137.487 245.744 137.546 245.322 137.665 244.988C137.79 244.655 137.993 244.405 138.272 244.239C138.552 244.072 138.927 243.989 139.397 243.989C139.873 243.989 140.251 244.072 140.531 244.239C140.811 244.405 141.01 244.655 141.129 244.988C141.254 245.322 141.316 245.744 141.316 246.256C141.316 246.792 141.26 247.235 141.147 247.586C141.04 247.937 140.846 248.199 140.567 248.372C140.293 248.544 139.903 248.63 139.397 248.63ZM139.397 248.032C139.742 248.032 140.001 247.973 140.174 247.854C140.346 247.729 140.459 247.535 140.513 247.274C140.572 247.012 140.602 246.673 140.602 246.256C140.602 245.845 140.567 245.518 140.495 245.274C140.424 245.03 140.302 244.855 140.129 244.747C139.957 244.64 139.713 244.587 139.397 244.587C139.088 244.587 138.844 244.64 138.665 244.747C138.493 244.855 138.371 245.03 138.299 245.274C138.228 245.518 138.192 245.845 138.192 246.256C138.192 246.673 138.219 247.012 138.272 247.274C138.332 247.535 138.448 247.729 138.621 247.854C138.793 247.973 139.052 248.032 139.397 248.032ZM142.408 248.541V244.078H143.095V244.39C143.197 244.331 143.321 244.271 143.47 244.212C143.625 244.152 143.789 244.102 143.961 244.06C144.134 244.012 144.3 243.989 144.461 243.989C144.872 243.989 145.184 244.063 145.398 244.212C145.619 244.355 145.77 244.587 145.854 244.908C145.937 245.229 145.979 245.652 145.979 246.176V248.541H145.282V246.202C145.282 245.816 145.258 245.506 145.211 245.274C145.169 245.042 145.08 244.875 144.943 244.774C144.812 244.667 144.61 244.614 144.336 244.614C144.187 244.614 144.033 244.631 143.872 244.667C143.717 244.697 143.571 244.739 143.435 244.792C143.298 244.84 143.185 244.887 143.095 244.935V248.541H142.408Z" fill="#787878"/>
<path d="M204.221 248.541V243.016H202.337V242.373H206.8V243.016H204.935V248.541H204.221ZM208.919 248.63C208.538 248.63 208.247 248.553 208.044 248.398C207.842 248.244 207.702 248.003 207.625 247.675C207.554 247.348 207.518 246.925 207.518 246.408V244.078H208.205V246.408C208.205 246.8 208.223 247.113 208.259 247.345C208.3 247.577 208.387 247.747 208.518 247.854C208.648 247.955 208.845 248.006 209.107 248.006C209.369 248.006 209.607 247.97 209.821 247.898C210.035 247.827 210.208 247.756 210.339 247.684V244.078H211.026V248.541H210.339V248.229C210.148 248.336 209.94 248.431 209.714 248.514C209.493 248.592 209.229 248.63 208.919 248.63ZM204.444 265.63C203.998 265.63 203.643 265.544 203.382 265.372C203.126 265.199 202.941 264.943 202.828 264.604C202.715 264.265 202.659 263.842 202.659 263.336C202.659 262.771 202.736 262.319 202.891 261.98C203.045 261.634 203.263 261.384 203.542 261.23C203.822 261.069 204.152 260.989 204.533 260.989C205.128 260.989 205.578 261.155 205.881 261.489C206.184 261.816 206.336 262.345 206.336 263.077L206.301 263.604H203.364C203.37 264.068 203.456 264.419 203.623 264.657C203.789 264.895 204.09 265.014 204.524 265.014C204.691 265.014 204.872 265.011 205.069 265.006C205.271 264.994 205.47 264.982 205.667 264.97C205.863 264.958 206.03 264.946 206.167 264.934L206.184 265.479C206.042 265.502 205.866 265.526 205.658 265.55C205.456 265.574 205.247 265.592 205.033 265.604C204.819 265.621 204.622 265.63 204.444 265.63ZM203.364 263.042H205.64C205.64 262.494 205.551 262.113 205.372 261.899C205.2 261.679 204.92 261.569 204.533 261.569C204.158 261.569 203.87 261.682 203.667 261.908C203.465 262.134 203.364 262.512 203.364 263.042Z" fill="#787878"/>
<path d="M272.59 248.541L271.349 242.373H272.09L273.125 247.916H273.375L274.625 242.418H275.464L276.714 247.916H276.964L277.999 242.373H278.74L277.49 248.541H276.205L274.982 242.989H275.107L273.884 248.541H272.59ZM281.228 248.63C280.781 248.63 280.427 248.544 280.165 248.372C279.909 248.199 279.725 247.943 279.612 247.604C279.499 247.265 279.442 246.842 279.442 246.336C279.442 245.771 279.52 245.319 279.674 244.98C279.829 244.634 280.046 244.384 280.326 244.23C280.606 244.069 280.936 243.989 281.317 243.989C281.912 243.989 282.361 244.155 282.665 244.489C282.968 244.816 283.12 245.345 283.12 246.077L283.084 246.604H280.148C280.153 247.068 280.24 247.419 280.406 247.657C280.573 247.895 280.874 248.014 281.308 248.014C281.475 248.014 281.656 248.011 281.852 248.006C282.055 247.994 282.254 247.982 282.451 247.97C282.647 247.958 282.814 247.946 282.95 247.934L282.968 248.479C282.825 248.502 282.65 248.526 282.442 248.55C282.239 248.574 282.031 248.592 281.817 248.604C281.603 248.621 281.406 248.63 281.228 248.63ZM280.148 246.042H282.424C282.424 245.494 282.334 245.113 282.156 244.899C281.983 244.679 281.704 244.569 281.317 244.569C280.942 244.569 280.653 244.682 280.451 244.908C280.249 245.134 280.148 245.512 280.148 246.042ZM285.565 248.63C285.386 248.63 285.217 248.61 285.056 248.568C284.895 248.532 284.747 248.467 284.61 248.372C284.479 248.276 284.363 248.145 284.262 247.979C284.16 247.806 284.083 247.586 284.029 247.318C283.976 247.05 283.949 246.726 283.949 246.345C283.949 245.816 284.012 245.378 284.137 245.033C284.262 244.682 284.461 244.42 284.735 244.248C285.008 244.075 285.371 243.989 285.824 243.989C285.996 243.989 286.19 244.004 286.404 244.033C286.618 244.057 286.785 244.081 286.904 244.105V242.141H287.6V248.541H286.913V248.247C286.817 248.3 286.692 248.357 286.538 248.416C286.389 248.476 286.228 248.526 286.056 248.568C285.889 248.61 285.725 248.63 285.565 248.63ZM285.654 248.006C285.809 248.006 285.963 247.988 286.118 247.952C286.279 247.916 286.428 247.875 286.565 247.827C286.701 247.773 286.814 247.726 286.904 247.684V244.694C286.832 244.682 286.734 244.67 286.609 244.658C286.484 244.64 286.353 244.625 286.216 244.614C286.085 244.602 285.966 244.596 285.859 244.596C285.556 244.596 285.318 244.661 285.145 244.792C284.973 244.923 284.848 245.119 284.77 245.381C284.699 245.637 284.663 245.958 284.663 246.345C284.663 246.702 284.69 246.991 284.744 247.211C284.797 247.425 284.869 247.592 284.958 247.711C285.053 247.824 285.16 247.901 285.279 247.943C285.398 247.985 285.523 248.006 285.654 248.006Z" fill="#787878"/>
<path d="M345.767 248.541V243.016H343.884V242.373H348.347V243.016H346.481V248.541H345.767ZM349.109 248.541V242.141H349.796V244.319C349.951 244.248 350.156 244.176 350.412 244.105C350.674 244.027 350.924 243.989 351.162 243.989C351.572 243.989 351.885 244.063 352.099 244.212C352.319 244.355 352.468 244.587 352.545 244.908C352.629 245.229 352.67 245.652 352.67 246.176V248.541H351.974V246.202C351.974 245.816 351.95 245.506 351.903 245.274C351.861 245.042 351.775 244.875 351.644 244.774C351.513 244.667 351.311 244.614 351.037 244.614C350.811 244.614 350.582 244.643 350.35 244.703C350.117 244.762 349.933 244.819 349.796 244.872V248.541H349.109ZM355.269 248.63C354.888 248.63 354.596 248.553 354.394 248.398C354.192 248.244 354.052 248.003 353.974 247.675C353.903 247.348 353.867 246.925 353.867 246.408V244.078H354.555V246.408C354.555 246.8 354.573 247.113 354.608 247.345C354.65 247.577 354.736 247.747 354.867 247.854C354.998 247.955 355.194 248.006 355.456 248.006C355.718 248.006 355.956 247.97 356.17 247.898C356.385 247.827 356.557 247.756 356.688 247.684V244.078H357.375V248.541H356.688V248.229C356.498 248.336 356.289 248.431 356.063 248.514C355.843 248.592 355.578 248.63 355.269 248.63Z" fill="#787878"/>
<path d="M414.653 248.541V242.373H418.357V243.007H415.367V245.381H417.893V246.015H415.367V248.541H414.653ZM419.244 248.541V244.078H419.931V244.676C420.044 244.599 420.187 244.515 420.36 244.426C420.532 244.331 420.723 244.242 420.931 244.158C421.139 244.075 421.348 244.015 421.556 243.98V244.685C421.354 244.727 421.148 244.783 420.94 244.855C420.732 244.92 420.538 244.991 420.36 245.069C420.187 245.146 420.044 245.215 419.931 245.274V248.541H419.244ZM414.546 265.541V261.078H415.233V265.541H414.546ZM414.546 260.096V259.293H415.233V260.096H414.546Z" fill="#787878"/>
<path d="M5.18135 193.938V193.331L6.87736 191.555C7.12134 191.299 7.3326 191.07 7.51113 190.867C7.68965 190.659 7.82653 190.457 7.92174 190.26C8.01695 190.058 8.06456 189.844 8.06456 189.618C8.06456 189.231 7.95745 188.966 7.74321 188.823C7.53493 188.675 7.21953 188.6 6.79702 188.6C6.6423 188.6 6.46972 188.612 6.27929 188.636C6.08886 188.654 5.90438 188.678 5.72586 188.707C5.55328 188.731 5.40451 188.758 5.27954 188.788L5.22598 188.198C5.35095 188.163 5.50567 188.127 5.69015 188.091C5.87463 188.056 6.07398 188.026 6.28822 188.002C6.5084 187.972 6.72263 187.957 6.93091 187.957C7.55576 187.957 8.02291 188.082 8.33235 188.332C8.64775 188.582 8.80545 188.984 8.80545 189.537C8.80545 189.829 8.75784 190.091 8.66263 190.323C8.57336 190.555 8.43649 190.784 8.25202 191.01C8.07349 191.23 7.84438 191.477 7.56469 191.751L6.02043 193.313H8.94827V193.938H5.18135ZM12.0597 194.027C11.7205 194.027 11.417 193.98 11.1492 193.885C10.8874 193.789 10.6613 193.632 10.4708 193.411C10.2864 193.185 10.1435 192.882 10.0424 192.501C9.94716 192.12 9.89956 191.647 9.89956 191.082C9.89956 190.481 9.94716 189.978 10.0424 189.573C10.1376 189.168 10.2774 188.847 10.4619 188.609C10.6523 188.371 10.8785 188.201 11.1403 188.1C11.4081 187.999 11.7116 187.949 12.0508 187.949C12.4019 187.949 12.7114 187.999 12.9791 188.1C13.2469 188.201 13.4701 188.371 13.6486 188.609C13.8331 188.847 13.9729 189.168 14.0682 189.573C14.1634 189.972 14.211 190.475 14.211 191.082C14.211 191.832 14.1247 192.421 13.9521 192.849C13.7795 193.278 13.5326 193.581 13.2112 193.76C12.8958 193.938 12.512 194.027 12.0597 194.027ZM12.0597 193.394C12.2918 193.394 12.4941 193.358 12.6667 193.287C12.8453 193.215 12.994 193.093 13.113 192.921C13.2321 192.748 13.3213 192.513 13.3808 192.215C13.4403 191.912 13.4701 191.534 13.4701 191.082C13.4701 190.588 13.4403 190.18 13.3808 189.859C13.3273 189.537 13.241 189.285 13.122 189.1C13.0089 188.91 12.8631 188.776 12.6846 188.698C12.512 188.621 12.3037 188.582 12.0597 188.582C11.8217 188.582 11.6134 188.621 11.4349 188.698C11.2564 188.776 11.1076 188.907 10.9886 189.091C10.8755 189.276 10.7892 189.531 10.7297 189.859C10.6702 190.18 10.6404 190.591 10.6404 191.091C10.6404 191.543 10.6702 191.921 10.7297 192.224C10.7952 192.522 10.8874 192.757 11.0064 192.929C11.1314 193.096 11.2802 193.215 11.4527 193.287C11.6313 193.358 11.8336 193.394 12.0597 193.394Z" fill="#787878"/>
<path d="M12.1664 230.202C11.8272 230.202 11.5237 230.154 11.2559 230.059C10.994 229.964 10.7679 229.806 10.5775 229.586C10.393 229.36 10.2502 229.056 10.149 228.675C10.0538 228.295 10.0062 227.822 10.0062 227.256C10.0062 226.655 10.0538 226.152 10.149 225.748C10.2442 225.343 10.3841 225.022 10.5686 224.784C10.759 224.546 10.9851 224.376 11.247 224.275C11.5147 224.174 11.8182 224.123 12.1574 224.123C12.5085 224.123 12.818 224.174 13.0858 224.275C13.3536 224.376 13.5767 224.546 13.7553 224.784C13.9397 225.022 14.0796 225.343 14.1748 225.748C14.27 226.146 14.3176 226.649 14.3176 227.256C14.3176 228.006 14.2313 228.595 14.0588 229.024C13.8862 229.452 13.6392 229.756 13.3179 229.934C13.0025 230.113 12.6186 230.202 12.1664 230.202ZM12.1664 229.568C12.3985 229.568 12.6008 229.532 12.7734 229.461C12.9519 229.39 13.1007 229.268 13.2197 229.095C13.3387 228.922 13.428 228.687 13.4875 228.39C13.547 228.086 13.5767 227.708 13.5767 227.256C13.5767 226.762 13.547 226.355 13.4875 226.033C13.4339 225.712 13.3476 225.459 13.2286 225.275C13.1155 225.084 12.9697 224.95 12.7912 224.873C12.6186 224.795 12.4104 224.757 12.1664 224.757C11.9283 224.757 11.7201 224.795 11.5415 224.873C11.363 224.95 11.2142 225.081 11.0952 225.266C10.9821 225.45 10.8959 225.706 10.8363 226.033C10.7768 226.355 10.7471 226.765 10.7471 227.265C10.7471 227.717 10.7768 228.095 10.8363 228.399C10.9018 228.696 10.994 228.931 11.1131 229.104C11.238 229.271 11.3868 229.39 11.5594 229.461C11.7379 229.532 11.9402 229.568 12.1664 229.568Z" fill="#787878"/>
<path d="M7.12386 159.811V158.669H4.28528V158.115L5.95451 153.92H6.74003L5.03509 158.035H7.12386V156.214H7.83797V158.035H8.57885V158.669H7.83797V159.811H7.12386ZM11.4225 159.9C11.0833 159.9 10.7798 159.853 10.512 159.758C10.2502 159.662 10.0241 159.505 9.83364 159.285C9.64916 159.058 9.50634 158.755 9.40517 158.374C9.30996 157.993 9.26235 157.52 9.26235 156.955C9.26235 156.354 9.30996 155.851 9.40517 155.446C9.50038 155.042 9.64023 154.72 9.82471 154.482C10.0151 154.244 10.2413 154.075 10.5031 153.973C10.7709 153.872 11.0744 153.822 11.4136 153.822C11.7647 153.822 12.0742 153.872 12.3419 153.973C12.6097 154.075 12.8329 154.244 13.0114 154.482C13.1959 154.72 13.3357 155.042 13.431 155.446C13.5262 155.845 13.5738 156.348 13.5738 156.955C13.5738 157.705 13.4875 158.294 13.3149 158.722C13.1423 159.151 12.8954 159.454 12.574 159.633C12.2586 159.811 11.8748 159.9 11.4225 159.9ZM11.4225 159.267C11.6546 159.267 11.8569 159.231 12.0295 159.16C12.208 159.088 12.3568 158.966 12.4758 158.794C12.5949 158.621 12.6841 158.386 12.7436 158.088C12.8031 157.785 12.8329 157.407 12.8329 156.955C12.8329 156.461 12.8031 156.053 12.7436 155.732C12.6901 155.411 12.6038 155.158 12.4848 154.973C12.3717 154.783 12.2259 154.649 12.0474 154.571C11.8748 154.494 11.6665 154.455 11.4225 154.455C11.1845 154.455 10.9762 154.494 10.7977 154.571C10.6192 154.649 10.4704 154.78 10.3514 154.964C10.2383 155.149 10.152 155.405 10.0925 155.732C10.033 156.053 10.0032 156.464 10.0032 156.964C10.0032 157.416 10.033 157.794 10.0925 158.097C10.158 158.395 10.2502 158.63 10.3692 158.803C10.4942 158.969 10.643 159.088 10.8155 159.16C10.9941 159.231 11.1964 159.267 11.4225 159.267Z" fill="#787878"/>
<path d="M6.48116 125.091C5.74325 125.091 5.20469 124.82 4.86549 124.279C4.53224 123.731 4.36561 122.981 4.36561 122.029C4.36561 121.494 4.41917 121.036 4.52629 120.655C4.6334 120.274 4.78813 119.964 4.99046 119.726C5.19279 119.482 5.43678 119.304 5.72242 119.191C6.00806 119.078 6.32644 119.021 6.67754 119.021C6.86202 119.021 7.05542 119.03 7.25775 119.048C7.46008 119.066 7.65349 119.087 7.83797 119.11C8.02244 119.134 8.17717 119.158 8.30214 119.182L8.23073 119.753C8.11766 119.741 7.97186 119.729 7.79334 119.717C7.62076 119.7 7.43628 119.685 7.2399 119.673C7.04947 119.661 6.86202 119.655 6.67754 119.655C6.17171 119.655 5.7849 119.827 5.51711 120.173C5.24932 120.518 5.11245 121.012 5.1065 121.654C5.16006 121.643 5.23742 121.619 5.33859 121.583C5.4457 121.547 5.5677 121.509 5.70457 121.467C5.84739 121.425 5.99319 121.39 6.14196 121.36C6.29073 121.33 6.43355 121.315 6.57042 121.315C7.21907 121.315 7.71002 121.464 8.04327 121.762C8.37652 122.059 8.54315 122.52 8.54315 123.145C8.54315 123.562 8.46281 123.916 8.30214 124.207C8.14146 124.499 7.9064 124.719 7.59696 124.868C7.29346 125.017 6.92153 125.091 6.48116 125.091ZM6.48116 124.457C6.90963 124.457 7.23693 124.344 7.46306 124.118C7.69515 123.892 7.81119 123.568 7.81119 123.145C7.81119 122.74 7.69515 122.44 7.46306 122.244C7.23693 122.047 6.92153 121.949 6.51687 121.949C6.35619 121.949 6.18659 121.967 6.00806 122.003C5.82954 122.038 5.65994 122.083 5.49926 122.136C5.33859 122.184 5.20469 122.232 5.09758 122.279C5.10353 122.69 5.15113 123.062 5.2404 123.395C5.32966 123.722 5.47546 123.981 5.67779 124.172C5.88012 124.362 6.14791 124.457 6.48116 124.457ZM11.4225 125.091C11.0833 125.091 10.7798 125.043 10.512 124.948C10.2502 124.853 10.0241 124.695 9.83364 124.475C9.64916 124.249 9.50634 123.946 9.40517 123.565C9.30996 123.184 9.26235 122.711 9.26235 122.145C9.26235 121.544 9.30996 121.041 9.40517 120.637C9.50038 120.232 9.64023 119.911 9.82471 119.673C10.0151 119.435 10.2413 119.265 10.5031 119.164C10.7709 119.063 11.0744 119.012 11.4136 119.012C11.7647 119.012 12.0742 119.063 12.3419 119.164C12.6097 119.265 12.8329 119.435 13.0114 119.673C13.1959 119.911 13.3357 120.232 13.431 120.637C13.5262 121.036 13.5738 121.538 13.5738 122.145C13.5738 122.895 13.4875 123.484 13.3149 123.913C13.1423 124.341 12.8954 124.645 12.574 124.823C12.2586 125.002 11.8748 125.091 11.4225 125.091ZM11.4225 124.457C11.6546 124.457 11.8569 124.422 12.0295 124.35C12.208 124.279 12.3568 124.157 12.4758 123.984C12.5949 123.812 12.6841 123.577 12.7436 123.279C12.8031 122.976 12.8329 122.598 12.8329 122.145C12.8329 121.651 12.8031 121.244 12.7436 120.922C12.6901 120.601 12.6038 120.348 12.4848 120.164C12.3717 119.973 12.2259 119.839 12.0474 119.762C11.8748 119.685 11.6665 119.646 11.4225 119.646C11.1845 119.646 10.9762 119.685 10.7977 119.762C10.6192 119.839 10.4704 119.97 10.3514 120.155C10.2383 120.339 10.152 120.595 10.0925 120.922C10.033 121.244 10.0032 121.654 10.0032 122.154C10.0032 122.607 10.033 122.984 10.0925 123.288C10.158 123.585 10.2502 123.821 10.3692 123.993C10.4942 124.16 10.643 124.279 10.8155 124.35C10.9941 124.422 11.1964 124.457 11.4225 124.457Z" fill="#787878"/>
<path d="M6.40975 90.2817C6.01699 90.2817 5.65101 90.2341 5.31181 90.1389C4.97856 90.0436 4.71077 89.88 4.50844 89.6479C4.30611 89.4158 4.20494 89.0974 4.20494 88.6928C4.20494 88.3893 4.2466 88.1423 4.32991 87.9519C4.41917 87.7615 4.53819 87.6038 4.68696 87.4788C4.84169 87.3479 5.01724 87.2259 5.21362 87.1128C4.91012 86.9581 4.68101 86.7796 4.52629 86.5772C4.37752 86.3749 4.30313 86.0922 4.30313 85.7292C4.30313 85.39 4.38942 85.1074 4.56199 84.8812C4.73457 84.6551 4.97856 84.4855 5.29396 84.3724C5.60935 84.2594 5.98128 84.2028 6.40975 84.2028C6.83226 84.2028 7.2042 84.2594 7.52554 84.3724C7.84689 84.4855 8.09683 84.6551 8.27536 84.8812C8.45984 85.1074 8.55208 85.393 8.55208 85.7382C8.55208 86.119 8.47471 86.4047 8.31999 86.5951C8.16527 86.7855 7.9183 86.9581 7.5791 87.1128C7.78738 87.208 7.97186 87.3181 8.13254 87.4431C8.29321 87.5681 8.41818 87.7228 8.50744 87.9073C8.59671 88.0858 8.64134 88.3149 8.64134 88.5946C8.64134 89.029 8.54017 89.3682 8.33784 89.6122C8.13551 89.8562 7.86475 90.0288 7.52554 90.1299C7.19229 90.2311 6.82036 90.2817 6.40975 90.2817ZM6.40975 89.6301C6.69539 89.6301 6.94831 89.5973 7.16849 89.5319C7.38867 89.4664 7.56125 89.3533 7.68622 89.1927C7.81119 89.026 7.87367 88.8029 7.87367 88.5232C7.87367 88.2971 7.82904 88.1185 7.73978 87.9876C7.65051 87.8507 7.52852 87.7436 7.3738 87.6663C7.22502 87.5829 7.05245 87.5145 6.85607 87.4609H5.9188C5.62125 87.5443 5.38917 87.6692 5.22254 87.8359C5.05592 88.0025 4.97261 88.2465 4.97261 88.5678C4.97261 88.8297 5.03509 89.0409 5.16006 89.2016C5.28503 89.3563 5.45463 89.4664 5.66886 89.5319C5.88905 89.5973 6.13601 89.6301 6.40975 89.6301ZM5.9188 86.8361H6.85607C7.15361 86.7349 7.38272 86.61 7.5434 86.4612C7.70407 86.3065 7.78441 86.0952 7.78441 85.8274C7.78441 85.4763 7.66242 85.2264 7.41843 85.0776C7.18039 84.9288 6.84714 84.8545 6.41868 84.8545C6.00211 84.8545 5.67184 84.9288 5.42785 85.0776C5.18981 85.2204 5.0708 85.4674 5.0708 85.8185C5.0708 86.0863 5.14221 86.2975 5.28503 86.4523C5.42785 86.607 5.63911 86.7349 5.9188 86.8361ZM11.4225 90.2817C11.0833 90.2817 10.7798 90.2341 10.512 90.1389C10.2502 90.0436 10.0241 89.8859 9.83364 89.6658C9.64916 89.4396 9.50634 89.1361 9.40517 88.7553C9.30996 88.3744 9.26235 87.9013 9.26235 87.336C9.26235 86.7349 9.30996 86.2321 9.40517 85.8274C9.50038 85.4228 9.64023 85.1014 9.82471 84.8634C10.0151 84.6253 10.2413 84.4557 10.5031 84.3546C10.7709 84.2534 11.0744 84.2028 11.4136 84.2028C11.7647 84.2028 12.0742 84.2534 12.3419 84.3546C12.6097 84.4557 12.8329 84.6253 13.0114 84.8634C13.1959 85.1014 13.3357 85.4228 13.431 85.8274C13.5262 86.2261 13.5738 86.729 13.5738 87.336C13.5738 88.0858 13.4875 88.6749 13.3149 89.1034C13.1423 89.5319 12.8954 89.8354 12.574 90.0139C12.2586 90.1924 11.8748 90.2817 11.4225 90.2817ZM11.4225 89.6479C11.6546 89.6479 11.8569 89.6122 12.0295 89.5408C12.208 89.4694 12.3568 89.3474 12.4758 89.1748C12.5949 89.0022 12.6841 88.7672 12.7436 88.4696C12.8031 88.1661 12.8329 87.7882 12.8329 87.336C12.8329 86.8421 12.8031 86.4344 12.7436 86.1131C12.6901 85.7917 12.6038 85.5388 12.4848 85.3543C12.3717 85.1639 12.2259 85.03 12.0474 84.9526C11.8748 84.8753 11.6665 84.8366 11.4225 84.8366C11.1845 84.8366 10.9762 84.8753 10.7977 84.9526C10.6192 85.03 10.4704 85.1609 10.3514 85.3454C10.2383 85.5299 10.152 85.7858 10.0925 86.1131C10.033 86.4344 10.0032 86.845 10.0032 87.3449C10.0032 87.7972 10.033 88.1751 10.0925 88.4786C10.158 88.7761 10.2502 89.0112 10.3692 89.1837C10.4942 89.3504 10.643 89.4694 10.8155 89.5408C10.9941 89.6122 11.1964 89.6479 11.4225 89.6479Z" fill="#787878"/>
<path d="M3.5074 56.0656V50.9686L2.00778 51.9684L1.6775 51.4238L3.55204 50.1742H4.22151V56.0656H3.5074ZM8.23454 56.1548C7.89534 56.1548 7.59184 56.1072 7.32405 56.012C7.06221 55.9168 6.83608 55.7591 6.64565 55.5389C6.46117 55.3128 6.31835 55.0093 6.21718 54.6284C6.12197 54.2476 6.07436 53.7745 6.07436 53.2091C6.07436 52.6081 6.12197 52.1052 6.21718 51.7006C6.3124 51.2959 6.45224 50.9746 6.63672 50.7365C6.82715 50.4985 7.05328 50.3289 7.31512 50.2277C7.58291 50.1265 7.88641 50.076 8.22561 50.076C8.57672 50.076 8.88616 50.1265 9.15395 50.2277C9.42174 50.3289 9.6449 50.4985 9.82343 50.7365C10.0079 50.9746 10.1478 51.2959 10.243 51.7006C10.3382 52.0993 10.3858 52.6021 10.3858 53.2091C10.3858 53.9589 10.2995 54.5481 10.1269 54.9765C9.95435 55.405 9.70739 55.7085 9.38604 55.887C9.07064 56.0656 8.68681 56.1548 8.23454 56.1548ZM8.23454 55.521C8.46662 55.521 8.66895 55.4853 8.84153 55.4139C9.02006 55.3425 9.16883 55.2205 9.28785 55.0479C9.40687 54.8754 9.49613 54.6403 9.55564 54.3428C9.61515 54.0393 9.6449 53.6614 9.6449 53.2091C9.6449 52.7152 9.61515 52.3076 9.55564 51.9862C9.50208 51.6649 9.41579 51.4119 9.29677 51.2275C9.18371 51.037 9.03791 50.9031 8.85938 50.8258C8.68681 50.7484 8.47853 50.7097 8.23454 50.7097C7.9965 50.7097 7.78822 50.7484 7.60969 50.8258C7.43117 50.9031 7.28239 51.0341 7.16338 51.2185C7.05031 51.403 6.96402 51.6589 6.90451 51.9862C6.845 52.3076 6.81525 52.7182 6.81525 53.218C6.81525 53.6703 6.845 54.0482 6.90451 54.3517C6.96997 54.6492 7.06221 54.8843 7.18123 55.0569C7.3062 55.2235 7.45497 55.3425 7.62755 55.4139C7.80607 55.4853 8.0084 55.521 8.23454 55.521ZM13.2295 56.1548C12.8903 56.1548 12.5868 56.1072 12.319 56.012C12.0571 55.9168 11.831 55.7591 11.6406 55.5389C11.4561 55.3128 11.3133 55.0093 11.2121 54.6284C11.1169 54.2476 11.0693 53.7745 11.0693 53.2091C11.0693 52.6081 11.1169 52.1052 11.2121 51.7006C11.3073 51.2959 11.4472 50.9746 11.6316 50.7365C11.8221 50.4985 12.0482 50.3289 12.31 50.2277C12.5778 50.1265 12.8813 50.076 13.2205 50.076C13.5716 50.076 13.8811 50.1265 14.1489 50.2277C14.4167 50.3289 14.6398 50.4985 14.8184 50.7365C15.0028 50.9746 15.1427 51.2959 15.2379 51.7006C15.3331 52.0993 15.3807 52.6021 15.3807 53.2091C15.3807 53.9589 15.2944 54.5481 15.1218 54.9765C14.9493 55.405 14.7023 55.7085 14.381 55.887C14.0656 56.0656 13.6817 56.1548 13.2295 56.1548ZM13.2295 55.521C13.4615 55.521 13.6639 55.4853 13.8365 55.4139C14.015 55.3425 14.1638 55.2205 14.2828 55.0479C14.4018 54.8754 14.4911 54.6403 14.5506 54.3428C14.6101 54.0393 14.6398 53.6614 14.6398 53.2091C14.6398 52.7152 14.6101 52.3076 14.5506 51.9862C14.497 51.6649 14.4107 51.4119 14.2917 51.2275C14.1786 51.037 14.0328 50.9031 13.8543 50.8258C13.6817 50.7484 13.4734 50.7097 13.2295 50.7097C12.9914 50.7097 12.7831 50.7484 12.6046 50.8258C12.4261 50.9031 12.2773 51.0341 12.1583 51.2185C12.0452 51.403 11.9589 51.6589 11.8994 51.9862C11.8399 52.3076 11.8102 52.7182 11.8102 53.218C11.8102 53.6703 11.8399 54.0482 11.8994 54.3517C11.9649 54.6492 12.0571 54.8843 12.1762 55.0569C12.3011 55.2235 12.4499 55.3425 12.6225 55.4139C12.801 55.4853 13.0033 55.521 13.2295 55.521Z" fill="#787878"/>
<defs>
<filter id="filter0_d_19_334" x="269.807" y="0.652798" width="133.895" height="82.7793" filterUnits="userSpaceOnUse" color-interpolation-filters="sRGB">
<feFlood flood-opacity="0" result="BackgroundImageFix"/>
<feColorMatrix in="SourceAlpha" type="matrix" values="0 0 0 0 0 0 0 0 0 0 0 0 0 0 0 0 0 0 127 0" result="hardAlpha"/>
<feOffset dy="9.56395"/>
<feGaussianBlur stdDeviation="6.69477"/>
<feColorMatrix type="matrix" values="0 0 0 0 0 0 0 0 0 0 0 0 0 0 0 0 0 0 0.06 0"/>
<feBlend mode="normal" in2="BackgroundImageFix" result="effect1_dropShadow_19_334"/>
<feBlend mode="normal" in="SourceGraphic" in2="effect1_dropShadow_19_334" result="shape"/>
</filter>
<linearGradient id="paint0_linear_19_334" x1="299.136" y1="113.932" x2="299.136" y2="226.986" gradientUnits="userSpaceOnUse">
<stop stop-color="#68E365"/>
<stop offset="1" stop-color="#A9FF74"/>
</linearGradient>
<linearGradient id="paint1_linear_19_334" x1="274.269" y1="151.86" x2="274.269" y2="226.986" gradientUnits="userSpaceOnUse">
<stop stop-color="#FF4B4B"/>
<stop offset="1" stop-color="#FFA14B"/>
</linearGradient>
<linearGradient id="paint2_linear_19_334" x1="152.263" y1="128.026" x2="152.263" y2="226.986" gradientUnits="userSpaceOnUse">
<stop stop-color="#68E365"/>
<stop offset="1" stop-color="#A9FF74"/>
</linearGradient>
<linearGradient id="paint3_linear_19_334" x1="126.028" y1="44.641" x2="126.028" y2="226.986" gradientUnits="userSpaceOnUse">
<stop stop-color="#FF4B4B"/>
<stop offset="1" stop-color="#FFA14B"/>
</linearGradient>
<linearGradient id="paint4_linear_19_334" x1="411.034" y1="92.78" x2="411.034" y2="226.986" gradientUnits="userSpaceOnUse">
<stop stop-color="#FF4B4B"/>
<stop offset="1" stop-color="#FFA14B"/>
</linearGradient>
<linearGradient id="paint5_linear_19_334" x1="78.9401" y1="3.79585" x2="78.9401" y2="226.986" gradientUnits="userSpaceOnUse">
<stop stop-color="#68E365"/>
<stop offset="1" stop-color="#A9FF74"/>
</linearGradient>
<linearGradient id="paint6_linear_19_334" x1="52.7038" y1="92.78" x2="52.7038" y2="226.986" gradientUnits="userSpaceOnUse">
<stop stop-color="#FF4B4B"/>
<stop offset="1" stop-color="#FFA14B"/>
</linearGradient>
<linearGradient id="paint7_linear_19_334" x1="372.14" y1="59.958" x2="372.14" y2="226.986" gradientUnits="userSpaceOnUse">
<stop stop-color="#68E365"/>
<stop offset="1" stop-color="#A9FF74"/>
</linearGradient>
<linearGradient id="paint8_linear_19_334" x1="372.141" y1="59.958" x2="372.141" y2="226.986" gradientUnits="userSpaceOnUse">
<stop stop-color="#38E25D"/>
<stop offset="1" stop-color="#77FF74"/>
</linearGradient>
<linearGradient id="paint9_linear_19_334" x1="345.999" y1="155.507" x2="345.999" y2="226.986" gradientUnits="userSpaceOnUse">
<stop stop-color="#FF4B4B"/>
<stop offset="1" stop-color="#FFA14B"/>
</linearGradient>
<linearGradient id="paint10_linear_19_334" x1="225.493" y1="187.599" x2="225.493" y2="226.986" gradientUnits="userSpaceOnUse">
<stop stop-color="#68E365"/>
<stop offset="1" stop-color="#A9FF74"/>
</linearGradient>
<linearGradient id="paint11_linear_19_334" x1="199.351" y1="92.4691" x2="199.351" y2="226.986" gradientUnits="userSpaceOnUse">
<stop stop-color="#FF4B4B"/>
<stop offset="1" stop-color="#FFA14B"/>
</linearGradient>
</defs>
</svg>
