<svg width="20" height="22" viewBox="0 0 20 22" fill="none" xmlns="http://www.w3.org/2000/svg">
<ellipse cx="9.57958" cy="11.0339" rx="9.56395" ry="10.2381" fill="#5BCFC5"/>
<path d="M14.19 8.69876C13.7737 7.75417 13.1144 6.96098 12.2838 6.40446C11.1285 5.63259 9.76015 5.38738 8.43358 5.71575C7.10701 6.04198 5.97763 6.90341 5.25658 8.14011C4.53354 9.37681 4.30448 10.8395 4.61122 12.2617C4.91796 13.6818 5.72267 14.8908 6.87595 15.6627C7.68863 16.2064 8.62081 16.4942 9.57491 16.4942H9.63665C10.5868 16.4814 11.511 16.1872 12.3117 15.6456C12.5448 15.4878 12.6125 15.1595 12.4651 14.91C12.3177 14.6605 12.0109 14.588 11.7779 14.7458C11.1345 15.1829 10.3896 15.4196 9.6247 15.4303C8.83991 15.4409 8.07305 15.2085 7.40379 14.7629C6.4736 14.1402 5.82625 13.1679 5.58125 12.0251C5.33625 10.8822 5.5195 9.70518 6.10112 8.70942C7.30022 6.65607 9.83783 6.02919 11.756 7.3128C12.4252 7.76057 12.9551 8.39811 13.2897 9.15719C13.6164 9.89708 13.7438 10.718 13.6582 11.5282C13.6283 11.8204 13.8235 12.0848 14.0984 12.1167C14.3713 12.1487 14.6183 11.9398 14.6481 11.6455C14.7537 10.637 14.5944 9.61775 14.19 8.69876Z" fill="white"/>
<path d="M11.227 9.18312L8.82456 11.7549L7.93412 10.8017C7.7389 10.5927 7.42416 10.5927 7.22893 10.8017C7.03371 11.0106 7.03371 11.3476 7.22893 11.5565L8.47197 12.8872C8.56958 12.9917 8.69707 13.0429 8.82456 13.0429C8.95205 13.0429 9.07955 12.9917 9.17716 12.8872L11.9302 9.93801C12.1254 9.72903 12.1254 9.3921 11.9302 9.18312C11.7349 8.97627 11.4202 8.97627 11.227 9.18312Z" fill="white"/>
</svg>
