<svg width="41" height="44" viewBox="0 0 41 44" fill="none" xmlns="http://www.w3.org/2000/svg">
<rect x="0.341309" y="0.159729" width="40.1686" height="42.9999" rx="13.3895" fill="#E3FFE2"/>
<g clip-path="url(#clip0_2_68)">
<path d="M22.7984 29.5003C22.5892 29.0374 22.774 28.4775 23.2063 28.2536C24.4093 27.6339 25.4275 26.6709 26.1527 25.4653C26.8954 24.2298 27.2895 22.7965 27.2895 21.3183C27.2895 17.0781 24.0676 13.6291 20.1065 13.6291C16.1455 13.6291 12.9236 17.0781 12.9236 21.3183C12.9236 22.7965 13.3176 24.2298 14.0568 25.469C14.7786 26.6747 15.8003 27.6377 17.0032 28.2573C17.4356 28.4812 17.6204 29.0374 17.4112 29.504C17.202 29.9668 16.6824 30.1647 16.2466 29.9407C14.7507 29.1718 13.485 27.9773 12.5889 26.4768C11.6683 24.939 11.1802 23.1548 11.1802 21.3183C11.1802 18.7652 12.1077 16.3651 13.7953 14.5623C15.4795 12.7557 17.7215 11.7628 20.1065 11.7628C22.4915 11.7628 24.7336 12.7557 26.4177 14.5623C28.1054 16.3689 29.0329 18.7652 29.0329 21.3183C29.0329 23.1548 28.5447 24.939 27.6207 26.4768C26.7211 27.9736 25.4554 29.1718 23.963 29.9407C23.5271 30.1609 23.0076 29.9668 22.7984 29.5003Z" fill="#68E365"/>
<path d="M23.5001 21.8148C23.6709 21.9977 23.7546 22.2366 23.7546 22.4755C23.7546 22.7144 23.6709 22.9532 23.5001 23.1361L21.3068 25.484C20.986 25.8274 20.5606 26.014 20.1108 26.014C19.661 26.014 19.2322 25.8236 18.9148 25.484L16.7216 23.1361C16.3799 22.7703 16.3799 22.1806 16.7216 21.8148C17.0633 21.449 17.6143 21.449 17.956 21.8148L19.2426 23.1921L19.2426 17.8881C19.2426 17.373 19.6331 16.9549 20.1143 16.9549C20.5955 16.9549 20.986 17.373 20.986 17.8881L20.986 23.1959L22.2727 21.8185C22.6074 21.4527 23.1584 21.4527 23.5001 21.8148Z" fill="#68E365"/>
</g>
<defs>
<clipPath id="clip0_2_68">
<rect width="19.1111" height="17.8527" fill="white" transform="matrix(-4.08333e-08 1 1 4.67924e-08 11.1802 11.7628)"/>
</clipPath>
</defs>
</svg>
