<svg width="64" height="69" viewBox="0 0 64 69" fill="none" xmlns="http://www.w3.org/2000/svg">
<rect x="0.0898438" y="0.63607" width="63.7597" height="68.2538" rx="17.2151" fill="#68E0D5"/>
<path d="M28.8077 45.3991C29.8918 45.406 30.9664 45.1825 31.9691 44.7415C32.9709 45.1862 34.0462 45.4099 35.1306 45.3991C38.423 45.3991 41.0018 43.5184 41.0018 41.1165V37.1115C41.0018 34.7097 38.423 32.829 35.1306 32.829C34.9779 32.829 34.828 32.8367 34.6789 32.8454V28.3163C34.6789 25.9638 32.1001 24.1266 28.8077 24.1266C25.5153 24.1266 22.9365 25.9638 22.9365 28.3163V41.2094C22.9365 43.5619 25.5153 45.3991 28.8077 45.3991ZM39.1952 41.1165C39.1952 42.2275 37.526 43.4652 35.1306 43.4652C32.7351 43.4652 31.0659 42.2275 31.0659 41.1165V40.2221C32.2891 41.0185 33.6992 41.4247 35.1306 41.3931C36.5619 41.4247 37.972 41.0185 39.1952 40.2221V41.1165ZM35.1306 34.7628C37.526 34.7628 39.1952 36.0005 39.1952 37.1115C39.1952 38.2225 37.526 39.4592 35.1306 39.4592C32.7351 39.4592 31.0659 38.2215 31.0659 37.1115C31.0659 36.0015 32.7351 34.7628 35.1306 34.7628ZM28.8077 26.0605C31.2032 26.0605 32.8724 27.2498 32.8724 28.3163C32.8724 29.3829 31.2032 30.5731 28.8077 30.5731C26.4123 30.5731 24.743 29.3838 24.743 28.3163C24.743 27.2488 26.4123 26.0605 28.8077 26.0605ZM24.743 31.3612C25.9714 32.1421 27.3795 32.539 28.8077 32.507C30.236 32.539 31.6441 32.1421 32.8724 31.3612V33.1481C31.888 33.4137 30.9852 33.9492 30.2529 34.7019C29.778 34.8119 29.2936 34.8683 28.8077 34.8702C26.4123 34.8702 24.743 33.6809 24.743 32.6143V31.3612ZM24.743 35.6592C25.9716 36.4393 27.3796 36.8359 28.8077 36.804C28.9685 36.804 29.1239 36.7828 29.2819 36.7741C29.2685 36.886 29.2609 36.9987 29.2594 37.1115V39.1276C29.1076 39.1372 28.9613 39.1682 28.8077 39.1682C26.4123 39.1682 24.743 37.9789 24.743 36.9114V35.6592ZM24.743 39.9562C25.9714 40.7371 27.3795 41.134 28.8077 41.102C28.9595 41.102 29.1085 41.0895 29.2594 41.0817V41.1165C29.2723 41.9396 29.5678 42.7289 30.0895 43.3337C29.6668 43.4191 29.2378 43.4631 28.8077 43.4652C26.4123 43.4652 24.743 42.2759 24.743 41.2094V39.9562Z" fill="white"/>
</svg>
