<svg width="21" height="21" viewBox="0 0 21 21" fill="none" xmlns="http://www.w3.org/2000/svg">
<path d="M16.6191 0.554443H3.9734C3.01516 0.554443 2.09617 0.935103 1.41859 1.61268C0.741011 2.29026 0.360352 3.20925 0.360352 4.16749V10.4903C0.360352 10.7299 0.455516 10.9596 0.624911 11.129C0.794305 11.2984 1.02405 11.3936 1.26361 11.3936H5.77993V19.5229C5.7795 19.6957 5.82863 19.865 5.92148 20.0107C6.01434 20.1564 6.14703 20.2724 6.30382 20.3449C6.46097 20.4173 6.6356 20.443 6.80694 20.4189C6.97827 20.3949 7.1391 20.3222 7.27031 20.2094L9.84461 18.0055L12.4189 20.2094C12.5825 20.3494 12.7907 20.4263 13.006 20.4263C13.2213 20.4263 13.4295 20.3494 13.5931 20.2094L16.1674 18.0055L18.7417 20.2094C18.9054 20.3493 19.1136 20.4262 19.3289 20.4262C19.4595 20.4253 19.5886 20.3976 19.7082 20.3449C19.865 20.2724 19.9977 20.1564 20.0906 20.0107C20.1834 19.865 20.2326 19.6957 20.2321 19.5229V4.16749C20.2321 3.20925 19.8515 2.29026 19.1739 1.61268C18.4963 0.935103 17.5773 0.554443 16.6191 0.554443V0.554443ZM2.16688 9.58706V4.16749C2.16688 3.68837 2.35721 3.22888 2.69599 2.89009C3.03478 2.5513 3.49428 2.36097 3.9734 2.36097C4.45252 2.36097 4.91202 2.5513 5.25081 2.89009C5.5896 3.22888 5.77993 3.68837 5.77993 4.16749V9.58706H2.16688ZM18.4256 17.5629L16.7546 16.1267C16.591 15.9867 16.3827 15.9098 16.1674 15.9098C15.9521 15.9098 15.7439 15.9867 15.5803 16.1267L13.006 18.3306L10.4317 16.1267C10.2681 15.9867 10.0599 15.9098 9.84461 15.9098C9.62931 15.9098 9.4211 15.9867 9.25749 16.1267L7.58645 17.5629V4.16749C7.58532 3.53293 7.41709 2.90986 7.09869 2.36097H16.6191C17.0982 2.36097 17.5577 2.5513 17.8965 2.89009C18.2353 3.22888 18.4256 3.68837 18.4256 4.16749V17.5629ZM16.6191 5.07075C16.6191 5.31031 16.5239 5.54006 16.3545 5.70946C16.1851 5.87885 15.9554 5.97402 15.7158 5.97402H10.2962C10.0567 5.97402 9.82693 5.87885 9.65753 5.70946C9.48814 5.54006 9.39297 5.31031 9.39297 5.07075C9.39297 4.83119 9.48814 4.60145 9.65753 4.43205C9.82693 4.26266 10.0567 4.16749 10.2962 4.16749H15.7158C15.9554 4.16749 16.1851 4.26266 16.3545 4.43205C16.5239 4.60145 16.6191 4.83119 16.6191 5.07075ZM16.6191 8.6838C16.6191 8.92336 16.5239 9.15311 16.3545 9.32251C16.1851 9.4919 15.9554 9.58706 15.7158 9.58706H10.2962C10.0567 9.58706 9.82693 9.4919 9.65753 9.32251C9.48814 9.15311 9.39297 8.92336 9.39297 8.6838C9.39297 8.44424 9.48814 8.21449 9.65753 8.0451C9.82693 7.87571 10.0567 7.78054 10.2962 7.78054H15.7158C15.9554 7.78054 16.1851 7.87571 16.3545 8.0451C16.5239 8.21449 16.6191 8.44424 16.6191 8.6838ZM16.6191 12.2969C16.6191 12.5364 16.5239 12.7662 16.3545 12.9356C16.1851 13.1049 15.9554 13.2001 15.7158 13.2001H10.2962C10.0567 13.2001 9.82693 13.1049 9.65753 12.9356C9.48814 12.7662 9.39297 12.5364 9.39297 12.2969C9.39297 12.0573 9.48814 11.8275 9.65753 11.6581C9.82693 11.4888 10.0567 11.3936 10.2962 11.3936H15.7158C15.9554 11.3936 16.1851 11.4888 16.3545 11.6581C16.5239 11.8275 16.6191 12.0573 16.6191 12.2969Z" fill="#969BA0"/>
</svg>
