<svg width="70" height="28" viewBox="0 0 70 28" fill="none" xmlns="http://www.w3.org/2000/svg">
<rect x="0.197754" y="0.524048" width="69.4981" height="26.619" rx="8.92636" fill="#68E365"/>
<path d="M22.6733 10.5914C22.6733 10.4557 22.6229 10.3255 22.5332 10.2295C22.4435 10.1335 22.3219 10.0795 22.1951 10.0795H18.25C18.1231 10.0795 18.0015 10.1335 17.9118 10.2295C17.8221 10.3255 17.7718 10.4557 17.7718 10.5914C17.7718 10.7272 17.8221 10.8574 17.9118 10.9534C18.0015 11.0494 18.1231 11.1033 18.25 11.1033H21.0307L17.064 15.3009L13.4465 12.5418C13.3536 12.471 13.2402 12.438 13.1267 12.4488C13.0131 12.4596 12.9069 12.5134 12.8272 12.6006L8.46364 17.3997C8.38212 17.4982 8.33913 17.6264 8.34358 17.7579C8.34802 17.8893 8.39958 18.0139 8.48754 18.1058C8.5755 18.1976 8.69312 18.2497 8.81599 18.2512C8.93887 18.2527 9.05757 18.2035 9.14747 18.1138L13.2265 13.6296L16.8369 16.3836C16.9288 16.4537 17.0408 16.4867 17.1533 16.4769C17.2657 16.4671 17.3713 16.415 17.4514 16.3299L21.7169 11.8174V14.8146C21.7169 14.9504 21.7673 15.0806 21.857 15.1766C21.9466 15.2726 22.0683 15.3265 22.1951 15.3265C22.3219 15.3265 22.4435 15.2726 22.5332 15.1766C22.6229 15.0806 22.6733 14.9504 22.6733 14.8146V10.5914Z" fill="white"/>
<path d="M33.6215 13.5275H35.5493V14.6184H33.6215V16.5362H32.5306V14.6184H30.6029V13.5275H32.5306V11.5848H33.6215V13.5275ZM41.462 14.0256C41.462 14.6134 41.4155 15.1381 41.3225 15.5997C41.2328 16.0613 41.0867 16.4531 40.8841 16.7753C40.6849 17.0974 40.4226 17.3431 40.0971 17.5125C39.7717 17.6818 39.3765 17.7665 38.9116 17.7665C38.3271 17.7665 37.8473 17.6187 37.472 17.3232C37.0968 17.0243 36.8195 16.5959 36.6401 16.038C36.4608 15.4768 36.3712 14.806 36.3712 14.0256C36.3712 13.2386 36.4525 12.5661 36.6152 12.0082C36.7813 11.447 37.0503 11.017 37.4222 10.7181C37.7941 10.4192 38.2906 10.2698 38.9116 10.2698C39.4927 10.2698 39.9709 10.4192 40.3462 10.7181C40.7247 11.0136 41.0054 11.442 41.188 12.0032C41.3706 12.5611 41.462 13.2353 41.462 14.0256ZM37.9004 14.0256C37.9004 14.5802 37.9303 15.0435 37.9901 15.4154C38.0532 15.784 38.1578 16.0613 38.3039 16.2473C38.45 16.4332 38.6526 16.5262 38.9116 16.5262C39.1673 16.5262 39.3682 16.4349 39.5143 16.2522C39.6637 16.0663 39.77 15.789 39.8331 15.4204C39.8962 15.0484 39.9278 14.5835 39.9278 14.0256C39.9278 13.471 39.8962 13.0078 39.8331 12.6359C39.77 12.2639 39.6637 11.985 39.5143 11.799C39.3682 11.6097 39.1673 11.5151 38.9116 11.5151C38.6526 11.5151 38.45 11.6097 38.3039 11.799C38.1578 11.985 38.0532 12.2639 37.9901 12.6359C37.9303 13.0078 37.9004 13.471 37.9004 14.0256ZM44.0522 16.4814L44.1269 16.5959C44.0672 16.835 43.9891 17.0924 43.8928 17.368C43.7998 17.6437 43.6969 17.9193 43.584 18.1949C43.4744 18.4705 43.3631 18.7329 43.2502 18.9819H42.1544C42.2208 18.713 42.2855 18.4307 42.3486 18.1351C42.4117 17.8396 42.4698 17.549 42.523 17.2634C42.5794 16.9778 42.6243 16.7171 42.6575 16.4814H44.0522ZM47.8081 13.0144C48.253 13.0144 48.6482 13.0991 48.9936 13.2685C49.3423 13.4378 49.6162 13.6869 49.8155 14.0157C50.0147 14.3444 50.1144 14.7496 50.1144 15.2311C50.1144 15.7558 50.0048 16.2091 49.7856 16.591C49.5697 16.9695 49.246 17.2601 48.8143 17.4627C48.3859 17.6652 47.8512 17.7665 47.2103 17.7665C46.8284 17.7665 46.4681 17.7333 46.1294 17.6669C45.794 17.6038 45.5001 17.5058 45.2477 17.373V16.043C45.5001 16.1759 45.8023 16.2888 46.1543 16.3817C46.5096 16.4714 46.8434 16.5162 47.1555 16.5162C47.461 16.5162 47.7184 16.4764 47.9276 16.3967C48.1368 16.3137 48.2946 16.1875 48.4008 16.0181C48.5104 15.8454 48.5652 15.6263 48.5652 15.3606C48.5652 15.0053 48.4456 14.733 48.2065 14.5437C47.9675 14.3544 47.6005 14.2597 47.1057 14.2597C46.9164 14.2597 46.7188 14.278 46.5129 14.3145C46.3104 14.3511 46.141 14.3876 46.0048 14.4241L45.3922 14.0954L45.6661 10.3843H49.6162V11.6894H47.016L46.8815 13.119C46.9945 13.0958 47.1173 13.0726 47.2502 13.0493C47.383 13.0261 47.569 13.0144 47.8081 13.0144ZM52.6199 10.2797C53.1911 10.2797 53.6245 10.479 53.92 10.8775C54.2156 11.276 54.3633 11.8355 54.3633 12.5562C54.3633 13.2768 54.2239 13.8397 53.9449 14.2448C53.666 14.6499 53.2243 14.8525 52.6199 14.8525C52.0587 14.8525 51.632 14.6499 51.3397 14.2448C51.0475 13.8397 50.9014 13.2768 50.9014 12.5562C50.9014 11.8355 51.0375 11.276 51.3099 10.8775C51.5855 10.479 52.0222 10.2797 52.6199 10.2797ZM52.6299 11.3208C52.4672 11.3208 52.3476 11.4238 52.2712 11.6297C52.1948 11.8355 52.1567 12.1477 52.1567 12.5661C52.1567 12.9845 52.1948 13.2984 52.2712 13.5076C52.3476 13.7168 52.4672 13.8214 52.6299 13.8214C52.7926 13.8214 52.9121 13.7184 52.9885 13.5126C53.0682 13.3033 53.1081 12.9879 53.1081 12.5661C53.1081 12.1477 53.0682 11.8355 52.9885 11.6297C52.9121 11.4238 52.7926 11.3208 52.6299 11.3208ZM57.7904 10.3843L53.7507 17.6669H52.5552L56.5949 10.3843H57.7904ZM57.7207 13.1888C58.2919 13.1888 58.7252 13.388 59.0208 13.7865C59.3163 14.185 59.4641 14.7446 59.4641 15.4652C59.4641 16.1825 59.3246 16.7437 59.0457 17.1489C58.7667 17.554 58.3251 17.7566 57.7207 17.7566C57.1595 17.7566 56.7327 17.554 56.4405 17.1489C56.1483 16.7437 56.0022 16.1825 56.0022 15.4652C56.0022 14.7446 56.1383 14.185 56.4106 13.7865C56.6863 13.388 57.1229 13.1888 57.7207 13.1888ZM57.7307 14.2299C57.5679 14.2299 57.4484 14.3328 57.372 14.5387C57.2956 14.7446 57.2574 15.0567 57.2574 15.4752C57.2574 15.8936 57.2956 16.2074 57.372 16.4166C57.4484 16.6258 57.5679 16.7304 57.7307 16.7304C57.8934 16.7304 58.0129 16.6275 58.0893 16.4216C58.169 16.2124 58.2088 15.8969 58.2088 15.4752C58.2088 15.0567 58.169 14.7446 58.0893 14.5387C58.0129 14.3328 57.8934 14.2299 57.7307 14.2299Z" fill="white"/>
</svg>
