<svg width="127" height="34" viewBox="0 0 127 34" fill="none" xmlns="http://www.w3.org/2000/svg">
<path d="M53.1437 25.6493C54.3432 25.6493 55.391 25.4036 56.287 24.9122C57.183 24.4208 57.8768 23.7199 58.3681 22.8094C58.8595 21.8989 59.1052 20.8367 59.1052 19.6227V9.56396H55.7451V15.4821H55.68C55.4632 15.1786 55.1886 14.9185 54.8562 14.7017C54.5383 14.4705 54.177 14.2971 53.7723 14.1814C53.3821 14.0658 52.963 14.008 52.515 14.008C51.46 14.008 50.535 14.2465 49.7402 14.7234C48.9453 15.2003 48.3166 15.8579 47.8542 16.6961C47.4061 17.5344 47.1821 18.5171 47.1821 19.6444C47.1821 20.5115 47.3194 21.3136 47.594 22.0507C47.8686 22.7877 48.2588 23.4308 48.7646 23.98C49.2849 24.5148 49.9064 24.9267 50.629 25.2157C51.366 25.5047 52.2043 25.6493 53.1437 25.6493ZM53.1437 22.7444C52.6234 22.7444 52.1754 22.6215 51.7996 22.3758C51.4238 22.1157 51.1276 21.7688 50.9108 21.3353C50.7085 20.8873 50.6073 20.3887 50.6073 19.8395C50.6073 19.2903 50.7085 18.7989 50.9108 18.3654C51.1276 17.9318 51.4238 17.5922 51.7996 17.3465C52.1754 17.0863 52.6234 16.9563 53.1437 16.9563C53.6639 16.9563 54.112 17.0863 54.4877 17.3465C54.8779 17.5922 55.1742 17.9318 55.3765 18.3654C55.5789 18.7989 55.68 19.2903 55.68 19.8395C55.68 20.3887 55.5789 20.8873 55.3765 21.3353C55.1742 21.7688 54.8779 22.1157 54.4877 22.3758C54.112 22.6215 53.6639 22.7444 53.1437 22.7444Z" fill="#193B62"/>
<path d="M66.3952 25.6493C65.2535 25.6493 64.2274 25.3963 63.3169 24.8905C62.4064 24.3847 61.6838 23.691 61.1491 22.8094C60.6288 21.9278 60.3687 20.9378 60.3687 19.8395C60.3687 18.7267 60.6288 17.7367 61.1491 16.8696C61.6838 15.988 62.4064 15.2943 63.3169 14.7884C64.2274 14.2682 65.2535 14.008 66.3952 14.008C67.537 14.008 68.5558 14.2682 69.4519 14.7884C70.3624 15.2943 71.0778 15.988 71.598 16.8696C72.1328 17.7367 72.4001 18.7267 72.4001 19.8395C72.4001 20.9378 72.1328 21.9278 71.598 22.8094C71.0778 23.691 70.3624 24.3847 69.4519 24.8905C68.5414 25.3963 67.5225 25.6493 66.3952 25.6493ZM66.3952 22.7227C66.93 22.7227 67.3924 22.5926 67.7827 22.3325C68.1729 22.0723 68.4764 21.7255 68.6931 21.2919C68.9099 20.8584 69.0183 20.367 69.0183 19.8178C69.0183 19.2831 68.9099 18.7989 68.6931 18.3654C68.4764 17.9318 68.1729 17.5849 67.7827 17.3248C67.3924 17.0647 66.93 16.9346 66.3952 16.9346C65.8605 16.9346 65.3908 17.0647 64.9862 17.3248C64.5959 17.5849 64.2924 17.9318 64.0757 18.3654C63.8589 18.7989 63.7505 19.2831 63.7505 19.8178C63.7505 20.367 63.8589 20.8584 64.0757 21.2919C64.2924 21.7255 64.5959 22.0723 64.9862 22.3325C65.3908 22.5926 65.8605 22.7227 66.3952 22.7227Z" fill="#193B62"/>
<path d="M73.758 25.3891V18.8206C73.758 17.9101 73.9675 17.0936 74.3866 16.3709C74.8202 15.6339 75.4344 15.0558 76.2293 14.6367C77.0241 14.2176 77.9708 14.008 79.0691 14.008C79.6183 14.008 80.1241 14.0731 80.5866 14.2031C81.0491 14.3187 81.4682 14.4849 81.844 14.7017C82.2342 14.9041 82.5666 15.1497 82.8412 15.4388H82.8845C83.1736 15.1497 83.506 14.9041 83.8817 14.7017C84.2719 14.4849 84.6983 14.3187 85.1607 14.2031C85.6377 14.0731 86.1507 14.008 86.6999 14.008C87.7983 14.008 88.7449 14.2176 89.5397 14.6367C90.3346 15.0558 90.9488 15.6339 91.3824 16.3709C91.816 17.0936 92.0328 17.9101 92.0328 18.8206V25.3891H88.6509V18.929C88.6509 18.5677 88.557 18.2425 88.3691 17.9535C88.1957 17.65 87.9572 17.4043 87.6537 17.2164C87.3502 17.0285 87.0034 16.9346 86.6132 16.9346C86.223 16.9346 85.8689 17.0285 85.5509 17.2164C85.2474 17.4043 85.009 17.65 84.8356 17.9535C84.6621 18.2425 84.5754 18.5677 84.5754 18.929V25.3891H81.2153V18.929C81.2153 18.5677 81.1213 18.2425 80.9335 17.9535C80.76 17.65 80.5144 17.4043 80.1964 17.2164C79.8929 17.0285 79.5461 16.9346 79.1558 16.9346C78.7656 16.9346 78.4116 17.0285 78.0936 17.2164C77.7901 17.4043 77.5517 17.65 77.3782 17.9535C77.2048 18.2425 77.1181 18.5677 77.1181 18.929V25.3891H73.758Z" fill="#193B62"/>
<path d="M99.7631 14.008C98.5636 14.008 97.5158 14.2537 96.6198 14.7451C95.7238 15.2365 95.0301 15.9374 94.5387 16.8479C94.0473 17.7584 93.8016 18.8206 93.8016 20.0346V30.0933H97.1618V24.1751H97.2268C97.4436 24.4786 97.7109 24.746 98.0289 24.9772C98.3613 25.194 98.7226 25.3602 99.1128 25.4758C99.5175 25.5915 99.9438 25.6493 100.392 25.6493C101.447 25.6493 102.372 25.4108 103.167 24.9339C103.962 24.457 104.583 23.7994 105.031 22.9612C105.493 22.1229 105.725 21.1402 105.725 20.0129C105.725 19.1458 105.587 18.3437 105.313 17.6066C105.038 16.8695 104.641 16.2337 104.12 15.6989C103.615 15.1497 102.993 14.7306 102.256 14.4416C101.534 14.1525 100.703 14.008 99.7631 14.008ZM99.7631 16.9129C100.283 16.9129 100.731 17.043 101.107 17.3031C101.483 17.5488 101.772 17.8957 101.974 18.3437C102.191 18.7772 102.3 19.2686 102.3 19.8178C102.3 20.367 102.191 20.8584 101.974 21.2919C101.772 21.7255 101.483 22.0723 101.107 22.3325C100.731 22.5782 100.283 22.701 99.7631 22.701C99.2429 22.701 98.7876 22.5782 98.3974 22.3325C98.0217 22.0723 97.7326 21.7255 97.5303 21.2919C97.328 20.8584 97.2268 20.367 97.2268 19.8178C97.2268 19.2686 97.328 18.7772 97.5303 18.3437C97.7326 17.8957 98.0217 17.5488 98.3974 17.3031C98.7876 17.043 99.2429 16.9129 99.7631 16.9129Z" fill="#193B62"/>
<path d="M112.885 25.3891C111.627 25.3891 110.522 25.1579 109.568 24.6954C108.614 24.2185 107.87 23.5681 107.335 22.7444C106.815 21.9061 106.555 20.9378 106.555 19.8395C106.555 18.6255 106.808 17.5849 107.313 16.7178C107.819 15.8507 108.491 15.1859 109.329 14.7234C110.182 14.2465 111.121 14.008 112.148 14.008C113.318 14.008 114.294 14.2537 115.074 14.7451C115.869 15.2365 116.469 15.9085 116.873 16.7612C117.278 17.5994 117.48 18.5605 117.48 19.6444C117.48 19.8323 117.466 20.0563 117.437 20.3164C117.423 20.5621 117.401 20.7572 117.372 20.9017H110.088C110.175 21.2775 110.341 21.5954 110.587 21.8556C110.832 22.1157 111.143 22.3108 111.519 22.4409C111.895 22.5565 112.314 22.6143 112.776 22.6143H116.18V25.3891H112.885ZM110.001 18.7989H114.229C114.2 18.5677 114.156 18.3437 114.099 18.1269C114.041 17.9101 113.947 17.7222 113.817 17.5633C113.701 17.3898 113.564 17.2453 113.405 17.1297C113.246 16.9996 113.058 16.8985 112.841 16.8262C112.639 16.7539 112.408 16.7178 112.148 16.7178C111.815 16.7178 111.519 16.7756 111.259 16.8912C110.999 17.0068 110.782 17.1658 110.608 17.3682C110.435 17.556 110.298 17.78 110.197 18.0402C110.11 18.2859 110.045 18.5388 110.001 18.7989Z" fill="#193B62"/>
<path d="M122.876 25.3891C121.85 25.3891 121.048 25.1001 120.47 24.522C119.892 23.9294 119.603 23.1346 119.603 22.1374V11.5584H122.985V21.9423C122.985 22.1157 123.042 22.2674 123.158 22.3975C123.288 22.5131 123.44 22.5709 123.613 22.5709H126.041V25.3891H122.876ZM117.782 17.0213V14.2682H126.041V17.0213H117.782Z" fill="#193B62"/>
<g clip-path="url(#clip0_2_493)">
<path d="M13.7945 5.13127C13.7945 3.31161 15.2749 1.8312 17.0945 1.8312H18.2366L17.8921 0.873526C17.6984 0.334956 17.1908 0 16.6499 0C16.5 0 16.3475 0.0257405 16.1985 0.0799935L4.65799 4.28038C3.97191 4.53013 3.6188 5.28934 3.87 5.97489L4.47979 7.63931H13.7945V5.13127Z" fill="#759DD9"/>
<path d="M17.0944 3.81128C16.3654 3.81128 15.7744 4.40226 15.7744 5.13131V7.63936H27.3246V5.13131C27.3246 4.40226 26.7337 3.81128 26.0046 3.81128H17.0944Z" fill="#F8A961"/>
<path d="M30.8226 26.6806H26.2025C23.473 26.6806 21.2524 24.46 21.2524 21.7306C21.2524 19.0011 23.473 16.7805 26.2025 16.7805H30.8226V12.2594C30.8226 10.8013 29.6406 9.61932 28.1825 9.61932H2.64005C1.18202 9.61932 0 10.8013 0 12.2594V31.1526C0 32.6106 1.18202 33.7926 2.64005 33.7926H28.1825C29.6406 33.7926 30.8226 32.6106 30.8226 31.1526V26.6806Z" fill="#5BCFC5"/>
<path d="M32.8031 18.7606H26.203C24.5653 18.7606 23.2329 20.0929 23.2329 21.7306C23.2329 23.3683 24.5653 24.7007 26.203 24.7007H32.8031C33.349 24.7007 33.7931 24.2566 33.7931 23.7107V19.7506C33.7931 19.2047 33.349 18.7606 32.8031 18.7606ZM26.203 22.7206C25.6562 22.7206 25.2129 22.2774 25.2129 21.7306C25.2129 21.1839 25.6562 20.7406 26.203 20.7406C26.7497 20.7406 27.193 21.1839 27.193 21.7306C27.193 22.2774 26.7497 22.7206 26.203 22.7206Z" fill="#5BCFC5"/>
</g>
<defs>
<clipPath id="clip0_2_493">
<rect width="33.7926" height="33.7926" fill="white"/>
</clipPath>
</defs>
</svg>
