<svg width="39" height="40" viewBox="0 0 39 40" fill="none" xmlns="http://www.w3.org/2000/svg">
<rect x="0.494141" y="3.40308" width="35.7054" height="35.7054" rx="17.8527" fill="#F7F7F7"/>
<g clip-path="url(#clip0_19_188)">
<path d="M27.0768 16.3641C26.4974 14.4944 24.7674 13.2205 22.81 13.222H13.8836C11.9262 13.2205 10.1962 14.4945 9.61677 16.3641C9.48795 16.7928 9.4218 17.2377 9.42041 17.6852V24.8263C9.42131 27.2909 11.419 29.2886 13.8836 29.2895H22.8099C25.2745 29.2886 27.2722 27.2909 27.2731 24.8263V17.6852C27.2717 17.2377 27.2056 16.7928 27.0768 16.3641V16.3641ZM13.8836 15.0074H22.8099C24.1219 15.0111 25.2391 15.9622 25.4521 17.2568L18.3467 21.1308L11.2414 17.2568C11.4544 15.9622 12.5716 15.0111 13.8836 15.0074V15.0074ZM25.4879 24.8263C25.4835 26.3035 24.2871 27.4999 22.81 27.5042H13.8836C12.4064 27.4999 11.21 26.3035 11.2057 24.8263V19.2742L17.9183 22.9339C18.186 23.0771 18.5075 23.0771 18.7752 22.9339L25.4879 19.2742V24.8263Z" fill="#4F7086"/>
</g>
<circle cx="27.2734" cy="11.6919" r="10.5203" fill="#FF4B4B" stroke="#F7F7F7" stroke-width="1.91279"/>
<path d="M24.5557 15.5013C24.3355 15.5013 24.1034 15.4894 23.8594 15.4656C23.6214 15.4418 23.3923 15.412 23.1721 15.3763C22.9579 15.3346 22.7794 15.2989 22.6365 15.2692L22.6901 14.3141C22.8329 14.3319 23.0025 14.3527 23.1989 14.3765C23.4012 14.4003 23.6065 14.4212 23.8148 14.439C24.029 14.4509 24.2254 14.4569 24.404 14.4569C24.7432 14.4569 24.9961 14.3944 25.1627 14.2694C25.3293 14.1445 25.4126 13.9421 25.4126 13.6624C25.4126 13.472 25.3739 13.3232 25.2966 13.2161C25.2252 13.1031 25.1181 13.0197 24.9752 12.9662C24.8384 12.9126 24.6777 12.8829 24.4932 12.8769H23.2792V11.895H24.4664C24.6033 11.895 24.7342 11.8653 24.8592 11.8058C24.9901 11.7462 25.0943 11.66 25.1716 11.5469C25.2549 11.4338 25.2966 11.297 25.2966 11.1363C25.2966 10.8863 25.2192 10.7108 25.0645 10.6096C24.9157 10.5025 24.6717 10.4489 24.3325 10.4489C24.154 10.4489 23.9666 10.4579 23.7702 10.4757C23.5738 10.4936 23.3863 10.5144 23.2078 10.5382C23.0293 10.5561 22.8805 10.5769 22.7615 10.6007L22.7079 9.66343C22.8389 9.62772 22.9995 9.59202 23.19 9.55631C23.3804 9.51466 23.5827 9.48193 23.797 9.45812C24.0112 9.42837 24.2135 9.41349 24.404 9.41349C24.9098 9.41349 25.3174 9.46705 25.6269 9.57416C25.9423 9.67533 26.1714 9.84493 26.3142 10.083C26.457 10.3151 26.5284 10.6215 26.5284 11.0024C26.5284 11.2107 26.5016 11.3862 26.4481 11.529C26.4005 11.6719 26.335 11.7939 26.2517 11.895C26.1743 11.9962 26.094 12.0795 26.0107 12.145C25.9274 12.2045 25.85 12.258 25.7786 12.3056C25.9571 12.3889 26.1119 12.4812 26.2428 12.5823C26.3737 12.6835 26.4749 12.8174 26.5463 12.984C26.6177 13.1507 26.6534 13.3738 26.6534 13.6535C26.6534 14.0998 26.576 14.4599 26.4213 14.7336C26.2666 15.0014 26.0345 15.1978 25.7251 15.3227C25.4156 15.4418 25.0258 15.5013 24.5557 15.5013ZM29.6764 15.5013C28.9088 15.5013 28.3464 15.2365 27.9893 14.7068C27.6323 14.1772 27.4538 13.4304 27.4538 12.4663C27.4538 11.895 27.5103 11.416 27.6234 11.0292C27.7424 10.6364 27.906 10.324 28.1143 10.0919C28.3286 9.85386 28.5815 9.68128 28.8731 9.57416C29.1647 9.46705 29.486 9.41349 29.8371 9.41349C30.0216 9.41349 30.2209 9.42539 30.4352 9.4492C30.6554 9.473 30.8696 9.50275 31.0779 9.53846C31.2862 9.56821 31.4617 9.59797 31.6045 9.62772L31.5063 10.5471C31.3814 10.5352 31.2237 10.5204 31.0332 10.5025C30.8488 10.4847 30.6554 10.4698 30.453 10.4579C30.2507 10.44 30.0573 10.4311 29.8728 10.4311C29.4681 10.4311 29.1647 10.559 28.9623 10.8149C28.76 11.0649 28.6529 11.4249 28.641 11.895C28.7005 11.8772 28.7749 11.8563 28.8641 11.8325C28.9593 11.8028 29.0605 11.773 29.1676 11.7433C29.2807 11.7076 29.3938 11.6808 29.5068 11.6629C29.6199 11.6391 29.727 11.6272 29.8282 11.6272C30.4887 11.6272 30.9827 11.782 31.31 12.0914C31.6432 12.3949 31.8098 12.8739 31.8098 13.5285C31.8098 13.9689 31.7235 14.3349 31.551 14.6265C31.3784 14.9181 31.1344 15.1383 30.819 15.287C30.5036 15.4299 30.1227 15.5013 29.6764 15.5013ZM29.6764 14.5015C30.0037 14.5015 30.2477 14.4182 30.4084 14.2516C30.575 14.079 30.6583 13.838 30.6583 13.5285C30.6583 13.2191 30.575 12.993 30.4084 12.8501C30.2418 12.7014 30.0067 12.627 29.7032 12.627C29.5782 12.627 29.4473 12.6389 29.3104 12.6627C29.1736 12.6865 29.0456 12.7192 28.9266 12.7609C28.8076 12.7966 28.7094 12.8323 28.632 12.868C28.638 13.1834 28.6737 13.4661 28.7392 13.716C28.8046 13.96 28.9117 14.1534 29.0605 14.2962C29.2152 14.4331 29.4205 14.5015 29.6764 14.5015Z" fill="white"/>
<defs>
<clipPath id="clip0_19_188">
<rect width="17.8527" height="17.8527" fill="white" transform="translate(9.42041 12.3295)"/>
</clipPath>
</defs>
</svg>
