<svg width="39" height="40" viewBox="0 0 39 40" fill="none" xmlns="http://www.w3.org/2000/svg">
<rect x="0.125977" y="3.40308" width="35.7054" height="35.7054" rx="17.8527" fill="#F7F7F7"/>
<g clip-path="url(#clip0_2_421)">
<path fill-rule="evenodd" clip-rule="evenodd" d="M17.0865 15.0716V13.2221C17.0865 12.7294 17.4864 12.3295 17.9791 12.3295C18.471 12.3295 18.8718 12.7294 18.8718 13.2221V15.0716C20.1982 15.2627 21.4381 15.8786 22.3968 16.8373C23.5688 18.0093 24.2276 19.5991 24.2276 21.2558V24.6157L24.9497 26.06C25.2952 26.7518 25.2586 27.573 24.8515 28.2309C24.4454 28.8887 23.7268 29.2895 22.9538 29.2895H18.8718C18.8718 29.7823 18.471 30.1822 17.9791 30.1822C17.4864 30.1822 17.0865 29.7823 17.0865 29.2895H13.0045C12.2306 29.2895 11.512 28.8887 11.1059 28.2309C10.6988 27.573 10.6622 26.7518 11.0086 26.06L11.7307 24.6157V21.2558C11.7307 19.5991 12.3886 18.0093 13.5606 16.8373C14.5202 15.8786 15.7591 15.2627 17.0865 15.0716V15.0716ZM17.9791 16.7926C16.7946 16.7926 15.6601 17.2631 14.8228 18.1003C13.9855 18.9367 13.516 20.0722 13.516 21.2558V24.8263C13.516 24.9647 13.4829 25.1013 13.4214 25.2254C13.4214 25.2254 13.0241 26.0198 12.6046 26.858C12.5358 26.9963 12.543 27.1615 12.6242 27.2927C12.7055 27.4239 12.8492 27.5042 13.0045 27.5042H22.9538C23.1082 27.5042 23.2519 27.4239 23.3332 27.2927C23.4144 27.1615 23.4215 26.9963 23.3528 26.858C22.9333 26.0198 22.536 25.2254 22.536 25.2254C22.4744 25.1013 22.4423 24.9647 22.4423 24.8263V21.2558C22.4423 20.0722 21.9719 18.9367 21.1346 18.1003C20.2973 17.2631 19.1628 16.7926 17.9791 16.7926V16.7926Z" fill="#4F7086"/>
</g>
<circle cx="26.9053" cy="11.6919" r="10.5203" fill="#5BCFC5" stroke="#F7F7F7" stroke-width="1.91279"/>
<path d="M24.3308 15.4031V10.8328L22.9383 11.6362L22.5277 10.7524L24.4826 9.51168H25.5448V15.4031H24.3308ZM27.2914 15.4031V14.439L28.6393 13.0554C28.8952 12.7936 29.1154 12.5645 29.2998 12.3681C29.4843 12.1658 29.6242 11.9754 29.7194 11.7968C29.8205 11.6183 29.8711 11.4279 29.8711 11.2255C29.8711 10.928 29.7878 10.7286 29.6212 10.6275C29.4546 10.5204 29.1868 10.4668 28.8178 10.4668C28.669 10.4668 28.5054 10.4757 28.3269 10.4936C28.1483 10.5114 27.9758 10.5323 27.8091 10.5561C27.6485 10.5799 27.5086 10.6037 27.3896 10.6275L27.3271 9.68128C27.458 9.64558 27.6187 9.6069 27.8091 9.56524C28.0055 9.52358 28.2168 9.48788 28.4429 9.45812C28.675 9.42242 28.9011 9.40456 29.1213 9.40456C29.764 9.40456 30.2549 9.54144 30.5941 9.81518C30.9334 10.083 31.103 10.4995 31.103 11.0649C31.103 11.3743 31.0583 11.6481 30.9691 11.8861C30.8857 12.1241 30.7518 12.3532 30.5674 12.5734C30.3888 12.7877 30.1508 13.0227 29.8533 13.2786L28.675 14.4033H31.1833V15.4031H27.2914Z" fill="white"/>
<defs>
<clipPath id="clip0_2_421">
<rect width="17.8527" height="17.8527" fill="white" transform="translate(9.05273 12.3295)"/>
</clipPath>
</defs>
</svg>
