<svg width="39" height="42" viewBox="0 0 39 42" fill="none" xmlns="http://www.w3.org/2000/svg">
<rect x="0.0161133" y="0.0829468" width="38.2558" height="40.9523" rx="19.1279" fill="white" fill-opacity="0.26"/>
<path d="M28.9897 15.5968C28.1038 13.5896 26.7009 11.904 24.9335 10.7214C22.4752 9.08121 19.5634 8.56014 16.7406 9.25792C13.9178 9.95116 11.5146 11.7817 9.98034 14.4097C8.44179 17.0377 7.95437 20.146 8.60709 23.1681C9.2598 26.1858 10.9721 28.7549 13.4262 30.3951C15.1555 31.5505 17.139 32.1622 19.1692 32.1622H19.3006C21.3224 32.135 23.289 31.5097 24.9928 30.3589C25.4887 30.0236 25.6328 29.3258 25.3192 28.7957C25.0056 28.2655 24.3528 28.1115 23.8569 28.4468C22.4879 29.3756 20.9028 29.8786 19.2752 29.9012C17.6053 29.9239 15.9735 29.43 14.5494 28.483C12.57 27.16 11.1925 25.0938 10.6712 22.6652C10.1499 20.2366 10.5398 17.7354 11.7774 15.6195C14.329 11.2561 19.7287 9.92398 23.8103 12.6516C25.2344 13.6032 26.3618 14.9579 27.0739 16.571C27.769 18.1432 28.0403 19.8877 27.858 21.6095C27.7944 22.2302 28.2098 22.7921 28.7947 22.86C29.3754 22.928 29.9009 22.484 29.9645 21.8587C30.1891 19.7155 29.8501 17.5497 28.9897 15.5968Z" fill="white"/>
<path d="M22.6846 16.6261L17.5726 22.0911L15.6778 20.0655C15.2624 19.6214 14.5927 19.6214 14.1773 20.0655C13.7619 20.5096 13.7619 21.2255 14.1773 21.6696L16.8223 24.4973C17.03 24.7193 17.3013 24.8281 17.5726 24.8281C17.8439 24.8281 18.1152 24.7193 18.3229 24.4973L24.181 18.2302C24.5964 17.7862 24.5964 17.0702 24.181 16.6261C23.7655 16.1866 23.0958 16.1866 22.6846 16.6261Z" fill="white"/>
</svg>
