<svg width="152" height="172" viewBox="0 0 152 172" fill="none" xmlns="http://www.w3.org/2000/svg">
<path d="M13.4673 80.5304C16.0102 65.2716 23.4965 51.4608 34.6102 41.5259C45.7239 31.5911 59.7535 26.1682 74.2326 26.2106L74.1465 59.9209C67.0749 59.9002 60.2228 62.5488 54.7949 67.4009C49.367 72.2531 45.7106 78.9983 44.4687 86.4507L13.4673 80.5304Z" fill="#E3E3E3"/>
<path d="M70.917 0.00317383C89.6666 0.00317407 107.862 6.80812 122.533 19.3068C137.203 31.8055 147.482 49.2594 151.69 68.8185L103.899 80.6014C102.18 72.615 97.9833 65.4881 91.993 60.3846C86.0027 55.281 78.5729 52.5024 70.917 52.5024V0.00317383Z" fill="url(#paint0_linear_19_79)"/>
<path d="M140.895 71.1678C144.468 87.4787 142.97 104.592 136.629 119.909C130.288 135.225 119.45 147.908 105.762 156.029C92.074 164.151 76.2836 167.269 60.7895 164.908C45.2955 162.548 30.9445 154.839 19.9165 142.951L46.0081 115.213C51.3942 121.019 58.4032 124.784 65.9705 125.937C73.5378 127.09 81.2498 125.567 87.9351 121.601C94.6203 117.634 99.9135 111.44 103.01 103.959C106.107 96.4786 106.839 88.1204 105.094 80.1542L140.895 71.1678Z" fill="url(#paint1_linear_19_79)"/>
<path d="M25.4042 137.713C18.0098 129.839 12.5082 120.164 9.37058 109.517C6.23291 98.8692 5.55263 87.5663 7.38798 76.5758L39.8894 82.7954C38.993 88.1632 39.3253 93.6835 40.8577 98.8838C42.3902 104.084 45.0771 108.809 48.6885 112.655L25.4042 137.713Z" fill="url(#paint2_linear_19_79)"/>
<g filter="url(#filter0_d_19_79)">
<ellipse cx="74.001" cy="90.5373" rx="37.0089" ry="39.6174" fill="white"/>
</g>
<path d="M81.2061 99.8268C81.0858 99.7515 80.948 99.7156 80.8093 99.7236C80.6707 99.7317 80.5371 99.7832 80.4249 99.872C76.2091 102.866 71.9933 102.866 67.7776 99.872C67.6654 99.7832 67.5318 99.7317 67.3932 99.7236C67.2545 99.7156 67.1167 99.7515 66.9964 99.8268L58.5201 105.141C58.4268 105.2 58.3468 105.28 58.2861 105.377C58.2254 105.474 58.1855 105.584 58.1696 105.7C58.1536 105.815 58.1618 105.934 58.1937 106.045C58.2256 106.157 58.2803 106.26 58.3537 106.345C60.3664 108.695 62.8039 110.57 65.514 111.852C68.2241 113.133 71.1486 113.795 74.1048 113.795C77.061 113.795 79.9855 113.133 82.6956 111.852C85.4057 110.57 87.8432 108.695 89.8559 106.345C89.9294 106.26 89.9841 106.157 90.016 106.045C90.0478 105.934 90.0561 105.815 90.0401 105.7C90.0241 105.584 89.9843 105.474 89.9236 105.377C89.8629 105.28 89.7829 105.2 89.6895 105.141L81.2061 99.8268Z" fill="#B9B9B9"/>
<path d="M71.5752 78.6059C71.652 78.7313 71.7606 78.8297 71.8879 78.8894C72.0152 78.9491 72.1557 78.9675 72.2924 78.9423C74.5329 78.5371 76.8339 78.9074 78.8697 80.0006C80.9054 81.0938 82.5726 82.8546 83.6351 85.0334C83.6958 85.1593 83.7872 85.2647 83.8992 85.3383C84.0112 85.4118 84.1396 85.4507 84.2706 85.4507C84.2856 85.4507 94.0868 84.7718 94.0868 84.7718C94.1944 84.7644 94.2991 84.7307 94.393 84.6733C94.487 84.6159 94.5678 84.5363 94.6295 84.4403C94.6912 84.3443 94.7322 84.2345 94.7493 84.1189C94.7665 84.0034 94.7595 83.8852 94.7288 83.773C91.2327 71.0193 77.9634 63.8771 66.4888 68.5942C66.3877 68.6352 66.2965 68.7005 66.2219 68.7852C66.1473 68.8698 66.0912 68.9717 66.0579 69.0831C66.0246 69.1945 66.0149 69.3127 66.0296 69.4287C66.0442 69.5448 66.0827 69.6558 66.1423 69.7534L71.5752 78.6059Z" fill="#EAEAEA"/>
<path d="M65.7409 97.7785C64.7331 96.3873 64.0267 94.7678 63.6739 93.0401C63.3212 91.3123 63.3312 89.5206 63.7032 87.7976C64.0752 86.0746 64.7997 84.4645 65.8229 83.0867C66.8462 81.7089 68.142 80.5987 69.6143 79.8383C69.7083 79.7912 69.7919 79.7226 69.8592 79.6372C69.9265 79.5518 69.9759 79.4515 70.0041 79.3434C70.0324 79.2352 70.0387 79.1217 70.0226 79.0107C70.0066 78.8996 69.9686 78.7937 69.9112 78.7001L64.7015 70.2088C64.6019 70.0464 64.4498 69.9306 64.2752 69.8842C64.1007 69.8378 63.9164 69.8641 63.759 69.9581C61.109 71.5345 58.7948 73.6991 56.967 76.311C55.1392 78.9228 53.8389 81.9233 53.1507 85.1169C52.4625 88.3106 52.402 91.6258 52.973 94.8465C53.544 98.0672 54.7338 101.121 56.4648 103.81C56.5696 103.967 56.7237 104.076 56.898 104.118C57.0723 104.16 57.2547 104.132 57.4109 104.038L65.5415 98.9431C65.6314 98.8869 65.709 98.8102 65.7689 98.7183C65.8289 98.6264 65.8697 98.5215 65.8887 98.4107C65.9077 98.3 65.9043 98.1862 65.8787 98.077C65.8532 97.9678 65.8062 97.866 65.7409 97.7785Z" fill="#DEDEDE"/>
<path d="M94.6282 86.293L85.2524 86.9431C85.149 86.9503 85.0483 86.9817 84.9572 87.0352C84.866 87.0887 84.7866 87.163 84.7245 87.2529C84.6623 87.3429 84.6188 87.4464 84.597 87.5563C84.5752 87.6663 84.5757 87.78 84.5983 87.8898C84.948 89.6058 84.9381 91.3851 84.5694 93.0964C84.2007 94.8077 83.4825 96.4073 82.4679 97.777C82.402 97.8645 82.3545 97.9665 82.3286 98.076C82.3028 98.1854 82.2992 98.2997 82.3181 98.4108C82.337 98.5219 82.378 98.6273 82.4381 98.7195C82.4983 98.8117 82.5763 98.8885 82.6666 98.9448L90.7971 104.039C90.9531 104.134 91.1358 104.163 91.3103 104.121C91.4847 104.079 91.6388 103.969 91.7433 103.811C94.2757 99.8947 95.6308 95.2242 95.6231 90.4394C95.6227 89.2731 95.5427 88.1083 95.3835 86.9548C95.3569 86.7618 95.2646 86.5867 95.1247 86.4642C94.9848 86.3416 94.8076 86.2806 94.6282 86.293Z" fill="#CECECE"/>
<defs>
<filter id="filter0_d_19_79" x="0.649166" y="19.6777" width="146.704" height="151.921" filterUnits="userSpaceOnUse" color-interpolation-filters="sRGB">
<feFlood flood-opacity="0" result="BackgroundImageFix"/>
<feColorMatrix in="SourceAlpha" type="matrix" values="0 0 0 0 0 0 0 0 0 0 0 0 0 0 0 0 0 0 127 0" result="hardAlpha"/>
<feOffset dy="5.10077"/>
<feGaussianBlur stdDeviation="18.1715"/>
<feColorMatrix type="matrix" values="0 0 0 0 0 0 0 0 0 0 0 0 0 0 0 0 0 0 0.14 0"/>
<feBlend mode="normal" in2="BackgroundImageFix" result="effect1_dropShadow_19_79"/>
<feBlend mode="normal" in="SourceGraphic" in2="effect1_dropShadow_19_79" result="shape"/>
</filter>
<linearGradient id="paint0_linear_19_79" x1="70.917" y1="0.00317383" x2="70.917" y2="177.463" gradientUnits="userSpaceOnUse">
<stop stop-color="#496ECC"/>
<stop offset="1" stop-color="#496ECC" stop-opacity="0"/>
</linearGradient>
<linearGradient id="paint1_linear_19_79" x1="94.1888" y1="72.3522" x2="67.7767" y2="164.779" gradientUnits="userSpaceOnUse">
<stop stop-color="#68E365"/>
<stop offset="1" stop-color="#B6FF6D"/>
</linearGradient>
<linearGradient id="paint2_linear_19_79" x1="35.2116" y1="79.86" x2="25.0214" y2="137.995" gradientUnits="userSpaceOnUse">
<stop stop-color="#FFA133"/>
<stop offset="1" stop-color="#FFD233"/>
</linearGradient>
</defs>
</svg>
