<svg width="17" height="16" viewBox="0 0 17 16" fill="none" xmlns="http://www.w3.org/2000/svg">
<path d="M9.56539 13.9921C5.86933 13.9921 2.87305 10.9958 2.87305 7.29973C2.87305 3.60364 5.86929 0.607422 9.56539 0.607422C13.2615 0.607422 16.2577 3.60367 16.2577 7.29976C16.2577 10.9959 13.2614 13.9921 9.56539 13.9921ZM9.56539 2.51953C6.92533 2.51953 4.78515 4.6597 4.78515 7.29976C4.78515 9.93983 6.92533 12.08 9.56539 12.08C12.2055 12.08 14.3456 9.93983 14.3456 7.29976C14.3456 4.6597 12.2054 2.51953 9.56539 2.51953Z" fill="#4F7086"/>
<path d="M1.91667 15.9042C1.66254 15.9057 1.4183 15.8059 1.23788 15.627C0.86298 15.2551 0.860508 14.6498 1.23235 14.2749C1.23419 14.2731 1.23604 14.2712 1.23788 14.2694L4.83261 10.6746C5.2207 10.2997 5.83922 10.3105 6.21412 10.6985C6.58902 11.0866 6.57831 11.7051 6.19023 12.08L2.59546 15.627C2.41505 15.8059 2.1708 15.9057 1.91667 15.9042V15.9042Z" fill="#4F7086"/>
</svg>
