<svg width="39" height="42" viewBox="0 0 39 42" fill="none" xmlns="http://www.w3.org/2000/svg">
<rect x="0.693359" y="0.0829468" width="38.2558" height="40.9523" rx="19.1279" fill="white" fill-opacity="0.26"/>
<g clip-path="url(#clip0_1402_8)">
<path d="M26.1875 9.92291H13.5247C12.5652 9.92291 11.6449 10.3304 10.9664 11.0557C10.2879 11.7811 9.90674 12.7648 9.90674 13.7906V20.5591C9.90674 20.8156 10.002 21.0615 10.1717 21.2428C10.3413 21.4242 10.5713 21.5261 10.8112 21.5261H15.3337V30.2284C15.3332 30.4133 15.3824 30.5945 15.4754 30.7505C15.5684 30.9065 15.7013 31.0306 15.8583 31.1083C16.0156 31.1858 16.1905 31.2133 16.3621 31.1875C16.5336 31.1618 16.6947 31.084 16.8261 30.9633L19.4039 28.604L21.9817 30.9633C22.1455 31.1131 22.354 31.1954 22.5696 31.1954C22.7852 31.1954 22.9937 31.1131 23.1575 30.9633L25.7353 28.604L28.3131 30.9633C28.4769 31.1131 28.6854 31.1954 28.901 31.1953C29.0319 31.1943 29.1611 31.1647 29.2809 31.1083C29.4379 31.0306 29.5708 30.9065 29.6637 30.7505C29.7567 30.5945 29.8059 30.4133 29.8055 30.2284V13.7906C29.8055 12.7648 29.4243 11.7811 28.7458 11.0557C28.0673 10.3304 27.1471 9.92291 26.1875 9.92291ZM11.7157 19.5922V13.7906C11.7157 13.2777 11.9063 12.7859 12.2456 12.4232C12.5848 12.0605 13.0449 11.8568 13.5247 11.8568C14.0045 11.8568 14.4646 12.0605 14.8038 12.4232C15.1431 12.7859 15.3337 13.2777 15.3337 13.7906V19.5922H11.7157ZM27.9965 28.1302L26.3232 26.5928C26.1594 26.4429 25.9509 26.3606 25.7353 26.3606C25.5197 26.3606 25.3112 26.4429 25.1474 26.5928L22.5696 28.9521L19.9918 26.5928C19.828 26.4429 19.6195 26.3606 19.4039 26.3606C19.1883 26.3606 18.9798 26.4429 18.816 26.5928L17.1426 28.1302V13.7906C17.1415 13.1113 16.9731 12.4444 16.6542 11.8568H26.1875C26.6673 11.8568 27.1274 12.0605 27.4667 12.4232C27.8059 12.7859 27.9965 13.2777 27.9965 13.7906V28.1302ZM26.1875 14.7576C26.1875 15.014 26.0922 15.2599 25.9226 15.4413C25.753 15.6226 25.5229 15.7245 25.283 15.7245H19.8561C19.6162 15.7245 19.3862 15.6226 19.2165 15.4413C19.0469 15.2599 18.9516 15.014 18.9516 14.7576C18.9516 14.5011 19.0469 14.2552 19.2165 14.0738C19.3862 13.8925 19.6162 13.7906 19.8561 13.7906H25.283C25.5229 13.7906 25.753 13.8925 25.9226 14.0738C26.0922 14.2552 26.1875 14.5011 26.1875 14.7576ZM26.1875 18.6253C26.1875 18.8817 26.0922 19.1277 25.9226 19.309C25.753 19.4903 25.5229 19.5922 25.283 19.5922H19.8561C19.6162 19.5922 19.3862 19.4903 19.2165 19.309C19.0469 19.1277 18.9516 18.8817 18.9516 18.6253C18.9516 18.3688 19.0469 18.1229 19.2165 17.9415C19.3862 17.7602 19.6162 17.6583 19.8561 17.6583H25.283C25.5229 17.6583 25.753 17.7602 25.9226 17.9415C26.0922 18.1229 26.1875 18.3688 26.1875 18.6253ZM26.1875 22.493C26.1875 22.7494 26.0922 22.9954 25.9226 23.1767C25.753 23.358 25.5229 23.4599 25.283 23.4599H19.8561C19.6162 23.4599 19.3862 23.358 19.2165 23.1767C19.0469 22.9954 18.9516 22.7494 18.9516 22.493C18.9516 22.2365 19.0469 21.9906 19.2165 21.8093C19.3862 21.6279 19.6162 21.5261 19.8561 21.5261H25.283C25.5229 21.5261 25.753 21.6279 25.9226 21.8093C26.0922 21.9906 26.1875 22.2365 26.1875 22.493Z" fill="white"/>
</g>
<defs>
<clipPath id="clip0_1402_8">
<rect width="21.7077" height="23.2063" fill="white" transform="translate(9.00244 8.95593)"/>
</clipPath>
</defs>
</svg>
