<svg width="19" height="19" viewBox="0 0 19 19" fill="none" xmlns="http://www.w3.org/2000/svg">
<path fill-rule="evenodd" clip-rule="evenodd" d="M6.88597 2.33491C7.52728 1.32867 8.65275 0.661163 9.93448 0.661163C11.2162 0.661163 12.3417 1.32867 12.983 2.33491C14.1473 2.07657 15.4155 2.40085 16.3214 3.30682C17.2274 4.2137 17.5517 5.48096 17.2934 6.64617C18.2996 7.28749 18.9671 8.41296 18.9671 9.69379C18.9671 10.9755 18.2996 12.101 17.2934 12.7423C17.5517 13.9075 17.2274 15.1748 16.3214 16.0808C15.4155 16.9876 14.1473 17.311 12.983 17.0536C12.3417 18.0598 11.2162 18.7264 9.93448 18.7264C8.65275 18.7264 7.52728 18.0598 6.88597 17.0536C5.72076 17.311 4.45348 16.9876 3.54751 16.0808C2.64154 15.1748 2.31727 13.9075 2.5747 12.7423C1.56937 12.101 0.901855 10.9755 0.901855 9.69379C0.901855 8.41296 1.56937 7.28749 2.5747 6.64617C2.31727 5.48096 2.64154 4.2137 3.54751 3.30682C4.45348 2.40085 5.72076 2.07657 6.88597 2.33491ZM6.93385 4.25795C7.1705 4.38079 7.44961 4.39253 7.6962 4.29046C7.94279 4.18839 8.13157 3.98246 8.21196 3.72864C8.44319 2.9979 9.12696 2.46769 9.93448 2.46769C10.742 2.46769 11.4258 2.9979 11.657 3.72864C11.7374 3.98246 11.9262 4.18839 12.1728 4.29046C12.4194 4.39253 12.6976 4.38079 12.9342 4.25795C13.6153 3.90477 14.4734 4.01316 15.0442 4.58493C15.6151 5.15579 15.7244 6.0139 15.3712 6.69405C15.2484 6.93071 15.2357 7.20982 15.3378 7.45551C15.4399 7.7021 15.6458 7.89088 15.8996 7.97127C16.6313 8.2025 17.1606 8.88627 17.1606 9.69379C17.1606 10.5013 16.6313 11.186 15.8996 11.4172C15.6458 11.4976 15.4399 11.6864 15.3378 11.9321C15.2357 12.1787 15.2484 12.4578 15.3712 12.6944C15.7244 13.3746 15.6151 14.2327 15.0442 14.8035C14.4734 15.3744 13.6153 15.4837 12.9342 15.1305C12.6976 15.0077 12.4194 14.9959 12.1728 15.098C11.9262 15.2001 11.7374 15.406 11.657 15.6598C11.4258 16.3906 10.742 16.9199 9.93448 16.9199C9.12696 16.9199 8.44319 16.3906 8.21196 15.6598C8.13157 15.406 7.94279 15.2001 7.6962 15.098C7.44961 14.9959 7.1705 15.0077 6.93385 15.1305C6.25369 15.4837 5.39559 15.3744 4.82473 14.8035C4.25386 14.2327 4.14457 13.3746 4.49775 12.6944C4.62059 12.4578 4.63233 12.1787 4.53117 11.9321C4.4291 11.6864 4.22315 11.4976 3.96843 11.4172C3.2377 11.186 2.70838 10.5013 2.70838 9.69379C2.70838 8.88627 3.2377 8.2025 3.96843 7.97127C4.22315 7.89088 4.4291 7.7021 4.53117 7.45551C4.63233 7.20982 4.62059 6.93071 4.49775 6.69405C4.14457 6.0139 4.25386 5.15579 4.82473 4.58493C5.39559 4.01316 6.25369 3.90477 6.93385 4.25795ZM9.93448 6.08074C7.94008 6.08074 6.32143 7.70029 6.32143 9.69379C6.32143 11.6882 7.94008 13.3068 9.93448 13.3068C11.9289 13.3068 13.5475 11.6882 13.5475 9.69379C13.5475 7.70029 11.9289 6.08074 9.93448 6.08074ZM9.93448 7.88726C10.9317 7.88726 11.741 8.69749 11.741 9.69379C11.741 10.691 10.9317 11.5003 9.93448 11.5003C8.93728 11.5003 8.12795 10.691 8.12795 9.69379C8.12795 8.69749 8.93728 7.88726 9.93448 7.88726Z" fill="#969BA0"/>
</svg>
