<svg width="40" height="41" viewBox="0 0 40 41" fill="none" xmlns="http://www.w3.org/2000/svg">
<rect x="0.38916" y="4.40314" width="35.7054" height="35.7054" rx="17.8527" fill="#F7F7F7"/>
<path fill-rule="evenodd" clip-rule="evenodd" d="M15.7313 16.1956C16.2595 15.367 17.1863 14.8173 18.2419 14.8173C19.2974 14.8173 20.2242 15.367 20.7524 16.1956C21.7112 15.9829 22.7556 16.2499 23.5017 16.996C24.2478 17.7429 24.5149 18.7865 24.3021 19.7461C25.1308 20.2742 25.6805 21.2011 25.6805 22.2559C25.6805 23.3114 25.1308 24.2383 24.3021 24.7664C24.5149 25.726 24.2478 26.7697 23.5017 27.5157C22.7556 28.2626 21.7112 28.5289 20.7524 28.3169C20.2242 29.1455 19.2974 29.6945 18.2419 29.6945C17.1863 29.6945 16.2595 29.1455 15.7313 28.3169C14.7717 28.5289 13.7281 28.2626 12.982 27.5157C12.2359 26.7697 11.9689 25.726 12.1809 24.7664C11.3529 24.2383 10.8032 23.3114 10.8032 22.2559C10.8032 21.2011 11.3529 20.2742 12.1809 19.7461C11.9689 18.7865 12.2359 17.7429 12.982 16.996C13.7281 16.2499 14.7717 15.9829 15.7313 16.1956ZM15.7707 17.7793C15.9656 17.8805 16.1955 17.8902 16.3986 17.8061C16.6016 17.722 16.7571 17.5524 16.8233 17.3434C17.0137 16.7416 17.5768 16.305 18.2419 16.305C18.9069 16.305 19.47 16.7416 19.6604 17.3434C19.7266 17.5524 19.8821 17.722 20.0852 17.8061C20.2882 17.8902 20.5173 17.8805 20.7122 17.7793C21.2731 17.4885 21.9798 17.5777 22.4499 18.0486C22.92 18.5187 23.01 19.2254 22.7192 19.7855C22.618 19.9804 22.6076 20.2103 22.6916 20.4126C22.7757 20.6157 22.9453 20.7711 23.1543 20.8373C23.7569 21.0278 24.1928 21.5909 24.1928 22.2559C24.1928 22.9209 23.7569 23.4847 23.1543 23.6752C22.9453 23.7414 22.7757 23.8969 22.6916 24.0992C22.6076 24.3023 22.618 24.5321 22.7192 24.727C23.01 25.2871 22.92 25.9938 22.4499 26.4639C21.9798 26.934 21.2731 27.0241 20.7122 26.7332C20.5173 26.632 20.2882 26.6224 20.0852 26.7064C19.8821 26.7905 19.7266 26.9601 19.6604 27.1691C19.47 27.7709 18.9069 28.2068 18.2419 28.2068C17.5768 28.2068 17.0137 27.7709 16.8233 27.1691C16.7571 26.9601 16.6016 26.7905 16.3986 26.7064C16.1955 26.6224 15.9656 26.632 15.7707 26.7332C15.2106 27.0241 14.5039 26.934 14.0338 26.4639C13.5637 25.9938 13.4737 25.2871 13.7645 24.727C13.8657 24.5321 13.8754 24.3023 13.7921 24.0992C13.708 23.8969 13.5384 23.7414 13.3286 23.6752C12.7269 23.4847 12.2909 22.9209 12.2909 22.2559C12.2909 21.5909 12.7269 21.0278 13.3286 20.8373C13.5384 20.7711 13.708 20.6157 13.7921 20.4126C13.8754 20.2103 13.8657 19.9804 13.7645 19.7855C13.4737 19.2254 13.5637 18.5187 14.0338 18.0486C14.5039 17.5777 15.2106 17.4885 15.7707 17.7793ZM18.2419 19.2804C16.5994 19.2804 15.2664 20.6142 15.2664 22.2559C15.2664 23.8983 16.5994 25.2313 18.2419 25.2313C19.8843 25.2313 21.2173 23.8983 21.2173 22.2559C21.2173 20.6142 19.8843 19.2804 18.2419 19.2804ZM18.2419 20.7682C19.0631 20.7682 19.7296 21.4354 19.7296 22.2559C19.7296 23.0771 19.0631 23.7436 18.2419 23.7436C17.4206 23.7436 16.7541 23.0771 16.7541 22.2559C16.7541 21.4354 17.4206 20.7682 18.2419 20.7682Z" fill="#4F7086"/>
<circle cx="27.8057" cy="12.0543" r="10.5203" fill="#757474" stroke="#F7F7F7" stroke-width="1.91279"/>
<path d="M27.1556 13.6679L27.0663 9.66886H28.3517L28.2714 13.6679H27.1556ZM27.0931 15.7656V14.4534H28.3339V15.7656H27.0931Z" fill="white"/>
</svg>
