<svg width="57" height="77" viewBox="0 0 57 77" fill="none" xmlns="http://www.w3.org/2000/svg">
<rect x="-0.5" y="0.5" width="5.37597" height="74.8215" rx="2.68798" transform="matrix(-1 0 0 1 55.1665 0.238861)" fill="#F4F4F4" stroke="black"/>
<rect x="-0.5" y="0.5" width="5.37597" height="33.0648" rx="2.68798" transform="matrix(-1 0 0 1 55.1665 41.7469)" fill="#5BCFC5" stroke="black"/>
<rect x="-0.5" y="0.5" width="5.37597" height="74.8215" rx="2.68798" transform="matrix(-1 0 0 1 38.5894 0.238861)" fill="#F4F4F4" stroke="black"/>
<rect x="-0.5" y="0.5" width="5.37597" height="59.9869" rx="2.68798" transform="matrix(-1 0 0 1 38.5889 15.1818)" fill="#5BCFC5" stroke="black"/>
<rect x="-0.5" y="0.5" width="5.37597" height="74.8215" rx="2.68798" transform="matrix(-1 0 0 1 22.0117 0.238861)" fill="#F4F4F4" stroke="black"/>
<rect x="-0.5" y="0.5" width="5.37597" height="39.6579" rx="2.68798" transform="matrix(-1 0 0 1 22.0117 35.659)" fill="#5BCFC5" stroke="black"/>
<rect x="-0.5" y="0.5" width="5.37597" height="67.1295" rx="2.68798" transform="matrix(-1 0 0 1 5.43457 7.93079)" fill="#F4F4F4" stroke="black"/>
<rect x="-0.5" y="0.5" width="5.37597" height="27.021" rx="2.68798" transform="matrix(-1 0 0 1 5.43457 47.8347)" fill="#5BCFC5" stroke="black"/>
</svg>
