<svg width="17" height="17" viewBox="0 0 17 17" fill="none" xmlns="http://www.w3.org/2000/svg">
<path d="M8.49209 9.19293C8.84422 9.19293 9.12969 8.88734 9.12969 8.51039C9.12969 8.13343 8.84422 7.82785 8.49209 7.82785C8.13995 7.82785 7.85449 8.13343 7.85449 8.51039C7.85449 8.88734 8.13995 9.19293 8.49209 9.19293Z" stroke="#2E2E2E" stroke-width="1.27519" stroke-linecap="round" stroke-linejoin="round"/>
<path d="M8.49209 4.41515C8.84422 4.41515 9.12969 4.10957 9.12969 3.73262C9.12969 3.35566 8.84422 3.05008 8.49209 3.05008C8.13995 3.05008 7.85449 3.35566 7.85449 3.73262C7.85449 4.10957 8.13995 4.41515 8.49209 4.41515Z" stroke="#2E2E2E" stroke-width="1.27519" stroke-linecap="round" stroke-linejoin="round"/>
<path d="M8.49209 13.9707C8.84422 13.9707 9.12969 13.6651 9.12969 13.2881C9.12969 12.9112 8.84422 12.6056 8.49209 12.6056C8.13995 12.6056 7.85449 12.9112 7.85449 13.2881C7.85449 13.6651 8.13995 13.9707 8.49209 13.9707Z" stroke="#2E2E2E" stroke-width="1.27519" stroke-linecap="round" stroke-linejoin="round"/>
</svg>
