<svg width="39" height="42" viewBox="0 0 39 42" fill="none" xmlns="http://www.w3.org/2000/svg">
<rect x="0.677246" y="0.0829468" width="38.2558" height="40.9523" rx="19.1279" fill="white" fill-opacity="0.26"/>
<path d="M26.1714 9.92291H13.5086C12.549 9.92291 11.6288 10.3304 10.9503 11.0557C10.2718 11.7811 9.89063 12.7648 9.89062 13.7906V20.5591C9.89062 20.8156 9.98592 21.0615 10.1555 21.2428C10.3252 21.4242 10.5552 21.5261 10.7951 21.5261H15.3176V30.2284C15.3171 30.4133 15.3663 30.5945 15.4593 30.7505C15.5523 30.9065 15.6852 31.0306 15.8422 31.1083C15.9995 31.1858 16.1744 31.2133 16.346 31.1875C16.5175 31.1618 16.6786 31.084 16.81 30.9633L19.3878 28.604L21.9656 30.9633C22.1294 31.1131 22.3379 31.1954 22.5535 31.1954C22.7691 31.1954 22.9776 31.1131 23.1414 30.9633L25.7192 28.604L28.297 30.9633C28.4608 31.1131 28.6693 31.1954 28.8849 31.1953C29.0157 31.1943 29.145 31.1647 29.2648 31.1083C29.4218 31.0306 29.5546 30.9065 29.6476 30.7505C29.7406 30.5945 29.7898 30.4133 29.7894 30.2284V13.7906C29.7894 12.7648 29.4082 11.7811 28.7297 11.0557C28.0512 10.3304 27.131 9.92291 26.1714 9.92291V9.92291ZM11.6996 19.5922V13.7906C11.6996 13.2777 11.8902 12.7859 12.2294 12.4232C12.5687 12.0605 13.0288 11.8568 13.5086 11.8568C13.9884 11.8568 14.4485 12.0605 14.7877 12.4232C15.127 12.7859 15.3176 13.2777 15.3176 13.7906V19.5922H11.6996ZM27.9804 28.1302L26.3071 26.5928C26.1433 26.4429 25.9348 26.3606 25.7192 26.3606C25.5036 26.3606 25.2951 26.4429 25.1313 26.5928L22.5535 28.9521L19.9757 26.5928C19.8118 26.4429 19.6033 26.3606 19.3878 26.3606C19.1722 26.3606 18.9637 26.4429 18.7998 26.5928L17.1265 28.1302V13.7906C17.1254 13.1113 16.9569 12.4444 16.6381 11.8568H26.1714C26.6512 11.8568 27.1113 12.0605 27.4506 12.4232C27.7898 12.7859 27.9804 13.2777 27.9804 13.7906V28.1302ZM26.1714 14.7576C26.1714 15.014 26.0761 15.2599 25.9065 15.4413C25.7369 15.6226 25.5068 15.7245 25.2669 15.7245H19.84C19.6001 15.7245 19.3701 15.6226 19.2004 15.4413C19.0308 15.2599 18.9355 15.014 18.9355 14.7576C18.9355 14.5011 19.0308 14.2552 19.2004 14.0738C19.3701 13.8925 19.6001 13.7906 19.84 13.7906H25.2669C25.5068 13.7906 25.7369 13.8925 25.9065 14.0738C26.0761 14.2552 26.1714 14.5011 26.1714 14.7576ZM26.1714 18.6253C26.1714 18.8817 26.0761 19.1277 25.9065 19.309C25.7369 19.4903 25.5068 19.5922 25.2669 19.5922H19.84C19.6001 19.5922 19.3701 19.4903 19.2004 19.309C19.0308 19.1277 18.9355 18.8817 18.9355 18.6253C18.9355 18.3688 19.0308 18.1229 19.2004 17.9415C19.3701 17.7602 19.6001 17.6583 19.84 17.6583H25.2669C25.5068 17.6583 25.7369 17.7602 25.9065 17.9415C26.0761 18.1229 26.1714 18.3688 26.1714 18.6253ZM26.1714 22.493C26.1714 22.7494 26.0761 22.9954 25.9065 23.1767C25.7369 23.358 25.5068 23.4599 25.2669 23.4599H19.84C19.6001 23.4599 19.3701 23.358 19.2004 23.1767C19.0308 22.9954 18.9355 22.7494 18.9355 22.493C18.9355 22.2365 19.0308 21.9906 19.2004 21.8093C19.3701 21.6279 19.6001 21.5261 19.84 21.5261H25.2669C25.5068 21.5261 25.7369 21.6279 25.9065 21.8093C26.0761 21.9906 26.1714 22.2365 26.1714 22.493Z" fill="white"/>
</svg>
