<svg width="16" height="19" viewBox="0 0 16 19" fill="none" xmlns="http://www.w3.org/2000/svg">
<path fill-rule="evenodd" clip-rule="evenodd" d="M9.83284 14.9222C11.8887 14.1526 13.3547 12.1681 13.3547 9.84495C13.3547 8.34914 12.7468 6.99425 11.7658 6.0133C11.4135 5.66103 11.4135 5.08838 11.7658 4.7361C12.119 4.38383 12.6908 4.38383 13.0439 4.7361C14.3519 6.04403 15.1612 7.85054 15.1612 9.84495C15.1612 12.991 13.146 15.6701 10.3369 16.661L11.1597 17.2318C11.5689 17.5164 11.671 18.0791 11.3864 18.4892C11.1028 18.8983 10.5392 19.0004 10.13 18.7159L7.42022 16.8362C7.01195 16.5535 6.90898 15.9934 7.18989 15.5834L8.99642 12.9476C9.27823 12.5358 9.84097 12.431 10.2519 12.7128C10.6629 12.9946 10.7677 13.5574 10.4859 13.9683L9.83284 14.9222ZM5.55408 3.02081L4.72399 2.4671C4.30939 2.1907 4.19648 1.62887 4.47288 1.21428C4.75018 0.799678 5.31111 0.687673 5.7257 0.964072L8.43549 2.7706C8.85099 3.04699 8.963 3.60793 8.6866 4.02343L6.88007 6.73321C6.60277 7.14781 6.04184 7.25981 5.62725 6.98341C5.21265 6.70701 5.09974 6.14519 5.37614 5.73059L6.01294 4.77675C3.96886 5.55265 2.51551 7.52989 2.51551 9.84495C2.51551 11.3407 3.1225 12.6947 4.10344 13.6766C4.45572 14.0289 4.45572 14.6006 4.10344 14.9538C3.75117 15.3061 3.1785 15.3061 2.82623 14.9538C1.51831 13.6459 0.708984 11.8393 0.708984 9.84495C0.708984 6.69075 2.7341 4.00536 5.55408 3.02081V3.02081Z" fill="#969BA0"/>
</svg>
