<svg width="39" height="42" viewBox="0 0 39 42" fill="none" xmlns="http://www.w3.org/2000/svg">
<rect x="0.35498" y="0.0829468" width="38.2558" height="40.9523" rx="19.1279" fill="white" fill-opacity="0.26"/>
<g clip-path="url(#clip0_1402_7)">
<path d="M29.3328 15.5961C28.4466 13.5883 27.0433 11.9022 25.2753 10.7192C22.8162 9.07844 19.9077 8.5572 17.0798 9.25521C14.2561 9.94867 11.8521 11.7798 10.3173 14.4086C8.77825 17.0375 8.29068 20.1467 8.9436 23.1699C9.59653 26.1885 11.3094 28.7585 13.7642 30.3992C15.4941 31.555 17.4783 32.1669 19.5092 32.1669H19.6406C21.663 32.1397 23.6302 31.5142 25.3346 30.3629C25.8307 30.0275 25.9748 29.3295 25.6611 28.7992C25.3474 28.2689 24.6944 28.1148 24.1984 28.4502C22.8289 29.3794 21.2432 29.8825 19.6152 29.9052C17.9447 29.9278 16.3124 29.4338 14.8878 28.4865C12.9078 27.163 11.5299 25.0962 11.0084 22.6668C10.4869 20.2283 10.8769 17.7264 12.115 15.6097C14.6673 11.245 20.0688 9.91241 24.1517 12.641C25.5763 13.5928 26.7041 14.948 27.4164 16.5616C28.1117 18.1343 28.383 19.8793 28.2007 21.6017C28.1371 22.2226 28.5526 22.7846 29.1377 22.8526C29.7186 22.9206 30.2443 22.4764 30.3079 21.851C30.5326 19.7162 30.1934 17.5496 29.3328 15.5961Z" fill="white"/>
<path d="M23.1978 16.6249C22.7823 16.1808 22.1124 16.1808 21.6969 16.6249L19.5176 18.9592L17.3384 16.6295C16.9229 16.1853 16.253 16.1853 15.8375 16.6295C15.422 17.0737 15.422 17.7898 15.8375 18.234L18.0168 20.5637L15.8375 22.8934C15.422 23.3375 15.422 24.0537 15.8375 24.4978C16.0453 24.7199 16.3166 24.8287 16.5879 24.8287C16.8593 24.8287 17.1306 24.7199 17.3384 24.4978L19.5176 22.1682L21.6969 24.4978C21.9046 24.7199 22.176 24.8287 22.4473 24.8287C22.7187 24.8287 22.99 24.7199 23.1978 24.4978C23.6133 24.0537 23.6133 23.3375 23.1978 22.8934L21.0185 20.5591L23.1978 18.2294C23.6133 17.7853 23.6133 17.0691 23.1978 16.6249Z" fill="white"/>
</g>
<defs>
<clipPath id="clip0_1402_7">
<rect width="21.7077" height="23.2063" fill="white" transform="translate(8.66357 8.95593)"/>
</clipPath>
</defs>
</svg>
