<svg width="21" height="19" viewBox="0 0 21 19" fill="none" xmlns="http://www.w3.org/2000/svg">
<path d="M18.4256 9.18729V5.40804C18.4256 5.16848 18.3304 4.93873 18.161 4.76933C17.9916 4.59994 17.7619 4.50477 17.5223 4.50477H3.07014C2.83058 4.50477 2.60083 4.40961 2.43144 4.24021C2.26204 4.07082 2.16688 3.84107 2.16688 3.60151C2.16688 3.36195 2.26204 3.1322 2.43144 2.96281C2.60083 2.79341 2.83058 2.69825 3.07014 2.69825H17.5223C17.7619 2.69825 17.9916 2.60308 18.161 2.43369C18.3304 2.26429 18.4256 2.03455 18.4256 1.79499C18.4256 1.55543 18.3304 1.32568 18.161 1.15628C17.9916 0.986888 17.7619 0.891724 17.5223 0.891724H3.07014C2.35146 0.891724 1.66221 1.17722 1.15403 1.6854C0.645846 2.19359 0.360352 2.88283 0.360352 3.60151V16.2472C0.360352 16.9659 0.645846 17.6551 1.15403 18.1633C1.66221 18.6715 2.35146 18.957 3.07014 18.957H17.5223C17.7619 18.957 17.9916 18.8618 18.161 18.6924C18.3304 18.523 18.4256 18.2933 18.4256 18.0537V14.2745C18.9536 14.0905 19.4113 13.7468 19.7351 13.291C20.059 12.8353 20.233 12.29 20.233 11.7309C20.233 11.1718 20.059 10.6265 19.7351 10.1707C19.4113 9.71493 18.9536 9.37123 18.4256 9.18729V9.18729ZM16.6191 17.1504H3.07014C2.83058 17.1504 2.60083 17.0553 2.43144 16.8859C2.26204 16.7165 2.16688 16.4867 2.16688 16.2472V6.1451C2.45615 6.25208 2.76173 6.3083 3.07014 6.3113H16.6191V9.02109H13.9093C13.1906 9.02109 12.5014 9.30658 11.9932 9.81476C11.485 10.3229 11.1995 11.0122 11.1995 11.7309C11.1995 12.4496 11.485 13.1388 11.9932 13.647C12.5014 14.1552 13.1906 14.4407 13.9093 14.4407H16.6191V17.1504ZM17.5223 12.6341H13.9093C13.6697 12.6341 13.44 12.539 13.2706 12.3696C13.1012 12.2002 13.006 11.9704 13.006 11.7309C13.006 11.4913 13.1012 11.2616 13.2706 11.0922C13.44 10.9228 13.6697 10.8276 13.9093 10.8276H17.5223C17.7619 10.8276 17.9916 10.9228 18.161 11.0922C18.3304 11.2616 18.4256 11.4913 18.4256 11.7309C18.4256 11.9704 18.3304 12.2002 18.161 12.3696C17.9916 12.539 17.7619 12.6341 17.5223 12.6341Z" fill="#969BA0"/>
</svg>
