<?xml version="1.0" standalone="no"?>
<!DOCTYPE svg PUBLIC "-//W3C//DTD SVG 1.1//EN" "http://www.w3.org/Graphics/SVG/1.1/DTD/svg11.dtd" >
<svg xmlns="http://www.w3.org/2000/svg" xmlns:xlink="http://www.w3.org/1999/xlink" version="1.1">
<metadata>
Created by FontForge 20170731 at Mon Nov 28 11:39:52 2022
 By Aleksey,,,
Copyright (c) 2019 by Jason Vandenberg. All rights reserved. |DCNT
</metadata>
<defs>
<font id="Stash-Bold" horiz-adv-x="1122" >
  <font-face 
    font-family="Stash Bold"
    font-weight="700"
    font-style="italic"
    font-stretch="normal"
    units-per-em="2048"
    panose-1="0 0 8 0 0 0 0 0 0 0"
    ascent="1507"
    descent="-541"
    x-height="856"
    cap-height="1503"
    bbox="-6425 -803 7057 2030"
    underline-thickness="102"
    underline-position="-307"
    slope="-25"
    unicode-range="U+0020-2212"
  />
<missing-glyph horiz-adv-x="870" 
d="M-117 33l641 1380q9 21 35 21h676q14 0 20 -10t0 -23l-641 -1381q-9 -20 -34 -20h-676q-14 0 -20.5 10t-0.5 23zM-25 74h588l600 1286h-588z" />
    <glyph glyph-name="f_f" unicode="ff" horiz-adv-x="1536" 
d="M-520 -567l-4 12q0 13 14 27q63 55 107 118q37 53 94 177l340 725l153 327q135 289 299 498q159 203 332 203q72 0 109 -46.5t37 -132.5q2 -97 -49.5 -234.5t-139 -277t-215 -272.5t-264.5 -215q18 -172 149 -172q116 0 207 104q96 109 150 218l225 477q140 297 305 510
q166 211 338 211q68 0 103.5 -46.5t35.5 -132.5q0 -155 -100 -376q-99 -226 -270 -441q-170 -214 -375 -348q21 -176 149 -176q116 0 207 104q96 109 150 218q9 20 35 20q20 0 37.5 -13.5t17.5 -31.5l-4 -16q-70 -155 -197 -279q-123 -123 -264 -123q-152 0 -221 154
l-178 -381q-166 -350 -385 -350q-90 0 -117 53q-1 2 -2 5l-1.5 4.5t-0.5 2.5q0 13 14 27q62 53 107 119q38 55 94 176l123 260q-101 -70 -201 -70q-79 0 -134.5 41t-86.5 113l-221 -473q-76 -163 -173 -255.5t-210 -92.5q-93 0 -119 51zM852 1358q0 43 -23 43
q-46 0 -110 -112.5t-195 -395.5l-28 -62l-142 -303q101 82 197.5 207t160.5 244t103 223t37 156zM1704 1526q0 45 -23 45q-46 0 -111.5 -113t-195.5 -391l-39 -86l-213 -455q161 140 293 342q139 213 211 387q78 191 78 271z" />
    <glyph glyph-name="t_t" unicode="tt" horiz-adv-x="1267" 
d="M-61 184q0 113 69 260l23 48l121 260h-80q-14 0 -20.5 9.5t-0.5 22.5l23 52q9 20 35 20h92l141 307q9 22 33 25l266 37h8q12 0 17.5 -8.5t-0.5 -22.5l-158 -338h326l167 363q9 21 33 24l266 37h9q26 0 14 -31l-182 -393h155q14 0 20.5 -10t0.5 -23l-23 -51
q-9 -20 -34 -20h-168l-164 -351q-41 -90 -41 -149q0 -42 20 -65t56 -23q73 0 169.5 88t165.5 240q9 20 35 20q20 0 38 -13.5t18 -31.5q0 -1 -1 -3t-2 -6t-2 -7q-97 -211 -264.5 -346.5t-322.5 -135.5q-105 0 -165.5 57t-60.5 160q-93 -102 -201.5 -159.5t-207.5 -57.5
q-104 0 -163.5 56t-59.5 159zM664 492l120 260h-325l-164 -351q-41 -90 -41 -149q0 -42 20 -65t56 -23q73 0 168.5 89.5t165.5 238.5z" />
    <glyph glyph-name=".notdef" horiz-adv-x="870" 
d="M-117 33l641 1380q9 21 35 21h676q14 0 20 -10t0 -23l-641 -1381q-9 -20 -34 -20h-676q-14 0 -20.5 10t-0.5 23zM-25 74h588l600 1286h-588z" />
    <glyph glyph-name=".null" horiz-adv-x="0" 
 />
    <glyph glyph-name="nonmarkingreturn" horiz-adv-x="682" 
 />
    <glyph glyph-name="space" unicode=" " horiz-adv-x="473" 
 />
    <glyph glyph-name="exclam" unicode="!" horiz-adv-x="679" 
d="M274 406l326 897q9 22 33 22h235q25 0 25 -18q0 -1 -4 -17l-508 -897q-14 -20 -33 -20h-51q-14 0 -20.5 10t-2.5 23zM80 94q0 67 55 119q55 55 125 55q51 0 83 -31t32 -79q0 -65 -56 -121q-56 -53 -124 -53q-51 0 -83 30.5t-32 79.5z" />
    <glyph glyph-name="quotedbl" unicode="&#x22;" horiz-adv-x="567" 
d="M160 940l155 444q10 23 33 23h209q17 0 23 -10.5t-2 -24.5l-271 -446q-13 -19 -35 -19h-90q-31 0 -22 33zM498 940l155 444q10 23 33 23h209q17 0 22.5 -10.5t-2.5 -24.5l-270 -446q-13 -19 -35 -19h-90q-31 0 -22 33z" />
    <glyph glyph-name="numbersign" unicode="#" horiz-adv-x="1169" 
d="M145 33l183 399h-217q-14 0 -20.5 10t-0.5 23l8 18q10 23 35 23h229l183 397h-215q-14 0 -20.5 10t-0.5 23l8 18q10 23 35 23h228l172 375q9 20 34 20h31q17 0 22.5 -10t-1.5 -23l-166 -362h332l172 375q9 20 34 20h31q17 0 22.5 -10t-1.5 -23l-166 -362h219q14 0 20 -10
t0 -23l-8 -18q-10 -23 -35 -23h-231l-184 -397h219q14 0 20 -10t0 -23l-8 -18q-10 -23 -35 -23h-229l-191 -412q-9 -20 -35 -20h-28q-17 0 -22.5 10t1.5 23l183 399h-332l-191 -412q-9 -20 -34 -20h-29q-17 0 -22.5 10t1.5 23zM453 506h333l183 397h-332z" />
    <glyph glyph-name="dollar" unicode="$" horiz-adv-x="1075" 
d="M205 -186q0 10 4 18l70 141q-105 25 -159 97t-54 170q0 112 66.5 201t158.5 89q48 0 74 -26t26 -66q0 -49 -37 -88t-92 -39q-20 0 -49 11q-18 -34 -18 -76q0 -59 38 -102t105 -50l229 469l-20 33q-52 79 -73 131t-21 117q0 156 117.5 259t281.5 103q25 0 31 -2l53 109
q9 20 33 20q18 0 18 -18q0 -9 -4 -17l-49 -100q95 -19 148 -81.5t53 -139.5q0 -65 -37 -108.5t-97 -43.5q-46 0 -70 24t-24 62q0 36 22 69t58 46q-22 62 -100 78l-172 -350q16 -27 45 -68q67 -101 96 -168.5t29 -144.5q0 -82 -38 -157.5t-102.5 -131.5t-155.5 -89.5
t-192 -33.5q-7 0 -69 4l-72 -147q-9 -21 -33 -21h-4q-14 0 -14 17zM637 360q0 80 -39 154l-207 -422q103 11 174.5 86t71.5 182zM688 805l146 301q-74 -7 -123 -65t-49 -132q0 -48 26 -104z" />
    <glyph glyph-name="percent" unicode="%" horiz-adv-x="1441" 
d="M317 -6l-12 6q-16 10 -16 20q0 8 8 19l590 737q-82 -55 -156 -55h-4q-65 -93 -152.5 -148t-179.5 -55q-89 0 -134.5 47.5t-45.5 134.5q-2 73 34 159.5t95 159t141.5 120t163.5 43.5q88 0 133 -48.5t45 -132.5q0 -88 -49 -192q73 0 168 80.5t256 277.5q12 15 23 15
q9 0 18 -6l12 -7q15 -9 15 -20q0 -13 -8 -21l-906 -1126q-9 -12 -22 -12q-9 0 -17 4zM696 147q-2 73 34 159.5t95 159t141.5 120t163.5 43.5q88 0 133.5 -48t45.5 -132q2 -98 -58.5 -212.5t-164 -195.5t-209.5 -76q-89 0 -135 48t-46 134zM1186 461q0 90 -68 90
q-51 5 -112.5 -67t-100.5 -168t-37 -162q0 -86 64 -86q53 -5 115 65.5t101.5 165.5t37.5 162zM623 764q-21 27 -21 72q0 55 31 109t72 67v2q0 90 -68 90q-51 5 -112.5 -67t-100.5 -168t-37 -162q0 -86 64 -86q42 0 87 39t85 104z" />
    <glyph glyph-name="ampersand" unicode="&#x26;" horiz-adv-x="1024" 
d="M584 -39q-115 -33 -250 -33q-201 0 -316.5 77.5t-115.5 223.5q0 142 110 253.5t328 217.5q-1 142 37.5 264t100 200t136.5 121.5t150 41.5q94 0 151.5 -57.5t57.5 -149.5q0 -225 -398 -426q6 -147 46 -289t104 -253q66 54 108 123t56 143q-24 -6 -49 -6q-46 0 -72.5 27
t-26.5 69q0 52 38.5 90.5t97.5 38.5q67 0 105 -48.5t38 -129.5q0 -102 -61.5 -212.5t-170.5 -187.5q97 -118 203 -118q62 0 115 26q19 8 22 8q15 0 15 -22q0 -56 -61 -103t-187 -47q-168 0 -311 158zM512 57q-128 199 -166 500q-178 -138 -178 -291q0 -100 70.5 -158.5
t177.5 -58.5q60 0 96 8zM827 1126q0 46 -18 72.5t-45 26.5q-60 0 -117.5 -115.5t-68.5 -290.5q125 70 187 143.5t62 163.5z" />
    <glyph glyph-name="quotesingle" unicode="'" horiz-adv-x="229" 
d="M160 940l155 444q10 23 33 23h209q17 0 23 -10.5t-2 -24.5l-271 -446q-13 -19 -35 -19h-90q-31 0 -22 33z" />
    <glyph glyph-name="parenleft" unicode="(" horiz-adv-x="716" 
d="M952 1524q11 0 21 -13q6 -9 6 -18q0 -11 -12 -20q-211 -174 -378 -410.5t-262.5 -501.5t-93.5 -506q0 -134 27 -254l2 -8q0 -20 -20 -26h-2l-17 -5q-14 0 -20 15q-70 177 -70 375q-4 360 221.5 738.5t579.5 625.5q11 8 18 8z" />
    <glyph glyph-name="parenright" unicode=")" horiz-adv-x="716" 
d="M-37 -244q-10 0 -20 13q-6 9 -6 18q0 11 12 20q211 174 377.5 410.5t262 501.5t93.5 506q0 134 -27 254l-2 8q0 20 21 26h2l16 5q15 0 21 -15q69 -175 69 -375q4 -362 -221 -739.5t-579 -624.5q-11 -8 -19 -8z" />
    <glyph glyph-name="asterisk" unicode="*" horiz-adv-x="722" 
d="M668 950l12 193l-160 -105q-9 -6 -16 -6q-14 0 -23 15l-14 24q-6 9 -6 16q0 13 16 23l172 86l-172 86q-24 12 -12 39l16 27q8 14 23 14q7 0 16 -6l160 -107l-12 193v4q0 24 26 24h31q30 0 27 -28l-13 -193l160 105q9 6 16 6q15 0 23 -14l16 -27q4 -8 4 -16q0 -13 -16 -23
l-170 -84l168 -86q24 -12 12 -37l-14 -26q-10 -17 -23 -17q-7 0 -16 6l-160 107l13 -193v-4q0 -24 -27 -24h-31q-29 0 -26 28z" />
    <glyph glyph-name="plus" unicode="+" horiz-adv-x="995" 
d="M492 285l67 348h-340q-13 0 -20.5 8.5t-5.5 22.5l6 28q2 12 10 19.5t20 7.5h346l68 342q6 26 31 26h33q29 0 26 -30l-65 -338h340q13 0 20.5 -8.5t5.5 -22.5l-6 -29q-3 -26 -31 -26h-346l-69 -352q-6 -27 -31 -27h-33q-13 0 -20.5 8.5t-5.5 22.5z" />
    <glyph glyph-name="comma" unicode="," horiz-adv-x="634" 
d="M4 -305q-14 0 -22 14l-9 15q-4 8 -4 16q0 12 13 22q129 94 188 222q-54 0 -86.5 30t-32.5 80q0 66 53 119q52 55 119 55q60 0 92.5 -34.5t32.5 -92.5q0 -105 -91 -233t-237 -209z" />
    <glyph glyph-name="hyphen" unicode="-" horiz-adv-x="776" 
d="M170 440l33 72q9 20 35 20h438q14 0 20 -9.5t0 -22.5l-32 -72q-9 -20 -35 -20h-439q-14 0 -20 9.5t0 22.5z" />
    <glyph glyph-name="period" unicode="." horiz-adv-x="608" 
d="M49 94q0 67 55 119q55 55 125 55q51 0 83 -31t32 -79q0 -66 -55 -121q-56 -53 -125 -53q-51 0 -83 30.5t-32 79.5z" />
    <glyph glyph-name="slash" unicode="/" horiz-adv-x="653" 
d="M-207 -195q0 8 6 17l1168 1646q13 19 34 19h31q25 0 25 -19q0 -7 -6 -16l-1170 -1647q-12 -18 -35 -18h-28q-25 0 -25 18z" />
    <glyph glyph-name="zero" unicode="0" horiz-adv-x="1212" 
d="M100 291q0 185 107 389q110 210 285 348q182 141 385 141q157 0 239 -86.5t82 -236.5q0 -182 -108 -391q-109 -210 -289 -353q-181 -141 -383 -141q-157 0 -237.5 88t-80.5 242zM973 887q0 153 -109 153q-104 0 -211 -131t-178 -313q-72 -185 -72 -309q0 -156 109 -156
q100 0 207 131q111 136 180 313q74 183 74 312z" />
    <glyph glyph-name="one" unicode="1" horiz-adv-x="870" 
d="M182 33l346 743q-152 -86 -227 -86q-41 0 -64.5 19.5t-23.5 52.5q0 6 4 26q7 20 31 23q220 40 600 326q18 12 37 12h88q14 0 20 -10t0 -23l-510 -1096q-9 -20 -34 -20h-246q-14 0 -20.5 10t-0.5 23z" />
    <glyph glyph-name="two" unicode="2" horiz-adv-x="1138" 
d="M313 8q-96 41 -139 41q-33 0 -96 -29q-61 -28 -94 -28q-35 0 -54.5 16t-19.5 45t12 41q69 95 158.5 168t234.5 160l58 35q175 106 252 161q107 75 174 166t67 185q0 60 -39 93.5t-112 33.5q-87 0 -156 -48t-100 -118q41 -1 63.5 -25.5t22.5 -62.5q0 -53 -41 -94t-105 -41
q-56 0 -86 33.5t-30 90.5q-2 58 32.5 122.5t95 120t157 91t206.5 33.5q168 0 268.5 -79t100.5 -204q0 -119 -82 -210q-80 -89 -195 -154q-121 -66 -311 -148l-74 -30q-196 -94 -278 -150q85 27 174 27q100 0 246 -41q71 -23 131 -23q77 0 155 37q8 4 19 4q17 0 14 -18
q-20 -117 -122.5 -191.5t-248.5 -74.5q-112 0 -258 65z" />
    <glyph glyph-name="three" unicode="3" horiz-adv-x="1204" 
d="M-57 39q0 123 77.5 222t182.5 99q49 0 75.5 -25t26.5 -65q0 -53 -39.5 -95t-97.5 -42q-36 0 -66 23q-24 -50 -24 -109q0 -78 49.5 -127t144.5 -49q106 -3 200.5 68t146 173.5t49.5 198.5q0 115 -68 168q-98 -4 -117 -4q-50 0 -76 14.5t-26 38.5q0 26 30 45t76 19
q15 0 97 -4q148 38 242 145.5t94 214.5q0 67 -41 107.5t-115 40.5q-88 0 -156.5 -47t-101.5 -117q42 -6 64 -31t22 -61q0 -52 -42 -92.5t-106 -40.5q-56 0 -86 32.5t-30 89.5q0 61 34 125t94.5 119t156.5 90t208 35q161 0 260 -87.5t99 -211.5q0 -121 -98.5 -226
t-276.5 -157q145 -93 145 -260q2 -89 -45.5 -181.5t-129.5 -167.5t-203.5 -121.5t-254.5 -43.5q-184 0 -279 81.5t-95 215.5z" />
    <glyph glyph-name="four" unicode="4" horiz-adv-x="1140" 
d="M377 -170l160 348h-586q-25 0 -31 25l-4 12l-2 10q0 16 16 29q596 395 703 917q3 22 22 31q18 6 39 6q49 0 76 -33.5t27 -91.5q4 -102 -82 -251.5t-222.5 -293.5t-281.5 -241h381l250 539q9 20 35 20h245q14 0 20.5 -10t0.5 -23l-244 -526h123q14 0 20 -10t0 -23l-28 -63
q-10 -23 -35 -23h-135l-166 -360q-9 -21 -35 -21h-246q-14 0 -20 10t0 23z" />
    <glyph glyph-name="five" unicode="5" horiz-adv-x="1202" 
d="M-59 68q0 119 72 212t175 93q46 0 70.5 -24t24.5 -64q0 -53 -40 -96.5t-98 -43.5q-33 0 -57 17q-18 -40 -18 -90q0 -76 48.5 -125t137.5 -49q76 -3 151 39t128 107t85 143.5t31 146.5q0 91 -52.5 146t-152.5 55q-97 0 -182 -58q-18 -11 -37 -8l-37 6q-30 10 -18 37
l293 621q9 24 35 18q239 -57 428 -57q168 0 293 67q8 4 16 4q18 0 18 -22q-2 -51 -22 -99t-58.5 -89t-102 -66t-142.5 -25q-157 0 -406 97l-162 -343q109 44 230 44q175 0 268.5 -83t93.5 -221q1 -64 -21 -134.5t-63 -136t-102 -125t-131.5 -103t-157.5 -68t-176 -22.5
q-176 0 -269 84t-93 215z" />
    <glyph glyph-name="six" unicode="6" horiz-adv-x="1228" 
d="M115 297q0 210 127 461q130 251 331 422q205 172 418 172q133 0 208 -69t75 -161q0 -68 -39.5 -113.5t-104.5 -45.5q-46 0 -71 24t-25 64t26.5 78t67.5 51q-39 61 -120 61q-107 0 -220 -131q-111 -126 -215 -332q95 68 230 68q148 0 224.5 -78t76.5 -211
q2 -80 -28 -167.5t-88.5 -168t-135 -145t-177 -101.5t-206.5 -34q-176 0 -265 94t-89 262zM840 588q0 69 -32 108t-93 39q-162 0 -285 -280q-68 -177 -68 -275q0 -123 103 -123q86 0 174 88q85 85 143 217q58 125 58 226z" />
    <glyph glyph-name="seven" unicode="7" horiz-adv-x="1021" 
d="M121 -33q0 105 94 242.5t287 292.5l418 352q-32 4 -168 35q-139 39 -234 39q-64 0 -122 -18.5t-128 -65.5q-9 -6 -18 -6q-16 0 -19 22q-5 59 13 119.5t55 113t101 86t143 33.5q80 0 149 -25.5t168 -84.5q67 -39 107.5 -56.5t74.5 -17.5q65 0 142 59q11 11 22 11
q9 0 17 -8q28 -28 28 -70q0 -44 -34 -78l-525 -522q-260 -254 -260 -455q0 -46 14 -92q1 -3 2 -6.5t2 -5t1 -2.5q0 -12 -11 -23q-50 -47 -133 -47q-79 0 -132.5 47.5t-53.5 130.5z" />
    <glyph glyph-name="eight" unicode="8" horiz-adv-x="1155" 
d="M20 205q0 121 70 215q68 91 171.5 162.5t275.5 156.5q-54 84 -79.5 150t-25.5 135q0 89 40.5 163.5t107 122.5t149.5 74.5t170 26.5q139 0 234 -65q96 -66 96 -183q0 -115 -92.5 -208t-286.5 -199q85 -136 119.5 -216t34.5 -161q3 -78 -33.5 -152t-100 -130t-144.5 -98.5
t-170 -64t-173 -20.5q-163 0 -263 76t-100 215zM707 367q0 64 -24 125.5t-75 138.5q-218 -112 -318 -205.5t-100 -210.5q0 -82 52 -126t135 -44q81 0 155.5 38t124.5 113.5t50 170.5zM1069 1165q0 65 -45.5 103.5t-114.5 38.5q-86 0 -146.5 -56t-60.5 -151q0 -88 82 -236
q144 77 214.5 148.5t70.5 152.5z" />
    <glyph glyph-name="nine" unicode="9" horiz-adv-x="1234" 
d="M23 -33q0 74 41.5 126t107.5 52q46 0 71 -25t25 -63q0 -39 -27 -77.5t-67 -51.5q38 -59 119 -59q108 0 221 131q116 131 217 332q-95 -68 -231 -68q-148 0 -225.5 77.5t-77.5 209.5q-2 80 28.5 167.5t89.5 168t136 145t177.5 101.5t205.5 34q176 0 266 -95.5t90 -264.5
q0 -211 -129 -463q-127 -249 -336 -424q-204 -174 -426 -174q-131 0 -203.5 63t-72.5 158zM872 655q68 157 68 279q0 127 -104 127q-80 6 -170.5 -88t-148 -223t-54.5 -226q0 -71 31.5 -111t93.5 -40q164 0 284 282z" />
    <glyph glyph-name="colon" unicode=":" horiz-adv-x="610" 
d="M49 94q0 67 55 119q55 55 125 55q51 0 83 -31t32 -79q0 -66 -55 -121q-56 -53 -125 -53q-51 0 -83 30.5t-32 79.5zM295 618q0 67 55 119q56 56 125 56q51 0 83 -31.5t32 -79.5q0 -66 -55 -121q-56 -53 -125 -53q-51 0 -83 30.5t-32 79.5z" />
    <glyph glyph-name="semicolon" unicode=";" horiz-adv-x="634" 
d="M4 -305q-14 0 -22 14l-9 15q-4 8 -4 16q0 12 13 22q129 94 188 222q-54 0 -86.5 30t-32.5 80q0 66 53 119q52 55 119 55q60 0 92.5 -34.5t32.5 -92.5q0 -105 -91 -233t-237 -209zM295 618q0 67 55 119q56 56 125 56q51 0 83 -31.5t32 -79.5q0 -66 -55 -121
q-56 -53 -125 -53q-51 0 -83 30.5t-32 79.5z" />
    <glyph glyph-name="less" unicode="&#x3c;" horiz-adv-x="1005" 
d="M838 303l-633 313q-22 11 -19 35l11 43q6 22 24 31l760 315q3 1 6.5 2t5 1.5t2.5 0.5q20 0 23 -22l4 -21l2 -10q0 -20 -20 -26l-703 -293l586 -289q16 -10 16 -23q0 -7 -6 -16l-20 -31q-8 -14 -23 -14z" />
    <glyph glyph-name="equal" unicode="=" horiz-adv-x="1079" 
d="M281 854l6 29q3 26 30 26h758q14 0 21 -8.5t6 -21.5l-6 -29q-1 -12 -10 -19.5t-21 -7.5h-758q-13 0 -20.5 8.5t-5.5 22.5zM205 465l6 29q3 26 31 26h757q13 0 21 -8.5t6 -22.5l-6 -28q-1 -12 -10 -19.5t-21 -7.5h-758q-13 0 -20.5 8.5t-5.5 22.5z" />
    <glyph glyph-name="greater" unicode="&#x3e;" horiz-adv-x="1007" 
d="M240 299q-20 0 -23 23l-4 20l-2 10q0 21 20 27l703 293l-586 289q-16 10 -16 22q0 7 6 16l20 31q8 14 23 14l16 -4l633 -313q22 -11 19 -35l-11 -43q-6 -22 -24 -31l-760 -315q-3 -1 -6.5 -2t-5 -1.5t-2.5 -0.5z" />
    <glyph glyph-name="question" unicode="?" horiz-adv-x="1148" 
d="M455 406q33 104 102 182q70 76 193 184q88 73 137 125q119 119 119 256q0 81 -41 127.5t-115 46.5q-76 0 -136 -49.5t-85 -120.5q43 0 67.5 -24.5t24.5 -63.5q0 -53 -41 -94t-105 -41q-59 0 -91.5 38t-32.5 101q0 59 30.5 120.5t86 114t143 86t190.5 33.5
q166 0 266.5 -78.5t100.5 -207.5q0 -86 -45 -154q-40 -65 -101 -116.5t-190 -139.5q-147 -103 -227 -172q-85 -73 -140 -166q-9 -20 -33 -20h-53q-17 0 -23 9.5t-1 23.5zM289 94q0 67 55 119q55 55 125 55q51 0 83 -31t32 -79q0 -65 -56 -121q-56 -53 -125 -53
q-51 0 -82.5 30.5t-31.5 79.5z" />
    <glyph glyph-name="at" unicode="@" horiz-adv-x="1914" 
d="M197 229q0 238 143 488q143 253 391 422q247 168 551 168q139 0 246.5 -38t173 -105t98.5 -153t33 -188q2 -122 -46 -251.5t-127.5 -233t-192 -167.5t-228.5 -60q-81 0 -125.5 43.5t-50.5 115.5q-135 -159 -297 -159q-103 0 -158 62t-55 169q-1 60 17.5 129.5t53 136.5
t85 128t108.5 107t128 72t140 23q141 0 199 -94l43 51q13 16 35 16h168q17 0 22.5 -9.5t-0.5 -22.5l-161 -371q-45 -96 -45 -164q0 -38 17 -60t48 -22q71 -5 150.5 81.5t131 221.5t48.5 258q0 184 -113 303q-115 121 -358 121q-270 0 -496 -160q-222 -154 -356 -395
q-129 -237 -129 -454q0 -198 112.5 -313t329.5 -115q168 0 369 77q2 2 12 2q19 0 25 -18q1 -3 2 -6.5t1.5 -5t0.5 -2.5q0 -15 -23 -25q-215 -84 -401 -84q-253 0 -386.5 130t-133.5 351zM1128 541l93 202q-24 76 -91 76q-65 5 -141.5 -76.5t-125.5 -191.5t-46 -186
q0 -93 72 -93q116 0 239 269z" />
    <glyph glyph-name="A" unicode="A" horiz-adv-x="1449" 
d="M-354 -6q0 23 2 29q3 23 30 26q64 7 125 36t125.5 85.5t123.5 120.5t141 164q11 12 29.5 35t27.5 32l397 471q124 147 240 260q262 246 540 246q84 0 189 -31q13 -1 18.5 -12.5t-0.5 -23.5l-489 -1051q-53 -115 -53 -178q0 -62 43 -62q66 0 171 101.5t175 249.5
q9 20 35 20q20 0 37.5 -13.5t17.5 -31.5l-4 -16q-101 -214 -274.5 -356t-334.5 -142q-92 0 -142 45.5t-50 136.5q0 118 84 297h-473l-17 -20l-43 -52q-213 -254 -335 -364.5t-218 -110.5q-56 0 -87 30t-31 79zM481 555h426l377 803q-112 -40 -208.5 -122.5t-209.5 -221.5z
" />
    <glyph glyph-name="B" unicode="B" horiz-adv-x="1622" 
d="M440 10l-53 25q-111 -66 -221 -66q-70 0 -109 26t-39 66q0 56 62.5 99t157.5 43q33 0 63 -6q51 89 133 288q26 66 82 193q102 217 172 332q76 126 163.5 197t199.5 91l8 2q17 0 26 -18l2 -2q5 -10 5 -16q0 -12 -11 -23q-33 -36 -61 -96q-23 -51 -80 -193
q-38 -101 -82 -202h84q94 0 175 31.5t135 83t85 116.5t31 133q0 124 -102 207.5t-291 83.5q-122 3 -238.5 -43t-200.5 -121.5t-134.5 -174t-47.5 -196.5q0 -93 39 -172q1 -3 2 -6.5t1.5 -5t0.5 -2.5q0 -20 -22 -20q-107 -8 -168.5 68.5t-61.5 178.5q0 127 103 269t291 237
q194 96 442 96q133 0 243.5 -23t185.5 -62.5t127 -92t75.5 -111t23.5 -120.5q0 -141 -117.5 -253t-332.5 -155q128 -38 197 -117.5t69 -181.5q2 -85 -47.5 -169.5t-136.5 -152.5t-218.5 -109.5t-279.5 -39.5q-96 0 -165.5 19t-164.5 65zM1159 434q0 87 -64 140t-184 53h-106
q-82 -179 -153 -299t-156 -205q75 -36 124 -51t105 -15q87 -2 170 33.5t140.5 91t91.5 123.5t32 129z" />
    <glyph glyph-name="C" unicode="C" horiz-adv-x="1230" 
d="M63 379q0 231 140 502q141 268 368 448q232 182 478 182q155 0 237 -76.5t82 -185.5q0 -86 -50 -145.5t-128 -59.5q-52 0 -79.5 27t-27.5 72q0 48 31 89t82 58q-5 43 -39.5 71t-89.5 28q-149 0 -303 -160q-156 -162 -256 -389q-100 -226 -100 -418q0 -150 70.5 -233
t209.5 -83q161 0 331 118t243 268q9 20 34 20q20 0 38 -13.5t18 -31.5l-4 -16q-43 -95 -124 -187.5t-186 -168t-237 -121.5t-262 -44q-235 0 -355.5 120t-120.5 329z" />
    <glyph glyph-name="D" unicode="D" horiz-adv-x="1660" 
d="M444 -12l-57 24q-106 -69 -221 -69q-70 0 -109 26t-39 68q0 54 62 96.5t158 42.5q9 0 59 -4q48 84 131 295l43 102q37 88 47 109q91 202 170 330q76 127 163.5 198.5t199.5 91.5l8 2q17 0 26 -18l2 -2q5 -10 5 -16q0 -12 -11 -23q-29 -32 -59 -96q-14 -30 -78 -184
l-117 -283q-97 -219 -168.5 -348t-160.5 -224q85 -36 159 -36q167 0 338 151q173 156 279 377q108 225 108 420q0 182 -100 284.5t-297 102.5q-124 3 -243 -43t-204.5 -121.5t-136 -174t-47.5 -196.5q0 -93 39 -172q1 -3 2 -6.5t1.5 -5t0.5 -2.5q0 -20 -22 -20
q-107 -8 -168.5 68.5t-61.5 178.5q0 127 103 269q107 144 295 237q197 96 444 96q134 0 244 -29.5t187.5 -82.5t130 -127t77.5 -161t25 -187q0 -229 -123 -463q-124 -235 -338 -385q-217 -152 -475 -152q-80 0 -135.5 14t-135.5 48z" />
    <glyph glyph-name="E" unicode="E" horiz-adv-x="1157" 
d="M-39 287q0 157 131.5 297t362.5 202q-136 95 -136 258q-2 85 41.5 169t120 151t192 108t247.5 39q172 0 264 -80.5t92 -191.5q0 -82 -48 -138.5t-124 -56.5q-52 0 -79.5 27t-27.5 72q0 48 32.5 91t82.5 56q-11 45 -56 73t-120 28q-75 2 -145 -31.5t-118 -87.5t-75.5 -121
t-26.5 -131q0 -62 27.5 -114.5t77.5 -84.5q94 4 106 4q59 0 93 -17.5t34 -43.5q0 -27 -33.5 -46.5t-87.5 -19.5q-96 0 -184 21q-141 -48 -221 -152q-82 -104 -82 -217t79 -182.5t224 -69.5q188 0 346.5 114.5t237.5 279.5q9 20 35 20q20 0 37.5 -13.5t17.5 -31.5l-4 -16
q-41 -90 -120 -181.5t-184 -171t-240 -128.5t-271 -46q-234 0 -366 104t-132 259z" />
    <glyph glyph-name="F" unicode="F" horiz-adv-x="1261" 
d="M342 35q0 128 90 319l131 275h-145q-17 0 -23 9.5t0 23.5l31 69q10 23 35 23h162q173 348 344 473l-58 26q-122 56 -189.5 77.5t-141.5 21.5q-151 0 -238.5 -102.5t-87.5 -245.5q0 -103 41 -183l4 -16q0 -18 -23 -21q-98 -7 -158.5 60.5t-60.5 179.5q-1 65 19.5 133
t66 133t109 115.5t156 80t200.5 27.5q97 0 176 -20.5t193 -67.5q101 -42 162 -58.5t131 -16.5q144 0 288 108q11 8 19 8q14 0 20 -18q9 -21 9 -51q0 -101 -90 -174.5t-238 -73.5q-77 0 -150 20q-44 -72 -98 -196l-59 -137l-35 -82h272q17 0 23 -10t0 -23l-31 -70
q-9 -22 -35 -22h-286l-172 -369q-53 -114 -75.5 -205t-27.5 -196q0 -12 -7.5 -20.5t-19.5 -8.5q-112 -5 -172.5 46.5t-60.5 158.5z" />
    <glyph glyph-name="G" unicode="G" horiz-adv-x="1396" 
d="M27 -434q0 259 632 403l121 262q-177 -180 -395 -180q-162 0 -245 89.5t-83 248.5q0 218 144 485q146 271 377 453q236 184 493 184q87 0 157.5 -24t113.5 -63.5t65.5 -88t22.5 -100.5q0 -80 -47 -135.5t-121 -55.5q-52 0 -80.5 27.5t-28.5 71.5q0 45 30 86.5t77 58.5
q-11 44 -55.5 72.5t-108.5 28.5q-163 0 -328 -168q-166 -172 -272 -402q-109 -236 -109 -399q0 -93 39 -144t115 -51q99 0 213 111q116 116 258 391q10 23 32 23h238q14 0 20.5 -10t0.5 -23l-297 -639q147 64 248.5 161t172.5 253q9 20 35 20q20 0 38 -13.5t18 -31.5
q0 -1 -1 -3t-2 -6t-2 -7q-104 -216 -241 -324q-135 -108 -328 -178q-75 -161 -162 -293q-86 -135 -208 -217t-271 -82q-128 0 -202 56t-74 153zM608 -141q-196 -46 -319 -123q-121 -77 -121 -160q0 -41 30 -66.5t78 -25.5q94 0 168 90.5t164 284.5z" />
    <glyph glyph-name="H" unicode="H" horiz-adv-x="1654" 
d="M973 135q0 116 84 295l80 170h-357l-270 -580q-9 -20 -35 -20h-256q-14 0 -20 10t0 23l479 1026q40 85 79.5 137t94.5 88q-51 10 -107 29q-68 20 -106 27.5t-86 7.5q-126 0 -200 -76.5t-74 -196.5q0 -94 45 -180q1 -3 2 -6.5t1.5 -5t0.5 -2.5q0 -21 -23 -21
q-102 -7 -162.5 61t-60.5 179q0 161 128 278t314 117q59 0 110.5 -12.5t141.5 -44.5q99 -35 151.5 -47.5t116.5 -12.5q48 0 84 4h11q16 0 16 -10q0 -5 -8 -18q-35 -48 -109 -199l-186 -399h356l277 596q9 20 35 20h256q14 0 20 -10t0 -23l-446 -958q-54 -111 -54 -178
q0 -29 12.5 -45.5t32.5 -16.5q66 0 170.5 101.5t174.5 249.5q9 20 34 20q20 0 38 -13.5t18 -31.5l-4 -16q-98 -213 -272.5 -355.5t-334.5 -142.5q-92 0 -142 45.5t-50 136.5z" />
    <glyph glyph-name="I" unicode="I" horiz-adv-x="966" 
d="M272 -47q-130 -62 -249 -62q-114 0 -177 48t-63 124q0 41 18 78q7 17 19 17t22 -13q55 -61 150 -61q114 0 227 82q-6 61 -6 127q0 262 88 545q87 281 234 475q144 190 307 190q96 0 145 -71t49 -201q0 -179 -88 -418q-89 -239 -239 -459q-152 -220 -332 -342
q26 -78 84 -129q18 -15 18 -37q0 -21 -15 -37t-38 -16t-47 17q-68 50 -107 143zM795 1284q0 70 -35 70q-80 0 -182 -178q-101 -176 -172 -437q-70 -253 -70 -471q123 129 231 334q103 195 166 391q62 195 62 291z" />
    <glyph glyph-name="J" unicode="J" horiz-adv-x="1120" 
d="M-203 -440q-1 56 23.5 124t81 146t137.5 151.5t203 142.5t266 116l317 686q103 220 103 338q0 110 -90 110q-99 0 -193 -110q-99 -116 -158 -279q-61 -168 -61 -326q0 -115 33 -194q2 -2 2 -12q0 -25 -27 -19q-113 18 -172 102.5t-59 215.5q0 163 88 338q88 177 244 294
q155 119 346 119q152 0 226.5 -79t74.5 -224q0 -185 -121 -450l-221 -476q120 22 191 68.5t120 149.5q9 20 35 20q20 0 37.5 -13.5t17.5 -31.5l-4 -16q-51 -107 -119 -164q-65 -53 -137 -78.5t-193 -46.5l-77 -166q-127 -271 -285 -455q-156 -184 -383 -184
q-115 0 -180.5 55.5t-65.5 147.5zM346 -109l105 224q-119 -49 -240 -147t-198.5 -206.5t-73.5 -183.5q0 -43 22.5 -68.5t63.5 -25.5q62 0 118 59q59 59 99 135q38 72 104 213z" />
    <glyph glyph-name="K" unicode="K" horiz-adv-x="1597" 
d="M944 315q-4 120 -10 162q-6 66 -38 105t-91 39h-17l-278 -601q-9 -20 -35 -20h-254q-14 0 -20 10t0 23l475 1024q41 87 80 138.5t96 86.5q-52 8 -109 29q-74 21 -109 28t-81 7q-127 0 -200.5 -76.5t-73.5 -196.5q0 -94 45 -180q1 -3 2 -6.5t1.5 -5t0.5 -2.5
q0 -21 -23 -21q-102 -7 -162.5 61t-60.5 179q0 161 126.5 278t313.5 117q62 0 117.5 -13.5t136.5 -45.5q99 -35 151 -47.5t115 -12.5q40 0 84 6h9q16 0 16 -10q0 -9 -6 -18q-58 -81 -109 -199l-190 -408q106 9 192 66q98 64 158 133q65 74 162 203q114 162 190.5 229.5
t165.5 67.5q103 0 133 -98q2 -2 2 -11q0 -17 -18 -26q-109 -56 -174 -121q-76 -72 -162 -180q-97 -112 -129 -146q-127 -130 -295 -188q46 -23 78 -53.5t50.5 -63t29 -79t14 -87t4.5 -102.5q2 -100 15.5 -141.5t54.5 -41.5q59 0 138.5 95.5t172.5 290.5q9 20 35 20
q20 0 37.5 -13.5t17.5 -31.5l-4 -16q-131 -276 -259 -404.5t-275 -128.5q-106 0 -158 55q-47 52 -61.5 126.5t-16.5 215.5z" />
    <glyph glyph-name="L" unicode="L" horiz-adv-x="1249" 
d="M254 31q-98 -29 -193 -29q-76 0 -118.5 31t-42.5 80q0 52 50.5 88.5t133.5 36.5q60 0 131 -21q47 45 87.5 111.5t90.5 175.5q-134 30 -205 122t-71 216q0 120 66.5 213.5t160.5 93.5q25 0 25 -21l-4 -16q-56 -118 -56 -227q0 -87 38.5 -150.5t109.5 -87.5
q174 375 366 615q199 249 420 249q92 0 139.5 -47t47.5 -131q2 -91 -56 -215t-153 -242t-229 -216.5t-269 -135.5q-132 -273 -285 -395q205 -86 387 -86q75 0 154 33q12 4 20 4q15 0 15 -10q-10 -97 -92.5 -173.5t-210.5 -76.5q-99 0 -179 30q-74 27 -131 65.5t-147 115.5z
M1298 1337q0 66 -47 66q-74 0 -183.5 -177.5t-268.5 -533.5q101 43 197.5 130t161.5 181.5t103.5 185t36.5 148.5z" />
    <glyph glyph-name="M" unicode="M" horiz-adv-x="2009" 
d="M-88 14l-2 9q0 18 22 24q128 41 254 182q130 145 234 340l250 465l43 84q41 82 62 119t46 66q-36 7 -65 16q-122 31 -201 31q-126 0 -200 -76.5t-74 -196.5q0 -93 43 -178q4 -8 4 -16q0 -19 -21 -19q-102 -7 -162.5 61t-60.5 179q0 160 127.5 276.5t314.5 116.5
q62 0 120 -13.5t155 -45.5q92 -31 142 -43.5t101 -12.5q27 0 78 7h4q29 0 23 -29q-14 -82 -23 -174l-77 -727l716 897q13 16 37 16h326q14 0 20 -10t0 -23l-446 -958q-51 -108 -51 -178q0 -62 43 -62q66 0 171 101.5t175 249.5q9 20 35 20q20 0 37.5 -13.5t17.5 -31.5
l-4 -16q-101 -214 -274 -356t-334 -142q-93 0 -143 45.5t-50 136.5q0 116 84 295l299 643l-805 -1057q-10 -16 -35 -16h-118q-30 0 -27 31l115 1013l-291 -577q-124 -248 -258 -414q-129 -159 -242 -159q-58 0 -90.5 27.5t-44.5 92.5z" />
    <glyph glyph-name="N" unicode="N" horiz-adv-x="1656" 
d="M-92 14l-2 9q0 18 22 24q134 44 271.5 195.5t261.5 392.5l209 399l37 72q44 89 64.5 125.5t47.5 66.5q-56 13 -78 21q-103 33 -186 33q-126 0 -200 -76.5t-74 -196.5q0 -94 45 -180q1 -3 2 -6.5t1.5 -5t0.5 -2.5q0 -21 -23 -21q-102 -7 -162.5 61t-60.5 179
q0 161 128 278t314 117q63 0 119.5 -14.5t142.5 -48.5q63 -23 86.5 -31t59 -15.5t67.5 -7.5q45 0 76 7h6q27 0 21 -27q-4 -28 -4 -64q0 -18 3 -59t3 -51l53 -754l217 467q84 180 154 311q152 279 289 279q57 0 90 -28.5t45 -92.5l2 -8q0 -21 -25 -27q-112 -34 -215.5 -167.5
t-214.5 -370.5l-371 -795q-9 -22 -32 -25l-158 -24h-6q-22 0 -25 27l-80 1044l-243 -494q-152 -305 -290.5 -470.5t-252.5 -165.5q-58 0 -90.5 27.5t-44.5 92.5z" />
    <glyph glyph-name="O" unicode="O" horiz-adv-x="1359" 
d="M49 352q-2 159 70 345t203 347t284 236q74 108 182 169.5t238 61.5q174 0 263 -109t89 -300q0 -239 -129 -512q-128 -271 -346 -459q-216 -186 -469 -186q-190 0 -287.5 108.5t-97.5 298.5zM1143 1180q0 95 -31 147.5t-92 52.5q-73 4 -147 -66.5t-120.5 -185
t-43.5 -229.5q0 -43 10 -111l2 -10q-3 -23 -27 -20q-126 12 -166 129q-82 -142 -132 -297t-50 -273q0 -96 38 -150t112 -54q152 0 301 186q155 194 247 442q99 258 99 439z" />
    <glyph glyph-name="P" unicode="P" horiz-adv-x="1546" 
d="M115 -102l-4 12q0 13 14 27q78 71 113 122q40 60 96 179l205 440q102 217 172 332q76 128 162 199t198 89l8 2q18 0 27 -18l2 -2q6 -9 6 -18q0 -6 -10 -23q-29 -31 -54 -83.5t-69 -170.5l-47 -121q-47 -116 -82 -186l-68 -146h9q88 -3 178 31.5t163 95t130 135t87.5 157
t28.5 155.5q0 138 -99 218.5t-290 80.5q-130 3 -250.5 -42t-205 -119.5t-134 -172.5t-47.5 -197q0 -97 39 -176q1 -3 2 -6.5t1.5 -5t0.5 -2.5q0 -20 -22 -20q-105 -8 -167.5 68.5t-62.5 178.5q-2 75 35 159t111.5 163.5t174.5 143.5t235.5 101.5t281.5 34.5q152 0 276.5 -39
t204.5 -106t123 -153.5t43 -184.5q2 -113 -57 -221t-167 -195t-277 -139.5t-369 -50.5h-25l-102 -219q-76 -167 -177.5 -264t-219.5 -97q-90 0 -121 54z" />
    <glyph glyph-name="Q" unicode="Q" horiz-adv-x="1316" 
d="M438 -45q-83 -14 -157 -14q-83 0 -131 33.5t-48 84.5q0 49 47.5 84t126.5 35q83 0 162 -43q169 46 318 221q152 181 239 402q92 226 92 393q0 109 -40.5 169t-122.5 60q-131 0 -258 -151q-123 -151 -201 -371q-76 -216 -76 -399q0 -95 23 -166q1 -3 2 -6.5t1.5 -5
t0.5 -2.5q0 -19 -27 -19q-124 7 -188 89.5t-64 219.5q0 185 109 412q110 223 299 377q191 153 413 153q188 0 286.5 -112.5t98.5 -306.5q2 -111 -32.5 -239.5t-101.5 -256.5t-156 -242.5t-204.5 -206t-238.5 -139.5q108 -90 193.5 -131t195.5 -41q79 0 152 33q12 6 23 6
q15 0 12 -12q-10 -95 -92.5 -171.5t-208.5 -76.5q-106 0 -185 49q-77 50 -127 109q-62 77 -135 182z" />
    <glyph glyph-name="R" unicode="R" horiz-adv-x="1615" 
d="M965 315q-3 113 -11 164q-18 142 -131 142h-18l-281 -601q-9 -20 -32 -20h-256q-14 0 -20.5 10t-0.5 23l303 645q103 220 170 334q76 126 163.5 197t199.5 89l8 2q17 0 26 -18l2 -2q5 -10 5 -16q0 -14 -11 -25q-28 -30 -52.5 -82t-70.5 -172q-37 -101 -100 -250h74
q95 0 178 32.5t138 85t86.5 119.5t31.5 136q0 127 -102 212t-291 85q-122 3 -238.5 -43t-200 -121.5t-133.5 -174t-47 -196.5q0 -93 39 -172q1 -3 2 -6.5t1.5 -5t0.5 -2.5q0 -20 -22 -20q-107 -8 -168.5 68.5t-61.5 178.5q0 127 103 269t291 237q194 96 442 96
q166 0 295.5 -35.5t206 -95.5t115 -132t38.5 -152q0 -150 -134 -275t-378 -166q64 -39 93 -96q29 -56 38 -114t11 -158q5 -104 18 -143.5t53 -39.5q59 0 137.5 94t172.5 292q9 20 34 20q20 0 38 -13.5t18 -31.5l-4 -16q-130 -277 -257.5 -405t-275.5 -128q-107 0 -158 57
q-47 52 -61 124.5t-16 215.5z" />
    <glyph glyph-name="S" unicode="S" horiz-adv-x="1173" 
d="M-43 266q0 141 86 252t207 111q55 0 87 -30.5t32 -76.5q0 -59 -44 -102t-114 -43q-28 0 -57 16q-33 -50 -33 -112q0 -83 57.5 -141t153.5 -58q145 0 241.5 98.5t96.5 261.5q0 74 -18.5 141.5t-61.5 168.5q-44 114 -60 172.5t-16 126.5q-2 101 41 189.5t113.5 147t161 92
t182.5 31.5q156 0 243.5 -83t87.5 -193q0 -80 -45 -134t-118 -54q-52 0 -80.5 27t-28.5 71q0 43 28 83.5t72 59.5q-6 44 -47.5 72.5t-103.5 28.5q-102 0 -166 -76q-61 -76 -61 -176q0 -53 19 -110.5t69 -166.5q62 -127 90 -217t28 -184q0 -151 -82 -275.5t-224.5 -195
t-315.5 -70.5q-206 0 -313 96.5t-107 251.5z" />
    <glyph glyph-name="T" unicode="T" horiz-adv-x="1239" 
d="M322 35q0 128 90 319l112 236q119 251 216.5 403t205.5 234q-122 43 -192 60.5t-140 17.5q-157 0 -253.5 -92t-96.5 -228q0 -83 37 -164q1 -3 2 -6.5t1.5 -5t0.5 -2.5q0 -18 -24 -21q-102 -7 -161 61.5t-59 180.5q0 134 67.5 244t192.5 175.5t283 65.5q108 0 191 -24
t204 -74q94 -41 149 -57.5t112 -16.5q62 0 127.5 25.5t152.5 83.5q11 8 19 8q14 0 20 -18q6 -21 6 -43q0 -95 -88 -169.5t-237 -74.5q-66 0 -152 21q-65 -111 -180 -379q-10 -20 -38.5 -88.5t-51.5 -116.5l-152 -330q-53 -114 -76 -206t-28 -195q0 -29 -27 -29
q-112 -5 -172.5 46.5t-60.5 158.5z" />
    <glyph glyph-name="U" unicode="U" horiz-adv-x="1572" 
d="M250 190q0 147 102 353l228 450q71 139 71 240q0 64 -31.5 99.5t-93.5 35.5q-80 0 -148 -57.5t-105 -147t-37 -186.5q0 -100 38 -172q5 -10 5 -19q0 -15 -21 -18q-99 -7 -160 59.5t-61 176.5q-2 78 40 166.5t111 161.5t166 120t195 43q152 0 257 -98.5t105 -255.5
q0 -133 -80 -287l-186 -362q-61 -119 -61 -199q0 -94 78 -94q89 0 222 165t285 488l234 500q9 20 33 20h258q14 0 20 -10t0 -23l-446 -958q-54 -111 -54 -178q0 -29 12.5 -45.5t33.5 -16.5q66 0 170 101.5t174 249.5q9 20 34 20q20 0 38 -13.5t18 -31.5l-4 -16
q-98 -208 -272.5 -353t-323.5 -145q-89 0 -143 52t-54 149q0 41 8 77q-221 -280 -426 -280q-106 0 -167.5 62t-61.5 177z" />
    <glyph glyph-name="V" unicode="V" horiz-adv-x="1366" 
d="M295 129q0 145 82 375l168 487q57 165 57 258q0 119 -110 119q-79 0 -146.5 -57.5t-105 -148t-37.5 -187.5q0 -95 37 -170q4 -8 4 -19q0 -15 -21 -18q-97 -7 -158 59.5t-61 176.5q-2 78 40 166.5t111 161.5t166 120t195 43q157 0 251.5 -91.5t94.5 -250.5
q0 -113 -45 -238l-155 -458q-45 -134 -48 -197l248 246q210 195 346 434q138 237 138 412q0 45 -9 75v11q0 16 17 26q26 11 59 11q60 0 100.5 -43t40.5 -121q0 -154 -150 -390.5t-435 -502.5l-486 -471q-15 -15 -34 -15q-154 12 -154 197z" />
    <glyph glyph-name="W" unicode="W" horiz-adv-x="2025" 
d="M336 174q0 135 61 330l148 487q55 186 55 262q0 115 -108 115q-82 0 -149 -57.5t-102.5 -146.5t-35.5 -187q0 -97 37 -172l4 -17q0 -17 -23 -20q-97 -7 -158 59.5t-61 176.5q-2 78 40 166.5t111 161.5t166 120t195 43q160 0 250 -90t90 -256q0 -110 -39 -234l-135 -458
q-25 -84 -35 -133l682 1030q9 18 35 18h238q13 0 20.5 -8.5t5.5 -22.5l-196 -884q-22 -108 -25 -162l145 186q196 246 318 484q125 238 125 397q0 35 -6 65l-2 11q0 20 18 26q26 11 59 11q60 0 100 -43t40 -121q0 -280 -545 -918l-373 -444q-17 -17 -35 -17q-78 6 -114.5 59
t-36.5 161q0 129 49 352l106 477l-684 -1030q-9 -19 -34 -19q-201 12 -201 242z" />
    <glyph glyph-name="X" unicode="X" horiz-adv-x="1339" 
d="M-123 31q0 22 2 28q3 24 31 27q94 9 178 61q80 52 148.5 118.5t183.5 197.5l51 59l131 146l12 295q4 160 4 167q0 125 -28 181.5t-103 56.5q-103 0 -171 -112t-68 -255q0 -124 51 -204q6 -9 6 -19q0 -13 -20 -16q-102 -7 -168 65.5t-66 188.5q-1 60 19.5 127t62.5 130
t98 114t134 80.5t163 27.5q185 0 289 -123t94 -336l-10 -162l60 68l75 90q102 121 187 213q173 187 293 187q56 0 87 -30t31 -79q0 -23 -2 -29q-3 -23 -30 -26q-88 -9 -166 -58q-75 -47 -139 -109.5t-164 -180.5l-78 -89l-166 -186l-10 -176q-13 -319 129 -319q85 0 186 94
q105 95 176 248q9 20 35 20q20 0 37.5 -13.5t17.5 -31.5l-4 -16q-107 -222 -252 -361q-147 -141 -315 -141q-154 0 -228.5 126.5t-68.5 366.5l-27 -30l-51 -60q-136 -155 -205 -227q-187 -203 -313 -203q-56 0 -87.5 30.5t-31.5 78.5z" />
    <glyph glyph-name="Y" unicode="Y" horiz-adv-x="1527" 
d="M127 -434q0 259 633 403l108 234q-184 -205 -366 -205q-106 0 -168 62.5t-62 177.5q0 144 105 352l203 403q69 141 69 242q0 64 -31 98.5t-92 34.5q-80 0 -147.5 -57.5t-104 -147.5t-36.5 -188q0 -99 36 -170q5 -10 5 -19q0 -15 -21 -18q-99 -7 -160 59.5t-61 176.5
q-2 78 40 166.5t111 161.5t166 120t195 43q152 0 257 -98.5t105 -255.5q0 -133 -80 -287l-161 -313q-62 -115 -62 -199q0 -47 20.5 -71.5t57.5 -24.5q82 0 204.5 143t262.5 424l250 539q9 20 35 20h256q14 0 20 -10t0 -23l-588 -1257q152 64 257 160.5t176 249.5q9 20 34 20
q21 0 38.5 -13.5t17.5 -31.5l-4 -16q-100 -211 -242 -320q-136 -107 -336 -180q-126 -257 -281 -426q-155 -168 -383 -168q-128 0 -202 56t-74 153zM709 -141q-198 -48 -318.5 -125t-120.5 -158q0 -41 30 -66.5t79 -25.5q172 0 330 375z" />
    <glyph glyph-name="Z" unicode="Z" horiz-adv-x="1153" 
d="M365 -16q-52 29 -75 38t-52 9q-46 0 -117 -39q-64 -37 -107 -37q-37 0 -58.5 21.5t-21.5 56.5q0 22 17 39l1050 1052q-45 5 -163 35q-99 23 -147 31t-101 8q-135 0 -268 -90q-9 -6 -19 -6q-18 0 -18 20q-2 50 9 100t38 96t67 81.5t98 56.5t128 21q82 0 147 -24.5
t162 -84.5q66 -40 105.5 -57t78.5 -17q68 0 152 66q10 10 22 10q9 0 17 -8q30 -30 30 -76q0 -47 -36 -86l-969 -967q88 21 174 21q109 0 201 -39q73 -27 108 -27q96 0 198 81t169 223q9 20 35 20q20 0 37.5 -13.5t17.5 -31.5l-4 -16q-105 -221 -279 -383
q-177 -160 -385 -160q-73 0 -123.5 17.5t-117.5 58.5z" />
    <glyph glyph-name="bracketleft" unicode="[" horiz-adv-x="755" 
d="M967 1462l-11 -22q-10 -23 -34 -23h-113l-735 -1571h98q17 0 23 -9t0 -23l-11 -23q-9 -22 -34 -22h-193q-14 0 -20 9.5t0 22.5l780 1674q9 20 35 20h192q17 0 23 -9.5t0 -23.5z" />
    <glyph glyph-name="backslash" unicode="\" horiz-adv-x="837" 
d="M522 -186l-241 1642v4q0 27 26 27h37q12 0 21 -7.5t10 -19.5l239 -1642v-4q0 -27 -26 -27h-35q-12 0 -21 7.5t-10 19.5z" />
    <glyph glyph-name="bracketright" unicode="]" horiz-adv-x="757" 
d="M-20 -199l10 23q9 22 35 22h112l735 1571h-98q-17 0 -23 9.5t1 23.5l10 23q9 22 35 22h192q14 0 20.5 -10t0.5 -23l-781 -1673q-9 -20 -34 -20h-193q-17 0 -22.5 9.5t0.5 22.5z" />
    <glyph glyph-name="asciicircum" unicode="^" horiz-adv-x="802" 
d="M389 1073q0 9 12 21l396 342q14 14 37 14l79 -2q25 0 31 -25l78 -333l2 -9q-3 -22 -27 -22h-39q-26 0 -32 22l-88 262l-342 -272q-15 -12 -37 -12h-45q-25 0 -25 14z" />
    <glyph glyph-name="underscore" unicode="_" horiz-adv-x="1095" 
d="M-145 -233l24 51q9 20 33 20h760q17 0 22.5 -11t-2.5 -24l-24 -51q-9 -20 -33 -20h-760q-17 0 -22.5 11t2.5 24z" />
    <glyph glyph-name="grave" unicode="`" horiz-adv-x="731" 
d="M557 1004l-151 251q-5 10 -5 17q0 17 19 20l133 35l10 2q19 0 25 -20l102 -291q2 -2 2 -12q0 -21 -24 -21h-76q-22 0 -35 19z" />
    <glyph glyph-name="a" unicode="a" 
d="M-66 227q0 138 80 295q83 156 219 260q137 107 306 107q159 0 227 -105l49 56q16 16 35 16h199q14 0 20 -10t0 -23l-201 -436q-41 -90 -41 -145q0 -36 16.5 -57t43.5 -21q107 0 266 328q9 20 35 20q20 0 37.5 -13.5t17.5 -31.5l-4 -16q-107 -229 -244.5 -355.5
t-287.5 -126.5q-86 0 -137 44.5t-62 125.5q-150 -170 -330 -170q-120 0 -182 69t-62 189zM588 449l104 225q-27 82 -102 82q-80 0 -162 -88q-79 -82 -137 -207q-55 -119 -55 -209q0 -102 81 -102q66 0 136.5 80.5t134.5 218.5z" />
    <glyph glyph-name="b" unicode="b" horiz-adv-x="1087" 
d="M135 90l-47 -72q-9 -18 -35 -18h-215q-14 0 -20 10t0 23l213 459l401 860q9 20 35 20h246q14 0 20 -10t0 -23l-244 -520q107 70 224 70q118 0 180.5 -72t62.5 -194q0 -106 -47.5 -227.5t-126.5 -219.5q117 53 202.5 134.5t133.5 181.5q9 20 35 20q20 0 37.5 -13.5
t17.5 -31.5l-4 -16q-71 -153 -207 -267t-292 -169.5t-312 -55.5q-110 0 -167.5 30.5t-90.5 100.5zM672 647q0 105 -80 105q-69 0 -141 -83t-138 -225l-92 -202q7 -55 36 -84t73 -29q72 0 153 90q80 89 133 213q56 127 56 215z" />
    <glyph glyph-name="c" unicode="c" horiz-adv-x="866" 
d="M-59 256q0 132 84 285q83 146 227 247q140 101 303 101q119 0 184.5 -55.5t65.5 -139.5q0 -71 -42.5 -122.5t-109.5 -51.5q-48 0 -73 25t-25 69q0 33 24.5 70t61.5 55q-20 23 -55 23q-46 4 -109 -47.5t-116 -127.5t-89 -165.5t-34 -153.5q0 -157 163 -157
q135 0 276.5 106.5t219.5 274.5q9 20 35 20q20 0 37.5 -13.5t17.5 -31.5l-4 -16q-109 -230 -301 -361t-403 -131q-166 0 -252 79.5t-86 217.5z" />
    <glyph glyph-name="d" unicode="d" 
d="M-66 227q0 138 80 295q83 156 219 260q137 107 306 107q141 0 215 -86l256 549q9 20 34 20h246q14 0 20.5 -10t0.5 -23l-443 -952q-41 -90 -41 -145q0 -36 16.5 -57t43.5 -21q107 0 266 328q9 20 35 20q20 0 37.5 -13.5t17.5 -31.5l-4 -16q-110 -229 -247.5 -355.5
t-284.5 -126.5q-86 0 -137 44.5t-62 125.5q-150 -170 -330 -170q-120 0 -182 69t-62 189zM588 449l104 225q-14 39 -40.5 60.5t-61.5 21.5q-80 0 -162 -88q-79 -82 -137 -207q-55 -119 -55 -209q0 -102 81 -102q66 0 136.5 80.5t134.5 218.5z" />
    <glyph glyph-name="e" unicode="e" horiz-adv-x="884" 
d="M-59 256q-2 80 29.5 170t90.5 172.5t135 149.5t172 105.5t193 35.5q116 0 182 -50.5t66 -131.5q2 -62 -38 -130t-112 -127.5t-182.5 -104.5t-236.5 -58v-19q0 -157 161 -157q156 0 294 102t220 279q9 20 35 20q20 0 38 -13.5t18 -31.5q0 -1 -1 -3t-2 -6t-2 -7
q-108 -232 -301 -363q-194 -129 -421 -129q-166 0 -252 79.5t-86 217.5zM635 696q0 37 -21.5 58.5t-54.5 21.5q-79 0 -164 -117q-87 -119 -133 -262q76 12 140.5 37.5t106.5 57.5t71 69t42 71t13 64z" />
    <glyph glyph-name="f" unicode="f" horiz-adv-x="768" 
d="M-477 -475q-1 2 -2 5l-1.5 4.5t-0.5 2.5q0 13 14 27q62 53 107 119q38 55 94 176l297 633l153 327q139 295 297 496q163 205 334 205q72 0 109 -46.5t37 -132.5q2 -97 -49.5 -234.5t-139 -277t-215 -272.5t-264.5 -215q18 -172 149 -172q116 0 207 104q96 109 150 218
q9 20 35 20q20 0 37.5 -13.5t17.5 -31.5l-4 -16q-70 -155 -197 -279q-123 -123 -264 -123q-79 0 -134.5 41t-86.5 113l-178 -381q-166 -350 -385 -350q-90 0 -117 53zM852 1358q0 43 -23 43q-46 0 -110 -112.5t-195 -395.5l-28 -62l-142 -303q101 82 197.5 207t160.5 244
t103 223t37 156z" />
    <glyph glyph-name="g" unicode="g" horiz-adv-x="1105" 
d="M-207 -389q0 118 140 205.5t436 156.5l30 70q-109 -74 -221 -74q-120 0 -182 69t-62 189q0 138 80 295q83 156 219 260q137 107 306 107q160 0 227 -107l49 58q16 16 35 16h199q14 0 20 -10t0 -23l-340 -735q140 63 238 156.5t170 247.5q9 20 34 20q20 0 38 -13.5
t18 -31.5l-4 -16q-103 -214 -236 -320q-131 -107 -319 -172q-113 -221 -269 -371q-156 -153 -368 -153q-114 0 -176 46.5t-62 129.5zM315 -137q-170 -47 -275.5 -113.5t-105.5 -124.5q0 -27 24 -45t60 -18q143 0 297 301zM588 449l106 225q-30 82 -104 82q-80 0 -162 -88
q-79 -82 -137 -207q-55 -119 -55 -209q0 -102 81 -102q64 0 134 77t137 222z" />
    <glyph glyph-name="h" unicode="h" horiz-adv-x="1101" 
d="M471 156q0 82 51 184l107 213q28 64 28 94q0 49 -53 49q-70 0 -166 -96q-94 -94 -168 -254l-151 -326q-9 -20 -35 -20h-246q-14 0 -20 10t0 23l213 459l401 860q9 20 35 20h246q14 0 20 -10t0 -23l-280 -604q177 154 352 154q88 0 136 -40.5t48 -115.5q0 -82 -49 -176
l-84 -172q-47 -96 -47 -154q0 -65 53 -65q57 0 128.5 85t142.5 241q11 20 34 20q26 0 44 -19.5t8 -41.5q-110 -230 -248.5 -356t-288.5 -126q-97 0 -154 50t-57 137z" />
    <glyph glyph-name="i" unicode="i" horiz-adv-x="571" 
d="M291 1081q0 78 68 147.5t163 69.5q61 0 94 -30.5t33 -81.5q0 -78 -66.5 -145.5t-162.5 -67.5q-61 0 -95 29.5t-34 78.5zM-68 178q0 101 60 230l39 84l157 344q9 20 35 20h246q14 0 20 -10t0 -23l-200 -436q-39 -82 -39 -143q0 -38 16 -59t43 -21q60 0 141 88t152 240
q9 20 35 20q20 0 37.5 -13.5t17.5 -31.5l-4 -16q-105 -223 -253.5 -352.5t-305.5 -129.5q-95 0 -146 56.5t-51 152.5z" />
    <glyph glyph-name="j" unicode="j" horiz-adv-x="544" 
d="M291 1081q0 78 68 147.5t163 69.5q61 0 94 -30.5t33 -81.5q0 -78 -66.5 -145.5t-162.5 -67.5q-61 0 -95 29.5t-34 78.5zM-786 -389q0 118 139 204.5t438 159.5l240 517l157 344q9 20 35 20h246q17 0 22 -10t-2 -23l-337 -735q143 63 244.5 157t178.5 247q9 20 35 20
q20 0 38 -13.5t18 -31.5l-4 -16q-99 -211 -238 -320q-135 -106 -334 -172q-115 -226 -266 -371q-156 -153 -371 -153q-114 0 -176.5 46.5t-62.5 129.5zM-262 -137q-170 -47 -275.5 -113.5t-105.5 -124.5q0 -27 24 -45t60 -18q141 0 297 301z" />
    <glyph glyph-name="k" unicode="k" horiz-adv-x="1105" 
d="M362 315l-4 56v4q0 22 27 28q146 20 226.5 88t80.5 142q0 37 -20.5 59.5t-55.5 22.5q-72 0 -167 -92q-92 -89 -158 -230l-172 -373q-9 -20 -35 -20h-246q-14 0 -20 10t0 23l213 459l399 860q9 20 35 20h246q14 0 20 -10t0 -23l-280 -602q85 76 175 114t171 38
q91 0 143.5 -47t52.5 -121q0 -108 -89.5 -206t-256.5 -153q18 -206 133 -206q80 0 181.5 89.5t175.5 246.5q9 20 34 20q21 0 38.5 -13.5t17.5 -31.5l-4 -16q-103 -222 -265 -353q-163 -129 -331 -129q-131 0 -195 81.5t-70 264.5z" />
    <glyph glyph-name="l" unicode="l" horiz-adv-x="571" 
d="M-66 176q0 113 58 232l39 84l401 860q9 20 33 20h248q14 0 20 -10t0 -23l-444 -952q-41 -84 -41 -143q0 -38 16 -59t43 -21q62 0 143 87t152 241q9 20 35 20q20 0 37.5 -13.5t17.5 -31.5l-4 -16q-107 -223 -256 -352.5t-303 -129.5q-95 0 -145 55.5t-50 151.5z" />
    <glyph glyph-name="m" unicode="m" horiz-adv-x="1644" 
d="M1012 156q0 85 51 184l106 213q29 66 29 94q0 49 -51 49q-78 0 -163 -91.5t-163 -258.5l-149 -326q-9 -20 -35 -20h-246q-14 0 -20 10t0 23l247 520q27 55 27 94q0 49 -49 49q-73 0 -163.5 -95.5t-162.5 -254.5l-151 -326q-9 -20 -35 -20h-246q-14 0 -20 10t0 23l213 459
l157 344q9 20 35 20h211q14 0 20.5 -10t2.5 -23l-33 -110q176 176 371 176q88 0 135 -38t47 -110q0 -24 -2 -30q184 178 371 178q90 0 138 -40.5t48 -115.5q0 -77 -51 -176l-84 -172q-47 -96 -47 -154q0 -30 15 -47.5t40 -17.5q55 0 125.5 84t144.5 242q9 20 35 20
q20 0 37.5 -13.5t17.5 -31.5l-4 -16q-105 -228 -245 -355t-291 -127q-99 0 -156 50t-57 137z" />
    <glyph glyph-name="n" unicode="n" horiz-adv-x="1101" 
d="M471 156q0 82 51 184l107 213q28 64 28 94q0 49 -53 49q-70 0 -166 -96q-94 -94 -168 -254l-151 -326q-9 -20 -35 -20h-246q-14 0 -20 10t0 23l213 459l157 344q9 20 35 20h209q14 0 21.5 -10t3.5 -23l-35 -116q91 89 190 135.5t193 46.5q88 0 136 -40.5t48 -115.5
q0 -82 -49 -176l-84 -172q-47 -96 -47 -154q0 -65 53 -65q57 0 128.5 85t142.5 241q11 20 34 20q26 0 44 -19.5t8 -41.5q-110 -230 -248.5 -356t-288.5 -126q-97 0 -154 50t-57 137z" />
    <glyph glyph-name="o" unicode="o" horiz-adv-x="940" 
d="M-57 248q-2 81 28 172t86.5 175t129 151.5t165 106.5t185.5 36q137 0 209.5 -76.5t72.5 -204.5q0 -129 -63 -258h6q141 0 209 142q9 20 35 20t43.5 -19.5t7.5 -41.5q-49 -109 -133.5 -165.5t-180.5 -56.5q-9 0 -55 4q-87 -122 -207.5 -193t-253.5 -71q-138 0 -211 75.5
t-73 203.5zM575 305q-22 36 -22 86q0 64 36.5 121t92.5 80q2 8 2 33q0 131 -96 131q-74 0 -158 -84t-135 -201q-53 -118 -53 -207q0 -121 104 -121q120 0 229 162z" />
    <glyph glyph-name="p" unicode="p" horiz-adv-x="1087" 
d="M-401 -436l432 928l157 344q9 20 35 20h170q30 0 27 -29l-4 -65q142 127 297 127q118 0 180.5 -72t62.5 -194q0 -106 -47.5 -227.5t-126.5 -219.5q117 53 202.5 134.5t133.5 181.5q9 20 35 20q20 0 37.5 -13.5t17.5 -31.5l-4 -16q-71 -154 -205.5 -267t-295 -169
t-328.5 -56q-169 0 -234 117l-241 -525q-9 -20 -35 -20h-246q-14 0 -20 10t0 23zM672 647q0 105 -80 105q-129 0 -279 -308l-94 -200q7 -55 37 -85t74 -30q72 0 153 90q80 89 133 213q56 127 56 215z" />
    <glyph glyph-name="q" unicode="q" horiz-adv-x="1105" 
d="M176 -436l221 477q-107 -72 -219 -72q-120 0 -182 69t-62 189q0 138 80 295q83 156 219 260q137 107 306 107q155 0 225 -101l37 50q12 18 35 18h213q14 0 20 -10t0 -23l-362 -780q64 64 174 160q112 96 167 156t89 133q9 20 34 20q21 0 38.5 -13.5t17.5 -31.5l-4 -16
q-46 -107 -117 -181q-67 -70 -184 -172q-79 -66 -166 -149q-171 -171 -279 -395q-10 -23 -33 -23h-247q-14 0 -20.5 10t-0.5 23zM588 449l104 225q-27 82 -102 82q-80 0 -162 -88q-79 -82 -137 -207q-55 -119 -55 -209q0 -102 81 -102q127 0 271 299z" />
    <glyph glyph-name="r" unicode="r" horiz-adv-x="839" 
d="M209 154q0 85 49 186l176 371q-70 -4 -76 -4q-62 0 -114 12l-127 -268q-6 -15 -29 -15q-28 0 -48.5 18.5t-8.5 37.5q122 250 125 432q0 26 22 32q24 9 49 9q38 0 61 -23t23 -61q0 -21 -6 -45q71 -11 111 -11q118 0 291 37l10 2q16 0 26 -16l25 -41q6 -12 6 -21
q0 -2 -4 -18l-178 -383q-45 -91 -45 -154q0 -65 53 -65q112 0 270 326q9 20 35 20q20 0 38 -13.5t18 -31.5q0 -1 -1 -3t-2 -6t-2 -7q-110 -230 -249 -356t-289 -126q-97 0 -153 49t-56 136z" />
    <glyph glyph-name="s" unicode="s" horiz-adv-x="940" 
d="M-80 270q0 100 46.5 177.5t117.5 84.5q170 311 532 390l11 2q16 0 26 -17l47 -76q11 -26 9 -36q-4 -46 -4 -88q0 -77 14 -160q16 -128 16 -203q0 -98 -30 -168q161 99 266 316q9 20 35 20q20 0 37.5 -13.5t17.5 -31.5l-4 -16q-112 -240 -312.5 -372t-449.5 -132
q-192 0 -283 94q-92 95 -92 229zM451 328q0 33 -17 155q-14 88 -14 168q0 63 14 109q-160 -86 -252 -250q51 -39 51 -107t-45 -108.5t-120 -40.5q2 -75 46.5 -122.5t121.5 -47.5q101 0 158 70t57 174z" />
    <glyph glyph-name="t" unicode="t" horiz-adv-x="632" 
d="M-61 184q0 113 69 260l23 48l121 260h-80q-14 0 -20.5 9.5t-0.5 22.5l23 52q9 20 35 20h92l141 307q9 22 33 25l266 37h8q12 0 17.5 -8.5t-0.5 -22.5l-158 -338h154q17 0 23 -10t-1 -23l-22 -51q-9 -20 -35 -20h-168l-164 -351q-41 -90 -41 -149q0 -42 20 -65t56 -23
q73 0 168.5 89.5t165.5 238.5q9 20 34 20q20 0 38 -13.5t18 -31.5l-4 -16q-97 -212 -264 -347t-324 -135q-104 0 -163.5 56t-59.5 159z" />
    <glyph glyph-name="u" unicode="u" horiz-adv-x="1118" 
d="M-78 170q0 97 51 199l58 123l157 344q9 20 35 20h246q17 0 22 -10t-2 -23l-188 -411q-47 -109 -47 -162q0 -70 61 -70q67 0 145.5 86t151.5 242l152 328q9 20 35 20h245q14 0 20.5 -10t0.5 -23l-201 -436q-39 -79 -39 -145q0 -36 15.5 -57t42.5 -21q54 0 122.5 84.5
t143.5 243.5q9 20 35 20q21 0 38 -13.5t17 -31.5l-4 -16q-108 -230 -244 -356t-286 -126q-204 0 -201 197q-88 -94 -186 -145.5t-191 -51.5q-97 0 -151 54t-54 147z" />
    <glyph glyph-name="v" unicode="v" horiz-adv-x="1017" 
d="M-20 256q0 117 51 236l143 342q9 22 33 22h246q17 0 23 -10t-1 -23l-139 -331q-49 -119 -49 -209q0 -64 25 -101t63 -37q56 0 139.5 85.5t165.5 220.5q0 93 30.5 195.5t79 171.5t95.5 65q80 0 80 -101q0 -147 -156 -376q-3 -97 57 -97q43 0 94.5 50t88.5 133q9 20 34 20
q21 0 38.5 -13.5t17.5 -31.5l-4 -16q-54 -117 -136.5 -184.5t-160.5 -67.5q-85 0 -125 75q-121 -147 -246.5 -235t-226.5 -88q-117 0 -188.5 84.5t-71.5 220.5z" />
    <glyph glyph-name="w" unicode="w" horiz-adv-x="1527" 
d="M-29 227q0 123 60 265l143 342q9 22 33 22h246q17 0 23 -10t-1 -23l-139 -331q-64 -152 -64 -250q0 -97 66 -97q123 0 266 347l144 342q9 22 32 22h246q17 0 23 -10t0 -23l-140 -331q-65 -157 -65 -250q0 -47 17 -72t48 -25q55 0 129 77t150 206q-2 95 28.5 204
t80.5 182.5t98 68.5q80 0 80 -101q0 -73 -42 -178.5t-114 -216.5q2 -36 16.5 -57t40.5 -21q43 0 94.5 50t88.5 133q9 20 34 20q20 0 38 -13.5t18 -31.5l-4 -16q-54 -118 -136 -185t-163 -67q-77 0 -117 63q-113 -143 -236 -227t-229 -84q-84 0 -140 54t-73 149
q-187 -203 -356 -203q-102 0 -163 75.5t-61 200.5z" />
    <glyph glyph-name="x" unicode="x" horiz-adv-x="1034" 
d="M365 244l-220 -230q-11 -14 -34 -14h-93q-24 0 -24 16q0 11 8 19l373 389l8 111l2 36q0 61 -19.5 94t-54.5 33q-46 0 -87.5 -54t-106.5 -193q-12 -21 -37 -21q-20 0 -36.5 12.5t-16.5 30.5q0 3 4 19q99 216 189 306.5t216 90.5q117 0 181.5 -72t54.5 -225l233 250
q11 14 35 14h92q25 0 25 -16q0 -11 -8 -19l-390 -411q-2 -14 -2 -58q0 -196 107 -196q141 0 301 336q9 20 35 20q20 0 37.5 -13.5t17.5 -31.5l-4 -16q-106 -227 -246 -354.5t-293 -127.5q-116 0 -179 72t-68 203z" />
    <glyph glyph-name="y" unicode="y" horiz-adv-x="1103" 
d="M-211 -389q0 118 140 205.5t436 156.5l51 111q-148 -115 -289 -115q-97 0 -151 54t-54 147q0 97 51 199l58 123l157 344q9 20 35 20h246q17 0 22 -10t-2 -23l-188 -411q-47 -109 -47 -162q0 -70 61 -70q68 0 146.5 86.5t150.5 241.5l152 328q9 20 35 20h245
q14 0 20.5 -10t0.5 -23l-340 -735q139 59 238 154t172 250q9 20 34 20q20 0 38 -13.5t18 -31.5l-4 -16q-103 -214 -236 -320q-135 -108 -321 -172q-115 -224 -267 -371q-156 -153 -370 -153q-114 0 -176 46.5t-62 129.5zM311 -137q-163 -45 -274 -113q-105 -68 -105 -125
q0 -27 23 -45t61 -18q74 0 150 82.5t145 218.5z" />
    <glyph glyph-name="z" unicode="z" horiz-adv-x="1011" 
d="M-221 -389q0 122 147 214t451 161q-1 91 -49 139.5t-150 69.5q-22 6 -22 18q0 9 12 18l582 453q-213 -68 -390 -68q-90 0 -149 21l-94 -186q-9 -19 -35 -19q-21 0 -38 12.5t-17 30.5q0 1 4 17l102 200q-14 20 -14 51q0 86 78 134q8 8 20 8q10 0 19 -6q135 -66 360 -66
q160 0 340 49l8 2q20 0 29 -20l41 -84q4 -12 4 -15q0 -13 -14 -24l-517 -424q75 -29 123 -85t60 -128q121 56 208 149t164 259q9 20 35 20q20 0 38 -13.5t18 -31.5q0 -1 -1 -3t-2 -6t-2 -7q-94 -201 -206 -310q-104 -104 -252 -164q-9 -75 -47 -153.5t-99.5 -148.5
t-138.5 -125.5t-171.5 -87t-190.5 -29.5q-119 0 -181.5 47.5t-62.5 130.5zM360 -117q-186 -41 -312 -118.5t-126 -139.5q0 -26 22.5 -44.5t63.5 -18.5q109 0 211 98t141 223z" />
    <glyph glyph-name="braceleft" unicode="{" horiz-adv-x="841" 
d="M1028 1493h6q13 0 20.5 -6t2.5 -14l-2 -3q-8 -18 -33 -22q-58 -6 -112 -53.5t-95 -130.5q-28 -62 -78 -226q-35 -131 -63 -184q-36 -78 -101.5 -138.5t-138.5 -78.5q64 -21 64 -105q0 -63 -35 -132t-117 -187q-79 -117 -111 -180.5t-32 -120.5q0 -69 51 -84
q32 -10 22 -27q-9 -22 -34 -22q-70 5 -110 40t-40 97q0 65 36.5 138t125.5 202q77 114 107 172.5t30 106.5q0 51 -45 63q-32 8 -20 35l8 18q9 20 33 23q115 12 186 164q33 69 59 198q35 150 74 230q59 115 141.5 168.5t200.5 58.5z" />
    <glyph glyph-name="bar" unicode="|" horiz-adv-x="503" 
d="M-113 -223l785 1687q9 21 35 21h32q14 0 20.5 -10t0.5 -23l-785 -1688q-9 -20 -34 -20h-33q-14 0 -20.5 10t-0.5 23z" />
    <glyph glyph-name="braceright" unicode="}" horiz-adv-x="841" 
d="M8 -219h-6q-13 0 -20 6t-2 14l2 2q8 20 32 23q58 6 112 53.5t95 130.5q28 62 78 226q35 131 63 184q36 78 101.5 138.5t138.5 78.5q-63 21 -63 104q0 63 35 133t116 187q80 118 112 181t32 120q0 69 -52 84q-32 10 -22 27q9 22 35 22q70 -5 109.5 -40t39.5 -97
q0 -65 -36.5 -138t-125.5 -202q-77 -114 -107 -172.5t-30 -106.5q0 -51 45 -63q33 -9 21 -35l-9 -18q-9 -20 -32 -23q-116 -12 -187 -164q-33 -69 -59 -198q-35 -150 -74 -230q-59 -115 -141.5 -168.5t-200.5 -58.5z" />
    <glyph glyph-name="asciitilde" unicode="~" horiz-adv-x="1083" 
d="M106 504q31 105 114.5 168t191.5 63q69 0 121.5 -23.5t125.5 -78.5q66 -48 110.5 -68t92.5 -20q77 0 133.5 48t75.5 124q6 24 33 24h14q17 0 23.5 -9t1.5 -23q-31 -105 -112.5 -171.5t-188.5 -66.5q-67 0 -120 23.5t-126 78.5q-67 51 -110.5 71t-94.5 20q-73 0 -131 -47
t-82 -121q-6 -25 -31 -25h-16q-17 0 -23.5 9.5t-1.5 23.5z" />
    <glyph glyph-name="exclamdown" unicode="&#xa1;" horiz-adv-x="679" 
d="M647 967l-325 -897q-10 -23 -33 -23h-236q-24 0 -24 19l4 16l508 897q14 20 32 20h52q14 0 20 -9.5t2 -22.5zM842 1278q0 -65 -56 -121q-56 -53 -124 -53q-51 0 -83 31t-32 79q0 67 55 119q56 56 125 56q51 0 83 -31t32 -80z" />
    <glyph glyph-name="cent" unicode="&#xa2;" horiz-adv-x="1056" 
d="M301 -86l4 16l90 195q-116 24 -174.5 99.5t-58.5 187.5q-3 100 48 214t134.5 208.5t201 155.5t236.5 57q29 0 41 -3l78 168q9 21 35 21q16 0 16 -16l-4 -17l-76 -164q89 -20 137 -76.5t48 -128.5q0 -70 -43 -121t-109 -51q-48 0 -73 26t-25 69q0 38 25 74.5t67 54.5
q-30 40 -76 49l-307 -662q39 -20 107 -20q85 0 174 47q8 4 16 4q15 0 23 -14l22 -37q6 -9 6 -19q0 -14 -14 -20q-172 -96 -350 -96q-44 0 -56 2l-92 -199q-9 -20 -35 -20h-2q-14 0 -14 16zM475 297l295 633q-72 -11 -153.5 -103t-133.5 -209.5t-49 -201.5q0 -78 41 -119z
" />
    <glyph glyph-name="sterling" unicode="&#xa3;" horiz-adv-x="1136" 
d="M250 20q-79 -26 -172 -26q-61 0 -98 25t-37 63q0 43 46.5 74.5t121.5 31.5q18 0 88 -4q41 41 73.5 98.5t79.5 166.5l21 47l28 63h-198q-14 0 -21.5 9.5t-1.5 21.5l2 6q9 22 35 22h213q125 259 268 420q143 162 320 162q114 0 179 -61t65 -150q0 -67 -39 -113.5t-99 -46.5
q-41 0 -62.5 21.5t-21.5 58.5q0 33 19.5 64.5t50.5 44.5q-5 27 -25.5 43t-52.5 16q-70 0 -139.5 -105t-179.5 -354h213q17 0 22.5 -8t-0.5 -20l-4 -10q-9 -21 -35 -21h-223l-22 -51q-118 -268 -246 -385q148 -49 301 -49q67 0 123 26q12 4 22 4q8 0 11 -3t2 -9
q-11 -83 -79.5 -144t-172.5 -61q-106 0 -190 32t-185 101z" />
    <glyph glyph-name="yen" unicode="&#xa5;" horiz-adv-x="1146" 
d="M279 33l96 211h-205q-14 0 -21.5 8t-3.5 18l2 4q9 21 33 21h219l66 143h-203q-34 0 -24 27v2q9 22 34 22h217l-53 629v4q0 27 29 27h194q26 0 29 -27l45 -510l92 78q144 115 229.5 238t90.5 217q0 27 24 33q6 2 27 2q51 0 79 -28t28 -79q0 -93 -95 -207t-305 -291
l-104 -86h174q35 0 26 -24l-2 -6q-9 -21 -34 -21h-220l-67 -143h207q17 0 23 -7t1 -18l-2 -6q-9 -20 -35 -20h-217l-104 -224q-9 -20 -33 -20h-217q-14 0 -20 10t0 23z" />
    <glyph glyph-name="brokenbar" unicode="&#xa6;" horiz-adv-x="503" 
d="M362 795l310 669q9 21 35 21h32q14 0 20.5 -10t0.5 -23l-309 -670q-9 -20 -35 -20h-33q-14 0 -20.5 10t-0.5 23zM-113 -223l310 669q9 21 34 21h33q14 0 20.5 -10t0.5 -23l-310 -670q-9 -20 -34 -20h-33q-14 0 -20.5 10t-0.5 23z" />
    <glyph glyph-name="section" unicode="&#xa7;" horiz-adv-x="940" 
d="M18 47q-6 9 -6 16q0 14 15 23l14 10q9 6 16 6q12 0 23 -14q72 -90 225 -90q89 0 170 31.5t134 92t53 136.5q0 65 -47.5 114t-153.5 109q-114 67 -162.5 118t-48.5 122q0 96 71 180.5t195 142.5q-39 56 -39 132q0 89 55 160t140.5 107t181.5 36q89 0 161 -34.5t109 -98.5
q4 -8 4 -17q0 -13 -12 -22l-8 -7q-9 -6 -16 -6q-14 0 -23 15q-69 100 -219 100q-113 0 -201 -65.5t-88 -165.5q0 -58 36.5 -98t129.5 -99q40 -27 58 -39.5t45.5 -34t40 -37t27 -38.5t20.5 -48.5t8 -56.5q0 -93 -61.5 -178.5t-168.5 -142.5q52 -67 52 -150q3 -92 -66 -170.5
t-173.5 -120t-211.5 -39.5q-91 0 -165 30.5t-114 90.5zM840 727q0 51 -34 86.5t-122 91.5q-65 42 -117 82q-108 -44 -170.5 -116t-62.5 -150q0 -45 36 -78.5t130 -87.5q91 -50 143 -94q91 43 144 114.5t53 151.5z" />
    <glyph glyph-name="dieresis" unicode="&#xa8;" horiz-adv-x="731" 
d="M723 1114q0 52 45 96.5t106 44.5q82 0 82 -75q0 -52 -43 -95t-106 -43q-41 0 -62.5 20t-21.5 52zM434 1114q0 52 45.5 96.5t106.5 44.5q82 0 82 -75q0 -52 -43.5 -95t-106.5 -43q-41 0 -62.5 20t-21.5 52z" />
    <glyph glyph-name="copyright" unicode="&#xa9;" horiz-adv-x="1683" 
d="M283 604q-3 130 48.5 247.5t139 200.5t206.5 131t247 46q173 3 322 -79t236.5 -227.5t84.5 -318.5q2 -130 -49 -247.5t-138.5 -200t-207 -130.5t-248.5 -46q-171 -3 -320 78.5t-237 227t-84 318.5zM582 604q0 149 103.5 253t252.5 104q154 0 258 -101q8 -8 8 -18
q0 -13 -10 -23l-27 -28q-11 -11 -18 -11q-5 0 -23 11q-74 71 -188 71q-109 0 -181.5 -73t-72.5 -185q0 -110 72.5 -183t181.5 -73q113 0 201 82q8 8 20 8q11 0 21 -10l24 -29q10 -10 10 -20q0 -8 -8 -19q-104 -110 -268 -110q-149 0 -252.5 103t-103.5 251zM1522 604
q3 161 -78.5 297t-220 212.5t-299.5 74.5q-159 2 -297.5 -74.5t-220.5 -212.5t-78 -297q-3 -121 44.5 -230.5t129 -186.5t192.5 -121.5t230 -42.5q161 -3 299.5 73t220 211.5t78.5 296.5z" />
    <glyph glyph-name="ordfeminine" unicode="&#xaa;" horiz-adv-x="823" 
d="M858 768q-62 0 -97 28.5t-36 82.5q-92 -86 -203 -86q-88 0 -132 47.5t-44 132.5q-1 66 31 141t85.5 138t132 103.5t159.5 37.5q112 0 161 -70l29 31q16 16 35 16h123q14 0 20 -10t0 -23l-161 -348q-41 -90 -41 -158q0 -20 2 -26l2 -10q0 -19 -25 -25q-10 -2 -41 -2z
M801 1108l65 141q-22 51 -71 51q-51 4 -109.5 -53t-94.5 -133t-34 -129q0 -31 15 -49t44 -18q97 0 185 190z" />
    <glyph glyph-name="guillemotleft" unicode="&#xab;" horiz-adv-x="1132" 
d="M737 874q0 -10 -12 -22l-403 -420l145 -405q1 -3 2 -6.5t1.5 -5.5t0.5 -3q0 -13 -10 -20q-2 -1 -4.5 -2t-3.5 -1.5t-2 -0.5q-11 0 -21 16l-311 406q-8 11 -8 20q0 10 12 19l577 430q23 16 33 6q4 -4 4 -11zM1106 874q0 -10 -12 -22l-404 -420l146 -405q1 -3 2 -6.5
t1.5 -5.5t0.5 -3q0 -13 -11 -20q-2 -1 -4.5 -2t-3.5 -1.5t-2 -0.5q-10 0 -20 16l-312 406q-8 11 -8 20t13 19l577 430q23 16 33 6q4 -4 4 -11z" />
    <glyph glyph-name="registered" unicode="&#xae;" horiz-adv-x="1683" 
d="M283 602q-3 130 48.5 247.5t139 200.5t206.5 131t247 46q173 3 322 -79t236.5 -227.5t84.5 -318.5q2 -128 -49 -245.5t-138.5 -201t-207 -132t-248.5 -46.5q-128 -2 -247 46.5t-206.5 132t-139 201t-48.5 245.5zM1522 602q3 161 -78.5 297t-220 212.5t-299.5 74.5
q-159 2 -297.5 -74.5t-220.5 -212.5t-78 -297q-4 -161 78 -297t220.5 -212t297.5 -73q161 -3 299.5 73t220 212t78.5 297zM713 311v582q0 29 28 29h236q92 0 153.5 -53t61.5 -134q0 -67 -41 -113.5t-111 -64.5l168 -240q6 -9 6 -16q0 -18 -24 -18h-55q-23 0 -35 18l-174 248
h-109v-238q0 -28 -29 -28h-47q-28 0 -28 28zM817 639h156q58 0 89.5 24.5t31.5 71.5q0 44 -31 69t-86 25h-160v-190z" />
    <glyph glyph-name="overscore" unicode="&#xaf;" horiz-adv-x="731" 
d="M424 1122l29 64q9 22 34 22h447q17 0 22.5 -10t-2.5 -24l-30 -64q-9 -20 -33 -20h-447q-14 0 -20 9.5t0 22.5z" />
    <glyph glyph-name="degree" unicode="&#xb0;" horiz-adv-x="653" 
d="M285 1004q0 114 85.5 197t194.5 83q102 0 169 -66t67 -163q0 -114 -86.5 -198.5t-196.5 -84.5q-100 0 -168 68q-65 68 -65 164zM723 1047q0 68 -46.5 114.5t-113.5 46.5q-77 0 -139 -59t-62 -139q0 -66 46.5 -113t113.5 -47q80 0 140 57q61 58 61 140z" />
    <glyph glyph-name="uni00B2" unicode="&#xb2;" horiz-adv-x="641" 
d="M369 696q-61 23 -78 23q-25 0 -47 -14q-31 -17 -54 -17q-18 0 -29.5 9.5t-13.5 23.5v6q0 9 11 27q30 38 63 63t110 74q4 3 6.5 4t6 3.5t6.5 4.5q33 21 39 23q134 81 193 137t59 119q0 27 -20 43t-56 16q-81 0 -127 -72q22 -1 34.5 -16.5t12.5 -36.5q0 -30 -24 -53
t-60 -23q-34 0 -51.5 19t-17.5 51q0 69 74 128.5t196 59.5q95 0 152 -43t57 -110q0 -57 -43 -103q-38 -40 -94.5 -69.5t-171.5 -75.5l-51 -20q-26 -10 -113 -50q40 9 86 9q51 0 125 -19q47 -12 72 -12q33 0 67 12q16 4 19 4q15 0 12 -18q-12 -62 -69 -103t-136 -41
q-58 0 -145 37z" />
    <glyph glyph-name="uni00B3" unicode="&#xb3;" horiz-adv-x="638" 
d="M154 719q0 65 41 115.5t100 50.5q30 0 45.5 -15t15.5 -41q0 -30 -21.5 -52.5t-55.5 -22.5q-20 0 -37 10q-9 -24 -9 -43q0 -37 25 -60.5t74 -23.5q84 0 143.5 68.5t59.5 146.5q0 64 -48 92q-10 -2 -55 -2q-23 0 -36 7t-13 18q0 24 57 24q31 0 41 -2q77 18 129 72.5
t52 107.5q0 33 -20.5 53.5t-57.5 20.5q-84 0 -129 -74q22 -1 33.5 -16t11.5 -37q0 -30 -23 -52t-59 -22q-34 0 -52 19t-18 51q0 69 74 128.5t194 59.5q90 0 146.5 -44t56.5 -109q0 -60 -55 -111t-156 -75q101 -46 101 -146q0 -97 -99 -175.5t-245 -78.5q-102 0 -156.5 44.5
t-54.5 113.5z" />
    <glyph glyph-name="acute" unicode="&#xb4;" horiz-adv-x="731" 
d="M592 1001q0 8 8 19l238 295q14 19 39 10l116 -45q19 -6 19 -20q0 -8 -11 -19l-282 -244q-12 -12 -35 -12h-68q-24 0 -24 16z" />
    <glyph glyph-name="paragraph" unicode="&#xb6;" horiz-adv-x="1083" 
d="M311 -70l330 709q-143 7 -221 85t-78 202q-2 94 48 192.5t139 180.5t225 133.5t290 48.5h302q14 0 20 -10t0 -23l-711 -1530q-9 -20 -34 -20h-19q-14 0 -20 9.5t0 22.5l692 1489h-189l-698 -1501q-9 -20 -35 -20h-20q-14 0 -20.5 9.5t-0.5 22.5zM670 700l334 719
q-102 -3 -195.5 -34.5t-163 -82t-121 -112.5t-77.5 -128.5t-25 -127.5q0 -101 65 -165.5t183 -68.5z" />
    <glyph glyph-name="middot" unicode="&#xb7;" horiz-adv-x="608" 
d="M217 455q0 66 55 118q56 56 125 56q51 0 83 -31.5t32 -79.5q0 -66 -55 -121q-56 -53 -125 -53q-51 0 -83 31t-32 80z" />
    <glyph glyph-name="cedilla" unicode="&#xb8;" horiz-adv-x="731" 
d="M-86 -416q-16 10 -16 21l4 16l20 47q10 23 39 17q59 -17 98 -17q65 0 110.5 27.5t45.5 66.5q0 34 -35.5 52t-91.5 18q-18 0 -24 9t2 22l8 18q9 20 30 23q46 4 50 4q84 0 146 -43.5t62 -110.5q0 -86 -91.5 -143t-207.5 -57q-78 0 -149 30z" />
    <glyph glyph-name="uni00B9" unicode="&#xb9;" horiz-adv-x="458" 
d="M297 711l160 331q-65 -36 -109 -36q-51 0 -51 41q0 21 27 30q120 21 311 164q18 12 37 12h33q14 0 20 -9.5t0 -22.5l-244 -525q-9 -20 -35 -20h-129q-17 0 -22.5 11t2.5 24z" />
    <glyph glyph-name="ordmasculine" unicode="&#xba;" horiz-adv-x="690" 
d="M334 948q-1 66 31 139.5t85 134.5t130 100t157 36q100 0 152.5 -52t52.5 -141q1 -66 -30 -138.5t-84 -133t-129.5 -99t-157.5 -36.5q-100 0 -153.5 51.5t-53.5 138.5zM848 1180q0 39 -19 62.5t-53 23.5q-48 3 -104 -51t-92 -128t-35 -129q0 -79 76 -79q55 -4 110 48.5
t86.5 124.5t30.5 128z" />
    <glyph glyph-name="guillemotright" unicode="&#xbb;" 
d="M-10 2q0 11 12 23l404 419l-146 406q-1 3 -2 6.5t-1.5 5t-0.5 2.5q0 14 10 21q2 1 4.5 2t3.5 1.5t2 0.5q11 0 21 -17l311 -405q8 -11 8 -21q0 -9 -12 -18l-577 -430q-23 -16 -33 -6q-4 4 -4 10zM358 2q0 10 13 23l403 419l-145 406q-1 3 -2 6.5t-1.5 5t-0.5 2.5
q0 14 10 21q2 1 4.5 2t3.5 1.5t2 0.5q11 0 21 -17l311 -405q8 -11 8 -21q0 -9 -12 -18l-578 -430q-23 -16 -33 -6q-4 4 -4 10z" />
    <glyph glyph-name="onequarter" unicode="&#xbc;" horiz-adv-x="1576" 
d="M997 -53l72 159h-311q-22 0 -29 17l-2 8q0 10 16 23q291 193 344 452q9 26 21 29q4 2 18 2q30 0 47 -21t17 -57q-3 -84 -88 -197q-80 -107 -191 -186h189l119 260q9 21 34 21h127q17 0 23 -9.5t0 -23.5l-113 -248h45q17 0 23 -10t0 -23l-6 -14q-10 -23 -35 -23h-57
l-78 -172q-9 -20 -35 -20h-129q-17 0 -22.5 10t1.5 23zM338 608l160 332q-67 -37 -109 -37q-51 0 -51 41q0 22 27 31q120 21 311 164q18 12 37 12h32q14 0 20.5 -10t0.5 -23l-244 -524q-9 -21 -35 -21h-129q-17 0 -22.5 10.5t2.5 24.5zM213 -70q0 10 10 23l1034 1218
q14 17 35 17h4q25 0 25 -17q0 -10 -8 -18l-1037 -1219q-16 -16 -34 -16h-15q-14 0 -14 12z" />
    <glyph glyph-name="onehalf" unicode="&#xbd;" horiz-adv-x="1507" 
d="M338 608l160 332q-67 -37 -109 -37q-51 0 -51 41q0 22 27 31q120 21 311 164q18 12 37 12h32q14 0 20.5 -10t0.5 -23l-244 -524q-9 -21 -35 -21h-129q-17 0 -22.5 10.5t2.5 24.5zM897 -39q-61 23 -78 23q-23 0 -47 -15q-29 -16 -53 -16q-18 0 -29.5 9.5t-13.5 23.5v6
q0 9 10 26q23 28 52 53t51 39.5t90 57.5q28 18 39 22q134 81 192.5 137t58.5 119q0 27 -19.5 43.5t-55.5 16.5q-81 0 -127 -72q22 -1 34.5 -16.5t12.5 -36.5q0 -30 -24 -53t-60 -23q-34 0 -52 19t-18 51q0 69 74 128.5t196 59.5q95 0 152 -43t57 -110q0 -57 -43 -103
q-38 -40 -94.5 -69.5t-171.5 -75.5l-51 -21q-38 -14 -113 -49q36 8 86 8q54 0 125 -18q47 -12 72 -12q33 0 68 12q16 4 18 4q15 0 12 -18q-12 -62 -69 -103t-136 -41q-58 0 -145 37zM213 -70q0 10 10 23l1034 1218q14 17 35 17h4q25 0 25 -17q0 -10 -8 -18l-1037 -1219
q-16 -16 -34 -16h-15q-14 0 -14 12z" />
    <glyph glyph-name="threequarters" unicode="&#xbe;" horiz-adv-x="1636" 
d="M1055 -53l71 159h-311q-22 0 -29 17l-2 8q0 9 17 23q291 193 344 452q9 26 20 29q4 2 19 2q30 0 46.5 -21t16.5 -57q-3 -84 -88 -197q-81 -109 -190 -186h188l119 260q9 21 35 21h127q17 0 23 -9.5t-1 -23.5l-112 -248h45q17 0 23 -10t-1 -23l-6 -14q-10 -23 -35 -23h-57
l-78 -172q-9 -20 -35 -20h-129q-17 0 -22 10t2 23zM205 639q0 65 41 115.5t100 50.5q30 0 46 -15t16 -40q0 -30 -22 -53t-56 -23q-20 0 -37 10q-8 -21 -8 -43q0 -37 24.5 -60.5t73.5 -23.5q84 0 143.5 68.5t59.5 146.5q0 65 -47 92q-10 -2 -56 -2q-23 0 -36 7t-13 18
t16 17.5t42 6.5q30 0 40 -2q77 18 129 73t52 108q0 33 -20.5 53t-57.5 20q-84 0 -129 -73q22 -1 33.5 -16.5t11.5 -37.5q0 -30 -23 -51.5t-59 -21.5q-34 0 -52 18.5t-18 50.5q0 69 74.5 129t194.5 60q90 0 146 -44.5t56 -109.5q0 -60 -55 -111t-156 -75q101 -46 101 -146
q0 -97 -99 -175.5t-245 -78.5q-102 0 -156.5 44.5t-54.5 113.5zM307 -70q0 10 10 23l1035 1218q14 17 34 17h5q24 0 24 -17q0 -10 -8 -18l-1036 -1219q-16 -16 -35 -16h-14q-15 0 -15 12z" />
    <glyph glyph-name="questiondown" unicode="&#xbf;" horiz-adv-x="1148" 
d="M647 479q-35 -109 -104 -184q-56 -63 -191 -182q-83 -69 -139 -125q-117 -121 -117 -256q0 -81 41 -127.5t115 -46.5q76 0 136 49.5t85 120.5q-43 0 -67.5 24.5t-24.5 63.5q0 54 40.5 94.5t104.5 40.5q59 0 92 -38t33 -101q0 -59 -30.5 -120.5t-86 -114.5t-143 -86.5
t-190.5 -33.5q-166 0 -266.5 79t-100.5 208q0 86 45 154q40 65 101 116.5t190 139.5q146 103 225 170q88 75 142 168q9 20 32 20h54q17 0 23 -9.5t1 -23.5zM813 791q0 -66 -55 -121q-57 -54 -125 -54q-51 0 -83 31.5t-32 79.5q0 67 55 119q55 55 125 55q51 0 83 -30.5
t32 -79.5z" />
    <glyph glyph-name="Agrave" unicode="&#xc0;" horiz-adv-x="1449" 
d="M-354 -6q0 23 2 29q3 23 30 26q64 7 125 36t125.5 85.5t123.5 120.5t141 164q11 12 29.5 35t27.5 32l397 471q124 147 240 260q262 246 540 246q84 0 189 -31q13 -1 18.5 -12.5t-0.5 -23.5l-489 -1051q-53 -115 -53 -178q0 -62 43 -62q66 0 171 101.5t175 249.5
q9 20 35 20q20 0 37.5 -13.5t17.5 -31.5l-4 -16q-101 -214 -274.5 -356t-334.5 -142q-92 0 -142 45.5t-50 136.5q0 118 84 297h-473l-17 -20l-43 -52q-213 -254 -335 -364.5t-218 -110.5q-56 0 -87 30t-31 79zM481 555h426l377 803q-112 -40 -208.5 -122.5t-209.5 -221.5z
M1354 1583l-152 252q-4 8 -4 16q0 18 19 21l133 35l10 2q18 0 24 -21l103 -291q2 -2 2 -12q0 -20 -25 -20h-75q-23 0 -35 18z" />
    <glyph glyph-name="Aacute" unicode="&#xc1;" horiz-adv-x="1449" 
d="M-354 -6q0 23 2 29q3 23 30 26q64 7 125 36t125.5 85.5t123.5 120.5t141 164q11 12 29.5 35t27.5 32l397 471q124 147 240 260q262 246 540 246q84 0 189 -31q13 -1 18.5 -12.5t-0.5 -23.5l-489 -1051q-53 -115 -53 -178q0 -62 43 -62q66 0 171 101.5t175 249.5
q9 20 35 20q20 0 37.5 -13.5t17.5 -31.5l-4 -16q-101 -214 -274.5 -356t-334.5 -142q-92 0 -142 45.5t-50 136.5q0 118 84 297h-473l-17 -20l-43 -52q-213 -254 -335 -364.5t-218 -110.5q-56 0 -87 30t-31 79zM481 555h426l377 803q-112 -40 -208.5 -122.5t-209.5 -221.5z
M1389 1581q0 7 8 18l237 295q14 20 39 11l117 -45q18 -6 18 -21q0 -8 -10 -18l-282 -244q-12 -12 -35 -12h-68q-24 0 -24 16z" />
    <glyph glyph-name="Acircumflex" unicode="&#xc2;" horiz-adv-x="1449" 
d="M-354 -6q0 23 2 29q3 23 30 26q64 7 125 36t125.5 85.5t123.5 120.5t141 164q11 12 29.5 35t27.5 32l397 471q124 147 240 260q262 246 540 246q84 0 189 -31q13 -1 18.5 -12.5t-0.5 -23.5l-489 -1051q-53 -115 -53 -178q0 -62 43 -62q66 0 171 101.5t175 249.5
q9 20 35 20q20 0 37.5 -13.5t17.5 -31.5l-4 -16q-101 -214 -274.5 -356t-334.5 -142q-92 0 -142 45.5t-50 136.5q0 118 84 297h-473l-17 -20l-43 -52q-213 -254 -335 -364.5t-218 -110.5q-56 0 -87 30t-31 79zM481 555h426l377 803q-112 -40 -208.5 -122.5t-209.5 -221.5z
M1165 1581q0 7 11 18l284 279q14 14 35 14h113q27 0 30 -26l50 -271v-8q0 -22 -25 -22h-59q-24 0 -33 22l-60 170l-211 -180q-12 -12 -36 -12h-74q-25 0 -25 16z" />
    <glyph glyph-name="Atilde" unicode="&#xc3;" horiz-adv-x="1449" 
d="M-354 -6q0 23 2 29q3 23 30 26q64 7 125 36t125.5 85.5t123.5 120.5t141 164q11 12 29.5 35t27.5 32l397 471q124 147 240 260q262 246 540 246q84 0 189 -31q13 -1 18.5 -12.5t-0.5 -23.5l-489 -1051q-53 -115 -53 -178q0 -62 43 -62q66 0 171 101.5t175 249.5
q9 20 35 20q20 0 37.5 -13.5t17.5 -31.5l-4 -16q-101 -214 -274.5 -356t-334.5 -142q-92 0 -142 45.5t-50 136.5q0 118 84 297h-473l-17 -20l-43 -52q-213 -254 -335 -364.5t-218 -110.5q-56 0 -87 30t-31 79zM481 555h426l377 803q-112 -40 -208.5 -122.5t-209.5 -221.5z
M1440 1667q-61 47 -103 47q-64 0 -116 -55q-14 -14 -23 -14q-7 0 -16 6q-23 13 -11 37q37 71 96.5 116t125.5 45q37 0 68 -13t71 -44q65 -47 115 -47q38 0 76.5 22.5t68.5 59.5q15 24 37 12q22 -16 10 -37q-38 -91 -100.5 -143.5t-141.5 -52.5q-45 0 -77.5 14t-79.5 47z" />
    <glyph glyph-name="Adieresis" unicode="&#xc4;" horiz-adv-x="1449" 
d="M-354 -6q0 23 2 29q3 23 30 26q64 7 125 36t125.5 85.5t123.5 120.5t141 164q11 12 29.5 35t27.5 32l397 471q124 147 240 260q262 246 540 246q84 0 189 -31q13 -1 18.5 -12.5t-0.5 -23.5l-489 -1051q-53 -115 -53 -178q0 -62 43 -62q66 0 171 101.5t175 249.5
q9 20 35 20q20 0 37.5 -13.5t17.5 -31.5l-4 -16q-101 -214 -274.5 -356t-334.5 -142q-92 0 -142 45.5t-50 136.5q0 118 84 297h-473l-17 -20l-43 -52q-213 -254 -335 -364.5t-218 -110.5q-56 0 -87 30t-31 79zM481 555h426l377 803q-112 -40 -208.5 -122.5t-209.5 -221.5z
M1520 1694q0 52 45 96.5t106 44.5q82 0 82 -76q0 -52 -43 -94.5t-106 -42.5q-41 0 -62.5 20t-21.5 52zM1231 1694q0 52 45 96.5t106 44.5q82 0 82 -76q0 -52 -43 -94.5t-106 -42.5q-41 0 -62.5 20t-21.5 52z" />
    <glyph glyph-name="Aring" unicode="&#xc5;" horiz-adv-x="1449" 
d="M-354 -6q0 23 2 29q3 23 30 26q64 7 125 36t125.5 85.5t123.5 120.5t141 164q11 12 29.5 35t27.5 32l397 471q124 147 240 260q262 246 540 246q84 0 189 -31q13 -1 18.5 -12.5t-0.5 -23.5l-489 -1051q-53 -115 -53 -178q0 -62 43 -62q66 0 171 101.5t175 249.5
q9 20 35 20q20 0 37.5 -13.5t17.5 -31.5l-4 -16q-101 -214 -274.5 -356t-334.5 -142q-92 0 -142 45.5t-50 136.5q0 118 84 297h-473l-17 -20l-43 -52q-213 -254 -335 -364.5t-218 -110.5q-56 0 -87 30t-31 79zM481 555h426l377 803q-112 -40 -208.5 -122.5t-209.5 -221.5z
M1303 1698q0 83 65 139q67 55 152 55q64 0 103.5 -35.5t39.5 -97.5q0 -83 -63.5 -138.5t-151.5 -55.5q-64 0 -104.5 35.5t-40.5 97.5zM1577 1749q0 32 -19.5 53t-50.5 21q-45 0 -80.5 -35t-35.5 -82q0 -32 19.5 -52t51.5 -20q45 0 80 34t35 81z" />
    <glyph glyph-name="Ccedilla" unicode="&#xc7;" horiz-adv-x="1230" 
d="M63 379q0 231 140 502q141 268 368 448q232 182 478 182q155 0 237 -76.5t82 -185.5q0 -86 -50 -145.5t-128 -59.5q-52 0 -79.5 27t-27.5 72q0 48 31 89t82 58q-5 43 -39.5 71t-89.5 28q-149 0 -303 -160q-156 -162 -256 -389q-100 -226 -100 -418q0 -150 70.5 -233
t209.5 -83q161 0 331 118t243 268q9 20 34 20q20 0 38 -13.5t18 -31.5l-4 -16q-43 -95 -124 -187.5t-186 -168t-237 -121.5t-262 -44q-235 0 -355.5 120t-120.5 329zM242 -485q-17 10 -17 20l4 16l21 48q9 22 39 16q56 -16 98 -16q65 0 110.5 27.5t45.5 66.5q0 34 -35 51.5
t-92 17.5q-18 0 -24.5 9t1.5 22l8 19q8 19 31 22q46 4 49 4q85 0 147 -43t62 -110q0 -86 -91.5 -143.5t-207.5 -57.5q-76 0 -149 31z" />
    <glyph glyph-name="Egrave" unicode="&#xc8;" horiz-adv-x="1157" 
d="M-39 287q0 157 131.5 297t362.5 202q-136 95 -136 258q-2 85 41.5 169t120 151t192 108t247.5 39q172 0 264 -80.5t92 -191.5q0 -82 -48 -138.5t-124 -56.5q-52 0 -79.5 27t-27.5 72q0 48 32.5 91t82.5 56q-11 45 -56 73t-120 28q-75 2 -145 -31.5t-118 -87.5t-75.5 -121
t-26.5 -131q0 -62 27.5 -114.5t77.5 -84.5q94 4 106 4q59 0 93 -17.5t34 -43.5q0 -27 -33.5 -46.5t-87.5 -19.5q-96 0 -184 21q-141 -48 -221 -152q-82 -104 -82 -217t79 -182.5t224 -69.5q188 0 346.5 114.5t237.5 279.5q9 20 35 20q20 0 37.5 -13.5t17.5 -31.5l-4 -16
q-41 -90 -120 -181.5t-184 -171t-240 -128.5t-271 -46q-234 0 -366 104t-132 259zM930 1573l-152 252q-4 8 -4 16q0 18 19 21l133 34l10 2q19 0 25 -20l102 -291q2 -2 2 -12q0 -21 -25 -21h-75q-22 0 -35 19z" />
    <glyph glyph-name="Eacute" unicode="&#xc9;" horiz-adv-x="1157" 
d="M-39 287q0 157 131.5 297t362.5 202q-136 95 -136 258q-2 85 41.5 169t120 151t192 108t247.5 39q172 0 264 -80.5t92 -191.5q0 -82 -48 -138.5t-124 -56.5q-52 0 -79.5 27t-27.5 72q0 48 32.5 91t82.5 56q-11 45 -56 73t-120 28q-75 2 -145 -31.5t-118 -87.5t-75.5 -121
t-26.5 -131q0 -62 27.5 -114.5t77.5 -84.5q94 4 106 4q59 0 93 -17.5t34 -43.5q0 -27 -33.5 -46.5t-87.5 -19.5q-96 0 -184 21q-141 -48 -221 -152q-82 -104 -82 -217t79 -182.5t224 -69.5q188 0 346.5 114.5t237.5 279.5q9 20 35 20q20 0 37.5 -13.5t17.5 -31.5l-4 -16
q-41 -90 -120 -181.5t-184 -171t-240 -128.5t-271 -46q-234 0 -366 104t-132 259zM965 1571q0 7 8 18l237 295q14 19 39 10l117 -45q18 -6 18 -20q0 -9 -10 -19l-282 -243q-13 -13 -35 -13h-68q-24 0 -24 17z" />
    <glyph glyph-name="Ecircumflex" unicode="&#xca;" horiz-adv-x="1157" 
d="M-39 287q0 157 131.5 297t362.5 202q-136 95 -136 258q-2 85 41.5 169t120 151t192 108t247.5 39q172 0 264 -80.5t92 -191.5q0 -82 -48 -138.5t-124 -56.5q-52 0 -79.5 27t-27.5 72q0 48 32.5 91t82.5 56q-11 45 -56 73t-120 28q-75 2 -145 -31.5t-118 -87.5t-75.5 -121
t-26.5 -131q0 -62 27.5 -114.5t77.5 -84.5q94 4 106 4q59 0 93 -17.5t34 -43.5q0 -27 -33.5 -46.5t-87.5 -19.5q-96 0 -184 21q-141 -48 -221 -152q-82 -104 -82 -217t79 -182.5t224 -69.5q188 0 346.5 114.5t237.5 279.5q9 20 35 20q20 0 37.5 -13.5t17.5 -31.5l-4 -16
q-41 -90 -120 -181.5t-184 -171t-240 -128.5t-271 -46q-234 0 -366 104t-132 259zM741 1571q0 7 11 18l284 279q14 14 35 14h113q12 0 20 -7.5t10 -19.5l50 -270v-8q0 -23 -25 -23h-59q-23 0 -33 23l-60 170l-210 -180q-13 -13 -37 -13h-74q-25 0 -25 17z" />
    <glyph glyph-name="Edieresis" unicode="&#xcb;" horiz-adv-x="1157" 
d="M-39 287q0 157 131.5 297t362.5 202q-136 95 -136 258q-2 85 41.5 169t120 151t192 108t247.5 39q172 0 264 -80.5t92 -191.5q0 -82 -48 -138.5t-124 -56.5q-52 0 -79.5 27t-27.5 72q0 48 32.5 91t82.5 56q-11 45 -56 73t-120 28q-75 2 -145 -31.5t-118 -87.5t-75.5 -121
t-26.5 -131q0 -62 27.5 -114.5t77.5 -84.5q94 4 106 4q59 0 93 -17.5t34 -43.5q0 -27 -33.5 -46.5t-87.5 -19.5q-96 0 -184 21q-141 -48 -221 -152q-82 -104 -82 -217t79 -182.5t224 -69.5q188 0 346.5 114.5t237.5 279.5q9 20 35 20q20 0 37.5 -13.5t17.5 -31.5l-4 -16
q-41 -90 -120 -181.5t-184 -171t-240 -128.5t-271 -46q-234 0 -366 104t-132 259zM1096 1683q0 52 45 97t106 45q82 0 82 -76q0 -52 -43 -94.5t-106 -42.5q-41 0 -62.5 19.5t-21.5 51.5zM807 1683q0 52 45 97t106 45q82 0 82 -76q0 -52 -43 -94.5t-106 -42.5
q-41 0 -62.5 19.5t-21.5 51.5z" />
    <glyph glyph-name="Igrave" unicode="&#xcc;" horiz-adv-x="966" 
d="M272 -47q-130 -62 -249 -62q-114 0 -177 48t-63 124q0 41 18 78q7 17 19 17t22 -13q55 -61 150 -61q114 0 227 82q-6 61 -6 127q0 262 88 545q87 281 234 475q144 190 307 190q96 0 145 -71t49 -201q0 -179 -88 -418q-89 -239 -239 -459q-152 -220 -332 -342
q26 -78 84 -129q18 -15 18 -37q0 -21 -15 -37t-38 -16t-47 17q-68 50 -107 143zM795 1284q0 70 -35 70q-80 0 -182 -178q-101 -176 -172 -437q-70 -253 -70 -471q123 129 231 334q103 195 166 391q62 195 62 291zM795 1573l-152 252q-4 8 -4 16q0 18 18 21l134 34l10 2
q18 0 24 -20l103 -291q2 -2 2 -12q0 -21 -25 -21h-76q-21 0 -34 19z" />
    <glyph glyph-name="Iacute" unicode="&#xcd;" horiz-adv-x="966" 
d="M272 -47q-130 -62 -249 -62q-114 0 -177 48t-63 124q0 41 18 78q7 17 19 17t22 -13q55 -61 150 -61q114 0 227 82q-6 61 -6 127q0 262 88 545q87 281 234 475q144 190 307 190q96 0 145 -71t49 -201q0 -179 -88 -418q-89 -239 -239 -459q-152 -220 -332 -342
q26 -78 84 -129q18 -15 18 -37q0 -21 -15 -37t-38 -16t-47 17q-68 50 -107 143zM795 1284q0 70 -35 70q-80 0 -182 -178q-101 -176 -172 -437q-70 -253 -70 -471q123 129 231 334q103 195 166 391q62 195 62 291zM829 1571q0 6 9 18l237 295q14 19 39 10l117 -45
q18 -6 18 -20q0 -9 -10 -19l-283 -243q-13 -13 -34 -13h-68q-25 0 -25 17z" />
    <glyph glyph-name="Icircumflex" unicode="&#xce;" horiz-adv-x="966" 
d="M272 -47q-130 -62 -249 -62q-114 0 -177 48t-63 124q0 41 18 78q7 17 19 17t22 -13q55 -61 150 -61q114 0 227 82q-6 61 -6 127q0 262 88 545q87 281 234 475q144 190 307 190q96 0 145 -71t49 -201q0 -179 -88 -418q-89 -239 -239 -459q-152 -220 -332 -342
q26 -78 84 -129q18 -15 18 -37q0 -21 -15 -37t-38 -16t-47 17q-68 50 -107 143zM795 1284q0 70 -35 70q-80 0 -182 -178q-101 -176 -172 -437q-70 -253 -70 -471q123 129 231 334q103 195 166 391q62 195 62 291zM606 1571q0 8 10 18l285 279q14 14 35 14h113q12 0 20 -7.5
t10 -19.5l49 -270v-8q0 -23 -24 -23h-60q-22 0 -32 23l-60 170l-211 -180q-13 -13 -36 -13h-74q-25 0 -25 17z" />
    <glyph glyph-name="Idieresis" unicode="&#xcf;" horiz-adv-x="966" 
d="M272 -47q-130 -62 -249 -62q-114 0 -177 48t-63 124q0 41 18 78q7 17 19 17t22 -13q55 -61 150 -61q114 0 227 82q-6 61 -6 127q0 262 88 545q87 281 234 475q144 190 307 190q96 0 145 -71t49 -201q0 -179 -88 -418q-89 -239 -239 -459q-152 -220 -332 -342
q26 -78 84 -129q18 -15 18 -37q0 -21 -15 -37t-38 -16t-47 17q-68 50 -107 143zM795 1284q0 70 -35 70q-80 0 -182 -178q-101 -176 -172 -437q-70 -253 -70 -471q123 129 231 334q103 195 166 391q62 195 62 291zM961 1683q0 52 45 97t106 45q82 0 82 -76q0 -52 -43.5 -94.5
t-106.5 -42.5q-41 0 -62 19.5t-21 51.5zM672 1683q0 52 45 97t106 45q82 0 82 -76q0 -52 -43 -94.5t-106 -42.5q-41 0 -62.5 19.5t-21.5 51.5z" />
    <glyph glyph-name="Eth" unicode="&#xd0;" horiz-adv-x="1660" 
d="M444 -12l-57 24q-106 -69 -221 -69q-70 0 -109 26t-39 68q0 54 62 96.5t158 42.5q9 0 59 -4q45 81 147 334h-243q-13 0 -21 8.5t-6 22.5l2 14q6 24 33 24h264q8 21 16.5 40.5t17 37.5t11.5 25q91 202 170 330q76 127 163.5 198.5t199.5 91.5l8 2q17 0 26 -18l2 -2
q5 -10 5 -16q0 -12 -11 -23q-29 -32 -59 -96q-14 -30 -78 -184l-117 -283l-45 -103h254q14 0 21 -8.5t6 -21.5l-2 -15q-6 -24 -33 -24h-278q-130 -269 -252 -400q85 -36 159 -36q167 0 338 151q173 156 279 377q108 225 108 420q0 182 -100 284.5t-297 102.5
q-124 3 -243 -43t-204.5 -121.5t-136 -174t-47.5 -196.5q0 -93 39 -172q1 -3 2 -6.5t1.5 -5t0.5 -2.5q0 -20 -22 -20q-107 -8 -168.5 68.5t-61.5 178.5q0 127 103 269q107 144 295 237q197 96 444 96q134 0 244 -29.5t187.5 -82.5t130 -127t77.5 -161t25 -187
q0 -229 -123 -463q-124 -235 -338 -385q-217 -152 -475 -152q-80 0 -135.5 14t-135.5 48z" />
    <glyph glyph-name="Ntilde" unicode="&#xd1;" horiz-adv-x="1656" 
d="M-92 14l-2 9q0 18 22 24q134 44 271.5 195.5t261.5 392.5l209 399l37 72q44 89 64.5 125.5t47.5 66.5q-56 13 -78 21q-103 33 -186 33q-126 0 -200 -76.5t-74 -196.5q0 -94 45 -180q1 -3 2 -6.5t1.5 -5t0.5 -2.5q0 -21 -23 -21q-102 -7 -162.5 61t-60.5 179
q0 161 128 278t314 117q63 0 119.5 -14.5t142.5 -48.5q63 -23 86.5 -31t59 -15.5t67.5 -7.5q45 0 76 7h6q27 0 21 -27q-4 -28 -4 -64q0 -18 3 -59t3 -51l53 -754l217 467q84 180 154 311q152 279 289 279q57 0 90 -28.5t45 -92.5l2 -8q0 -21 -25 -27q-112 -34 -215.5 -167.5
t-214.5 -370.5l-371 -795q-9 -22 -32 -25l-158 -24h-6q-22 0 -25 27l-80 1044l-243 -494q-152 -305 -290.5 -470.5t-252.5 -165.5q-58 0 -90.5 27.5t-44.5 92.5zM1368 1573q-34 26 -55.5 36.5t-46.5 10.5q-65 0 -117 -55q-15 -15 -23 -15q-7 0 -16 6q-22 13 -10 37
q37 71 96 116.5t125 45.5q37 0 68 -13t71 -44q65 -47 115 -47q38 0 76.5 22.5t68.5 59.5q15 24 37 12q22 -16 10 -37q-38 -91 -100 -144t-141 -53q-44 0 -77.5 14t-80.5 48z" />
    <glyph glyph-name="Ograve" unicode="&#xd2;" horiz-adv-x="1359" 
d="M49 352q-2 159 70 345t203 347t284 236q74 108 182 169.5t238 61.5q174 0 263 -109t89 -300q0 -239 -129 -512q-128 -271 -346 -459q-216 -186 -469 -186q-190 0 -287.5 108.5t-97.5 298.5zM1143 1180q0 95 -31 147.5t-92 52.5q-73 4 -147 -66.5t-120.5 -185
t-43.5 -229.5q0 -43 10 -111l2 -10q-3 -23 -27 -20q-126 12 -166 129q-82 -142 -132 -297t-50 -273q0 -96 38 -150t112 -54q152 0 301 186q155 194 247 442q99 258 99 439zM1024 1573l-152 252q-4 8 -4 16q0 18 19 21l133 34l10 2q19 0 25 -20l102 -291q2 -2 2 -12
q0 -21 -24 -21h-76q-22 0 -35 19z" />
    <glyph glyph-name="Oacute" unicode="&#xd3;" horiz-adv-x="1359" 
d="M49 352q-2 159 70 345t203 347t284 236q74 108 182 169.5t238 61.5q174 0 263 -109t89 -300q0 -239 -129 -512q-128 -271 -346 -459q-216 -186 -469 -186q-190 0 -287.5 108.5t-97.5 298.5zM1143 1180q0 95 -31 147.5t-92 52.5q-73 4 -147 -66.5t-120.5 -185
t-43.5 -229.5q0 -43 10 -111l2 -10q-3 -23 -27 -20q-126 12 -166 129q-82 -142 -132 -297t-50 -273q0 -96 38 -150t112 -54q152 0 301 186q155 194 247 442q99 258 99 439zM1059 1571q0 7 8 18l238 295q14 19 38 10l117 -45q19 -6 19 -20q0 -8 -11 -19l-282 -243
q-13 -13 -35 -13h-68q-24 0 -24 17z" />
    <glyph glyph-name="Ocircumflex" unicode="&#xd4;" horiz-adv-x="1359" 
d="M49 352q-2 159 70 345t203 347t284 236q74 108 182 169.5t238 61.5q174 0 263 -109t89 -300q0 -239 -129 -512q-128 -271 -346 -459q-216 -186 -469 -186q-190 0 -287.5 108.5t-97.5 298.5zM1143 1180q0 95 -31 147.5t-92 52.5q-73 4 -147 -66.5t-120.5 -185
t-43.5 -229.5q0 -43 10 -111l2 -10q-3 -23 -27 -20q-126 12 -166 129q-82 -142 -132 -297t-50 -273q0 -96 38 -150t112 -54q152 0 301 186q155 194 247 442q99 258 99 439zM836 1571q0 8 10 18l284 279q14 14 35 14h113q12 0 21 -7.5t10 -19.5l49 -270v-8q0 -23 -25 -23h-59
q-23 0 -33 23l-59 170l-211 -180q-13 -13 -37 -13h-74q-24 0 -24 17z" />
    <glyph glyph-name="Otilde" unicode="&#xd5;" horiz-adv-x="1359" 
d="M49 352q-2 159 70 345t203 347t284 236q74 108 182 169.5t238 61.5q174 0 263 -109t89 -300q0 -239 -129 -512q-128 -271 -346 -459q-216 -186 -469 -186q-190 0 -287.5 108.5t-97.5 298.5zM1143 1180q0 95 -31 147.5t-92 52.5q-73 4 -147 -66.5t-120.5 -185
t-43.5 -229.5q0 -43 10 -111l2 -10q-3 -23 -27 -20q-126 12 -166 129q-82 -142 -132 -297t-50 -273q0 -96 38 -150t112 -54q152 0 301 186q155 194 247 442q99 258 99 439zM1110 1657q-34 26 -55.5 36.5t-46.5 10.5q-65 0 -117 -55q-15 -15 -23 -15q-7 0 -16 6
q-22 13 -10 37q37 71 96 116.5t125 45.5q37 0 68 -13t71 -44q65 -47 115 -47q38 0 76.5 22.5t68.5 59.5q15 24 37 12q22 -16 10 -37q-38 -91 -100 -144t-141 -53q-44 0 -77.5 14t-80.5 48z" />
    <glyph glyph-name="Odieresis" unicode="&#xd6;" horiz-adv-x="1359" 
d="M49 352q-2 159 70 345t203 347t284 236q74 108 182 169.5t238 61.5q174 0 263 -109t89 -300q0 -239 -129 -512q-128 -271 -346 -459q-216 -186 -469 -186q-190 0 -287.5 108.5t-97.5 298.5zM1143 1180q0 95 -31 147.5t-92 52.5q-73 4 -147 -66.5t-120.5 -185
t-43.5 -229.5q0 -43 10 -111l2 -10q-3 -23 -27 -20q-126 12 -166 129q-82 -142 -132 -297t-50 -273q0 -96 38 -150t112 -54q152 0 301 186q155 194 247 442q99 258 99 439zM1190 1683q0 52 45 97t106 45q82 0 82 -76q0 -52 -43 -94.5t-106 -42.5q-41 0 -62.5 19.5
t-21.5 51.5zM901 1683q0 52 45.5 97t106.5 45q82 0 82 -76q0 -52 -43.5 -94.5t-106.5 -42.5q-41 0 -62.5 19.5t-21.5 51.5z" />
    <glyph glyph-name="multiply" unicode="&#xd7;" horiz-adv-x="1011" 
d="M844 322q-12 0 -21 12l-217 272l-327 -274q-8 -8 -19 -8q-13 0 -22 12l-17 20q-8 11 -8 21q0 11 12 20l328 275l-217 270q-8 11 -8 21q0 11 12 20l33 29q8 8 18 8q14 0 23 -12l217 -271l330 275q8 8 20 8q11 0 20 -12l17 -23q8 -13 8 -20q0 -12 -12 -21l-330 -274
l219 -273q8 -11 8 -20q0 -12 -12 -21l-35 -26q-11 -8 -20 -8z" />
    <glyph glyph-name="Oslash" unicode="&#xd8;" horiz-adv-x="1359" 
d="M31 -143q0 10 8 18l131 156q-121 106 -121 321q-2 159 70 345t203 347t284 236q74 108 182 169.5t238 61.5q195 0 283 -137l80 94q17 17 34 17h21q24 0 24 -17q0 -10 -8 -18l-117 -139q35 -96 35 -209q0 -239 -129 -512q-128 -271 -346 -459q-216 -186 -469 -186
q-124 0 -207 47l-112 -135q-14 -17 -35 -17h-25q-24 0 -24 17zM1133 1061l-752 -889q41 -59 115 -59q134 0 272 153q137 152 236 377q102 225 129 418zM352 246l791 932q0 98 -31 150t-92 52q-73 4 -147 -66.5t-120.5 -185t-43.5 -229.5q0 -43 10 -111l2 -10q-3 -23 -27 -20
q-126 12 -166 129q-82 -142 -132 -297t-50 -273q0 -37 6 -71z" />
    <glyph glyph-name="Ugrave" unicode="&#xd9;" horiz-adv-x="1572" 
d="M250 190q0 147 102 353l228 450q71 139 71 240q0 64 -31.5 99.5t-93.5 35.5q-80 0 -148 -57.5t-105 -147t-37 -186.5q0 -100 38 -172q5 -10 5 -19q0 -15 -21 -18q-99 -7 -160 59.5t-61 176.5q-2 78 40 166.5t111 161.5t166 120t195 43q152 0 257 -98.5t105 -255.5
q0 -133 -80 -287l-186 -362q-61 -119 -61 -199q0 -94 78 -94q89 0 222 165t285 488l234 500q9 20 33 20h258q14 0 20 -10t0 -23l-446 -958q-54 -111 -54 -178q0 -29 12.5 -45.5t33.5 -16.5q66 0 170 101.5t174 249.5q9 20 34 20q20 0 38 -13.5t18 -31.5l-4 -16
q-98 -208 -272.5 -353t-323.5 -145q-89 0 -143 52t-54 149q0 41 8 77q-221 -280 -426 -280q-106 0 -167.5 62t-61.5 177zM1100 1430l-152 251q-4 8 -4 17q0 17 19 20l133 35l10 2q18 0 24 -20l103 -291q2 -2 2 -12q0 -21 -25 -21h-75q-22 0 -35 19z" />
    <glyph glyph-name="Uacute" unicode="&#xda;" horiz-adv-x="1572" 
d="M250 190q0 147 102 353l228 450q71 139 71 240q0 64 -31.5 99.5t-93.5 35.5q-80 0 -148 -57.5t-105 -147t-37 -186.5q0 -100 38 -172q5 -10 5 -19q0 -15 -21 -18q-99 -7 -160 59.5t-61 176.5q-2 78 40 166.5t111 161.5t166 120t195 43q152 0 257 -98.5t105 -255.5
q0 -133 -80 -287l-186 -362q-61 -119 -61 -199q0 -94 78 -94q89 0 222 165t285 488l234 500q9 20 33 20h258q14 0 20 -10t0 -23l-446 -958q-54 -111 -54 -178q0 -29 12.5 -45.5t33.5 -16.5q66 0 170 101.5t174 249.5q9 20 34 20q20 0 38 -13.5t18 -31.5l-4 -16
q-98 -208 -272.5 -353t-323.5 -145q-89 0 -143 52t-54 149q0 41 8 77q-221 -280 -426 -280q-106 0 -167.5 62t-61.5 177zM1135 1427q0 8 8 19l237 295q14 19 39 10l117 -45q18 -6 18 -20q0 -9 -10 -19l-282 -244q-12 -12 -35 -12h-68q-24 0 -24 16z" />
    <glyph glyph-name="Ucircumflex" unicode="&#xdb;" horiz-adv-x="1572" 
d="M250 190q0 147 102 353l228 450q71 139 71 240q0 64 -31.5 99.5t-93.5 35.5q-80 0 -148 -57.5t-105 -147t-37 -186.5q0 -100 38 -172q5 -10 5 -19q0 -15 -21 -18q-99 -7 -160 59.5t-61 176.5q-2 78 40 166.5t111 161.5t166 120t195 43q152 0 257 -98.5t105 -255.5
q0 -133 -80 -287l-186 -362q-61 -119 -61 -199q0 -94 78 -94q89 0 222 165t285 488l234 500q9 20 33 20h258q14 0 20 -10t0 -23l-446 -958q-54 -111 -54 -178q0 -29 12.5 -45.5t33.5 -16.5q66 0 170 101.5t174 249.5q9 20 34 20q20 0 38 -13.5t18 -31.5l-4 -16
q-98 -208 -272.5 -353t-323.5 -145q-89 0 -143 52t-54 149q0 41 8 77q-221 -280 -426 -280q-106 0 -167.5 62t-61.5 177zM911 1427q0 8 11 19l284 278q15 15 35 15h113q12 0 20 -7.5t10 -19.5l50 -270v-8q0 -23 -25 -23h-59q-23 0 -33 23l-60 170l-210 -181q-12 -12 -37 -12
h-74q-25 0 -25 16z" />
    <glyph glyph-name="Udieresis" unicode="&#xdc;" horiz-adv-x="1572" 
d="M250 190q0 147 102 353l228 450q71 139 71 240q0 64 -31.5 99.5t-93.5 35.5q-80 0 -148 -57.5t-105 -147t-37 -186.5q0 -100 38 -172q5 -10 5 -19q0 -15 -21 -18q-99 -7 -160 59.5t-61 176.5q-2 78 40 166.5t111 161.5t166 120t195 43q152 0 257 -98.5t105 -255.5
q0 -133 -80 -287l-186 -362q-61 -119 -61 -199q0 -94 78 -94q89 0 222 165t285 488l234 500q9 20 33 20h258q14 0 20 -10t0 -23l-446 -958q-54 -111 -54 -178q0 -29 12.5 -45.5t33.5 -16.5q66 0 170 101.5t174 249.5q9 20 34 20q20 0 38 -13.5t18 -31.5l-4 -16
q-98 -208 -272.5 -353t-323.5 -145q-89 0 -143 52t-54 149q0 41 8 77q-221 -280 -426 -280q-106 0 -167.5 62t-61.5 177zM1266 1540q0 52 45 96.5t106 44.5q82 0 82 -75q0 -52 -43 -95t-106 -43q-41 0 -62.5 20t-21.5 52zM977 1540q0 52 45 96.5t106 44.5q82 0 82 -75
q0 -52 -43 -95t-106 -43q-41 0 -62.5 20t-21.5 52z" />
    <glyph glyph-name="Yacute" unicode="&#xdd;" horiz-adv-x="1527" 
d="M127 -434q0 259 633 403l108 234q-184 -205 -366 -205q-106 0 -168 62.5t-62 177.5q0 144 105 352l203 403q69 141 69 242q0 64 -31 98.5t-92 34.5q-80 0 -147.5 -57.5t-104 -147.5t-36.5 -188q0 -99 36 -170q5 -10 5 -19q0 -15 -21 -18q-99 -7 -160 59.5t-61 176.5
q-2 78 40 166.5t111 161.5t166 120t195 43q152 0 257 -98.5t105 -255.5q0 -133 -80 -287l-161 -313q-62 -115 -62 -199q0 -47 20.5 -71.5t57.5 -24.5q82 0 204.5 143t262.5 424l250 539q9 20 35 20h256q14 0 20 -10t0 -23l-588 -1257q152 64 257 160.5t176 249.5q9 20 34 20
q21 0 38.5 -13.5t17.5 -31.5l-4 -16q-100 -211 -242 -320q-136 -107 -336 -180q-126 -257 -281 -426q-155 -168 -383 -168q-128 0 -202 56t-74 153zM709 -141q-198 -48 -318.5 -125t-120.5 -158q0 -41 30 -66.5t79 -25.5q172 0 330 375zM1135 1427q0 8 8 19l237 295
q14 19 39 10l117 -45q18 -6 18 -20q0 -9 -10 -19l-282 -244q-12 -12 -35 -12h-68q-24 0 -24 16z" />
    <glyph glyph-name="Thorn" unicode="&#xde;" horiz-adv-x="1554" 
d="M88 -164l-4 12q0 13 14 27q69 60 111 121q35 50 98 180l236 502q126 267 254 444q-238 -25 -394.5 -164.5t-156.5 -320.5q0 -93 39 -170q4 -8 4 -16q0 -18 -23 -21q-105 -8 -167 71t-62 177q-4 108 65 211.5t184.5 180t274 122.5t324.5 43q177 198 368 262q2 2 13 2
q14 0 24 -16q6 -9 6 -19q0 -13 -12 -22q-91 -82 -180 -230q203 -47 309 -168q109 -121 109 -272q1 -86 -35 -170t-110.5 -158.5t-177.5 -131t-245 -89t-303 -30.5h-20l-23 -50q-79 -168 -180 -264t-219 -96q-91 0 -121 53zM1272 842q0 96 -56.5 166t-166.5 100
q-12 -26 -103 -225q-80 -184 -90 -205l-174 -377q113 -4 224.5 47t191.5 130.5t128.5 177.5t45.5 186z" />
    <glyph glyph-name="germandbls" unicode="&#xdf;" horiz-adv-x="1087" 
d="M305 39q0 9 4 29q9 20 33 20q89 6 165 47.5t126.5 121t50.5 181.5q0 75 -25 191q-16 94 -16 121q0 67 43 122t152 146q102 82 146 137.5t44 118.5q0 52 -26.5 85.5t-75.5 33.5q-82 0 -156 -80q-69 -74 -124.5 -173t-125.5 -257l-24 -54l-377 -809q-9 -20 -35 -20h-246
q-14 0 -20 10t0 23l213 459l178 380q76 162 153 285q80 128 224 244q140 110 323 110q143 0 213 -64.5t70 -178.5q0 -74 -27.5 -136.5t-69 -107.5t-116.5 -109q-72 -61 -98.5 -93t-26.5 -68q0 -26 39 -115q32 -68 45.5 -116.5t13.5 -106.5q0 -93 -55 -187q143 102 221 263
q9 20 35 20q20 0 37.5 -13.5t17.5 -31.5l-4 -16q-71 -154 -205.5 -267t-295 -169t-328.5 -56q-34 0 -52 23t-18 57z" />
    <glyph glyph-name="agrave" unicode="&#xe0;" 
d="M-66 227q0 138 80 295q83 156 219 260q137 107 306 107q159 0 227 -105l49 56q16 16 35 16h199q14 0 20 -10t0 -23l-201 -436q-41 -90 -41 -145q0 -36 16.5 -57t43.5 -21q107 0 266 328q9 20 35 20q20 0 37.5 -13.5t17.5 -31.5l-4 -16q-107 -229 -244.5 -355.5
t-287.5 -126.5q-86 0 -137 44.5t-62 125.5q-150 -170 -330 -170q-120 0 -182 69t-62 189zM588 449l104 225q-27 82 -102 82q-80 0 -162 -88q-79 -82 -137 -207q-55 -119 -55 -209q0 -102 81 -102q66 0 136.5 80.5t134.5 218.5zM623 1004l-152 251q-4 8 -4 17q0 17 18 20
l133 35l11 2q18 0 24 -20l103 -291q2 -2 2 -12q0 -21 -25 -21h-76q-21 0 -34 19z" />
    <glyph glyph-name="aacute" unicode="&#xe1;" 
d="M-66 227q0 138 80 295q83 156 219 260q137 107 306 107q159 0 227 -105l49 56q16 16 35 16h199q14 0 20 -10t0 -23l-201 -436q-41 -90 -41 -145q0 -36 16.5 -57t43.5 -21q107 0 266 328q9 20 35 20q20 0 37.5 -13.5t17.5 -31.5l-4 -16q-107 -229 -244.5 -355.5
t-287.5 -126.5q-86 0 -137 44.5t-62 125.5q-150 -170 -330 -170q-120 0 -182 69t-62 189zM588 449l104 225q-27 82 -102 82q-80 0 -162 -88q-79 -82 -137 -207q-55 -119 -55 -209q0 -102 81 -102q66 0 136.5 80.5t134.5 218.5zM657 1001q0 7 9 19l237 295q14 19 39 10
l117 -45q18 -6 18 -20q0 -9 -10 -19l-283 -244q-12 -12 -34 -12h-68q-25 0 -25 16z" />
    <glyph glyph-name="acircumflex" unicode="&#xe2;" 
d="M-66 227q0 138 80 295q83 156 219 260q137 107 306 107q159 0 227 -105l49 56q16 16 35 16h199q14 0 20 -10t0 -23l-201 -436q-41 -90 -41 -145q0 -36 16.5 -57t43.5 -21q107 0 266 328q9 20 35 20q20 0 37.5 -13.5t17.5 -31.5l-4 -16q-107 -229 -244.5 -355.5
t-287.5 -126.5q-86 0 -137 44.5t-62 125.5q-150 -170 -330 -170q-120 0 -182 69t-62 189zM588 449l104 225q-27 82 -102 82q-80 0 -162 -88q-79 -82 -137 -207q-55 -119 -55 -209q0 -102 81 -102q66 0 136.5 80.5t134.5 218.5zM434 1001q0 9 10 19l285 278q15 15 35 15h113
q12 0 20 -7.5t10 -19.5l49 -270v-8q0 -23 -24 -23h-60q-22 0 -32 23l-60 170l-211 -181q-12 -12 -37 -12h-73q-25 0 -25 16z" />
    <glyph glyph-name="atilde" unicode="&#xe3;" 
d="M-66 227q0 138 80 295q83 156 219 260q137 107 306 107q159 0 227 -105l49 56q16 16 35 16h199q14 0 20 -10t0 -23l-201 -436q-41 -90 -41 -145q0 -36 16.5 -57t43.5 -21q107 0 266 328q9 20 35 20q20 0 37.5 -13.5t17.5 -31.5l-4 -16q-107 -229 -244.5 -355.5
t-287.5 -126.5q-86 0 -137 44.5t-62 125.5q-150 -170 -330 -170q-120 0 -182 69t-62 189zM588 449l104 225q-27 82 -102 82q-80 0 -162 -88q-79 -82 -137 -207q-55 -119 -55 -209q0 -102 81 -102q66 0 136.5 80.5t134.5 218.5zM709 1087q-35 27 -56.5 37.5t-46.5 10.5
q-64 0 -117 -56q-14 -14 -22 -14q-7 0 -16 6q-23 13 -11 37q37 71 96.5 116.5t125.5 45.5q37 0 68 -13.5t71 -44.5q65 -47 114 -47q38 0 77 22.5t69 59.5q16 25 37 13q22 -16 10 -37q-38 -91 -100.5 -144t-141.5 -53q-45 0 -77.5 14t-79.5 47z" />
    <glyph glyph-name="adieresis" unicode="&#xe4;" 
d="M-66 227q0 138 80 295q83 156 219 260q137 107 306 107q159 0 227 -105l49 56q16 16 35 16h199q14 0 20 -10t0 -23l-201 -436q-41 -90 -41 -145q0 -36 16.5 -57t43.5 -21q107 0 266 328q9 20 35 20q20 0 37.5 -13.5t17.5 -31.5l-4 -16q-107 -229 -244.5 -355.5
t-287.5 -126.5q-86 0 -137 44.5t-62 125.5q-150 -170 -330 -170q-120 0 -182 69t-62 189zM588 449l104 225q-27 82 -102 82q-80 0 -162 -88q-79 -82 -137 -207q-55 -119 -55 -209q0 -102 81 -102q66 0 136.5 80.5t134.5 218.5zM788 1114q0 52 45.5 96.5t106.5 44.5
q82 0 82 -75q0 -52 -43.5 -95t-106.5 -43q-41 0 -62.5 20t-21.5 52zM500 1114q0 52 45 96.5t106 44.5q82 0 82 -75q0 -52 -43 -95t-106 -43q-41 0 -62.5 20t-21.5 52z" />
    <glyph glyph-name="aring" unicode="&#xe5;" 
d="M-66 227q0 138 80 295q83 156 219 260q137 107 306 107q159 0 227 -105l49 56q16 16 35 16h199q14 0 20 -10t0 -23l-201 -436q-41 -90 -41 -145q0 -36 16.5 -57t43.5 -21q107 0 266 328q9 20 35 20q20 0 37.5 -13.5t17.5 -31.5l-4 -16q-107 -229 -244.5 -355.5
t-287.5 -126.5q-86 0 -137 44.5t-62 125.5q-150 -170 -330 -170q-120 0 -182 69t-62 189zM588 449l104 225q-27 82 -102 82q-80 0 -162 -88q-79 -82 -137 -207q-55 -119 -55 -209q0 -102 81 -102q66 0 136.5 80.5t134.5 218.5zM571 1118q0 82 66 139q68 56 151 56
q64 0 104 -35.5t40 -97.5q0 -83 -63.5 -139t-151.5 -56q-65 0 -105.5 35.5t-40.5 97.5zM846 1169q0 32 -19.5 53t-50.5 21q-45 0 -81 -35t-36 -82q0 -32 20 -51.5t52 -19.5q45 0 80 34t35 80z" />
    <glyph glyph-name="ae" unicode="&#xe6;" horiz-adv-x="1556" 
d="M631 141q-79 -86 -179.5 -133t-209.5 -47q-150 0 -237 87.5t-87 211.5q0 134 99 230t268 96q176 0 368 -97q11 57 11 86q0 89 -46.5 141t-134.5 52q-120 0 -172 -88q-16 -32 -39 -12q-26 23 -26 57q0 62 81 116t183 54q121 0 197.5 -53t103.5 -148q88 92 197 143.5
t225 51.5t182 -50.5t66 -131.5q2 -62 -38.5 -130t-112.5 -127.5t-182.5 -104.5t-236.5 -58v-19q0 -157 162 -157q156 0 294 102t220 279q9 20 35 20q20 0 37.5 -13.5t17.5 -31.5l-4 -16q-108 -232 -301 -363q-194 -129 -422 -129q-126 0 -207 47.5t-112 134.5zM618 383
q-123 63 -227 63q-93 0 -147 -50t-54 -122q0 -61 38.5 -101t103.5 -40q84 0 162 70.5t124 179.5zM1350 702q0 32 -22.5 53t-57.5 21q-57 0 -126 -57t-125.5 -144.5t-84.5 -177.5q94 15 175.5 51t132.5 80.5t79.5 90t28.5 83.5z" />
    <glyph glyph-name="ccedilla" unicode="&#xe7;" horiz-adv-x="866" 
d="M-59 256q0 132 84 285q83 146 227 247q140 101 303 101q119 0 184.5 -55.5t65.5 -139.5q0 -71 -42.5 -122.5t-109.5 -51.5q-48 0 -73 25t-25 69q0 33 24.5 70t61.5 55q-20 23 -55 23q-46 4 -109 -47.5t-116 -127.5t-89 -165.5t-34 -153.5q0 -157 163 -157
q135 0 276.5 106.5t219.5 274.5q9 20 35 20q20 0 37.5 -13.5t17.5 -31.5l-4 -16q-109 -230 -301 -361t-403 -131q-166 0 -252 79.5t-86 217.5zM-33 -416q-16 10 -16 21l4 16l20 47q10 23 39 17q60 -17 99 -17q65 0 110 27.5t45 66.5q0 34 -35.5 52t-91.5 18q-18 0 -24 9
t2 22l8 18q8 20 31 23q46 4 49 4q85 0 147 -43.5t62 -110.5q0 -86 -91.5 -143t-207.5 -57q-79 0 -150 30z" />
    <glyph glyph-name="egrave" unicode="&#xe8;" horiz-adv-x="884" 
d="M-59 256q-2 80 29.5 170t90.5 172.5t135 149.5t172 105.5t193 35.5q116 0 182 -50.5t66 -131.5q2 -62 -38 -130t-112 -127.5t-182.5 -104.5t-236.5 -58v-19q0 -157 161 -157q156 0 294 102t220 279q9 20 35 20q20 0 38 -13.5t18 -31.5q0 -1 -1 -3t-2 -6t-2 -7
q-108 -232 -301 -363q-194 -129 -421 -129q-166 0 -252 79.5t-86 217.5zM635 696q0 37 -21.5 58.5t-54.5 21.5q-79 0 -164 -117q-87 -119 -133 -262q76 12 140.5 37.5t106.5 57.5t71 69t42 71t13 64zM535 1004l-152 251q-4 8 -4 17q0 17 18 20l133 35l11 2q18 0 24 -20
l103 -291q2 -2 2 -12q0 -21 -25 -21h-76q-21 0 -34 19z" />
    <glyph glyph-name="eacute" unicode="&#xe9;" horiz-adv-x="884" 
d="M-59 256q-2 80 29.5 170t90.5 172.5t135 149.5t172 105.5t193 35.5q116 0 182 -50.5t66 -131.5q2 -62 -38 -130t-112 -127.5t-182.5 -104.5t-236.5 -58v-19q0 -157 161 -157q156 0 294 102t220 279q9 20 35 20q20 0 38 -13.5t18 -31.5q0 -1 -1 -3t-2 -6t-2 -7
q-108 -232 -301 -363q-194 -129 -421 -129q-166 0 -252 79.5t-86 217.5zM635 696q0 37 -21.5 58.5t-54.5 21.5q-79 0 -164 -117q-87 -119 -133 -262q76 12 140.5 37.5t106.5 57.5t71 69t42 71t13 64zM569 1001q0 7 9 19l237 295q14 19 39 10l117 -45q18 -6 18 -20
q0 -9 -10 -19l-283 -244q-12 -12 -34 -12h-68q-25 0 -25 16z" />
    <glyph glyph-name="ecircumflex" unicode="&#xea;" horiz-adv-x="884" 
d="M-59 256q-2 80 29.5 170t90.5 172.5t135 149.5t172 105.5t193 35.5q116 0 182 -50.5t66 -131.5q2 -62 -38 -130t-112 -127.5t-182.5 -104.5t-236.5 -58v-19q0 -157 161 -157q156 0 294 102t220 279q9 20 35 20q20 0 38 -13.5t18 -31.5q0 -1 -1 -3t-2 -6t-2 -7
q-108 -232 -301 -363q-194 -129 -421 -129q-166 0 -252 79.5t-86 217.5zM635 696q0 37 -21.5 58.5t-54.5 21.5q-79 0 -164 -117q-87 -119 -133 -262q76 12 140.5 37.5t106.5 57.5t71 69t42 71t13 64zM346 1001q0 9 10 19l285 278q15 15 35 15h112q12 0 21 -7.5t10 -19.5
l49 -270v-8q0 -23 -24 -23h-60q-22 0 -32 23l-60 170l-211 -181q-12 -12 -37 -12h-73q-25 0 -25 16z" />
    <glyph glyph-name="edieresis" unicode="&#xeb;" horiz-adv-x="884" 
d="M-59 256q-2 80 29.5 170t90.5 172.5t135 149.5t172 105.5t193 35.5q116 0 182 -50.5t66 -131.5q2 -62 -38 -130t-112 -127.5t-182.5 -104.5t-236.5 -58v-19q0 -157 161 -157q156 0 294 102t220 279q9 20 35 20q20 0 38 -13.5t18 -31.5q0 -1 -1 -3t-2 -6t-2 -7
q-108 -232 -301 -363q-194 -129 -421 -129q-166 0 -252 79.5t-86 217.5zM635 696q0 37 -21.5 58.5t-54.5 21.5q-79 0 -164 -117q-87 -119 -133 -262q76 12 140.5 37.5t106.5 57.5t71 69t42 71t13 64zM700 1114q0 52 45.5 96.5t106.5 44.5q82 0 82 -75q0 -52 -43.5 -95
t-106.5 -43q-41 0 -62.5 20t-21.5 52zM412 1114q0 52 45 96.5t106 44.5q82 0 82 -75q0 -52 -43 -95t-106 -43q-41 0 -62.5 20t-21.5 52z" />
    <glyph glyph-name="igrave" unicode="&#xec;" horiz-adv-x="571" 
d="M-68 178q0 101 60 230l39 84l157 344q9 20 35 20h246q14 0 20 -10t0 -23l-200 -436q-39 -82 -39 -143q0 -38 16 -59t43 -21q60 0 141 88t152 240q9 20 35 20q20 0 37.5 -13.5t17.5 -31.5l-4 -16q-105 -223 -253.5 -352.5t-305.5 -129.5q-95 0 -146 56.5t-51 152.5z
M317 993l-151 252q-4 8 -4 17q0 17 18 20l133 35l11 2q18 0 24 -21l103 -290q2 -2 2 -13q0 -20 -25 -20h-76q-23 0 -35 18z" />
    <glyph glyph-name="iacute" unicode="&#xed;" horiz-adv-x="571" 
d="M-68 178q0 101 60 230l39 84l157 344q9 20 35 20h246q14 0 20 -10t0 -23l-200 -436q-39 -82 -39 -143q0 -38 16 -59t43 -21q60 0 141 88t152 240q9 20 35 20q20 0 37.5 -13.5t17.5 -31.5l-4 -16q-105 -223 -253.5 -352.5t-305.5 -129.5q-95 0 -146 56.5t-51 152.5z
M352 991q0 8 8 19l238 295q14 19 39 10l117 -45q18 -6 18 -21q0 -8 -10 -18l-283 -244q-12 -12 -35 -12h-67q-25 0 -25 16z" />
    <glyph glyph-name="icircumflex" unicode="&#xee;" horiz-adv-x="571" 
d="M-68 178q0 101 60 230l39 84l157 344q9 20 35 20h246q14 0 20 -10t0 -23l-200 -436q-39 -82 -39 -143q0 -38 16 -59t43 -21q60 0 141 88t152 240q9 20 35 20q20 0 37.5 -13.5t17.5 -31.5l-4 -16q-105 -223 -253.5 -352.5t-305.5 -129.5q-95 0 -146 56.5t-51 152.5z
M129 991q0 9 10 19l285 278q15 15 35 15h112q12 0 21 -7.5t10 -19.5l49 -270v-9q0 -22 -24 -22h-60q-23 0 -32 22l-60 170l-211 -180q-12 -12 -37 -12h-73q-25 0 -25 16z" />
    <glyph glyph-name="idieresis" unicode="&#xef;" horiz-adv-x="571" 
d="M-68 178q0 101 60 230l39 84l157 344q9 20 35 20h246q14 0 20 -10t0 -23l-200 -436q-39 -82 -39 -143q0 -38 16 -59t43 -21q60 0 141 88t152 240q9 20 35 20q20 0 37.5 -13.5t17.5 -31.5l-4 -16q-105 -223 -253.5 -352.5t-305.5 -129.5q-95 0 -146 56.5t-51 152.5z
M483 1104q0 52 45.5 96.5t106.5 44.5q82 0 82 -76q0 -52 -43.5 -94.5t-106.5 -42.5q-41 0 -62.5 20t-21.5 52zM195 1104q0 52 45 96.5t106 44.5q82 0 82 -76q0 -52 -43 -94.5t-106 -42.5q-41 0 -62.5 20t-21.5 52z" />
    <glyph glyph-name="eth" unicode="&#xf0;" horiz-adv-x="1040" 
d="M-47 270q-2 100 42.5 211t118 202.5t179 150.5t213.5 55q153 0 229 -98q68 219 68 360h-164q-17 0 -23 9.5t0 23.5l7 14q10 23 34 23h140q-19 117 -84.5 212t-157.5 136q-18 9 -18 20t14 17q51 26 111 26q127 -1 222 -114t134 -297h194q17 0 23 -9.5t0 -23.5l-6 -14
q-10 -23 -35 -23h-166q8 -49 8 -125q0 -239 -104 -489q-105 -249 -281 -416q-176 -164 -377 -164q-155 0 -238 86t-83 227zM682 641q-12 54 -45.5 84.5t-77.5 30.5q-53 4 -114 -50t-108.5 -133.5t-78.5 -170.5t-29 -156q0 -119 84 -119q82 0 183 149q105 154 186 365z" />
    <glyph glyph-name="ntilde" unicode="&#xf1;" horiz-adv-x="1101" 
d="M471 156q0 82 51 184l107 213q28 64 28 94q0 49 -53 49q-70 0 -166 -96q-94 -94 -168 -254l-151 -326q-9 -20 -35 -20h-246q-14 0 -20 10t0 23l213 459l157 344q9 20 35 20h209q14 0 21.5 -10t3.5 -23l-35 -116q91 89 190 135.5t193 46.5q88 0 136 -40.5t48 -115.5
q0 -82 -49 -176l-84 -172q-47 -96 -47 -154q0 -65 53 -65q57 0 128.5 85t142.5 241q11 20 34 20q26 0 44 -19.5t8 -41.5q-110 -230 -248.5 -356t-288.5 -126q-97 0 -154 50t-57 137zM715 1087q-35 27 -56.5 37.5t-46.5 10.5q-63 0 -116 -56q-14 -14 -23 -14q-7 0 -16 6
q-23 13 -11 37q37 71 96.5 116.5t125.5 45.5q37 0 68 -13.5t71 -44.5q65 -47 115 -47q38 0 76.5 22.5t68.5 59.5q16 25 37 13q22 -16 10 -37q-38 -91 -100.5 -144t-141.5 -53q-45 0 -77.5 14t-79.5 47z" />
    <glyph glyph-name="ograve" unicode="&#xf2;" horiz-adv-x="940" 
d="M-57 248q-2 81 28 172t86.5 175t129 151.5t165 106.5t185.5 36q137 0 209.5 -76.5t72.5 -204.5q0 -129 -63 -258h6q141 0 209 142q9 20 35 20t43.5 -19.5t7.5 -41.5q-49 -109 -133.5 -165.5t-180.5 -56.5q-9 0 -55 4q-87 -122 -207.5 -193t-253.5 -71q-138 0 -211 75.5
t-73 203.5zM575 305q-22 36 -22 86q0 64 36.5 121t92.5 80q2 8 2 33q0 131 -96 131q-74 0 -158 -84t-135 -201q-53 -118 -53 -207q0 -121 104 -121q120 0 229 162zM555 1004l-152 251q-4 8 -4 17q0 17 19 20l133 35l10 2q19 0 25 -20l102 -291q2 -2 2 -12q0 -21 -24 -21h-76
q-22 0 -35 19z" />
    <glyph glyph-name="oacute" unicode="&#xf3;" horiz-adv-x="940" 
d="M-57 248q-2 81 28 172t86.5 175t129 151.5t165 106.5t185.5 36q137 0 209.5 -76.5t72.5 -204.5q0 -129 -63 -258h6q141 0 209 142q9 20 35 20t43.5 -19.5t7.5 -41.5q-49 -109 -133.5 -165.5t-180.5 -56.5q-9 0 -55 4q-87 -122 -207.5 -193t-253.5 -71q-138 0 -211 75.5
t-73 203.5zM575 305q-22 36 -22 86q0 64 36.5 121t92.5 80q2 8 2 33q0 131 -96 131q-74 0 -158 -84t-135 -201q-53 -118 -53 -207q0 -121 104 -121q120 0 229 162zM590 1001q0 8 8 19l238 295q14 19 38 10l117 -45q19 -6 19 -20q0 -8 -11 -19l-282 -244q-12 -12 -35 -12h-68
q-24 0 -24 16z" />
    <glyph glyph-name="ocircumflex" unicode="&#xf4;" horiz-adv-x="940" 
d="M-57 248q-2 81 28 172t86.5 175t129 151.5t165 106.5t185.5 36q137 0 209.5 -76.5t72.5 -204.5q0 -129 -63 -258h6q141 0 209 142q9 20 35 20t43.5 -19.5t7.5 -41.5q-49 -109 -133.5 -165.5t-180.5 -56.5q-9 0 -55 4q-87 -122 -207.5 -193t-253.5 -71q-138 0 -211 75.5
t-73 203.5zM575 305q-22 36 -22 86q0 64 36.5 121t92.5 80q2 8 2 33q0 131 -96 131q-74 0 -158 -84t-135 -201q-53 -118 -53 -207q0 -121 104 -121q120 0 229 162zM367 1001q0 9 10 19l285 278q15 15 34 15h113q12 0 21 -7.5t10 -19.5l49 -270v-8q0 -23 -25 -23h-59
q-23 0 -33 23l-59 170l-211 -181q-12 -12 -37 -12h-74q-24 0 -24 16z" />
    <glyph glyph-name="otilde" unicode="&#xf5;" horiz-adv-x="940" 
d="M-57 248q-2 81 28 172t86.5 175t129 151.5t165 106.5t185.5 36q137 0 209.5 -76.5t72.5 -204.5q0 -129 -63 -258h6q141 0 209 142q9 20 35 20t43.5 -19.5t7.5 -41.5q-49 -109 -133.5 -165.5t-180.5 -56.5q-9 0 -55 4q-87 -122 -207.5 -193t-253.5 -71q-138 0 -211 75.5
t-73 203.5zM575 305q-22 36 -22 86q0 64 36.5 121t92.5 80q2 8 2 33q0 131 -96 131q-74 0 -158 -84t-135 -201q-53 -118 -53 -207q0 -121 104 -121q120 0 229 162zM641 1087q-35 27 -56 37.5t-46 10.5q-64 0 -117 -56q-14 -14 -23 -14q-7 0 -16 6q-22 13 -10 37
q37 71 96 116.5t125 45.5q37 0 68 -13.5t71 -44.5q65 -47 115 -47q38 0 76.5 22.5t68.5 59.5q16 25 37 13q22 -16 10 -37q-38 -91 -100 -144t-141 -53q-45 0 -78.5 14t-79.5 47z" />
    <glyph glyph-name="odieresis" unicode="&#xf6;" horiz-adv-x="940" 
d="M-57 248q-2 81 28 172t86.5 175t129 151.5t165 106.5t185.5 36q137 0 209.5 -76.5t72.5 -204.5q0 -129 -63 -258h6q141 0 209 142q9 20 35 20t43.5 -19.5t7.5 -41.5q-49 -109 -133.5 -165.5t-180.5 -56.5q-9 0 -55 4q-87 -122 -207.5 -193t-253.5 -71q-138 0 -211 75.5
t-73 203.5zM575 305q-22 36 -22 86q0 64 36.5 121t92.5 80q2 8 2 33q0 131 -96 131q-74 0 -158 -84t-135 -201q-53 -118 -53 -207q0 -121 104 -121q120 0 229 162zM721 1114q0 52 45 96.5t106 44.5q82 0 82 -75q0 -52 -43 -95t-106 -43q-41 0 -62.5 20t-21.5 52zM432 1114
q0 52 45.5 96.5t106.5 44.5q82 0 82 -75q0 -52 -43.5 -95t-106.5 -43q-41 0 -62.5 20t-21.5 52z" />
    <glyph glyph-name="divide" unicode="&#xf7;" horiz-adv-x="972" 
d="M188 659l7 31q6 25 32 25h758q13 0 21 -8.5t6 -22.5l-6 -31q-6 -24 -33 -24h-758q-14 0 -21 8.5t-6 21.5zM461 293q0 32 24.5 56t55.5 24q29 0 44 -20t9 -50q-5 -25 -29.5 -45t-50.5 -20q-23 0 -38 16t-15 39zM604 1026q0 32 24.5 56t55.5 24q29 0 44 -20t9 -50
q-6 -25 -30 -45t-50 -20q-23 0 -38 16t-15 39z" />
    <glyph glyph-name="oslash" unicode="&#xf8;" horiz-adv-x="940" 
d="M-43 -63q0 10 10 20l66 72q-90 78 -90 219q-2 81 28 172t86.5 175t129 151.5t165 106.5t185.5 36q144 0 221 -86l63 67q17 17 35 17h21q22 0 22 -17q0 -10 -8 -18l-98 -107q26 -56 26 -137q0 -129 -63 -258h6q141 0 209 142q9 20 35 20t43.5 -19.5t7.5 -41.5
q-49 -109 -133.5 -165.5t-180.5 -56.5q-9 0 -55 4q-87 -122 -207.5 -193t-253.5 -71q-74 0 -135 25l-51 -55q-17 -17 -35 -17h-26q-23 0 -23 15zM575 305q-22 36 -22 86q0 64 36.5 121t92.5 80q2 10 2 37l-418 -451q24 -35 80 -35q120 0 229 162zM242 252l426 455
q-21 49 -80 49q-74 0 -158 -84t-135 -201q-53 -118 -53 -207v-12z" />
    <glyph glyph-name="ugrave" unicode="&#xf9;" horiz-adv-x="1118" 
d="M-78 170q0 97 51 199l58 123l157 344q9 20 35 20h246q17 0 22 -10t-2 -23l-188 -411q-47 -109 -47 -162q0 -70 61 -70q67 0 145.5 86t151.5 242l152 328q9 20 35 20h245q14 0 20.5 -10t0.5 -23l-201 -436q-39 -79 -39 -145q0 -36 15.5 -57t42.5 -21q54 0 122.5 84.5
t143.5 243.5q9 20 35 20q21 0 38 -13.5t17 -31.5l-4 -16q-108 -230 -244 -356t-286 -126q-204 0 -201 197q-88 -94 -186 -145.5t-191 -51.5q-97 0 -151 54t-54 147zM616 1004l-151 251q-4 8 -4 17q0 17 18 20l133 35l11 2q18 0 24 -20l103 -291q2 -2 2 -12q0 -21 -25 -21
h-76q-22 0 -35 19z" />
    <glyph glyph-name="uacute" unicode="&#xfa;" horiz-adv-x="1118" 
d="M-78 170q0 97 51 199l58 123l157 344q9 20 35 20h246q17 0 22 -10t-2 -23l-188 -411q-47 -109 -47 -162q0 -70 61 -70q67 0 145.5 86t151.5 242l152 328q9 20 35 20h245q14 0 20.5 -10t0.5 -23l-201 -436q-39 -79 -39 -145q0 -36 15.5 -57t42.5 -21q54 0 122.5 84.5
t143.5 243.5q9 20 35 20q21 0 38 -13.5t17 -31.5l-4 -16q-108 -230 -244 -356t-286 -126q-204 0 -201 197q-88 -94 -186 -145.5t-191 -51.5q-97 0 -151 54t-54 147zM651 1001q0 8 8 19l238 295q14 19 39 10l117 -45q18 -6 18 -20q0 -9 -10 -19l-283 -244q-12 -12 -35 -12
h-67q-25 0 -25 16z" />
    <glyph glyph-name="ucircumflex" unicode="&#xfb;" horiz-adv-x="1118" 
d="M-78 170q0 97 51 199l58 123l157 344q9 20 35 20h246q17 0 22 -10t-2 -23l-188 -411q-47 -109 -47 -162q0 -70 61 -70q67 0 145.5 86t151.5 242l152 328q9 20 35 20h245q14 0 20.5 -10t0.5 -23l-201 -436q-39 -79 -39 -145q0 -36 15.5 -57t42.5 -21q54 0 122.5 84.5
t143.5 243.5q9 20 35 20q21 0 38 -13.5t17 -31.5l-4 -16q-108 -230 -244 -356t-286 -126q-204 0 -201 197q-88 -94 -186 -145.5t-191 -51.5q-97 0 -151 54t-54 147zM428 1001q0 9 10 19l285 278q15 15 35 15h112q12 0 21 -7.5t10 -19.5l49 -270v-8q0 -23 -24 -23h-60
q-22 0 -32 23l-60 170l-211 -181q-12 -12 -37 -12h-73q-25 0 -25 16z" />
    <glyph glyph-name="udieresis" unicode="&#xfc;" horiz-adv-x="1118" 
d="M-78 170q0 97 51 199l58 123l157 344q9 20 35 20h246q17 0 22 -10t-2 -23l-188 -411q-47 -109 -47 -162q0 -70 61 -70q67 0 145.5 86t151.5 242l152 328q9 20 35 20h245q14 0 20.5 -10t0.5 -23l-201 -436q-39 -79 -39 -145q0 -36 15.5 -57t42.5 -21q54 0 122.5 84.5
t143.5 243.5q9 20 35 20q21 0 38 -13.5t17 -31.5l-4 -16q-108 -230 -244 -356t-286 -126q-204 0 -201 197q-88 -94 -186 -145.5t-191 -51.5q-97 0 -151 54t-54 147zM782 1114q0 52 45.5 96.5t106.5 44.5q82 0 82 -75q0 -52 -43.5 -95t-106.5 -43q-41 0 -62.5 20t-21.5 52z
M494 1114q0 52 45 96.5t106 44.5q82 0 82 -75q0 -52 -43 -95t-106 -43q-41 0 -62.5 20t-21.5 52z" />
    <glyph glyph-name="yacute" unicode="&#xfd;" horiz-adv-x="1103" 
d="M-211 -389q0 118 140 205.5t436 156.5l51 111q-148 -115 -289 -115q-97 0 -151 54t-54 147q0 97 51 199l58 123l157 344q9 20 35 20h246q17 0 22 -10t-2 -23l-188 -411q-47 -109 -47 -162q0 -70 61 -70q68 0 146.5 86.5t150.5 241.5l152 328q9 20 35 20h245
q14 0 20.5 -10t0.5 -23l-340 -735q139 59 238 154t172 250q9 20 34 20q20 0 38 -13.5t18 -31.5l-4 -16q-103 -214 -236 -320q-135 -108 -321 -172q-115 -224 -267 -371q-156 -153 -370 -153q-114 0 -176 46.5t-62 129.5zM311 -137q-163 -45 -274 -113q-105 -68 -105 -125
q0 -27 23 -45t61 -18q74 0 150 82.5t145 218.5zM659 1001q0 7 9 19l237 295q14 19 39 10l117 -45q18 -6 18 -20q0 -9 -10 -19l-283 -244q-12 -12 -34 -12h-68q-25 0 -25 16z" />
    <glyph glyph-name="thorn" unicode="&#xfe;" horiz-adv-x="1087" 
d="M-401 -436l432 928l401 860q9 20 35 20h246q14 0 20 -10t0 -23l-244 -520q107 70 224 70q118 0 180.5 -72t62.5 -194q0 -106 -47.5 -227.5t-126.5 -219.5q117 53 202.5 134.5t133.5 181.5q9 20 35 20q20 0 37.5 -13.5t17.5 -31.5l-4 -16q-71 -154 -205.5 -267t-295 -169
t-328.5 -56q-169 0 -234 117l-241 -525q-9 -20 -35 -20h-246q-14 0 -20 10t0 23zM672 647q0 105 -80 105q-69 0 -141 -83t-138 -225l-94 -200q7 -55 37 -85t74 -30q72 0 153 90q80 89 133 213q56 127 56 215z" />
    <glyph glyph-name="ydieresis" unicode="&#xff;" horiz-adv-x="1103" 
d="M-211 -389q0 118 140 205.5t436 156.5l51 111q-148 -115 -289 -115q-97 0 -151 54t-54 147q0 97 51 199l58 123l157 344q9 20 35 20h246q17 0 22 -10t-2 -23l-188 -411q-47 -109 -47 -162q0 -70 61 -70q68 0 146.5 86.5t150.5 241.5l152 328q9 20 35 20h245
q14 0 20.5 -10t0.5 -23l-340 -735q139 59 238 154t172 250q9 20 34 20q20 0 38 -13.5t18 -31.5l-4 -16q-103 -214 -236 -320q-135 -108 -321 -172q-115 -224 -267 -371q-156 -153 -370 -153q-114 0 -176 46.5t-62 129.5zM311 -137q-163 -45 -274 -113q-105 -68 -105 -125
q0 -27 23 -45t61 -18q74 0 150 82.5t145 218.5zM791 1114q0 52 45 96.5t106 44.5q82 0 82 -75q0 -52 -43.5 -95t-106.5 -43q-41 0 -62 20t-21 52zM502 1114q0 52 45 96.5t106 44.5q82 0 82 -75q0 -52 -43 -95t-106 -43q-41 0 -62.5 20t-21.5 52z" />
    <glyph glyph-name="Amacron" unicode="&#x100;" horiz-adv-x="1449" 
d="M-354 -6q0 23 2 29q3 23 30 26q64 7 125 36t125.5 85.5t123.5 120.5t141 164q11 12 29.5 35t27.5 32l397 471q124 147 240 260q262 246 540 246q84 0 189 -31q13 -1 18.5 -12.5t-0.5 -23.5l-489 -1051q-53 -115 -53 -178q0 -62 43 -62q66 0 171 101.5t175 249.5
q9 20 35 20q20 0 37.5 -13.5t17.5 -31.5l-4 -16q-101 -214 -274.5 -356t-334.5 -142q-92 0 -142 45.5t-50 136.5q0 118 84 297h-473l-17 -20l-43 -52q-213 -254 -335 -364.5t-218 -110.5q-56 0 -87 30t-31 79zM481 555h426l377 803q-112 -40 -208.5 -122.5t-209.5 -221.5z
M1221 1702l28 63q10 23 35 23h447q17 0 22.5 -11t-2.5 -24l-31 -63q-9 -21 -32 -21h-447q-14 0 -20 10t0 23z" />
    <glyph glyph-name="amacron" unicode="&#x101;" 
d="M-66 227q0 138 80 295q83 156 219 260q137 107 306 107q159 0 227 -105l49 56q16 16 35 16h199q14 0 20 -10t0 -23l-201 -436q-41 -90 -41 -145q0 -36 16.5 -57t43.5 -21q107 0 266 328q9 20 35 20q20 0 37.5 -13.5t17.5 -31.5l-4 -16q-107 -229 -244.5 -355.5
t-287.5 -126.5q-86 0 -137 44.5t-62 125.5q-150 -170 -330 -170q-120 0 -182 69t-62 189zM588 449l104 225q-27 82 -102 82q-80 0 -162 -88q-79 -82 -137 -207q-55 -119 -55 -209q0 -102 81 -102q66 0 136.5 80.5t134.5 218.5zM489 1122l29 64q9 22 35 22h446q17 0 23 -10
t-2 -24l-31 -64q-9 -20 -33 -20h-446q-14 0 -20.5 9.5t-0.5 22.5z" />
    <glyph glyph-name="Abreve" unicode="&#x102;" horiz-adv-x="1449" 
d="M-354 -6q0 23 2 29q3 23 30 26q64 7 125 36t125.5 85.5t123.5 120.5t141 164q11 12 29.5 35t27.5 32l397 471q124 147 240 260q262 246 540 246q84 0 189 -31q13 -1 18.5 -12.5t-0.5 -23.5l-489 -1051q-53 -115 -53 -178q0 -62 43 -62q66 0 171 101.5t175 249.5
q9 20 35 20q20 0 37.5 -13.5t17.5 -31.5l-4 -16q-101 -214 -274.5 -356t-334.5 -142q-92 0 -142 45.5t-50 136.5q0 118 84 297h-473l-17 -20l-43 -52q-213 -254 -335 -364.5t-218 -110.5q-56 0 -87 30t-31 79zM481 555h426l377 803q-112 -40 -208.5 -122.5t-209.5 -221.5z
M1245 1755q0 45 15 94q9 25 32 25h25q26 0 26 -31q-6 -60 26.5 -95.5t92.5 -35.5q66 0 143 39.5t119 103.5q13 19 35 19h27q20 0 20 -21q0 -15 -8 -28q-64 -110 -169 -176t-204 -66q-81 0 -130.5 45t-49.5 127z" />
    <glyph glyph-name="abreve" unicode="&#x103;" 
d="M-66 227q0 138 80 295q83 156 219 260q137 107 306 107q159 0 227 -105l49 56q16 16 35 16h199q14 0 20 -10t0 -23l-201 -436q-41 -90 -41 -145q0 -36 16.5 -57t43.5 -21q107 0 266 328q9 20 35 20q20 0 37.5 -13.5t17.5 -31.5l-4 -16q-107 -229 -244.5 -355.5
t-287.5 -126.5q-86 0 -137 44.5t-62 125.5q-150 -170 -330 -170q-120 0 -182 69t-62 189zM588 449l104 225q-27 82 -102 82q-80 0 -162 -88q-79 -82 -137 -207q-55 -119 -55 -209q0 -102 81 -102q66 0 136.5 80.5t134.5 218.5zM514 1176q0 48 14 94q9 24 33 24h25
q26 0 26 -30q-6 -60 26.5 -95.5t92.5 -35.5q66 0 143 39.5t119 103.5q12 18 35 18h27q20 0 20 -20q0 -16 -8 -29q-64 -110 -168.5 -175.5t-204.5 -65.5q-81 0 -130.5 45t-49.5 127z" />
    <glyph glyph-name="Aogonek" unicode="&#x104;" horiz-adv-x="1449" 
d="M739 -279q0 129 170 236q-143 21 -143 178q0 118 84 297h-473l-17 -20l-43 -52q-213 -254 -335 -364.5t-218 -110.5q-56 0 -87 30t-31 79q0 23 2 29q3 23 30 26q64 7 125 36t125.5 85.5t123.5 120.5t141 164q11 12 29.5 35t27.5 32l397 471q124 147 240 260
q262 246 540 246q84 0 189 -31q13 -1 18.5 -12.5t-0.5 -23.5l-489 -1051q-53 -115 -53 -178q0 -62 43 -62q66 0 171 101.5t175 249.5q9 20 35 20q20 0 37.5 -13.5t17.5 -31.5l-4 -16q-79 -165 -207 -293q-127 -127 -258 -176q-110 -62 -159.5 -118t-49.5 -102
q0 -25 18.5 -39t49.5 -14q28 0 47 8q2 2 12 2q20 0 20 -24v-60q0 -23 -20 -32q-58 -27 -111 -27q-74 0 -122 39.5t-48 105.5zM481 555h426l377 803q-112 -40 -208.5 -122.5t-209.5 -221.5z" />
    <glyph glyph-name="aogonek" unicode="&#x105;" 
d="M479 -262q0 123 172 237q-62 12 -98.5 54.5t-44.5 109.5q-150 -170 -330 -170q-120 0 -182 69t-62 189q0 138 80 295q83 156 219 260q137 107 306 107q159 0 227 -105l49 56q16 16 35 16h199q14 0 20 -10t0 -23l-201 -436q-41 -90 -41 -145q0 -36 16.5 -57t43.5 -21
q107 0 266 328q9 20 35 20q20 0 37.5 -13.5t17.5 -31.5l-4 -16q-181 -371 -401 -455q-205 -116 -205 -217q0 -25 18 -39t49 -14q29 0 48 8q2 2 12 2q20 0 20 -25v-59q0 -24 -20 -33q-58 -27 -111 -27q-74 0 -122 40t-48 106zM588 449l104 225q-27 82 -102 82q-80 0 -162 -88
q-79 -82 -137 -207q-55 -119 -55 -209q0 -102 81 -102q66 0 136.5 80.5t134.5 218.5z" />
    <glyph glyph-name="Cacute" unicode="&#x106;" horiz-adv-x="1230" 
d="M63 379q0 231 140 502q141 268 368 448q232 182 478 182q155 0 237 -76.5t82 -185.5q0 -86 -50 -145.5t-128 -59.5q-52 0 -79.5 27t-27.5 72q0 48 31 89t82 58q-5 43 -39.5 71t-89.5 28q-149 0 -303 -160q-156 -162 -256 -389q-100 -226 -100 -418q0 -150 70.5 -233
t209.5 -83q161 0 331 118t243 268q9 20 34 20q20 0 38 -13.5t18 -31.5l-4 -16q-43 -95 -124 -187.5t-186 -168t-237 -121.5t-262 -44q-235 0 -355.5 120t-120.5 329zM1104 1571q0 7 8 18l238 295q14 19 39 10l116 -45q19 -6 19 -20q0 -8 -11 -19l-282 -243q-13 -13 -35 -13
h-68q-24 0 -24 17z" />
    <glyph glyph-name="cacute" unicode="&#x107;" horiz-adv-x="866" 
d="M-59 256q0 132 84 285q83 146 227 247q140 101 303 101q119 0 184.5 -55.5t65.5 -139.5q0 -71 -42.5 -122.5t-109.5 -51.5q-48 0 -73 25t-25 69q0 33 24.5 70t61.5 55q-20 23 -55 23q-46 4 -109 -47.5t-116 -127.5t-89 -165.5t-34 -153.5q0 -157 163 -157
q135 0 276.5 106.5t219.5 274.5q9 20 35 20q20 0 37.5 -13.5t17.5 -31.5l-4 -16q-109 -230 -301 -361t-403 -131q-166 0 -252 79.5t-86 217.5zM588 1001q0 8 8 19l238 295q14 19 38 10l117 -45q19 -6 19 -20q0 -8 -11 -19l-282 -244q-12 -12 -35 -12h-68q-24 0 -24 16z" />
    <glyph glyph-name="Cdotaccent" unicode="&#x10a;" horiz-adv-x="1230" 
d="M63 379q0 231 140 502q141 268 368 448q232 182 478 182q155 0 237 -76.5t82 -185.5q0 -86 -50 -145.5t-128 -59.5q-52 0 -79.5 27t-27.5 72q0 48 31 89t82 58q-5 43 -39.5 71t-89.5 28q-149 0 -303 -160q-156 -162 -256 -389q-100 -226 -100 -418q0 -150 70.5 -233
t209.5 -83q161 0 331 118t243 268q9 20 34 20q20 0 38 -13.5t18 -31.5l-4 -16q-43 -95 -124 -187.5t-186 -168t-237 -121.5t-262 -44q-235 0 -355.5 120t-120.5 329zM1085 1683q0 52 45.5 97t106.5 45q41 0 62.5 -20t21.5 -56q0 -51 -44.5 -94t-105.5 -43q-41 0 -63.5 19.5
t-22.5 51.5z" />
    <glyph glyph-name="cdotaccent" unicode="&#x10b;" horiz-adv-x="866" 
d="M-59 256q0 132 84 285q83 146 227 247q140 101 303 101q119 0 184.5 -55.5t65.5 -139.5q0 -71 -42.5 -122.5t-109.5 -51.5q-48 0 -73 25t-25 69q0 33 24.5 70t61.5 55q-20 23 -55 23q-46 4 -109 -47.5t-116 -127.5t-89 -165.5t-34 -153.5q0 -157 163 -157
q135 0 276.5 106.5t219.5 274.5q9 20 35 20q20 0 37.5 -13.5t17.5 -31.5l-4 -16q-109 -230 -301 -361t-403 -131q-166 0 -252 79.5t-86 217.5zM569 1114q0 52 45.5 96.5t106.5 44.5q41 0 62.5 -19.5t21.5 -55.5q0 -51 -44.5 -94.5t-105.5 -43.5q-41 0 -63.5 20t-22.5 52z
" />
    <glyph glyph-name="Ccaron" unicode="&#x10c;" horiz-adv-x="1230" 
d="M63 379q0 231 140 502q141 268 368 448q232 182 478 182q155 0 237 -76.5t82 -185.5q0 -86 -50 -145.5t-128 -59.5q-52 0 -79.5 27t-27.5 72q0 48 31 89t82 58q-5 43 -39.5 71t-89.5 28q-149 0 -303 -160q-156 -162 -256 -389q-100 -226 -100 -418q0 -150 70.5 -233
t209.5 -83q161 0 331 118t243 268q9 20 34 20q20 0 38 -13.5t18 -31.5l-4 -16q-43 -95 -124 -187.5t-186 -168t-237 -121.5t-262 -44q-235 0 -355.5 120t-120.5 329zM1063 1581l-29 270v4q0 27 27 27h57q25 0 31 -24l47 -177l231 189q15 12 37 12h62q22 0 22 -14
q0 -11 -10 -21l-299 -278q-15 -15 -35 -15h-112q-26 0 -29 27z" />
    <glyph glyph-name="ccaron" unicode="&#x10d;" horiz-adv-x="866" 
d="M-59 256q0 132 84 285q83 146 227 247q140 101 303 101q119 0 184.5 -55.5t65.5 -139.5q0 -71 -42.5 -122.5t-109.5 -51.5q-48 0 -73 25t-25 69q0 33 24.5 70t61.5 55q-20 23 -55 23q-46 4 -109 -47.5t-116 -127.5t-89 -165.5t-34 -153.5q0 -157 163 -157
q135 0 276.5 106.5t219.5 274.5q9 20 35 20q20 0 37.5 -13.5t17.5 -31.5l-4 -16q-109 -230 -301 -361t-403 -131q-166 0 -252 79.5t-86 217.5zM547 1012l-29 270v4q0 27 27 27h57q25 0 31 -25l47 -176l231 188q16 13 37 13h62q22 0 22 -15q0 -10 -10 -20l-299 -279
q-14 -14 -35 -14h-113q-25 0 -28 27z" />
    <glyph glyph-name="Dcaron" unicode="&#x10e;" horiz-adv-x="1660" 
d="M444 -12l-57 24q-106 -69 -221 -69q-70 0 -109 26t-39 68q0 54 62 96.5t158 42.5q9 0 59 -4q48 84 131 295l43 102q37 88 47 109q91 202 170 330q76 127 163.5 198.5t199.5 91.5l8 2q17 0 26 -18l2 -2q5 -10 5 -16q0 -12 -11 -23q-29 -32 -59 -96q-14 -30 -78 -184
l-117 -283q-97 -219 -168.5 -348t-160.5 -224q85 -36 159 -36q167 0 338 151q173 156 279 377q108 225 108 420q0 182 -100 284.5t-297 102.5q-124 3 -243 -43t-204.5 -121.5t-136 -174t-47.5 -196.5q0 -93 39 -172q1 -3 2 -6.5t1.5 -5t0.5 -2.5q0 -20 -22 -20
q-107 -8 -168.5 68.5t-61.5 178.5q0 127 103 269q107 144 295 237q197 96 444 96q134 0 244 -29.5t187.5 -82.5t130 -127t77.5 -161t25 -187q0 -229 -123 -463q-124 -235 -338 -385q-217 -152 -475 -152q-80 0 -135.5 14t-135.5 48zM1112 1581l-29 270v4q0 27 27 27h57
q25 0 31 -24l47 -177l232 189q15 12 36 12h62q22 0 22 -14q0 -11 -10 -21l-299 -278q-15 -15 -35 -15h-112q-26 0 -29 27z" />
    <glyph glyph-name="dcaron" unicode="&#x10f;" 
d="M-66 227q0 138 80 295q83 156 219 260q137 107 306 107q141 0 215 -86l256 549q9 20 34 20h246q14 0 20.5 -10t0.5 -23l-443 -952q-41 -90 -41 -145q0 -36 16.5 -57t43.5 -21q107 0 266 328q9 20 35 20q20 0 37.5 -13.5t17.5 -31.5l-4 -16q-110 -229 -247.5 -355.5
t-284.5 -126.5q-86 0 -137 44.5t-62 125.5q-150 -170 -330 -170q-120 0 -182 69t-62 189zM588 449l104 225q-14 39 -40.5 60.5t-61.5 21.5q-80 0 -162 -88q-79 -82 -137 -207q-55 -119 -55 -209q0 -102 81 -102q66 0 136.5 80.5t134.5 218.5zM1290 1077l125 275q9 20 35 20
h111q22 0 22 -16q0 -10 -6 -19l-209 -276q-10 -17 -35 -17h-22q-14 0 -20.5 10t-0.5 23z" />
    <glyph glyph-name="Dcroat" unicode="&#x110;" horiz-adv-x="1660" 
d="M444 -12l-57 24q-106 -69 -221 -69q-70 0 -109 26t-39 68q0 54 62 96.5t158 42.5q9 0 59 -4q45 81 147 334h-243q-13 0 -21 8.5t-6 22.5l2 14q6 24 33 24h264q8 21 16.5 40.5t17 37.5t11.5 25q91 202 170 330q76 127 163.5 198.5t199.5 91.5l8 2q17 0 26 -18l2 -2
q5 -10 5 -16q0 -12 -11 -23q-29 -32 -59 -96q-14 -30 -78 -184l-117 -283l-45 -103h254q14 0 21 -8.5t6 -21.5l-2 -15q-6 -24 -33 -24h-278q-130 -269 -252 -400q85 -36 159 -36q167 0 338 151q173 156 279 377q108 225 108 420q0 182 -100 284.5t-297 102.5
q-124 3 -243 -43t-204.5 -121.5t-136 -174t-47.5 -196.5q0 -93 39 -172q1 -3 2 -6.5t1.5 -5t0.5 -2.5q0 -20 -22 -20q-107 -8 -168.5 68.5t-61.5 178.5q0 127 103 269q107 144 295 237q197 96 444 96q134 0 244 -29.5t187.5 -82.5t130 -127t77.5 -161t25 -187
q0 -229 -123 -463q-124 -235 -338 -385q-217 -152 -475 -152q-80 0 -135.5 14t-135.5 48z" />
    <glyph glyph-name="dslash" unicode="&#x111;" 
d="M-66 227q0 138 80 295q83 156 219 260q137 107 306 107q141 0 215 -86l92 198h-103q-17 0 -23 9.5t1 23.5l6 15q9 22 35 22h117l131 281q9 20 32 20h248q14 0 20.5 -10t0.5 -23l-123 -268h129q17 0 23 -9.5t-1 -23.5l-6 -14q-10 -23 -35 -23h-143l-287 -614
q-41 -90 -41 -145q0 -36 16.5 -57t43.5 -21q107 0 266 328q9 20 35 20q20 0 37.5 -13.5t17.5 -31.5l-4 -16q-110 -229 -247.5 -355.5t-284.5 -126.5q-86 0 -137 44.5t-62 125.5q-150 -170 -330 -170q-120 0 -182 69t-62 189zM588 449l104 225q-14 39 -40.5 60.5t-61.5 21.5
q-80 0 -162 -88q-79 -82 -137 -207q-55 -119 -55 -209q0 -102 81 -102q66 0 136.5 80.5t134.5 218.5z" />
    <glyph glyph-name="Emacron" unicode="&#x112;" horiz-adv-x="1157" 
d="M-39 287q0 157 131.5 297t362.5 202q-136 95 -136 258q-2 85 41.5 169t120 151t192 108t247.5 39q172 0 264 -80.5t92 -191.5q0 -82 -48 -138.5t-124 -56.5q-52 0 -79.5 27t-27.5 72q0 48 32.5 91t82.5 56q-11 45 -56 73t-120 28q-75 2 -145 -31.5t-118 -87.5t-75.5 -121
t-26.5 -131q0 -62 27.5 -114.5t77.5 -84.5q94 4 106 4q59 0 93 -17.5t34 -43.5q0 -27 -33.5 -46.5t-87.5 -19.5q-96 0 -184 21q-141 -48 -221 -152q-82 -104 -82 -217t79 -182.5t224 -69.5q188 0 346.5 114.5t237.5 279.5q9 20 35 20q20 0 37.5 -13.5t17.5 -31.5l-4 -16
q-41 -90 -120 -181.5t-184 -171t-240 -128.5t-271 -46q-234 0 -366 104t-132 259zM797 1692l28 63q10 23 35 23h447q17 0 22.5 -11t-2.5 -24l-31 -64q-9 -20 -32 -20h-447q-14 0 -20 10t0 23z" />
    <glyph glyph-name="emacron" unicode="&#x113;" horiz-adv-x="884" 
d="M-59 256q-2 80 29.5 170t90.5 172.5t135 149.5t172 105.5t193 35.5q116 0 182 -50.5t66 -131.5q2 -62 -38 -130t-112 -127.5t-182.5 -104.5t-236.5 -58v-19q0 -157 161 -157q156 0 294 102t220 279q9 20 35 20q20 0 38 -13.5t18 -31.5q0 -1 -1 -3t-2 -6t-2 -7
q-108 -232 -301 -363q-194 -129 -421 -129q-166 0 -252 79.5t-86 217.5zM635 696q0 37 -21.5 58.5t-54.5 21.5q-79 0 -164 -117q-87 -119 -133 -262q76 12 140.5 37.5t106.5 57.5t71 69t42 71t13 64zM401 1122l29 64q9 22 35 22h446q17 0 23 -10t-2 -24l-31 -64
q-9 -20 -33 -20h-446q-14 0 -20.5 9.5t-0.5 22.5z" />
    <glyph glyph-name="Edotaccent" unicode="&#x116;" horiz-adv-x="1157" 
d="M-39 287q0 157 131.5 297t362.5 202q-136 95 -136 258q-2 85 41.5 169t120 151t192 108t247.5 39q172 0 264 -80.5t92 -191.5q0 -82 -48 -138.5t-124 -56.5q-52 0 -79.5 27t-27.5 72q0 48 32.5 91t82.5 56q-11 45 -56 73t-120 28q-75 2 -145 -31.5t-118 -87.5t-75.5 -121
t-26.5 -131q0 -62 27.5 -114.5t77.5 -84.5q94 4 106 4q59 0 93 -17.5t34 -43.5q0 -27 -33.5 -46.5t-87.5 -19.5q-96 0 -184 21q-141 -48 -221 -152q-82 -104 -82 -217t79 -182.5t224 -69.5q188 0 346.5 114.5t237.5 279.5q9 20 35 20q20 0 37.5 -13.5t17.5 -31.5l-4 -16
q-41 -90 -120 -181.5t-184 -171t-240 -128.5t-271 -46q-234 0 -366 104t-132 259zM946 1683q0 52 45.5 97t106.5 45q41 0 62.5 -20t21.5 -56q0 -51 -44.5 -94t-105.5 -43q-41 0 -63.5 19.5t-22.5 51.5z" />
    <glyph glyph-name="edotaccent" unicode="&#x117;" horiz-adv-x="884" 
d="M-59 256q-2 80 29.5 170t90.5 172.5t135 149.5t172 105.5t193 35.5q116 0 182 -50.5t66 -131.5q2 -62 -38 -130t-112 -127.5t-182.5 -104.5t-236.5 -58v-19q0 -157 161 -157q156 0 294 102t220 279q9 20 35 20q20 0 38 -13.5t18 -31.5q0 -1 -1 -3t-2 -6t-2 -7
q-108 -232 -301 -363q-194 -129 -421 -129q-166 0 -252 79.5t-86 217.5zM635 696q0 37 -21.5 58.5t-54.5 21.5q-79 0 -164 -117q-87 -119 -133 -262q76 12 140.5 37.5t106.5 57.5t71 69t42 71t13 64zM551 1114q0 52 45 96.5t106 44.5q41 0 62.5 -19.5t21.5 -55.5
q0 -52 -44 -95t-105 -43q-41 0 -63.5 20t-22.5 52z" />
    <glyph glyph-name="Eogonek" unicode="&#x118;" horiz-adv-x="1159" 
d="M342 -291q0 111 141 215h-22q-234 0 -366 104t-132 259q0 157 131.5 297t362.5 202q-135 94 -135 258q-2 85 41.5 169t119.5 151t191.5 108t247.5 39q172 0 264 -80.5t92 -191.5q0 -82 -48 -138.5t-124 -56.5q-52 0 -79.5 27t-27.5 72q0 48 32.5 91t82.5 56
q-11 45 -56 73t-120 28q-75 2 -145 -31.5t-118 -87.5t-75.5 -121t-26.5 -131q0 -62 27.5 -114.5t77.5 -84.5q94 4 106 4q59 0 93 -17.5t34 -43.5q0 -27 -33 -46.5t-87 -19.5q-97 0 -185 21q-141 -48 -221 -152q-82 -104 -82 -217t79 -182.5t224 -69.5q188 0 346.5 114.5
t237.5 279.5q9 20 35 20q20 0 37.5 -13.5t17.5 -31.5l-4 -16q-69 -148 -232 -295q-157 -142 -364 -201q-97 -57 -140.5 -110t-43.5 -95q0 -25 18 -39t49 -14q28 0 47 8q2 2 13 2q20 0 20 -24v-60q0 -24 -20 -33q-56 -26 -111 -26q-74 0 -122 39.5t-48 105.5z" />
    <glyph glyph-name="eogonek" unicode="&#x119;" horiz-adv-x="884" 
d="M123 -266q0 119 156 225q-166 0 -252 79.5t-86 217.5q-2 80 29.5 170t90.5 172.5t135 149.5t172 105.5t193 35.5q116 0 182 -50.5t66 -131.5q2 -62 -38 -130t-112 -127.5t-182.5 -104.5t-236.5 -58v-19q0 -157 161 -157q156 0 294 102t220 279q9 20 35 20q20 0 38 -13.5
t18 -31.5q0 -1 -1 -3t-2 -6t-2 -7q-87 -181 -225 -302t-309 -165q-191 -111 -191 -209q0 -25 18.5 -39.5t49.5 -14.5q26 0 47 9q2 2 12 2q21 0 21 -25v-59q0 -24 -21 -33q-59 -27 -110 -27q-74 0 -122 40t-48 106zM635 696q0 37 -21.5 58.5t-54.5 21.5q-79 0 -164 -117
q-87 -119 -133 -262q76 12 140.5 37.5t106.5 57.5t71 69t42 71t13 64z" />
    <glyph glyph-name="Ecaron" unicode="&#x11a;" horiz-adv-x="1157" 
d="M-39 287q0 157 131.5 297t362.5 202q-136 95 -136 258q-2 85 41.5 169t120 151t192 108t247.5 39q172 0 264 -80.5t92 -191.5q0 -82 -48 -138.5t-124 -56.5q-52 0 -79.5 27t-27.5 72q0 48 32.5 91t82.5 56q-11 45 -56 73t-120 28q-75 2 -145 -31.5t-118 -87.5t-75.5 -121
t-26.5 -131q0 -62 27.5 -114.5t77.5 -84.5q94 4 106 4q59 0 93 -17.5t34 -43.5q0 -27 -33.5 -46.5t-87.5 -19.5q-96 0 -184 21q-141 -48 -221 -152q-82 -104 -82 -217t79 -182.5t224 -69.5q188 0 346.5 114.5t237.5 279.5q9 20 35 20q20 0 37.5 -13.5t17.5 -31.5l-4 -16
q-41 -90 -120 -181.5t-184 -171t-240 -128.5t-271 -46q-234 0 -366 104t-132 259zM924 1581l-29 270v4q0 27 27 27h57q25 0 31 -24l47 -177l231 189q15 12 37 12h61q23 0 23 -14q0 -11 -10 -21l-299 -278q-15 -15 -35 -15h-113q-25 0 -28 27z" />
    <glyph glyph-name="ecaron" unicode="&#x11b;" horiz-adv-x="884" 
d="M-59 256q-2 80 29.5 170t90.5 172.5t135 149.5t172 105.5t193 35.5q116 0 182 -50.5t66 -131.5q2 -62 -38 -130t-112 -127.5t-182.5 -104.5t-236.5 -58v-19q0 -157 161 -157q156 0 294 102t220 279q9 20 35 20q20 0 38 -13.5t18 -31.5q0 -1 -1 -3t-2 -6t-2 -7
q-108 -232 -301 -363q-194 -129 -421 -129q-166 0 -252 79.5t-86 217.5zM635 696q0 37 -21.5 58.5t-54.5 21.5q-79 0 -164 -117q-87 -119 -133 -262q76 12 140.5 37.5t106.5 57.5t71 69t42 71t13 64zM528 1012l-28 270v4q0 27 26 27h58q24 0 30 -25l48 -176l231 188
q16 13 37 13h61q23 0 23 -15q0 -10 -10 -20l-299 -279q-14 -14 -35 -14h-113q-26 0 -29 27z" />
    <glyph glyph-name="Gbreve" unicode="&#x11e;" horiz-adv-x="1396" 
d="M27 -434q0 259 632 403l121 262q-177 -180 -395 -180q-162 0 -245 89.5t-83 248.5q0 218 144 485q146 271 377 453q236 184 493 184q87 0 157.5 -24t113.5 -63.5t65.5 -88t22.5 -100.5q0 -80 -47 -135.5t-121 -55.5q-52 0 -80.5 27.5t-28.5 71.5q0 45 30 86.5t77 58.5
q-11 44 -55.5 72.5t-108.5 28.5q-163 0 -328 -168q-166 -172 -272 -402q-109 -236 -109 -399q0 -93 39 -144t115 -51q99 0 213 111q116 116 258 391q10 23 32 23h238q14 0 20.5 -10t0.5 -23l-297 -639q147 64 248.5 161t172.5 253q9 20 35 20q20 0 38 -13.5t18 -31.5
q0 -1 -1 -3t-2 -6t-2 -7q-104 -216 -241 -324q-135 -108 -328 -178q-75 -161 -162 -293q-86 -135 -208 -217t-271 -82q-128 0 -202 56t-74 153zM608 -141q-196 -46 -319 -123q-121 -77 -121 -160q0 -41 30 -66.5t78 -25.5q94 0 168 90.5t164 284.5zM928 1745q0 48 14 94
q9 25 33 25h24q27 0 27 -31q-6 -60 26.5 -95.5t92.5 -35.5q66 0 143 39.5t119 103.5q13 19 35 19h26q21 0 21 -21q0 -15 -8 -28q-64 -110 -169 -176t-204 -66q-81 0 -130.5 45t-49.5 127z" />
    <glyph glyph-name="gbreve" unicode="&#x11f;" horiz-adv-x="1105" 
d="M-207 -389q0 118 140 205.5t436 156.5l30 70q-109 -74 -221 -74q-120 0 -182 69t-62 189q0 138 80 295q83 156 219 260q137 107 306 107q160 0 227 -107l49 58q16 16 35 16h199q14 0 20 -10t0 -23l-340 -735q140 63 238 156.5t170 247.5q9 20 34 20q20 0 38 -13.5
t18 -31.5l-4 -16q-103 -214 -236 -320q-131 -107 -319 -172q-113 -221 -269 -371q-156 -153 -368 -153q-114 0 -176 46.5t-62 129.5zM315 -137q-170 -47 -275.5 -113.5t-105.5 -124.5q0 -27 24 -45t60 -18q143 0 297 301zM588 449l106 225q-30 82 -104 82q-80 0 -162 -88
q-79 -82 -137 -207q-55 -119 -55 -209q0 -102 81 -102q64 0 134 77t137 222zM514 1176q0 48 14 94q9 24 33 24h25q26 0 26 -30q-6 -60 26.5 -95.5t92.5 -35.5q66 0 143 39.5t119 103.5q12 18 35 18h27q20 0 20 -20q0 -16 -8 -29q-64 -110 -168.5 -175.5t-204.5 -65.5
q-81 0 -130.5 45t-49.5 127z" />
    <glyph glyph-name="Gdotaccent" unicode="&#x120;" horiz-adv-x="1396" 
d="M27 -434q0 259 632 403l121 262q-177 -180 -395 -180q-162 0 -245 89.5t-83 248.5q0 218 144 485q146 271 377 453q236 184 493 184q87 0 157.5 -24t113.5 -63.5t65.5 -88t22.5 -100.5q0 -80 -47 -135.5t-121 -55.5q-52 0 -80.5 27.5t-28.5 71.5q0 45 30 86.5t77 58.5
q-11 44 -55.5 72.5t-108.5 28.5q-163 0 -328 -168q-166 -172 -272 -402q-109 -236 -109 -399q0 -93 39 -144t115 -51q99 0 213 111q116 116 258 391q10 23 32 23h238q14 0 20.5 -10t0.5 -23l-297 -639q147 64 248.5 161t172.5 253q9 20 35 20q20 0 38 -13.5t18 -31.5
q0 -1 -1 -3t-2 -6t-2 -7q-104 -216 -241 -324q-135 -108 -328 -178q-75 -161 -162 -293q-86 -135 -208 -217t-271 -82q-128 0 -202 56t-74 153zM608 -141q-196 -46 -319 -123q-121 -77 -121 -160q0 -41 30 -66.5t78 -25.5q94 0 168 90.5t164 284.5zM1053 1683q0 52 45 97
t106 45q41 0 62.5 -20t21.5 -56q0 -51 -44 -94t-105 -43q-41 0 -63.5 19.5t-22.5 51.5z" />
    <glyph glyph-name="gdotaccent" unicode="&#x121;" horiz-adv-x="1105" 
d="M-207 -389q0 118 140 205.5t436 156.5l30 70q-109 -74 -221 -74q-120 0 -182 69t-62 189q0 138 80 295q83 156 219 260q137 107 306 107q160 0 227 -107l49 58q16 16 35 16h199q14 0 20 -10t0 -23l-340 -735q140 63 238 156.5t170 247.5q9 20 34 20q20 0 38 -13.5
t18 -31.5l-4 -16q-103 -214 -236 -320q-131 -107 -319 -172q-113 -221 -269 -371q-156 -153 -368 -153q-114 0 -176 46.5t-62 129.5zM315 -137q-170 -47 -275.5 -113.5t-105.5 -124.5q0 -27 24 -45t60 -18q143 0 297 301zM588 449l106 225q-30 82 -104 82q-80 0 -162 -88
q-79 -82 -137 -207q-55 -119 -55 -209q0 -102 81 -102q64 0 134 77t137 222zM639 1114q0 52 45.5 96.5t106.5 44.5q83 0 83 -75q0 -52 -44 -95t-105 -43q-41 0 -63.5 20t-22.5 52z" />
    <glyph glyph-name="uni0122" unicode="&#x122;" horiz-adv-x="1372" 
d="M84 -580q-15 0 -21 15q-4 12 -4 14q0 14 13 27q97 72 139 168q-40 0 -64 24t-24 62q0 52 39 91.5t92 39.5q42 0 69 -28t27 -71q0 -76 -67 -174q-65 -95 -181 -161q-10 -7 -18 -7zM377 -483l-4 12q0 13 14 27q82 73 129 131q44 54 100 170l150 321q-175 -184 -373 -184
q-170 0 -258 96t-88 264q0 227 146 504q149 276 385 463q239 190 503 190q170 0 263.5 -82.5t93.5 -193.5q0 -80 -47 -135.5t-121 -55.5q-52 0 -79.5 27t-27.5 72t29 85.5t76 59.5q-11 44 -55.5 72.5t-108.5 28.5q-167 0 -336 -175q-168 -171 -279 -411q-110 -238 -110 -416
q0 -103 43 -160t129 -57q94 0 209 134.5t262 422.5q10 23 33 23h235q14 0 20.5 -10t0.5 -23l-416 -893q-78 -167 -178.5 -264t-218.5 -97q-93 0 -121 54z" />
    <glyph glyph-name="uni0123" unicode="&#x123;" horiz-adv-x="1105" 
d="M-207 -389q0 118 140 205.5t436 156.5l30 70q-109 -74 -221 -74q-120 0 -182 69t-62 189q0 138 80 295q83 156 219 260q137 107 306 107q160 0 227 -107l49 58q16 16 35 16h199q14 0 20 -10t0 -23l-340 -735q140 63 238 156.5t170 247.5q9 20 34 20q20 0 38 -13.5
t18 -31.5l-4 -16q-103 -214 -236 -320q-131 -107 -319 -172q-113 -221 -269 -371q-156 -153 -368 -153q-114 0 -176 46.5t-62 129.5zM315 -137q-170 -47 -275.5 -113.5t-105.5 -124.5q0 -27 24 -45t60 -18q143 0 297 301zM588 449l106 225q-30 82 -104 82q-80 0 -162 -88
q-79 -82 -137 -207q-55 -119 -55 -209q0 -102 81 -102q64 0 134 77t137 222zM625 1075q0 74 65 174q66 96 182 162q9 6 19 6q14 0 20 -14q4 -12 4 -14q0 -15 -12 -27q-92 -69 -141 -168q42 0 66 -23.5t24 -62.5q0 -52 -38.5 -91.5t-94.5 -39.5q-45 0 -69.5 25.5t-24.5 72.5z
" />
    <glyph glyph-name="Hbar" unicode="&#x126;" horiz-adv-x="1654" 
d="M973 135q0 116 84 295l80 170h-357l-270 -580q-9 -20 -35 -20h-256q-14 0 -20 10t0 23l426 911h-166q-14 0 -21.5 10t-3.5 23l4 14q7 23 33 23h186l21 45q40 85 79.5 137t94.5 88q-51 10 -107 29q-68 20 -106 27.5t-86 7.5q-126 0 -200 -76.5t-74 -196.5q0 -94 45 -180
q1 -3 2 -6.5t1.5 -5t0.5 -2.5q0 -21 -23 -21q-102 -7 -162.5 61t-60.5 179q0 161 128 278t314 117q59 0 110.5 -12.5t141.5 -44.5q99 -35 151.5 -47.5t116.5 -12.5q48 0 84 4h11q16 0 16 -10q0 -5 -8 -18q-35 -48 -109 -199l-65 -141h356l156 338q9 20 35 20h256
q14 0 20 -10t0 -23l-151 -325h133q14 0 21 -10t3 -23l-4 -14q-7 -23 -33 -23h-153l-262 -563q-54 -111 -54 -178q0 -29 12.5 -45.5t32.5 -16.5q66 0 170.5 101.5t174.5 249.5q9 20 34 20q20 0 38 -13.5t18 -31.5l-4 -16q-98 -213 -272.5 -355.5t-334.5 -142.5
q-92 0 -142 45.5t-50 136.5zM852 756h356l88 188h-356z" />
    <glyph glyph-name="hbar" unicode="&#x127;" horiz-adv-x="1101" 
d="M471 156q0 82 51 184l107 213q28 64 28 94q0 49 -53 49q-70 0 -166 -96q-94 -94 -168 -254l-151 -326q-9 -20 -35 -20h-246q-14 0 -20 10t0 23l213 459l219 469h-70q-17 0 -22.5 9.5t0.5 22.5l6 15q9 22 35 22h84l149 322q9 20 35 20h246q14 0 20 -10t0 -23l-143 -309
h164q17 0 23 -10t-1 -23l-6 -14q-9 -22 -35 -22h-178l-104 -226q177 154 352 154q88 0 136 -40.5t48 -115.5q0 -82 -49 -176l-84 -172q-47 -96 -47 -154q0 -65 53 -65q57 0 128.5 85t142.5 241q11 20 34 20q26 0 44 -19.5t8 -41.5q-110 -230 -248.5 -356t-288.5 -126
q-97 0 -154 50t-57 137z" />
    <glyph glyph-name="Imacron" unicode="&#x12a;" horiz-adv-x="966" 
d="M272 -47q-130 -62 -249 -62q-114 0 -177 48t-63 124q0 41 18 78q7 17 19 17t22 -13q55 -61 150 -61q114 0 227 82q-6 61 -6 127q0 262 88 545q87 281 234 475q144 190 307 190q96 0 145 -71t49 -201q0 -179 -88 -418q-89 -239 -239 -459q-152 -220 -332 -342
q26 -78 84 -129q18 -15 18 -37q0 -21 -15 -37t-38 -16t-47 17q-68 50 -107 143zM795 1284q0 70 -35 70q-80 0 -182 -178q-101 -176 -172 -437q-70 -253 -70 -471q123 129 231 334q103 195 166 391q62 195 62 291zM662 1692l28 63q10 23 35 23h446q17 0 23 -11t-2 -24
l-31 -64q-9 -20 -33 -20h-446q-14 0 -20 10t0 23z" />
    <glyph glyph-name="imacron" unicode="&#x12b;" horiz-adv-x="571" 
d="M-68 178q0 101 60 230l39 84l157 344q9 20 35 20h246q14 0 20 -10t0 -23l-200 -436q-39 -82 -39 -143q0 -38 16 -59t43 -21q60 0 141 88t152 240q9 20 35 20q20 0 37.5 -13.5t17.5 -31.5l-4 -16q-105 -223 -253.5 -352.5t-305.5 -129.5q-95 0 -146 56.5t-51 152.5z
M184 1112l29 64q9 22 35 22h446q17 0 23 -11t-2 -24l-31 -63q-9 -21 -33 -21h-446q-14 0 -20.5 10t-0.5 23z" />
    <glyph glyph-name="Iogonek" unicode="&#x12e;" horiz-adv-x="966" 
d="M-90 -313q0 106 127 204q-116 0 -186 48.5t-70 123.5q0 41 20 80q6 15 19 15q12 0 22 -13q55 -61 150 -61q114 0 227 82q-6 61 -6 127q0 262 88 545q87 281 234 475q144 190 307 190q96 0 145 -71t49 -201q0 -179 -88 -418q-89 -239 -239 -459q-152 -220 -332 -342
q26 -78 84 -129q18 -15 18 -37q0 -21 -15 -37t-38 -16t-47 17q-68 53 -105 137q-211 -115 -211 -219q0 -25 18.5 -39.5t49.5 -14.5q26 0 47 9q2 2 12 2q21 0 21 -25v-59q0 -24 -21 -33q-58 -27 -110 -27q-74 0 -122 40t-48 106zM795 1284q0 70 -35 70q-80 0 -182 -178
q-101 -176 -172 -437q-70 -253 -70 -471q123 129 231 334q103 195 166 391q62 195 62 291z" />
    <glyph glyph-name="iogonek" unicode="&#x12f;" horiz-adv-x="571" 
d="M-80 -256q0 125 162 229q-72 13 -111 67.5t-39 137.5q0 101 60 230l39 84l157 344q9 20 35 20h246q14 0 20 -10t0 -23l-200 -436q-39 -82 -39 -143q0 -38 16 -59t43 -21q60 0 141 88t152 240q9 20 35 20q20 0 37.5 -13.5t17.5 -31.5l-4 -16q-83 -169 -191 -287.5
t-225 -165.5q-198 -108 -198 -213q0 -25 18 -39t49 -14q28 0 47 8q2 2 13 2q20 0 20 -25v-59q0 -24 -20 -33q-56 -26 -111 -26q-74 0 -122 39.5t-48 105.5zM291 1081q0 78 68 147.5t163 69.5q61 0 94 -30.5t33 -81.5q0 -78 -66.5 -145.5t-162.5 -67.5q-61 0 -95 29.5
t-34 78.5z" />
    <glyph glyph-name="Idot" unicode="&#x130;" horiz-adv-x="966" 
d="M272 -47q-130 -62 -249 -62q-114 0 -177 48t-63 124q0 41 18 78q7 17 19 17t22 -13q55 -61 150 -61q114 0 227 82q-6 61 -6 127q0 262 88 545q87 281 234 475q144 190 307 190q96 0 145 -71t49 -201q0 -179 -88 -418q-89 -239 -239 -459q-152 -220 -332 -342
q26 -78 84 -129q18 -15 18 -37q0 -21 -15 -37t-38 -16t-47 17q-68 50 -107 143zM795 1284q0 70 -35 70q-80 0 -182 -178q-101 -176 -172 -437q-70 -253 -70 -471q123 129 231 334q103 195 166 391q62 195 62 291zM811 1683q0 52 45.5 97t106.5 45q41 0 62.5 -20t21.5 -56
q0 -51 -44.5 -94t-105.5 -43q-41 0 -63.5 19.5t-22.5 51.5z" />
    <glyph glyph-name="dotlessi" unicode="&#x131;" horiz-adv-x="571" 
d="M-68 178q0 101 60 230l39 84l157 344q9 20 35 20h246q14 0 20 -10t0 -23l-200 -436q-39 -82 -39 -143q0 -38 16 -59t43 -21q60 0 141 88t152 240q9 20 35 20q20 0 37.5 -13.5t17.5 -31.5l-4 -16q-105 -223 -253.5 -352.5t-305.5 -129.5q-95 0 -146 56.5t-51 152.5z" />
    <glyph glyph-name="uni0136" unicode="&#x136;" horiz-adv-x="1597" 
d="M944 315q-4 120 -10 162q-6 66 -38 105t-91 39h-17l-278 -601q-9 -20 -35 -20h-254q-14 0 -20 10t0 23l475 1024q41 87 80 138.5t96 86.5q-52 8 -109 29q-74 21 -109 28t-81 7q-127 0 -200.5 -76.5t-73.5 -196.5q0 -94 45 -180q1 -3 2 -6.5t1.5 -5t0.5 -2.5
q0 -21 -23 -21q-102 -7 -162.5 61t-60.5 179q0 161 126.5 278t313.5 117q62 0 117.5 -13.5t136.5 -45.5q99 -35 151 -47.5t115 -12.5q40 0 84 6h9q16 0 16 -10q0 -9 -6 -18q-58 -81 -109 -199l-190 -408q106 9 192 66q98 64 158 133q65 74 162 203q114 162 190.5 229.5
t165.5 67.5q103 0 133 -98q2 -2 2 -11q0 -17 -18 -26q-109 -56 -174 -121q-76 -72 -162 -180q-97 -112 -129 -146q-127 -130 -295 -188q46 -23 78 -53.5t50.5 -63t29 -79t14 -87t4.5 -102.5q2 -100 15.5 -141.5t54.5 -41.5q59 0 138.5 95.5t172.5 290.5q9 20 35 20
q20 0 37.5 -13.5t17.5 -31.5l-4 -16q-131 -276 -259 -404.5t-275 -128.5q-106 0 -158 55q-47 52 -61.5 126.5t-16.5 215.5zM502 -539q-15 0 -21 15q-4 12 -4 14q0 15 12 27q98 73 140 168q-40 0 -64 24t-24 62q0 52 39 91.5t92 39.5q42 0 69 -28t27 -71q0 -74 -68 -174
q-66 -96 -180 -161q-11 -7 -18 -7z" />
    <glyph glyph-name="uni0137" unicode="&#x137;" horiz-adv-x="1105" 
d="M362 315l-4 56v4q0 22 27 28q146 20 226.5 88t80.5 142q0 37 -20.5 59.5t-55.5 22.5q-72 0 -167 -92q-92 -89 -158 -230l-172 -373q-9 -20 -35 -20h-246q-14 0 -20 10t0 23l213 459l399 860q9 20 35 20h246q14 0 20 -10t0 -23l-280 -602q85 76 175 114t171 38
q91 0 143.5 -47t52.5 -121q0 -108 -89.5 -206t-256.5 -153q18 -206 133 -206q80 0 181.5 89.5t175.5 246.5q9 20 34 20q21 0 38.5 -13.5t17.5 -31.5l-4 -16q-103 -222 -265 -353q-163 -129 -331 -129q-131 0 -195 81.5t-70 264.5zM55 -539q-14 0 -20 15q-4 12 -4 14
q0 15 12 27q97 72 139 168q-40 0 -64 24t-24 62q0 52 39 91.5t92 39.5q43 0 70 -28t27 -71q0 -74 -68 -174q-66 -96 -180 -161q-10 -7 -19 -7z" />
    <glyph glyph-name="Lacute" unicode="&#x139;" horiz-adv-x="1249" 
d="M254 31q-98 -29 -193 -29q-76 0 -118.5 31t-42.5 80q0 52 50.5 88.5t133.5 36.5q60 0 131 -21q47 45 87.5 111.5t90.5 175.5q-134 30 -205 122t-71 216q0 120 66.5 213.5t160.5 93.5q25 0 25 -21l-4 -16q-56 -118 -56 -227q0 -87 38.5 -150.5t109.5 -87.5
q174 375 366 615q199 249 420 249q92 0 139.5 -47t47.5 -131q2 -91 -56 -215t-153 -242t-229 -216.5t-269 -135.5q-132 -273 -285 -395q205 -86 387 -86q75 0 154 33q12 4 20 4q15 0 15 -10q-10 -97 -92.5 -173.5t-210.5 -76.5q-99 0 -179 30q-74 27 -131 65.5t-147 115.5z
M1298 1337q0 66 -47 66q-74 0 -183.5 -177.5t-268.5 -533.5q101 43 197.5 130t161.5 181.5t103.5 185t36.5 148.5zM1223 1571q0 7 8 18l237 295q14 19 39 10l117 -45q18 -6 18 -20q0 -9 -10 -19l-282 -243q-13 -13 -35 -13h-68q-24 0 -24 17z" />
    <glyph glyph-name="lacute" unicode="&#x13a;" horiz-adv-x="571" 
d="M-66 176q0 113 58 232l39 84l401 860q9 20 33 20h248q14 0 20 -10t0 -23l-444 -952q-41 -84 -41 -143q0 -38 16 -59t43 -21q62 0 143 87t152 241q9 20 35 20q20 0 37.5 -13.5t17.5 -31.5l-4 -16q-107 -223 -256 -352.5t-303 -129.5q-95 0 -145 55.5t-50 151.5zM557 1417
q0 8 8 19l238 295q14 19 39 10l116 -45q19 -6 19 -21q0 -8 -10 -18l-283 -244q-12 -12 -35 -12h-67q-25 0 -25 16z" />
    <glyph glyph-name="uni013B" unicode="&#x13b;" horiz-adv-x="1249" 
d="M254 31q-98 -29 -193 -29q-76 0 -118.5 31t-42.5 80q0 52 50.5 88.5t133.5 36.5q60 0 131 -21q47 45 87.5 111.5t90.5 175.5q-134 30 -205 122t-71 216q0 120 66.5 213.5t160.5 93.5q25 0 25 -21l-4 -16q-56 -118 -56 -227q0 -87 38.5 -150.5t109.5 -87.5
q174 375 366 615q199 249 420 249q92 0 139.5 -47t47.5 -131q2 -91 -56 -215t-153 -242t-229 -216.5t-269 -135.5q-132 -273 -285 -395q205 -86 387 -86q75 0 154 33q12 4 20 4q15 0 15 -10q-10 -97 -92.5 -173.5t-210.5 -76.5q-99 0 -179 30q-74 27 -131 65.5t-147 115.5z
M1298 1337q0 66 -47 66q-74 0 -183.5 -177.5t-268.5 -533.5q101 43 197.5 130t161.5 181.5t103.5 185t36.5 148.5zM57 -532q-14 0 -20 14q-4 12 -4 14q0 15 12 27q97 72 139 168q-40 0 -64 24t-24 62q0 52 39 91.5t92 39.5q43 0 70 -27.5t27 -70.5q0 -75 -68 -175
q-66 -96 -180 -161q-9 -6 -19 -6z" />
    <glyph glyph-name="uni013C" unicode="&#x13c;" horiz-adv-x="571" 
d="M-66 176q0 113 58 232l39 84l401 860q9 20 33 20h248q14 0 20 -10t0 -23l-444 -952q-41 -84 -41 -143q0 -38 16 -59t43 -21q62 0 143 87t152 241q9 20 35 20q20 0 37.5 -13.5t17.5 -31.5l-4 -16q-107 -223 -256 -352.5t-303 -129.5q-95 0 -145 55.5t-50 151.5zM-203 -539
q-14 0 -20 15q-4 12 -4 14q0 15 12 27q97 72 139 168q-40 0 -64 24t-24 62q0 52 39 91.5t92 39.5q42 0 69 -28t27 -71q0 -76 -67 -174q-66 -96 -180 -161q-10 -7 -19 -7z" />
    <glyph glyph-name="Lcaron" unicode="&#x13d;" horiz-adv-x="1249" 
d="M254 31q-98 -29 -193 -29q-76 0 -118.5 31t-42.5 80q0 52 50.5 88.5t133.5 36.5q60 0 131 -21q47 45 87.5 111.5t90.5 175.5q-134 30 -205 122t-71 216q0 120 66.5 213.5t160.5 93.5q25 0 25 -21l-4 -16q-56 -118 -56 -227q0 -87 38.5 -150.5t109.5 -87.5
q174 375 366 615q199 249 420 249q92 0 139.5 -47t47.5 -131q2 -91 -56 -215t-153 -242t-229 -216.5t-269 -135.5q-132 -273 -285 -395q205 -86 387 -86q75 0 154 33q12 4 20 4q15 0 15 -10q-10 -97 -92.5 -173.5t-210.5 -76.5q-99 0 -179 30q-74 27 -131 65.5t-147 115.5z
M1298 1337q0 66 -47 66q-74 0 -183.5 -177.5t-268.5 -533.5q101 43 197.5 130t161.5 181.5t103.5 185t36.5 148.5zM1475 1210l124 275q9 20 35 20h111q22 0 22 -16q0 -10 -6 -19l-209 -276q-10 -16 -34 -16h-23q-14 0 -20 9.5t0 22.5z" />
    <glyph glyph-name="lcaron" unicode="&#x13e;" horiz-adv-x="571" 
d="M-66 176q0 113 58 232l39 84l401 860q9 20 33 20h248q14 0 20 -10t0 -23l-444 -952q-41 -84 -41 -143q0 -38 16 -59t43 -21q62 0 143 87t152 241q9 20 35 20q20 0 37.5 -13.5t17.5 -31.5l-4 -16q-107 -223 -256 -352.5t-303 -129.5q-95 0 -145 55.5t-50 151.5zM700 1077
l125 275q9 20 35 20h111q22 0 22 -16q0 -10 -6 -19l-209 -276q-10 -17 -35 -17h-22q-14 0 -20.5 10t-0.5 23z" />
    <glyph glyph-name="Lslash" unicode="&#x141;" horiz-adv-x="1249" 
d="M254 31q-98 -29 -193 -29q-76 0 -118.5 31t-42.5 80q0 52 50.5 88.5t133.5 36.5q60 0 131 -21q44 44 94 123l-203 -31h-8q-23 0 -20 31l2 12q6 26 31 29l239 33l43 90q-134 30 -205 122t-71 216q0 120 66.5 213.5t160.5 93.5q25 0 25 -21l-4 -16q-56 -118 -56 -227
q0 -87 38.5 -150.5t109.5 -87.5q174 375 366 615q199 249 420 249q92 0 139.5 -47t47.5 -131q2 -91 -56 -215t-153 -242t-229 -216.5t-269 -135.5l-31 -61l248 37h8q25 0 19 -31l-2 -12q-6 -26 -31 -29l-283 -39q-101 -174 -213 -260q205 -86 387 -86q75 0 154 33q12 4 20 4
q15 0 15 -10q-10 -97 -92.5 -173.5t-210.5 -76.5q-99 0 -179 30q-74 27 -131 65.5t-147 115.5zM1298 1337q0 66 -47 66q-74 0 -183.5 -177.5t-268.5 -533.5q101 43 197.5 130t161.5 181.5t103.5 185t36.5 148.5z" />
    <glyph glyph-name="lslash" unicode="&#x142;" horiz-adv-x="571" 
d="M-68 176q0 103 60 232l37 84l125 266l-56 -17q-2 -2 -10 -2q-12 0 -16.5 8.5t0.5 20.5l8 16q9 20 29 27l79 23l244 518q9 20 33 20h248q14 0 20 -10t0 -23l-188 -405l108 31q4 2 17 2q24 0 12 -25l-8 -18q-9 -19 -31 -25l-133 -39l-221 -473q-41 -84 -41 -143
q0 -38 16 -59t43 -21q62 0 143 87t152 241q9 20 35 20q20 0 37.5 -13.5t17.5 -31.5l-4 -16q-107 -223 -256 -352.5t-303 -129.5q-95 0 -146 55.5t-51 151.5z" />
    <glyph glyph-name="Nacute" unicode="&#x143;" horiz-adv-x="1656" 
d="M-92 14l-2 9q0 18 22 24q134 44 271.5 195.5t261.5 392.5l209 399l37 72q44 89 64.5 125.5t47.5 66.5q-56 13 -78 21q-103 33 -186 33q-126 0 -200 -76.5t-74 -196.5q0 -94 45 -180q1 -3 2 -6.5t1.5 -5t0.5 -2.5q0 -21 -23 -21q-102 -7 -162.5 61t-60.5 179
q0 161 128 278t314 117q63 0 119.5 -14.5t142.5 -48.5q63 -23 86.5 -31t59 -15.5t67.5 -7.5q45 0 76 7h6q27 0 21 -27q-4 -28 -4 -64q0 -18 3 -59t3 -51l53 -754l217 467q84 180 154 311q152 279 289 279q57 0 90 -28.5t45 -92.5l2 -8q0 -21 -25 -27q-112 -34 -215.5 -167.5
t-214.5 -370.5l-371 -795q-9 -22 -32 -25l-158 -24h-6q-22 0 -25 27l-80 1044l-243 -494q-152 -305 -290.5 -470.5t-252.5 -165.5q-58 0 -90.5 27.5t-44.5 92.5zM1317 1487q0 7 8 18l238 295q14 19 39 10l116 -45q19 -6 19 -20q0 -8 -11 -19l-282 -243q-13 -13 -35 -13h-68
q-24 0 -24 17z" />
    <glyph glyph-name="nacute" unicode="&#x144;" horiz-adv-x="1101" 
d="M471 156q0 82 51 184l107 213q28 64 28 94q0 49 -53 49q-70 0 -166 -96q-94 -94 -168 -254l-151 -326q-9 -20 -35 -20h-246q-14 0 -20 10t0 23l213 459l157 344q9 20 35 20h209q14 0 21.5 -10t3.5 -23l-35 -116q91 89 190 135.5t193 46.5q88 0 136 -40.5t48 -115.5
q0 -82 -49 -176l-84 -172q-47 -96 -47 -154q0 -65 53 -65q57 0 128.5 85t142.5 241q11 20 34 20q26 0 44 -19.5t8 -41.5q-110 -230 -248.5 -356t-288.5 -126q-97 0 -154 50t-57 137zM664 1001q0 8 8 19l237 295q14 19 39 10l117 -45q18 -6 18 -20q0 -9 -10 -19l-282 -244
q-12 -12 -35 -12h-68q-24 0 -24 16z" />
    <glyph glyph-name="uni0145" unicode="&#x145;" horiz-adv-x="1656" 
d="M-92 14l-2 9q0 18 22 24q134 44 271.5 195.5t261.5 392.5l209 399l37 72q44 89 64.5 125.5t47.5 66.5q-56 13 -78 21q-103 33 -186 33q-126 0 -200 -76.5t-74 -196.5q0 -94 45 -180q1 -3 2 -6.5t1.5 -5t0.5 -2.5q0 -21 -23 -21q-102 -7 -162.5 61t-60.5 179
q0 161 128 278t314 117q63 0 119.5 -14.5t142.5 -48.5q63 -23 86.5 -31t59 -15.5t67.5 -7.5q45 0 76 7h6q27 0 21 -27q-4 -28 -4 -64q0 -18 3 -59t3 -51l53 -754l217 467q84 180 154 311q152 279 289 279q57 0 90 -28.5t45 -92.5l2 -8q0 -21 -25 -27q-112 -34 -215.5 -167.5
t-214.5 -370.5l-371 -795q-9 -22 -32 -25l-158 -24h-6q-22 0 -25 27l-80 1044l-243 -494q-152 -305 -290.5 -470.5t-252.5 -165.5q-58 0 -90.5 27.5t-44.5 92.5zM391 -541q-14 0 -20 15q-4 12 -4 14q0 15 12 27q97 72 139 168q-40 0 -64 24t-24 62q0 52 39 91.5t92 39.5
q42 0 69 -28t27 -71q0 -76 -67 -174t-180 -162q-9 -6 -19 -6z" />
    <glyph glyph-name="uni0146" unicode="&#x146;" horiz-adv-x="1101" 
d="M471 156q0 82 51 184l107 213q28 64 28 94q0 49 -53 49q-70 0 -166 -96q-94 -94 -168 -254l-151 -326q-9 -20 -35 -20h-246q-14 0 -20 10t0 23l213 459l157 344q9 20 35 20h209q14 0 21.5 -10t3.5 -23l-35 -116q91 89 190 135.5t193 46.5q88 0 136 -40.5t48 -115.5
q0 -82 -49 -176l-84 -172q-47 -96 -47 -154q0 -65 53 -65q57 0 128.5 85t142.5 241q11 20 34 20q26 0 44 -19.5t8 -41.5q-110 -230 -248.5 -356t-288.5 -126q-97 0 -154 50t-57 137zM59 -539q-14 0 -20 15q-4 12 -4 14q0 15 12 27q97 72 139 168q-40 0 -64 24t-24 62
q0 52 39 91.5t92 39.5q43 0 70 -28t27 -71q0 -74 -68 -174q-66 -96 -180 -161q-10 -7 -19 -7z" />
    <glyph glyph-name="Ncaron" unicode="&#x147;" horiz-adv-x="1656" 
d="M-92 14l-2 9q0 18 22 24q134 44 271.5 195.5t261.5 392.5l209 399l37 72q44 89 64.5 125.5t47.5 66.5q-56 13 -78 21q-103 33 -186 33q-126 0 -200 -76.5t-74 -196.5q0 -94 45 -180q1 -3 2 -6.5t1.5 -5t0.5 -2.5q0 -21 -23 -21q-102 -7 -162.5 61t-60.5 179
q0 161 128 278t314 117q63 0 119.5 -14.5t142.5 -48.5q63 -23 86.5 -31t59 -15.5t67.5 -7.5q45 0 76 7h6q27 0 21 -27q-4 -28 -4 -64q0 -18 3 -59t3 -51l53 -754l217 467q84 180 154 311q152 279 289 279q57 0 90 -28.5t45 -92.5l2 -8q0 -21 -25 -27q-112 -34 -215.5 -167.5
t-214.5 -370.5l-371 -795q-9 -22 -32 -25l-158 -24h-6q-22 0 -25 27l-80 1044l-243 -494q-152 -305 -290.5 -470.5t-252.5 -165.5q-58 0 -90.5 27.5t-44.5 92.5zM1276 1497l-29 270v5q0 26 27 26h57q25 0 31 -24l47 -177l231 189q15 12 37 12h62q22 0 22 -14q0 -11 -10 -21
l-299 -278q-15 -15 -35 -15h-112q-26 0 -29 27z" />
    <glyph glyph-name="ncaron" unicode="&#x148;" horiz-adv-x="1101" 
d="M471 156q0 82 51 184l107 213q28 64 28 94q0 49 -53 49q-70 0 -166 -96q-94 -94 -168 -254l-151 -326q-9 -20 -35 -20h-246q-14 0 -20 10t0 23l213 459l157 344q9 20 35 20h209q14 0 21.5 -10t3.5 -23l-35 -116q91 89 190 135.5t193 46.5q88 0 136 -40.5t48 -115.5
q0 -82 -49 -176l-84 -172q-47 -96 -47 -154q0 -65 53 -65q57 0 128.5 85t142.5 241q11 20 34 20q26 0 44 -19.5t8 -41.5q-110 -230 -248.5 -356t-288.5 -126q-97 0 -154 50t-57 137zM623 1012l-29 270v4q0 27 27 27h57q25 0 31 -25l47 -176l231 188q16 13 37 13h61
q23 0 23 -15q0 -10 -10 -20l-299 -279q-14 -14 -35 -14h-113q-25 0 -28 27z" />
    <glyph glyph-name="Eng" unicode="&#x14a;" horiz-adv-x="1654" 
d="M520 -385q0 15 4 27q6 18 33 18q105 -7 190 59t164 201l-84 1104l-243 -494q-152 -305 -290.5 -470.5t-252.5 -165.5q-58 0 -90.5 27.5t-44.5 92.5l-2 9q0 18 22 24q134 44 271.5 195.5t261.5 392.5l209 399l37 72q74 146 112 192q-56 13 -78 21q-103 33 -186 33
q-126 0 -200 -77.5t-74 -197.5q0 -87 45 -178q1 -3 2 -6.5t1.5 -5t0.5 -2.5q0 -21 -23 -21q-101 -7 -161 61t-60 179q0 161 126.5 278t313.5 117q63 0 119.5 -14.5t142.5 -48.5q63 -23 86.5 -31t59 -15.5t67.5 -7.5q31 0 78 7h6q27 0 21 -27q-6 -35 -6 -72q0 -10 6 -102
l53 -754l217 467q90 193 156 313q154 277 287 277q57 0 90 -28.5t45 -92.5l2 -8q0 -21 -25 -27q-113 -34 -217 -169t-213 -369l-293 -631q-17 -37 -20 -43q-89 -194 -156 -309q-75 -132 -176 -211.5t-223 -79.5q-44 0 -77.5 27.5t-33.5 64.5z" />
    <glyph glyph-name="eng" unicode="&#x14b;" horiz-adv-x="1093" 
d="M-68 -383l5 25q9 18 34 18q106 -9 189 59q83 65 141 166q61 107 135 260l23 48l170 360q26 56 26 92q0 51 -51 51q-70 0 -166 -96q-94 -94 -168 -254l-151 -326q-9 -20 -35 -20h-246q-14 0 -20 10t0 23l213 459l157 344q9 20 35 20h209q14 0 21.5 -10t3.5 -23l-35 -116
q91 89 190 135.5t193 46.5q88 0 136 -40.5t48 -115.5q0 -72 -49 -176l-186 -391q-88 -187 -174 -318q-93 -147 -217 -236t-269 -89q-71 0 -116.5 27.5t-45.5 66.5z" />
    <glyph glyph-name="Omacron" unicode="&#x14c;" horiz-adv-x="1359" 
d="M49 352q-2 159 70 345t203 347t284 236q74 108 182 169.5t238 61.5q174 0 263 -109t89 -300q0 -239 -129 -512q-128 -271 -346 -459q-216 -186 -469 -186q-190 0 -287.5 108.5t-97.5 298.5zM1143 1180q0 95 -31 147.5t-92 52.5q-73 4 -147 -66.5t-120.5 -185
t-43.5 -229.5q0 -43 10 -111l2 -10q-3 -23 -27 -20q-126 12 -166 129q-82 -142 -132 -297t-50 -273q0 -96 38 -150t112 -54q152 0 301 186q155 194 247 442q99 258 99 439zM891 1692l29 63q10 23 34 23h447q17 0 22.5 -11t-2.5 -24l-30 -64q-9 -20 -33 -20h-447
q-14 0 -20 10t0 23z" />
    <glyph glyph-name="omacron" unicode="&#x14d;" horiz-adv-x="940" 
d="M-57 248q-2 81 28 172t86.5 175t129 151.5t165 106.5t185.5 36q137 0 209.5 -76.5t72.5 -204.5q0 -129 -63 -258h6q141 0 209 142q9 20 35 20t43.5 -19.5t7.5 -41.5q-49 -109 -133.5 -165.5t-180.5 -56.5q-9 0 -55 4q-87 -122 -207.5 -193t-253.5 -71q-138 0 -211 75.5
t-73 203.5zM575 305q-22 36 -22 86q0 64 36.5 121t92.5 80q2 8 2 33q0 131 -96 131q-74 0 -158 -84t-135 -201q-53 -118 -53 -207q0 -121 104 -121q120 0 229 162zM422 1122l29 64q9 22 34 22h447q17 0 22.5 -10t-2.5 -24l-30 -64q-9 -20 -33 -20h-447q-14 0 -20 9.5t0 22.5
z" />
    <glyph glyph-name="Ohungarumlaut" unicode="&#x150;" horiz-adv-x="1359" 
d="M49 352q-2 159 70 345t203 347t284 236q74 108 182 169.5t238 61.5q174 0 263 -109t89 -300q0 -239 -129 -512q-128 -271 -346 -459q-216 -186 -469 -186q-190 0 -287.5 108.5t-97.5 298.5zM1143 1180q0 95 -31 147.5t-92 52.5q-73 4 -147 -66.5t-120.5 -185
t-43.5 -229.5q0 -43 10 -111l2 -10q-3 -23 -27 -20q-126 12 -166 129q-82 -142 -132 -297t-50 -273q0 -96 38 -150t112 -54q152 0 301 186q155 194 247 442q99 258 99 439zM877 1571q0 10 8 18l256 295q15 20 39 10l108 -41q17 -7 17 -20q0 -7 -11 -18l-290 -248
q-13 -13 -37 -13h-66q-24 0 -24 17zM1157 1571q0 10 8 18l256 295q15 20 39 10l107 -41q16 -6 16 -20q0 -8 -10 -18l-289 -248q-13 -13 -37 -13h-65q-25 0 -25 17z" />
    <glyph glyph-name="ohungarumlaut" unicode="&#x151;" horiz-adv-x="940" 
d="M-57 248q-2 81 28 172t86.5 175t129 151.5t165 106.5t185.5 36q137 0 209.5 -76.5t72.5 -204.5q0 -129 -63 -258h6q141 0 209 142q9 20 35 20t43.5 -19.5t7.5 -41.5q-49 -109 -133.5 -165.5t-180.5 -56.5q-9 0 -55 4q-87 -122 -207.5 -193t-253.5 -71q-138 0 -211 75.5
t-73 203.5zM575 305q-22 36 -22 86q0 64 36.5 121t92.5 80q2 8 2 33q0 131 -96 131q-74 0 -158 -84t-135 -201q-53 -118 -53 -207q0 -121 104 -121q120 0 229 162zM408 1001q0 11 8 19l256 295q15 20 39 10l108 -41q17 -7 17 -20q0 -8 -11 -19l-290 -248q-12 -12 -37 -12
h-66q-24 0 -24 16zM688 1001q0 11 8 19l256 295q15 20 39 10l107 -41q16 -6 16 -20q0 -9 -10 -19l-289 -248q-12 -12 -37 -12h-65q-25 0 -25 16z" />
    <glyph glyph-name="oe" unicode="&#x153;" horiz-adv-x="1556" 
d="M627 158q-83 -90 -186.5 -139.5t-213.5 -49.5q-138 0 -211 75.5t-73 203.5q-2 81 28 172t86.5 175t129 151.5t165 106.5t185.5 36q114 0 182.5 -51t89.5 -144q90 93 199 144t225 51t182 -50.5t66 -131.5q2 -62 -38.5 -130t-112.5 -127.5t-182.5 -104.5t-236.5 -58v-19
q0 -157 162 -157q156 0 294 102t220 279q9 20 35 20q20 0 37.5 -13.5t17.5 -31.5l-4 -16q-108 -232 -301 -363q-194 -129 -422 -129q-132 0 -214 52.5t-109 146.5zM684 625q0 131 -96 131q-74 0 -158 -84t-135 -201q-53 -118 -53 -207q0 -121 104 -121q61 -4 124.5 45.5
t110 124t75.5 160.5t28 152zM1350 702q0 32 -22.5 53t-57.5 21q-57 0 -126 -57t-125.5 -144.5t-84.5 -177.5q94 15 175.5 51t132.5 80.5t79.5 90t28.5 83.5z" />
    <glyph glyph-name="Racute" unicode="&#x154;" horiz-adv-x="1615" 
d="M965 315q-3 113 -11 164q-18 142 -131 142h-18l-281 -601q-9 -20 -32 -20h-256q-14 0 -20.5 10t-0.5 23l303 645q103 220 170 334q76 126 163.5 197t199.5 89l8 2q17 0 26 -18l2 -2q5 -10 5 -16q0 -14 -11 -25q-28 -30 -52.5 -82t-70.5 -172q-37 -101 -100 -250h74
q95 0 178 32.5t138 85t86.5 119.5t31.5 136q0 127 -102 212t-291 85q-122 3 -238.5 -43t-200 -121.5t-133.5 -174t-47 -196.5q0 -93 39 -172q1 -3 2 -6.5t1.5 -5t0.5 -2.5q0 -20 -22 -20q-107 -8 -168.5 68.5t-61.5 178.5q0 127 103 269t291 237q194 96 442 96
q166 0 295.5 -35.5t206 -95.5t115 -132t38.5 -152q0 -150 -134 -275t-378 -166q64 -39 93 -96q29 -56 38 -114t11 -158q5 -104 18 -143.5t53 -39.5q59 0 137.5 94t172.5 292q9 20 34 20q20 0 38 -13.5t18 -31.5l-4 -16q-130 -277 -257.5 -405t-275.5 -128q-107 0 -158 57
q-47 52 -61 124.5t-16 215.5zM1174 1571q0 7 8 18l237 295q14 19 39 10l117 -45q18 -6 18 -20q0 -9 -10 -19l-283 -243q-13 -13 -34 -13h-68q-24 0 -24 17z" />
    <glyph glyph-name="racute" unicode="&#x155;" horiz-adv-x="839" 
d="M209 154q0 85 49 186l176 371q-70 -4 -76 -4q-62 0 -114 12l-127 -268q-6 -15 -29 -15q-28 0 -48.5 18.5t-8.5 37.5q122 250 125 432q0 26 22 32q24 9 49 9q38 0 61 -23t23 -61q0 -21 -6 -45q71 -11 111 -11q118 0 291 37l10 2q16 0 26 -16l25 -41q6 -12 6 -21
q0 -2 -4 -18l-178 -383q-45 -91 -45 -154q0 -65 53 -65q112 0 270 326q9 20 35 20q20 0 38 -13.5t18 -31.5q0 -1 -1 -3t-2 -6t-2 -7q-110 -230 -249 -356t-289 -126q-97 0 -153 49t-56 136zM522 1006q0 7 8 18l238 295q14 19 39 10l117 -45q18 -6 18 -20q0 -9 -10 -19
l-283 -244q-12 -12 -35 -12h-67q-25 0 -25 17z" />
    <glyph glyph-name="uni0156" unicode="&#x156;" horiz-adv-x="1615" 
d="M965 315q-3 113 -11 164q-18 142 -131 142h-18l-281 -601q-9 -20 -32 -20h-256q-14 0 -20.5 10t-0.5 23l303 645q103 220 170 334q76 126 163.5 197t199.5 89l8 2q17 0 26 -18l2 -2q5 -10 5 -16q0 -14 -11 -25q-28 -30 -52.5 -82t-70.5 -172q-37 -101 -100 -250h74
q95 0 178 32.5t138 85t86.5 119.5t31.5 136q0 127 -102 212t-291 85q-122 3 -238.5 -43t-200 -121.5t-133.5 -174t-47 -196.5q0 -93 39 -172q1 -3 2 -6.5t1.5 -5t0.5 -2.5q0 -20 -22 -20q-107 -8 -168.5 68.5t-61.5 178.5q0 127 103 269t291 237q194 96 442 96
q166 0 295.5 -35.5t206 -95.5t115 -132t38.5 -152q0 -150 -134 -275t-378 -166q64 -39 93 -96q29 -56 38 -114t11 -158q5 -104 18 -143.5t53 -39.5q59 0 137.5 94t172.5 292q9 20 34 20q20 0 38 -13.5t18 -31.5l-4 -16q-130 -277 -257.5 -405t-275.5 -128q-107 0 -158 57
q-47 52 -61 124.5t-16 215.5zM496 -539q-15 0 -21 15q-4 12 -4 14q0 15 12 27q98 73 140 168q-40 0 -64 24t-24 62q0 52 39 91.5t92 39.5q42 0 69 -28t27 -71q0 -74 -68 -174q-66 -96 -180 -161q-11 -7 -18 -7z" />
    <glyph glyph-name="uni0157" unicode="&#x157;" horiz-adv-x="839" 
d="M209 154q0 85 49 186l176 371q-70 -4 -76 -4q-62 0 -114 12l-127 -268q-6 -15 -29 -15q-28 0 -48.5 18.5t-8.5 37.5q122 250 125 432q0 26 22 32q24 9 49 9q38 0 61 -23t23 -61q0 -21 -6 -45q71 -11 111 -11q118 0 291 37l10 2q16 0 26 -16l25 -41q6 -12 6 -21
q0 -2 -4 -18l-178 -383q-45 -91 -45 -154q0 -65 53 -65q112 0 270 326q9 20 35 20q20 0 38 -13.5t18 -31.5q0 -1 -1 -3t-2 -6t-2 -7q-110 -230 -249 -356t-289 -126q-97 0 -153 49t-56 136zM70 -539q-15 0 -21 15q-4 12 -4 14q0 15 12 27q98 73 140 168q-40 0 -64 24t-24 62
q0 52 39 91.5t92 39.5q42 0 69 -28t27 -71q0 -74 -68 -174q-66 -96 -180 -161q-11 -7 -18 -7z" />
    <glyph glyph-name="Rcaron" unicode="&#x158;" horiz-adv-x="1615" 
d="M965 315q-3 113 -11 164q-18 142 -131 142h-18l-281 -601q-9 -20 -32 -20h-256q-14 0 -20.5 10t-0.5 23l303 645q103 220 170 334q76 126 163.5 197t199.5 89l8 2q17 0 26 -18l2 -2q5 -10 5 -16q0 -14 -11 -25q-28 -30 -52.5 -82t-70.5 -172q-37 -101 -100 -250h74
q95 0 178 32.5t138 85t86.5 119.5t31.5 136q0 127 -102 212t-291 85q-122 3 -238.5 -43t-200 -121.5t-133.5 -174t-47 -196.5q0 -93 39 -172q1 -3 2 -6.5t1.5 -5t0.5 -2.5q0 -20 -22 -20q-107 -8 -168.5 68.5t-61.5 178.5q0 127 103 269t291 237q194 96 442 96
q166 0 295.5 -35.5t206 -95.5t115 -132t38.5 -152q0 -150 -134 -275t-378 -166q64 -39 93 -96q29 -56 38 -114t11 -158q5 -104 18 -143.5t53 -39.5q59 0 137.5 94t172.5 292q9 20 34 20q20 0 38 -13.5t18 -31.5l-4 -16q-130 -277 -257.5 -405t-275.5 -128q-107 0 -158 57
q-47 52 -61 124.5t-16 215.5zM1133 1581l-29 270v4q0 27 26 27h58q25 0 31 -24l47 -177l231 189q15 12 37 12h61q23 0 23 -14q0 -11 -10 -21l-299 -278q-15 -15 -35 -15h-113q-25 0 -28 27z" />
    <glyph glyph-name="rcaron" unicode="&#x159;" horiz-adv-x="839" 
d="M209 154q0 85 49 186l176 371q-70 -4 -76 -4q-62 0 -114 12l-127 -268q-6 -15 -29 -15q-28 0 -48.5 18.5t-8.5 37.5q122 250 125 432q0 26 22 32q24 9 49 9q38 0 61 -23t23 -61q0 -21 -6 -45q71 -11 111 -11q118 0 291 37l10 2q16 0 26 -16l25 -41q6 -12 6 -21
q0 -2 -4 -18l-178 -383q-45 -91 -45 -154q0 -65 53 -65q112 0 270 326q9 20 35 20q20 0 38 -13.5t18 -31.5q0 -1 -1 -3t-2 -6t-2 -7q-110 -230 -249 -356t-289 -126q-97 0 -153 49t-56 136zM481 1016l-28 270v4q0 27 26 27h58q24 0 30 -25l47 -176l232 189q15 12 37 12h61
q23 0 23 -14q0 -10 -11 -21l-299 -278q-15 -15 -34 -15h-113q-26 0 -29 27z" />
    <glyph glyph-name="Sacute" unicode="&#x15a;" horiz-adv-x="1173" 
d="M-43 266q0 141 86 252t207 111q55 0 87 -30.5t32 -76.5q0 -59 -44 -102t-114 -43q-28 0 -57 16q-33 -50 -33 -112q0 -83 57.5 -141t153.5 -58q145 0 241.5 98.5t96.5 261.5q0 74 -18.5 141.5t-61.5 168.5q-44 114 -60 172.5t-16 126.5q-2 101 41 189.5t113.5 147t161 92
t182.5 31.5q156 0 243.5 -83t87.5 -193q0 -80 -45 -134t-118 -54q-52 0 -80.5 27t-28.5 71q0 43 28 83.5t72 59.5q-6 44 -47.5 72.5t-103.5 28.5q-102 0 -166 -76q-61 -76 -61 -176q0 -53 19 -110.5t69 -166.5q62 -127 90 -217t28 -184q0 -151 -82 -275.5t-224.5 -195
t-315.5 -70.5q-206 0 -313 96.5t-107 251.5zM1044 1573q0 6 9 18l237 295q14 19 39 10l117 -45q18 -6 18 -20q0 -9 -10 -19l-283 -243q-13 -13 -34 -13h-68q-25 0 -25 17z" />
    <glyph glyph-name="sacute" unicode="&#x15b;" horiz-adv-x="940" 
d="M-80 270q0 100 46.5 177.5t117.5 84.5q170 311 532 390l11 2q16 0 26 -17l47 -76q11 -26 9 -36q-4 -46 -4 -88q0 -77 14 -160q16 -128 16 -203q0 -98 -30 -168q161 99 266 316q9 20 35 20q20 0 37.5 -13.5t17.5 -31.5l-4 -16q-112 -240 -312.5 -372t-449.5 -132
q-192 0 -283 94q-92 95 -92 229zM451 328q0 33 -17 155q-14 88 -14 168q0 63 14 109q-160 -86 -252 -250q51 -39 51 -107t-45 -108.5t-120 -40.5q2 -75 46.5 -122.5t121.5 -47.5q101 0 158 70t57 174zM586 1001q0 8 8 19l237 295q14 19 39 10l117 -45q19 -6 19 -20
q0 -8 -11 -19l-282 -244q-12 -12 -35 -12h-68q-24 0 -24 16z" />
    <glyph glyph-name="Scedilla" unicode="&#x15e;" horiz-adv-x="1173" 
d="M-43 266q0 141 86 252t207 111q55 0 87 -30.5t32 -76.5q0 -59 -44 -102t-114 -43q-28 0 -57 16q-33 -50 -33 -112q0 -83 57.5 -141t153.5 -58q145 0 241.5 98.5t96.5 261.5q0 74 -18.5 141.5t-61.5 168.5q-44 114 -60 172.5t-16 126.5q-2 101 41 189.5t113.5 147t161 92
t182.5 31.5q156 0 243.5 -83t87.5 -193q0 -80 -45 -134t-118 -54q-52 0 -80.5 27t-28.5 71q0 43 28 83.5t72 59.5q-6 44 -47.5 72.5t-103.5 28.5q-102 0 -166 -76q-61 -76 -61 -176q0 -53 19 -110.5t69 -166.5q62 -127 90 -217t28 -184q0 -151 -82 -275.5t-224.5 -195
t-315.5 -70.5q-206 0 -313 96.5t-107 251.5zM61 -467q-16 10 -16 21l4 16l21 47q9 22 39 16q56 -16 98 -16q65 0 110 27.5t45 66.5q0 34 -35 52t-91 18q-18 0 -24.5 8.5t1.5 22.5l8 18q8 20 31 23q46 4 49 4q85 0 147 -43.5t62 -110.5q0 -86 -91.5 -143.5t-207.5 -57.5
q-77 0 -150 31z" />
    <glyph glyph-name="scedilla" unicode="&#x15f;" horiz-adv-x="940" 
d="M-80 270q0 100 46.5 177.5t117.5 84.5q170 311 532 390l11 2q16 0 26 -17l47 -76q11 -26 9 -36q-4 -46 -4 -88q0 -77 14 -160q16 -128 16 -203q0 -98 -30 -168q161 99 266 316q9 20 35 20q20 0 37.5 -13.5t17.5 -31.5l-4 -16q-112 -240 -312.5 -372t-449.5 -132
q-192 0 -283 94q-92 95 -92 229zM451 328q0 33 -17 155q-14 88 -14 168q0 63 14 109q-160 -86 -252 -250q51 -39 51 -107t-45 -108.5t-120 -40.5q2 -75 46.5 -122.5t121.5 -47.5q101 0 158 70t57 174zM-53 -416q-17 10 -17 21l4 16l21 47q10 23 39 17q59 -17 98 -17
q65 0 110.5 27.5t45.5 66.5q0 34 -35.5 52t-91.5 18q-18 0 -24.5 9t1.5 22l8 18q8 20 31 23q46 4 49 4q85 0 147 -43.5t62 -110.5q0 -86 -91.5 -143t-207.5 -57q-78 0 -149 30z" />
    <glyph glyph-name="Scaron" unicode="&#x160;" horiz-adv-x="1173" 
d="M-43 266q0 141 86 252t207 111q55 0 87 -30.5t32 -76.5q0 -59 -44 -102t-114 -43q-28 0 -57 16q-33 -50 -33 -112q0 -83 57.5 -141t153.5 -58q145 0 241.5 98.5t96.5 261.5q0 74 -18.5 141.5t-61.5 168.5q-44 114 -60 172.5t-16 126.5q-2 101 41 189.5t113.5 147t161 92
t182.5 31.5q156 0 243.5 -83t87.5 -193q0 -80 -45 -134t-118 -54q-52 0 -80.5 27t-28.5 71q0 43 28 83.5t72 59.5q-6 44 -47.5 72.5t-103.5 28.5q-102 0 -166 -76q-61 -76 -61 -176q0 -53 19 -110.5t69 -166.5q62 -127 90 -217t28 -184q0 -151 -82 -275.5t-224.5 -195
t-315.5 -70.5q-206 0 -313 96.5t-107 251.5zM1004 1583l-29 270v5q0 26 26 26h58q25 0 31 -24l47 -177l231 189q15 12 37 12h61q23 0 23 -14q0 -11 -10 -21l-299 -278q-15 -15 -35 -15h-113q-25 0 -28 27z" />
    <glyph glyph-name="scaron" unicode="&#x161;" horiz-adv-x="940" 
d="M-80 270q0 100 46.5 177.5t117.5 84.5q170 311 532 390l11 2q16 0 26 -17l47 -76q11 -26 9 -36q-4 -46 -4 -88q0 -77 14 -160q16 -128 16 -203q0 -98 -30 -168q161 99 266 316q9 20 35 20q20 0 37.5 -13.5t17.5 -31.5l-4 -16q-112 -240 -312.5 -372t-449.5 -132
q-192 0 -283 94q-92 95 -92 229zM451 328q0 33 -17 155q-14 88 -14 168q0 63 14 109q-160 -86 -252 -250q51 -39 51 -107t-45 -108.5t-120 -40.5q2 -75 46.5 -122.5t121.5 -47.5q101 0 158 70t57 174zM545 1012l-29 270v4q0 27 27 27h57q25 0 31 -25l47 -176l231 188
q16 13 37 13h62q22 0 22 -15q0 -10 -10 -20l-299 -279q-14 -14 -35 -14h-113q-25 0 -28 27z" />
    <glyph glyph-name="uni0162" unicode="&#x162;" horiz-adv-x="1239" 
d="M322 35q0 128 90 319l112 236q119 251 216.5 403t205.5 234q-122 43 -192 60.5t-140 17.5q-157 0 -253.5 -92t-96.5 -228q0 -83 37 -164q1 -3 2 -6.5t1.5 -5t0.5 -2.5q0 -18 -24 -21q-102 -7 -161 61.5t-59 180.5q0 134 67.5 244t192.5 175.5t283 65.5q108 0 191 -24
t204 -74q94 -41 149 -57.5t112 -16.5q62 0 127.5 25.5t152.5 83.5q11 8 19 8q14 0 20 -18q6 -21 6 -43q0 -95 -88 -169.5t-237 -74.5q-66 0 -152 21q-65 -111 -180 -379q-10 -20 -38.5 -88.5t-51.5 -116.5l-152 -330q-53 -114 -76 -206t-28 -195q0 -29 -27 -29
q-112 -5 -172.5 46.5t-60.5 158.5zM170 -549q-16 10 -16 21l4 16l20 47q9 22 39 16q56 -16 98 -16q65 0 110.5 27.5t45.5 66.5q0 34 -35.5 52t-91.5 18q-18 0 -24 8.5t2 22.5l8 18q9 20 30 23q46 4 50 4q84 0 146 -43.5t62 -110.5q0 -86 -91.5 -143.5t-207.5 -57.5
q-76 0 -149 31z" />
    <glyph glyph-name="uni0163" unicode="&#x163;" horiz-adv-x="632" 
d="M-61 184q0 113 69 260l23 48l121 260h-80q-14 0 -20.5 9.5t-0.5 22.5l23 52q9 20 35 20h92l141 307q9 22 33 25l266 37h8q12 0 17.5 -8.5t-0.5 -22.5l-158 -338h154q17 0 23 -10t-1 -23l-22 -51q-9 -20 -35 -20h-168l-164 -351q-41 -90 -41 -149q0 -42 20 -65t56 -23
q73 0 168.5 89.5t165.5 238.5q9 20 34 20q20 0 38 -13.5t18 -31.5l-4 -16q-97 -212 -264 -347t-324 -135q-104 0 -163.5 56t-59.5 159zM-131 -416q-16 10 -16 21l4 16l20 47q10 23 39 17q60 -17 98 -17q65 0 110.5 27.5t45.5 66.5q0 34 -35.5 52t-91.5 18q-18 0 -24.5 9
t1.5 22l9 18q9 20 30 23q46 4 50 4q84 0 146 -43.5t62 -110.5q0 -86 -91.5 -143t-207.5 -57q-79 0 -149 30z" />
    <glyph glyph-name="Tcaron" unicode="&#x164;" horiz-adv-x="1239" 
d="M322 35q0 128 90 319l112 236q119 251 216.5 403t205.5 234q-122 43 -192 60.5t-140 17.5q-157 0 -253.5 -92t-96.5 -228q0 -83 37 -164q1 -3 2 -6.5t1.5 -5t0.5 -2.5q0 -18 -24 -21q-102 -7 -161 61.5t-59 180.5q0 134 67.5 244t192.5 175.5t283 65.5q108 0 191 -24
t204 -74q94 -41 149 -57.5t112 -16.5q62 0 127.5 25.5t152.5 83.5q11 8 19 8q14 0 20 -18q6 -21 6 -43q0 -95 -88 -169.5t-237 -74.5q-66 0 -152 21q-65 -111 -180 -379q-10 -20 -38.5 -88.5t-51.5 -116.5l-152 -330q-53 -114 -76 -206t-28 -195q0 -29 -27 -29
q-112 -5 -172.5 46.5t-60.5 158.5zM1069 1513l-29 271v4q0 27 27 27h57q25 0 31 -25l47 -176l232 188q16 13 36 13h62q22 0 22 -15q0 -10 -10 -20l-299 -279q-14 -14 -35 -14h-112q-26 0 -29 26z" />
    <glyph glyph-name="tcaron" unicode="&#x165;" horiz-adv-x="632" 
d="M-61 184q0 113 69 260l23 48l121 260h-80q-14 0 -20.5 9.5t-0.5 22.5l23 52q9 20 35 20h92l141 307q9 22 33 25l266 37h8q12 0 17.5 -8.5t-0.5 -22.5l-158 -338h154q17 0 23 -10t-1 -23l-22 -51q-9 -20 -35 -20h-168l-164 -351q-41 -90 -41 -149q0 -42 20 -65t56 -23
q73 0 168.5 89.5t165.5 238.5q9 20 34 20q20 0 38 -13.5t18 -31.5l-4 -16q-97 -212 -264 -347t-324 -135q-104 0 -163.5 56t-59.5 159zM668 1008l125 274q9 21 34 21h111q23 0 23 -17q0 -8 -7 -18l-209 -277q-10 -16 -34 -16h-23q-14 0 -20 10t0 23z" />
    <glyph glyph-name="Tbar" unicode="&#x166;" horiz-adv-x="1239" 
d="M322 35q0 128 90 319l129 269h-258q-31 0 -25 30l2 15q6 24 33 24h280q99 200 188.5 332t184.5 203q-122 43 -192 60.5t-140 17.5q-157 0 -253.5 -92t-96.5 -228q0 -83 37 -164q1 -3 2 -6.5t1.5 -5t0.5 -2.5q0 -18 -24 -21q-102 -7 -161 61.5t-59 180.5q0 134 67.5 244
t192.5 175.5t283 65.5q108 0 191 -24t204 -74q94 -41 149 -57.5t112 -16.5q62 0 127.5 25.5t152.5 83.5q11 8 19 8q14 0 20 -18q6 -21 6 -43q0 -95 -88 -169.5t-237 -74.5q-66 0 -152 21q-53 -86 -172 -361l-53 -121h309q31 0 25 -30l-3 -15q-6 -24 -32 -24h-330l-166 -363
q-53 -114 -76 -206t-28 -195q0 -29 -27 -29q-112 -5 -172.5 46.5t-60.5 158.5z" />
    <glyph glyph-name="tbar" unicode="&#x167;" horiz-adv-x="632" 
d="M-61 184q0 113 69 260l23 48l30 65h-61q-17 0 -23 9.5t0 23.5l7 14q10 23 34 23h76l58 125h-80q-14 0 -20.5 9.5t-0.5 22.5l23 52q9 20 35 20h92l141 307q9 22 33 25l266 37h8q12 0 17.5 -8.5t-0.5 -22.5l-158 -338h154q17 0 23 -10t-1 -23l-22 -51q-9 -20 -35 -20h-168
l-60 -125h174q17 0 23 -9.5t0 -23.5l-6 -14q-10 -23 -35 -23h-186l-74 -156q-41 -90 -41 -149q0 -42 20 -65t56 -23q73 0 168.5 89.5t165.5 238.5q9 20 34 20q20 0 38 -13.5t18 -31.5l-4 -16q-97 -212 -264 -347t-324 -135q-104 0 -163.5 56t-59.5 159z" />
    <glyph glyph-name="Umacron" unicode="&#x16a;" horiz-adv-x="1572" 
d="M250 190q0 147 102 353l228 450q71 139 71 240q0 64 -31.5 99.5t-93.5 35.5q-80 0 -148 -57.5t-105 -147t-37 -186.5q0 -100 38 -172q5 -10 5 -19q0 -15 -21 -18q-99 -7 -160 59.5t-61 176.5q-2 78 40 166.5t111 161.5t166 120t195 43q152 0 257 -98.5t105 -255.5
q0 -133 -80 -287l-186 -362q-61 -119 -61 -199q0 -94 78 -94q89 0 222 165t285 488l234 500q9 20 33 20h258q14 0 20 -10t0 -23l-446 -958q-54 -111 -54 -178q0 -29 12.5 -45.5t33.5 -16.5q66 0 170 101.5t174 249.5q9 20 34 20q20 0 38 -13.5t18 -31.5l-4 -16
q-98 -208 -272.5 -353t-323.5 -145q-89 0 -143 52t-54 149q0 41 8 77q-221 -280 -426 -280q-106 0 -167.5 62t-61.5 177zM967 1548l28 64q9 22 35 22h447q17 0 22.5 -11t-2.5 -24l-31 -63q-9 -20 -32 -20h-447q-14 0 -20 9.5t0 22.5z" />
    <glyph glyph-name="umacron" unicode="&#x16b;" horiz-adv-x="1118" 
d="M-78 170q0 97 51 199l58 123l157 344q9 20 35 20h246q17 0 22 -10t-2 -23l-188 -411q-47 -109 -47 -162q0 -70 61 -70q67 0 145.5 86t151.5 242l152 328q9 20 35 20h245q14 0 20.5 -10t0.5 -23l-201 -436q-39 -79 -39 -145q0 -36 15.5 -57t42.5 -21q54 0 122.5 84.5
t143.5 243.5q9 20 35 20q21 0 38 -13.5t17 -31.5l-4 -16q-108 -230 -244 -356t-286 -126q-204 0 -201 197q-88 -94 -186 -145.5t-191 -51.5q-97 0 -151 54t-54 147zM483 1122l29 64q9 22 35 22h446q17 0 23 -10t-2 -24l-31 -64q-9 -20 -33 -20h-446q-14 0 -20.5 9.5
t-0.5 22.5z" />
    <glyph glyph-name="Uring" unicode="&#x16e;" horiz-adv-x="1572" 
d="M250 190q0 147 102 353l228 450q71 139 71 240q0 64 -31.5 99.5t-93.5 35.5q-80 0 -148 -57.5t-105 -147t-37 -186.5q0 -100 38 -172q5 -10 5 -19q0 -15 -21 -18q-99 -7 -160 59.5t-61 176.5q-2 78 40 166.5t111 161.5t166 120t195 43q152 0 257 -98.5t105 -255.5
q0 -133 -80 -287l-186 -362q-61 -119 -61 -199q0 -94 78 -94q89 0 222 165t285 488l234 500q9 20 33 20h258q14 0 20 -10t0 -23l-446 -958q-54 -111 -54 -178q0 -29 12.5 -45.5t33.5 -16.5q66 0 170 101.5t174 249.5q9 20 34 20q20 0 38 -13.5t18 -31.5l-4 -16
q-98 -208 -272.5 -353t-323.5 -145q-89 0 -143 52t-54 149q0 41 8 77q-221 -280 -426 -280q-106 0 -167.5 62t-61.5 177zM1049 1544q0 83 65 139q68 56 152 56q64 0 103.5 -35.5t39.5 -97.5q0 -83 -63.5 -139t-151.5 -56q-64 0 -104.5 35.5t-40.5 97.5zM1323 1595
q0 32 -19.5 53t-50.5 21q-45 0 -80.5 -35t-35.5 -82q0 -32 19.5 -51.5t51.5 -19.5q45 0 80 34t35 80z" />
    <glyph glyph-name="uring" unicode="&#x16f;" horiz-adv-x="1118" 
d="M-78 170q0 97 51 199l58 123l157 344q9 20 35 20h246q17 0 22 -10t-2 -23l-188 -411q-47 -109 -47 -162q0 -70 61 -70q67 0 145.5 86t151.5 242l152 328q9 20 35 20h245q14 0 20.5 -10t0.5 -23l-201 -436q-39 -79 -39 -145q0 -36 15.5 -57t42.5 -21q54 0 122.5 84.5
t143.5 243.5q9 20 35 20q21 0 38 -13.5t17 -31.5l-4 -16q-108 -230 -244 -356t-286 -126q-204 0 -201 197q-88 -94 -186 -145.5t-191 -51.5q-97 0 -151 54t-54 147zM565 1118q0 82 66 139q68 56 151 56q64 0 104 -35.5t40 -97.5q0 -83 -63.5 -139t-151.5 -56
q-65 0 -105.5 35.5t-40.5 97.5zM840 1169q0 32 -19.5 53t-50.5 21q-45 0 -81 -35t-36 -82q0 -32 20 -51.5t52 -19.5q45 0 80 34t35 80z" />
    <glyph glyph-name="Uhungarumlaut" unicode="&#x170;" horiz-adv-x="1572" 
d="M250 190q0 147 102 353l228 450q71 139 71 240q0 64 -31.5 99.5t-93.5 35.5q-80 0 -148 -57.5t-105 -147t-37 -186.5q0 -100 38 -172q5 -10 5 -19q0 -15 -21 -18q-99 -7 -160 59.5t-61 176.5q-2 78 40 166.5t111 161.5t166 120t195 43q152 0 257 -98.5t105 -255.5
q0 -133 -80 -287l-186 -362q-61 -119 -61 -199q0 -94 78 -94q89 0 222 165t285 488l234 500q9 20 33 20h258q14 0 20 -10t0 -23l-446 -958q-54 -111 -54 -178q0 -29 12.5 -45.5t33.5 -16.5q66 0 170 101.5t174 249.5q9 20 34 20q20 0 38 -13.5t18 -31.5l-4 -16
q-98 -208 -272.5 -353t-323.5 -145q-89 0 -143 52t-54 149q0 41 8 77q-221 -280 -426 -280q-106 0 -167.5 62t-61.5 177zM952 1427q0 10 9 19l256 295q14 20 38 10l109 -41q16 -6 16 -20q0 -9 -10 -19l-291 -248q-12 -12 -37 -12h-65q-25 0 -25 16zM1233 1427q0 11 8 19
l256 295q15 20 39 10l106 -41q17 -7 17 -20q0 -9 -10 -19l-289 -248q-12 -12 -37 -12h-66q-24 0 -24 16z" />
    <glyph glyph-name="uhungarumlaut" unicode="&#x171;" horiz-adv-x="1118" 
d="M-78 170q0 97 51 199l58 123l157 344q9 20 35 20h246q17 0 22 -10t-2 -23l-188 -411q-47 -109 -47 -162q0 -70 61 -70q67 0 145.5 86t151.5 242l152 328q9 20 35 20h245q14 0 20.5 -10t0.5 -23l-201 -436q-39 -79 -39 -145q0 -36 15.5 -57t42.5 -21q54 0 122.5 84.5
t143.5 243.5q9 20 35 20q21 0 38 -13.5t17 -31.5l-4 -16q-108 -230 -244 -356t-286 -126q-204 0 -201 197q-88 -94 -186 -145.5t-191 -51.5q-97 0 -151 54t-54 147zM469 1001q0 11 8 19l256 295q15 20 39 10l109 -41q16 -6 16 -20q0 -9 -10 -19l-291 -248q-12 -12 -37 -12
h-65q-25 0 -25 16zM750 1001q0 11 8 19l256 295q15 20 39 10l106 -41q17 -7 17 -20q0 -8 -11 -19l-288 -248q-12 -12 -37 -12h-66q-24 0 -24 16z" />
    <glyph glyph-name="Uogonek" unicode="&#x172;" horiz-adv-x="1572" 
d="M858 -283q0 130 180 242q-65 12 -103 63t-38 134q0 23 8 75q-221 -280 -426 -280q-106 0 -167.5 62t-61.5 177q0 147 102 353l228 450q71 139 71 240q0 64 -31.5 99.5t-93.5 35.5q-80 0 -148 -57.5t-105 -147t-37 -186.5q0 -100 38 -172q5 -10 5 -19q0 -15 -21 -18
q-99 -7 -160 59.5t-61 176.5q-2 78 40 166.5t111 161.5t166 120t195 43q152 0 257 -98.5t105 -255.5q0 -133 -80 -287l-186 -362q-61 -119 -61 -199q0 -94 78 -94q89 0 222 165t285 488l234 500q9 20 33 20h258q14 0 20 -10t0 -23l-446 -958q-54 -111 -54 -178
q0 -29 12.5 -45.5t33.5 -16.5q66 0 170 101.5t174 249.5q9 20 34 20q20 0 38 -13.5t18 -31.5l-4 -16q-75 -160 -205 -293q-125 -125 -258 -178q-114 -61 -164.5 -118t-50.5 -104q0 -25 18 -39t49 -14q28 0 47 8q2 2 13 2q20 0 20 -24v-60q0 -23 -20 -32q-59 -27 -111 -27
q-74 0 -122 39.5t-48 105.5z" />
    <glyph glyph-name="uogonek" unicode="&#x173;" horiz-adv-x="1118" 
d="M487 -258q0 123 164 231q-153 24 -147 193q-88 -94 -186 -145.5t-191 -51.5q-97 0 -151 54t-54 147q0 97 51 199l58 123l157 344q9 20 35 20h246q17 0 22 -10t-2 -23l-188 -411q-47 -109 -47 -162q0 -70 61 -70q67 0 145.5 86t151.5 242l152 328q9 20 35 20h245
q14 0 20.5 -10t0.5 -23l-201 -436q-39 -79 -39 -145q0 -36 15.5 -57t42.5 -21q54 0 122.5 84.5t143.5 243.5q9 20 35 20q21 0 38 -13.5t17 -31.5l-4 -16q-80 -171 -178.5 -286.5t-206.5 -162.5q-209 -116 -209 -219q0 -25 18.5 -39t49.5 -14q28 0 47 8q2 2 12 2q20 0 20 -25
v-59q0 -24 -20 -33q-56 -26 -111 -26q-74 0 -122 39.5t-48 105.5z" />
    <glyph glyph-name="Wcircumflex" unicode="&#x174;" horiz-adv-x="2025" 
d="M336 174q0 135 61 330l148 487q55 186 55 262q0 115 -108 115q-82 0 -149 -57.5t-102.5 -146.5t-35.5 -187q0 -97 37 -172l4 -17q0 -17 -23 -20q-97 -7 -158 59.5t-61 176.5q-2 78 40 166.5t111 161.5t166 120t195 43q160 0 250 -90t90 -256q0 -110 -39 -234l-135 -458
q-25 -84 -35 -133l682 1030q9 18 35 18h238q13 0 20.5 -8.5t5.5 -22.5l-196 -884q-22 -108 -25 -162l145 186q196 246 318 484q125 238 125 397q0 35 -6 65l-2 11q0 20 18 26q26 11 59 11q60 0 100 -43t40 -121q0 -280 -545 -918l-373 -444q-17 -17 -35 -17q-78 6 -114.5 59
t-36.5 161q0 129 49 352l106 477l-684 -1030q-9 -19 -34 -19q-201 12 -201 242zM1247 1491q0 8 10 18l285 279q14 14 35 14h113q27 0 30 -26l49 -271v-8q0 -22 -24 -22h-59q-24 0 -33 22l-60 170l-211 -180q-12 -12 -36 -12h-74q-25 0 -25 16z" />
    <glyph glyph-name="wcircumflex" unicode="&#x175;" horiz-adv-x="1527" 
d="M-29 227q0 123 60 265l143 342q9 22 33 22h246q17 0 23 -10t-1 -23l-139 -331q-64 -152 -64 -250q0 -97 66 -97q123 0 266 347l144 342q9 22 32 22h246q17 0 23 -10t0 -23l-140 -331q-65 -157 -65 -250q0 -47 17 -72t48 -25q55 0 129 77t150 206q-2 95 28.5 204
t80.5 182.5t98 68.5q80 0 80 -101q0 -73 -42 -178.5t-114 -216.5q2 -36 16.5 -57t40.5 -21q43 0 94.5 50t88.5 133q9 20 34 20q20 0 38 -13.5t18 -31.5l-4 -16q-54 -118 -136 -185t-163 -67q-77 0 -117 63q-113 -143 -236 -227t-229 -84q-84 0 -140 54t-73 149
q-187 -203 -356 -203q-102 0 -163 75.5t-61 200.5zM664 1001q0 9 10 19l284 278q15 15 35 15h113q12 0 21 -7.5t10 -19.5l49 -270v-8q0 -23 -25 -23h-59q-23 0 -33 23l-59 170l-211 -181q-12 -12 -37 -12h-74q-24 0 -24 16z" />
    <glyph glyph-name="Ycircumflex" unicode="&#x176;" horiz-adv-x="1527" 
d="M127 -434q0 259 633 403l108 234q-184 -205 -366 -205q-106 0 -168 62.5t-62 177.5q0 144 105 352l203 403q69 141 69 242q0 64 -31 98.5t-92 34.5q-80 0 -147.5 -57.5t-104 -147.5t-36.5 -188q0 -99 36 -170q5 -10 5 -19q0 -15 -21 -18q-99 -7 -160 59.5t-61 176.5
q-2 78 40 166.5t111 161.5t166 120t195 43q152 0 257 -98.5t105 -255.5q0 -133 -80 -287l-161 -313q-62 -115 -62 -199q0 -47 20.5 -71.5t57.5 -24.5q82 0 204.5 143t262.5 424l250 539q9 20 35 20h256q14 0 20 -10t0 -23l-588 -1257q152 64 257 160.5t176 249.5q9 20 34 20
q21 0 38.5 -13.5t17.5 -31.5l-4 -16q-100 -211 -242 -320q-136 -107 -336 -180q-126 -257 -281 -426q-155 -168 -383 -168q-128 0 -202 56t-74 153zM709 -141q-198 -48 -318.5 -125t-120.5 -158q0 -41 30 -66.5t79 -25.5q172 0 330 375zM911 1427q0 8 11 19l284 278
q15 15 35 15h113q12 0 20 -7.5t10 -19.5l50 -270v-8q0 -23 -25 -23h-59q-23 0 -33 23l-60 170l-210 -181q-12 -12 -37 -12h-74q-25 0 -25 16z" />
    <glyph glyph-name="ycircumflex" unicode="&#x177;" horiz-adv-x="1103" 
d="M-211 -389q0 118 140 205.5t436 156.5l51 111q-148 -115 -289 -115q-97 0 -151 54t-54 147q0 97 51 199l58 123l157 344q9 20 35 20h246q17 0 22 -10t-2 -23l-188 -411q-47 -109 -47 -162q0 -70 61 -70q68 0 146.5 86.5t150.5 241.5l152 328q9 20 35 20h245
q14 0 20.5 -10t0.5 -23l-340 -735q139 59 238 154t172 250q9 20 34 20q20 0 38 -13.5t18 -31.5l-4 -16q-103 -214 -236 -320q-135 -108 -321 -172q-115 -224 -267 -371q-156 -153 -370 -153q-114 0 -176 46.5t-62 129.5zM311 -137q-163 -45 -274 -113q-105 -68 -105 -125
q0 -27 23 -45t61 -18q74 0 150 82.5t145 218.5zM436 1001q0 9 10 19l285 278q15 15 35 15h113q12 0 20 -7.5t10 -19.5l49 -270v-8q0 -23 -24 -23h-60q-22 0 -32 23l-60 170l-211 -181q-12 -12 -36 -12h-74q-25 0 -25 16z" />
    <glyph glyph-name="Ydieresis" unicode="&#x178;" horiz-adv-x="1527" 
d="M127 -434q0 259 633 403l108 234q-184 -205 -366 -205q-106 0 -168 62.5t-62 177.5q0 144 105 352l203 403q69 141 69 242q0 64 -31 98.5t-92 34.5q-80 0 -147.5 -57.5t-104 -147.5t-36.5 -188q0 -99 36 -170q5 -10 5 -19q0 -15 -21 -18q-99 -7 -160 59.5t-61 176.5
q-2 78 40 166.5t111 161.5t166 120t195 43q152 0 257 -98.5t105 -255.5q0 -133 -80 -287l-161 -313q-62 -115 -62 -199q0 -47 20.5 -71.5t57.5 -24.5q82 0 204.5 143t262.5 424l250 539q9 20 35 20h256q14 0 20 -10t0 -23l-588 -1257q152 64 257 160.5t176 249.5q9 20 34 20
q21 0 38.5 -13.5t17.5 -31.5l-4 -16q-100 -211 -242 -320q-136 -107 -336 -180q-126 -257 -281 -426q-155 -168 -383 -168q-128 0 -202 56t-74 153zM709 -141q-198 -48 -318.5 -125t-120.5 -158q0 -41 30 -66.5t79 -25.5q172 0 330 375zM1266 1540q0 52 45 96.5t106 44.5
q82 0 82 -75q0 -52 -43 -95t-106 -43q-41 0 -62.5 20t-21.5 52zM977 1540q0 52 45 96.5t106 44.5q82 0 82 -75q0 -52 -43 -95t-106 -43q-41 0 -62.5 20t-21.5 52z" />
    <glyph glyph-name="Zacute" unicode="&#x179;" horiz-adv-x="1153" 
d="M365 -16q-52 29 -75 38t-52 9q-46 0 -117 -39q-64 -37 -107 -37q-37 0 -58.5 21.5t-21.5 56.5q0 22 17 39l1050 1052q-45 5 -163 35q-99 23 -147 31t-101 8q-135 0 -268 -90q-9 -6 -19 -6q-18 0 -18 20q-2 50 9 100t38 96t67 81.5t98 56.5t128 21q82 0 147 -24.5
t162 -84.5q66 -40 105.5 -57t78.5 -17q68 0 152 66q10 10 22 10q9 0 17 -8q30 -30 30 -76q0 -47 -36 -86l-969 -967q88 21 174 21q109 0 201 -39q73 -27 108 -27q96 0 198 81t169 223q9 20 35 20q20 0 37.5 -13.5t17.5 -31.5l-4 -16q-105 -221 -279 -383
q-177 -160 -385 -160q-73 0 -123.5 17.5t-117.5 58.5zM930 1487q0 7 8 18l238 295q14 19 38 10l117 -45q19 -6 19 -20q0 -8 -11 -19l-282 -243q-13 -13 -35 -13h-68q-24 0 -24 17z" />
    <glyph glyph-name="zacute" unicode="&#x17a;" horiz-adv-x="1011" 
d="M-221 -389q0 122 147 214t451 161q-1 91 -49 139.5t-150 69.5q-22 6 -22 18q0 9 12 18l582 453q-213 -68 -390 -68q-90 0 -149 21l-94 -186q-9 -19 -35 -19q-21 0 -38 12.5t-17 30.5q0 1 4 17l102 200q-14 20 -14 51q0 86 78 134q8 8 20 8q10 0 19 -6q135 -66 360 -66
q160 0 340 49l8 2q20 0 29 -20l41 -84q4 -12 4 -15q0 -13 -14 -24l-517 -424q75 -29 123 -85t60 -128q121 56 208 149t164 259q9 20 35 20q20 0 38 -13.5t18 -31.5q0 -1 -1 -3t-2 -6t-2 -7q-94 -201 -206 -310q-104 -104 -252 -164q-9 -75 -47 -153.5t-99.5 -148.5
t-138.5 -125.5t-171.5 -87t-190.5 -29.5q-119 0 -181.5 47.5t-62.5 130.5zM360 -117q-186 -41 -312 -118.5t-126 -139.5q0 -26 22.5 -44.5t63.5 -18.5q109 0 211 98t141 223zM596 1001q0 8 8 19l238 295q14 19 39 10l116 -45q19 -6 19 -20q0 -9 -10 -19l-283 -244
q-12 -12 -35 -12h-67q-25 0 -25 16z" />
    <glyph glyph-name="Zdotaccent" unicode="&#x17b;" horiz-adv-x="1153" 
d="M365 -16q-52 29 -75 38t-52 9q-46 0 -117 -39q-64 -37 -107 -37q-37 0 -58.5 21.5t-21.5 56.5q0 22 17 39l1050 1052q-45 5 -163 35q-99 23 -147 31t-101 8q-135 0 -268 -90q-9 -6 -19 -6q-18 0 -18 20q-2 50 9 100t38 96t67 81.5t98 56.5t128 21q82 0 147 -24.5
t162 -84.5q66 -40 105.5 -57t78.5 -17q68 0 152 66q10 10 22 10q9 0 17 -8q30 -30 30 -76q0 -47 -36 -86l-969 -967q88 21 174 21q109 0 201 -39q73 -27 108 -27q96 0 198 81t169 223q9 20 35 20q20 0 37.5 -13.5t17.5 -31.5l-4 -16q-105 -221 -279 -383
q-177 -160 -385 -160q-73 0 -123.5 17.5t-117.5 58.5zM911 1599q0 52 45.5 97t106.5 45q41 0 62.5 -20t21.5 -56q0 -51 -44.5 -94t-105.5 -43q-41 0 -63.5 19.5t-22.5 51.5z" />
    <glyph glyph-name="zdotaccent" unicode="&#x17c;" horiz-adv-x="1011" 
d="M-221 -389q0 122 147 214t451 161q-1 91 -49 139.5t-150 69.5q-22 6 -22 18q0 9 12 18l582 453q-213 -68 -390 -68q-90 0 -149 21l-94 -186q-9 -19 -35 -19q-21 0 -38 12.5t-17 30.5q0 1 4 17l102 200q-14 20 -14 51q0 86 78 134q8 8 20 8q10 0 19 -6q135 -66 360 -66
q160 0 340 49l8 2q20 0 29 -20l41 -84q4 -12 4 -15q0 -13 -14 -24l-517 -424q75 -29 123 -85t60 -128q121 56 208 149t164 259q9 20 35 20q20 0 38 -13.5t18 -31.5q0 -1 -1 -3t-2 -6t-2 -7q-94 -201 -206 -310q-104 -104 -252 -164q-9 -75 -47 -153.5t-99.5 -148.5
t-138.5 -125.5t-171.5 -87t-190.5 -29.5q-119 0 -181.5 47.5t-62.5 130.5zM360 -117q-186 -41 -312 -118.5t-126 -139.5q0 -26 22.5 -44.5t63.5 -18.5q109 0 211 98t141 223zM578 1114q0 52 45 96.5t106 44.5q41 0 62.5 -19.5t21.5 -55.5q0 -52 -44 -95t-105 -43
q-41 0 -63.5 20t-22.5 52z" />
    <glyph glyph-name="Zcaron" unicode="&#x17d;" horiz-adv-x="1153" 
d="M365 -16q-52 29 -75 38t-52 9q-46 0 -117 -39q-64 -37 -107 -37q-37 0 -58.5 21.5t-21.5 56.5q0 22 17 39l1050 1052q-45 5 -163 35q-99 23 -147 31t-101 8q-135 0 -268 -90q-9 -6 -19 -6q-18 0 -18 20q-2 50 9 100t38 96t67 81.5t98 56.5t128 21q82 0 147 -24.5
t162 -84.5q66 -40 105.5 -57t78.5 -17q68 0 152 66q10 10 22 10q9 0 17 -8q30 -30 30 -76q0 -47 -36 -86l-969 -967q88 21 174 21q109 0 201 -39q73 -27 108 -27q96 0 198 81t169 223q9 20 35 20q20 0 37.5 -13.5t17.5 -31.5l-4 -16q-105 -221 -279 -383
q-177 -160 -385 -160q-73 0 -123.5 17.5t-117.5 58.5zM889 1497l-29 270v5q0 26 27 26h57q25 0 31 -24l47 -177l231 189q15 12 37 12h62q22 0 22 -14q0 -11 -10 -21l-299 -278q-15 -15 -35 -15h-112q-26 0 -29 27z" />
    <glyph glyph-name="zcaron" unicode="&#x17e;" horiz-adv-x="1011" 
d="M-221 -389q0 122 147 214t451 161q-1 91 -49 139.5t-150 69.5q-22 6 -22 18q0 9 12 18l582 453q-213 -68 -390 -68q-90 0 -149 21l-94 -186q-9 -19 -35 -19q-21 0 -38 12.5t-17 30.5q0 1 4 17l102 200q-14 20 -14 51q0 86 78 134q8 8 20 8q10 0 19 -6q135 -66 360 -66
q160 0 340 49l8 2q20 0 29 -20l41 -84q4 -12 4 -15q0 -13 -14 -24l-517 -424q75 -29 123 -85t60 -128q121 56 208 149t164 259q9 20 35 20q20 0 38 -13.5t18 -31.5q0 -1 -1 -3t-2 -6t-2 -7q-94 -201 -206 -310q-104 -104 -252 -164q-9 -75 -47 -153.5t-99.5 -148.5
t-138.5 -125.5t-171.5 -87t-190.5 -29.5q-119 0 -181.5 47.5t-62.5 130.5zM360 -117q-186 -41 -312 -118.5t-126 -139.5q0 -26 22.5 -44.5t63.5 -18.5q109 0 211 98t141 223zM555 1012l-29 270v4q0 27 27 27h57q25 0 31 -25l47 -176l232 188q16 13 36 13h62q22 0 22 -15
q0 -10 -10 -20l-299 -279q-14 -14 -35 -14h-112q-26 0 -29 27z" />
    <glyph glyph-name="uni0218" unicode="&#x218;" horiz-adv-x="1173" 
d="M-43 266q0 141 86 252t207 111q55 0 87 -30.5t32 -76.5q0 -59 -44 -102t-114 -43q-28 0 -57 16q-33 -50 -33 -112q0 -83 57.5 -141t153.5 -58q145 0 241.5 98.5t96.5 261.5q0 74 -18.5 141.5t-61.5 168.5q-44 114 -60 172.5t-16 126.5q-2 101 41 189.5t113.5 147t161 92
t182.5 31.5q156 0 243.5 -83t87.5 -193q0 -80 -45 -134t-118 -54q-52 0 -80.5 27t-28.5 71q0 43 28 83.5t72 59.5q-6 44 -47.5 72.5t-103.5 28.5q-102 0 -166 -76q-61 -76 -61 -176q0 -53 19 -110.5t69 -166.5q62 -127 90 -217t28 -184q0 -151 -82 -275.5t-224.5 -195
t-315.5 -70.5q-206 0 -313 96.5t-107 251.5zM82 -590q-15 0 -21 15q-4 12 -4 14q0 13 13 26q97 72 139 168q-40 0 -64 24t-24 62q0 52 39 91.5t92 39.5q43 0 69.5 -27.5t26.5 -70.5q0 -76 -67 -174q-66 -97 -181 -162q-9 -6 -18 -6z" />
    <glyph glyph-name="uni0219" unicode="&#x219;" horiz-adv-x="940" 
d="M-80 270q0 100 46.5 177.5t117.5 84.5q170 311 532 390l11 2q16 0 26 -17l47 -76q11 -26 9 -36q-4 -46 -4 -88q0 -77 14 -160q16 -128 16 -203q0 -98 -30 -168q161 99 266 316q9 20 35 20q20 0 37.5 -13.5t17.5 -31.5l-4 -16q-112 -240 -312.5 -372t-449.5 -132
q-192 0 -283 94q-92 95 -92 229zM451 328q0 33 -17 155q-14 88 -14 168q0 63 14 109q-160 -86 -252 -250q51 -39 51 -107t-45 -108.5t-120 -40.5q2 -75 46.5 -122.5t121.5 -47.5q101 0 158 70t57 174zM-33 -539q-14 0 -20 15q-4 12 -4 14q0 15 12 27q97 72 139 168
q-40 0 -64 24t-24 62q0 52 39 91.5t92 39.5q42 0 69 -28t27 -71q0 -76 -67 -174q-66 -96 -180 -161q-11 -7 -19 -7z" />
    <glyph glyph-name="uni021A" unicode="&#x21a;" horiz-adv-x="1239" 
d="M322 35q0 128 90 319l112 236q119 251 216.5 403t205.5 234q-122 43 -192 60.5t-140 17.5q-157 0 -253.5 -92t-96.5 -228q0 -83 37 -164q1 -3 2 -6.5t1.5 -5t0.5 -2.5q0 -18 -24 -21q-102 -7 -161 61.5t-59 180.5q0 134 67.5 244t192.5 175.5t283 65.5q108 0 191 -24
t204 -74q94 -41 149 -57.5t112 -16.5q62 0 127.5 25.5t152.5 83.5q11 8 19 8q14 0 20 -18q6 -21 6 -43q0 -95 -88 -169.5t-237 -74.5q-66 0 -152 21q-65 -111 -180 -379q-10 -20 -38.5 -88.5t-51.5 -116.5l-152 -330q-53 -114 -76 -206t-28 -195q0 -29 -27 -29
q-112 -5 -172.5 46.5t-60.5 158.5zM190 -672q-14 0 -20 15q-4 12 -4 14q0 15 12 27q98 73 139 167q-40 0 -64 24.5t-24 62.5q0 52 39 91.5t92 39.5q43 0 70 -28t27 -71q0 -74 -68 -174q-67 -98 -180 -162q-9 -6 -19 -6z" />
    <glyph glyph-name="uni021B" unicode="&#x21b;" horiz-adv-x="632" 
d="M-61 184q0 113 69 260l23 48l121 260h-80q-14 0 -20.5 9.5t-0.5 22.5l23 52q9 20 35 20h92l141 307q9 22 33 25l266 37h8q12 0 17.5 -8.5t-0.5 -22.5l-158 -338h154q17 0 23 -10t-1 -23l-22 -51q-9 -20 -35 -20h-168l-164 -351q-41 -90 -41 -149q0 -42 20 -65t56 -23
q73 0 168.5 89.5t165.5 238.5q9 20 34 20q20 0 38 -13.5t18 -31.5l-4 -16q-97 -212 -264 -347t-324 -135q-104 0 -163.5 56t-59.5 159zM-111 -539q-14 0 -20 15q-4 12 -4 14q0 15 12 27q97 72 139 168q-40 0 -64 24t-24 62q0 52 39 91.5t92 39.5q43 0 70 -28t27 -71
q0 -74 -68 -174q-66 -96 -180 -161q-10 -7 -19 -7z" />
    <glyph glyph-name="uni0237" unicode="&#x237;" horiz-adv-x="544" 
d="M-786 -389q0 118 139 204.5t438 159.5l240 517l157 344q9 20 35 20h246q17 0 22 -10t-2 -23l-337 -735q143 63 244.5 157t178.5 247q9 20 35 20q20 0 38 -13.5t18 -31.5l-4 -16q-99 -211 -238 -320q-135 -106 -334 -172q-115 -226 -266 -371q-156 -153 -371 -153
q-114 0 -176.5 46.5t-62.5 129.5zM-262 -137q-170 -47 -275.5 -113.5t-105.5 -124.5q0 -27 24 -45t60 -18q141 0 297 301z" />
    <glyph glyph-name="circumflex" unicode="&#x2c6;" horiz-adv-x="731" 
d="M369 1001q0 9 10 19l285 278q15 15 34 15h113q12 0 21 -7.5t10 -19.5l49 -270v-8q0 -23 -25 -23h-59q-23 0 -33 23l-59 170l-211 -181q-12 -12 -37 -12h-74q-24 0 -24 16z" />
    <glyph glyph-name="caron" unicode="&#x2c7;" horiz-adv-x="731" 
d="M551 1012l-29 270v4q0 27 27 27h57q25 0 31 -25l47 -176l231 188q16 13 37 13h62q22 0 22 -15q0 -10 -10 -20l-299 -279q-14 -14 -35 -14h-112q-26 0 -29 27z" />
    <glyph glyph-name="breve" unicode="&#x2d8;" horiz-adv-x="731" 
d="M449 1176q0 48 14 94q9 24 33 24h24q27 0 27 -30q-6 -60 26.5 -95.5t92.5 -35.5q66 0 143 39.5t119 103.5q12 18 35 18h26q21 0 21 -20q0 -14 -9 -29q-64 -110 -168.5 -175.5t-203.5 -65.5q-81 0 -130.5 45t-49.5 127z" />
    <glyph glyph-name="dotaccent" unicode="&#x2d9;" horiz-adv-x="731" 
d="M573 1114q0 52 45.5 96.5t106.5 44.5q41 0 62.5 -19.5t21.5 -55.5q0 -51 -44.5 -94.5t-105.5 -43.5q-41 0 -63.5 20t-22.5 52z" />
    <glyph glyph-name="ring" unicode="&#x2da;" horiz-adv-x="731" 
d="M506 1118q0 83 65 139q68 56 152 56q64 0 103.5 -35.5t39.5 -97.5q0 -83 -63.5 -139t-151.5 -56q-64 0 -104.5 35.5t-40.5 97.5zM780 1169q0 32 -19 53t-50 21q-45 0 -81 -35t-36 -82q0 -32 20 -51.5t52 -19.5q45 0 79.5 33.5t34.5 80.5z" />
    <glyph glyph-name="ogonek" unicode="&#x2db;" horiz-adv-x="731" 
d="M-76 -268q0 80 78 160t240 149l16 4q13 0 23 -10l6 -6q10 -10 10 -19q0 -12 -16 -22q-203 -115 -203 -215q0 -25 18 -39.5t49 -14.5q27 0 48 9q2 2 12 2q20 0 20 -25v-59q0 -24 -20 -33q-59 -27 -111 -27q-74 0 -122 40t-48 106z" />
    <glyph glyph-name="tilde" unicode="&#x2dc;" horiz-adv-x="731" 
d="M643 1087q-35 27 -56 37.5t-46 10.5q-64 0 -117 -56q-14 -14 -23 -14q-7 0 -16 6q-22 13 -10 37q37 71 96 116.5t125 45.5q37 0 68 -13.5t71 -44.5q65 -47 115 -47q38 0 76.5 22.5t68.5 59.5q16 25 37 13q22 -16 10 -37q-38 -91 -100 -144t-141 -53q-45 0 -78.5 14
t-79.5 47z" />
    <glyph glyph-name="hungarumlaut" unicode="&#x2dd;" horiz-adv-x="731" 
d="M410 1001q0 11 8 19l256 295q15 20 39 10l108 -41q17 -7 17 -20q0 -8 -11 -19l-290 -248q-12 -12 -37 -12h-66q-24 0 -24 16zM690 1001q0 11 8 19l256 295q15 20 39 10l107 -41q16 -6 16 -20q0 -9 -10 -19l-289 -248q-12 -12 -37 -12h-65q-25 0 -25 16z" />
    <glyph glyph-name="gravecomb" unicode="&#x300;" horiz-adv-x="0" 
d="M-174 1004l-152 251q-4 8 -4 17q0 17 19 20l133 35l10 2q19 0 25 -20l102 -291q2 -2 2 -12q0 -21 -24 -21h-76q-22 0 -35 19z" />
    <glyph glyph-name="acutecomb" unicode="&#x301;" horiz-adv-x="0" 
d="M-139 1001q0 8 8 19l237 295q14 19 39 10l117 -45q19 -6 19 -20q0 -8 -11 -19l-282 -244q-12 -12 -35 -12h-68q-24 0 -24 16z" />
    <glyph glyph-name="uni0302" unicode="&#x302;" horiz-adv-x="0" 
d="M-362 1001q0 9 10 19l284 278q15 15 35 15h113q12 0 21 -7.5t10 -19.5l49 -270v-8q0 -23 -25 -23h-59q-23 0 -33 23l-59 170l-211 -181q-12 -12 -37 -12h-74q-24 0 -24 16z" />
    <glyph glyph-name="tildecomb" unicode="&#x303;" horiz-adv-x="0" 
d="M-88 1087q-35 27 -56 37.5t-46 10.5q-64 0 -117 -56q-14 -14 -23 -14q-7 0 -16 6q-22 13 -10 37q37 71 96 116.5t125 45.5q37 0 68 -13.5t71 -44.5q65 -47 115 -47q38 0 76.5 22.5t68.5 59.5q16 25 37 13q22 -16 10 -37q-38 -91 -100 -144t-141 -53q-45 0 -78.5 14
t-79.5 47z" />
    <glyph glyph-name="uni0304" unicode="&#x304;" horiz-adv-x="0" 
d="M-307 1122l28 64q9 22 35 22h447q17 0 22.5 -10t-2.5 -24l-30 -64q-9 -20 -33 -20h-447q-14 0 -20 9.5t0 22.5z" />
    <glyph glyph-name="uni0306" unicode="&#x306;" horiz-adv-x="0" 
d="M-283 1176q0 44 15 94q9 24 32 24h25q27 0 27 -30q-6 -60 26 -95.5t92 -35.5q66 0 143.5 39.5t119.5 103.5q12 18 34 18h27q21 0 21 -20q0 -14 -9 -29q-64 -110 -168.5 -175.5t-203.5 -65.5q-81 0 -131 45t-50 127z" />
    <glyph glyph-name="uni0307" unicode="&#x307;" horiz-adv-x="0" 
d="M-158 1114q0 52 45.5 96.5t106.5 44.5q41 0 62.5 -19.5t21.5 -55.5q0 -51 -44.5 -94.5t-105.5 -43.5q-41 0 -63.5 20t-22.5 52z" />
    <glyph glyph-name="uni0308" unicode="&#x308;" horiz-adv-x="0" 
d="M-8 1114q0 52 45 96.5t106 44.5q82 0 82 -75q0 -52 -43 -95t-106 -43q-41 0 -62.5 20t-21.5 52zM-297 1114q0 52 45.5 96.5t106.5 44.5q82 0 82 -75q0 -52 -43.5 -95t-106.5 -43q-41 0 -62.5 20t-21.5 52z" />
    <glyph glyph-name="uni030A" unicode="&#x30a;" horiz-adv-x="0" 
d="M-225 1118q0 84 67 139q65 56 150 56q64 0 103.5 -35.5t39.5 -97.5q0 -83 -63.5 -139t-151.5 -56q-64 0 -104.5 35.5t-40.5 97.5zM49 1169q0 32 -19 53t-50 21q-45 0 -81 -35t-36 -82q0 -32 19.5 -51.5t51.5 -19.5q45 0 80 34t35 80z" />
    <glyph glyph-name="uni030B" unicode="&#x30b;" horiz-adv-x="0" 
d="M-322 1001q0 10 9 19l256 295q15 20 39 10l108 -41q16 -6 16 -20q0 -9 -10 -19l-291 -248q-12 -12 -36 -12h-66q-25 0 -25 16zM-41 1001q0 11 8 19l256 295q15 20 39 10l107 -41q16 -6 16 -20q0 -9 -10 -19l-289 -248q-12 -12 -37 -12h-65q-25 0 -25 16z" />
    <glyph glyph-name="uni030C" unicode="&#x30c;" horiz-adv-x="0" 
d="M-180 1012l-29 270v4q0 27 27 27h57q25 0 31 -25l47 -176l231 188q16 13 37 13h62q22 0 22 -15q0 -10 -10 -20l-299 -279q-14 -14 -35 -14h-113q-25 0 -28 27z" />
    <glyph glyph-name="uni0312" unicode="&#x312;" horiz-adv-x="0" 
d="M-172 1075q0 74 68 174q62 95 180 162q9 6 18 6q15 0 21 -14q4 -12 4 -14q0 -14 -13 -27q-92 -69 -141 -168q42 0 66 -23.5t24 -62.5q0 -52 -38.5 -91.5t-94.5 -39.5q-45 0 -69.5 25.5t-24.5 72.5z" />
    <glyph glyph-name="uni0326" unicode="&#x326;" horiz-adv-x="0" 
d="M-797 -539q-14 0 -20 15q-4 12 -4 14q0 15 12 27q97 72 139 168q-40 0 -64 24t-24 62q0 52 39 91.5t92 39.5q43 0 70 -28t27 -71q0 -74 -68 -174q-66 -96 -180 -161q-10 -7 -19 -7z" />
    <glyph glyph-name="uni0327" unicode="&#x327;" horiz-adv-x="0" 
d="M-817 -416q-17 10 -17 21l5 16l20 47q10 23 39 17q60 -17 98 -17q65 0 110.5 27.5t45.5 66.5q0 34 -35.5 52t-91.5 18q-18 0 -24.5 9t1.5 22l9 18q9 20 30 23q46 4 49 4q85 0 147 -43.5t62 -110.5q0 -86 -91.5 -143t-207.5 -57q-78 0 -149 30z" />
    <glyph glyph-name="uni0328" unicode="&#x328;" horiz-adv-x="0" 
d="M-807 -268q0 80 78 160t240 149l16 4q12 0 22 -10l7 -6q10 -10 10 -19q0 -12 -17 -22q-202 -114 -202 -215q0 -25 18 -39.5t49 -14.5q26 0 47 9q2 2 13 2q20 0 20 -25v-59q0 -24 -20 -33q-58 -27 -111 -27q-74 0 -122 40t-48 106z" />
    <glyph glyph-name="uni0335" unicode="&#x335;" horiz-adv-x="0" 
d="M-406 637l7 14q10 23 34 23h555q17 0 23 -10t0 -23l-6 -14q-10 -23 -35 -23h-555q-17 0 -23 10t0 23z" />
    <glyph glyph-name="uni0336" unicode="&#x336;" horiz-adv-x="0" 
d="M-911 635l2 14q6 25 32 25h900q30 0 24 -31l-2 -14q-6 -25 -33 -25h-899q-30 0 -24 31z" />
    <glyph glyph-name="uni0337" unicode="&#x337;" horiz-adv-x="0" 
d="M-555 590q-12 0 -16.5 8t0.5 20l8 17q10 24 28 27l547 155q2 2 11 2q12 0 17 -7.5t-1 -18.5l-8 -19q-9 -18 -31 -24l-545 -158q-2 -2 -10 -2z" />
    <glyph glyph-name="uni0338" unicode="&#x338;" horiz-adv-x="0" 
d="M-1225 -45q0 10 8 18l855 916q11 14 34 14h19q24 0 24 -16q0 -11 -8 -19l-850 -913q-16 -16 -35 -16h-24q-23 0 -23 16z" />
    <glyph glyph-name="Wgrave" unicode="&#x1e80;" horiz-adv-x="2025" 
d="M336 174q0 135 61 330l148 487q55 186 55 262q0 115 -108 115q-82 0 -149 -57.5t-102.5 -146.5t-35.5 -187q0 -97 37 -172l4 -17q0 -17 -23 -20q-97 -7 -158 59.5t-61 176.5q-2 78 40 166.5t111 161.5t166 120t195 43q160 0 250 -90t90 -256q0 -110 -39 -234l-135 -458
q-25 -84 -35 -133l682 1030q9 18 35 18h238q13 0 20.5 -8.5t5.5 -22.5l-196 -884q-22 -108 -25 -162l145 186q196 246 318 484q125 238 125 397q0 35 -6 65l-2 11q0 20 18 26q26 11 59 11q60 0 100 -43t40 -121q0 -280 -545 -918l-373 -444q-17 -17 -35 -17q-78 6 -114.5 59
t-36.5 161q0 129 49 352l106 477l-684 -1030q-9 -19 -34 -19q-201 12 -201 242zM1436 1493l-152 252q-4 8 -4 16q0 18 18 21l134 35l10 2q18 0 24 -21l103 -291q2 -2 2 -12q0 -20 -25 -20h-76q-22 0 -34 18z" />
    <glyph glyph-name="wgrave" unicode="&#x1e81;" horiz-adv-x="1527" 
d="M-29 227q0 123 60 265l143 342q9 22 33 22h246q17 0 23 -10t-1 -23l-139 -331q-64 -152 -64 -250q0 -97 66 -97q123 0 266 347l144 342q9 22 32 22h246q17 0 23 -10t0 -23l-140 -331q-65 -157 -65 -250q0 -47 17 -72t48 -25q55 0 129 77t150 206q-2 95 28.5 204
t80.5 182.5t98 68.5q80 0 80 -101q0 -73 -42 -178.5t-114 -216.5q2 -36 16.5 -57t40.5 -21q43 0 94.5 50t88.5 133q9 20 34 20q20 0 38 -13.5t18 -31.5l-4 -16q-54 -118 -136 -185t-163 -67q-77 0 -117 63q-113 -143 -236 -227t-229 -84q-84 0 -140 54t-73 149
q-187 -203 -356 -203q-102 0 -163 75.5t-61 200.5zM852 1004l-152 251q-4 8 -4 17q0 17 19 20l133 35l10 2q19 0 25 -20l102 -291q2 -2 2 -12q0 -21 -24 -21h-76q-22 0 -35 19z" />
    <glyph glyph-name="Wacute" unicode="&#x1e82;" horiz-adv-x="2025" 
d="M336 174q0 135 61 330l148 487q55 186 55 262q0 115 -108 115q-82 0 -149 -57.5t-102.5 -146.5t-35.5 -187q0 -97 37 -172l4 -17q0 -17 -23 -20q-97 -7 -158 59.5t-61 176.5q-2 78 40 166.5t111 161.5t166 120t195 43q160 0 250 -90t90 -256q0 -110 -39 -234l-135 -458
q-25 -84 -35 -133l682 1030q9 18 35 18h238q13 0 20.5 -8.5t5.5 -22.5l-196 -884q-22 -108 -25 -162l145 186q196 246 318 484q125 238 125 397q0 35 -6 65l-2 11q0 20 18 26q26 11 59 11q60 0 100 -43t40 -121q0 -280 -545 -918l-373 -444q-17 -17 -35 -17q-78 6 -114.5 59
t-36.5 161q0 129 49 352l106 477l-684 -1030q-9 -19 -34 -19q-201 12 -201 242zM1470 1491q0 6 9 18l237 295q14 20 39 11l117 -46q18 -6 18 -20q0 -8 -10 -18l-283 -244q-12 -12 -34 -12h-68q-25 0 -25 16z" />
    <glyph glyph-name="wacute" unicode="&#x1e83;" horiz-adv-x="1527" 
d="M-29 227q0 123 60 265l143 342q9 22 33 22h246q17 0 23 -10t-1 -23l-139 -331q-64 -152 -64 -250q0 -97 66 -97q123 0 266 347l144 342q9 22 32 22h246q17 0 23 -10t0 -23l-140 -331q-65 -157 -65 -250q0 -47 17 -72t48 -25q55 0 129 77t150 206q-2 95 28.5 204
t80.5 182.5t98 68.5q80 0 80 -101q0 -73 -42 -178.5t-114 -216.5q2 -36 16.5 -57t40.5 -21q43 0 94.5 50t88.5 133q9 20 34 20q20 0 38 -13.5t18 -31.5l-4 -16q-54 -118 -136 -185t-163 -67q-77 0 -117 63q-113 -143 -236 -227t-229 -84q-84 0 -140 54t-73 149
q-187 -203 -356 -203q-102 0 -163 75.5t-61 200.5zM887 1001q0 8 8 19l238 295q14 19 38 10l117 -45q19 -6 19 -20q0 -8 -11 -19l-282 -244q-12 -12 -35 -12h-68q-24 0 -24 16z" />
    <glyph glyph-name="Wdieresis" unicode="&#x1e84;" horiz-adv-x="2025" 
d="M336 174q0 135 61 330l148 487q55 186 55 262q0 115 -108 115q-82 0 -149 -57.5t-102.5 -146.5t-35.5 -187q0 -97 37 -172l4 -17q0 -17 -23 -20q-97 -7 -158 59.5t-61 176.5q-2 78 40 166.5t111 161.5t166 120t195 43q160 0 250 -90t90 -256q0 -110 -39 -234l-135 -458
q-25 -84 -35 -133l682 1030q9 18 35 18h238q13 0 20.5 -8.5t5.5 -22.5l-196 -884q-22 -108 -25 -162l145 186q196 246 318 484q125 238 125 397q0 35 -6 65l-2 11q0 20 18 26q26 11 59 11q60 0 100 -43t40 -121q0 -280 -545 -918l-373 -444q-17 -17 -35 -17q-78 6 -114.5 59
t-36.5 161q0 129 49 352l106 477l-684 -1030q-9 -19 -34 -19q-201 12 -201 242zM1602 1604q0 52 45 96.5t106 44.5q82 0 82 -76q0 -52 -43 -94.5t-106 -42.5q-41 0 -62.5 20t-21.5 52zM1313 1604q0 52 45 96.5t106 44.5q82 0 82 -76q0 -52 -43 -94.5t-106 -42.5
q-41 0 -62.5 20t-21.5 52z" />
    <glyph glyph-name="wdieresis" unicode="&#x1e85;" horiz-adv-x="1527" 
d="M-29 227q0 123 60 265l143 342q9 22 33 22h246q17 0 23 -10t-1 -23l-139 -331q-64 -152 -64 -250q0 -97 66 -97q123 0 266 347l144 342q9 22 32 22h246q17 0 23 -10t0 -23l-140 -331q-65 -157 -65 -250q0 -47 17 -72t48 -25q55 0 129 77t150 206q-2 95 28.5 204
t80.5 182.5t98 68.5q80 0 80 -101q0 -73 -42 -178.5t-114 -216.5q2 -36 16.5 -57t40.5 -21q43 0 94.5 50t88.5 133q9 20 34 20q20 0 38 -13.5t18 -31.5l-4 -16q-54 -118 -136 -185t-163 -67q-77 0 -117 63q-113 -143 -236 -227t-229 -84q-84 0 -140 54t-73 149
q-187 -203 -356 -203q-102 0 -163 75.5t-61 200.5zM1018 1114q0 52 45 96.5t106 44.5q82 0 82 -75q0 -52 -43 -95t-106 -43q-41 0 -62.5 20t-21.5 52zM729 1114q0 52 45.5 96.5t106.5 44.5q82 0 82 -75q0 -52 -43.5 -95t-106.5 -43q-41 0 -62.5 20t-21.5 52z" />
    <glyph glyph-name="Ygrave" unicode="&#x1ef2;" horiz-adv-x="1527" 
d="M127 -434q0 259 633 403l108 234q-184 -205 -366 -205q-106 0 -168 62.5t-62 177.5q0 144 105 352l203 403q69 141 69 242q0 64 -31 98.5t-92 34.5q-80 0 -147.5 -57.5t-104 -147.5t-36.5 -188q0 -99 36 -170q5 -10 5 -19q0 -15 -21 -18q-99 -7 -160 59.5t-61 176.5
q-2 78 40 166.5t111 161.5t166 120t195 43q152 0 257 -98.5t105 -255.5q0 -133 -80 -287l-161 -313q-62 -115 -62 -199q0 -47 20.5 -71.5t57.5 -24.5q82 0 204.5 143t262.5 424l250 539q9 20 35 20h256q14 0 20 -10t0 -23l-588 -1257q152 64 257 160.5t176 249.5q9 20 34 20
q21 0 38.5 -13.5t17.5 -31.5l-4 -16q-100 -211 -242 -320q-136 -107 -336 -180q-126 -257 -281 -426q-155 -168 -383 -168q-128 0 -202 56t-74 153zM709 -141q-198 -48 -318.5 -125t-120.5 -158q0 -41 30 -66.5t79 -25.5q172 0 330 375zM1100 1430l-152 251q-4 8 -4 17
q0 17 19 20l133 35l10 2q18 0 24 -20l103 -291q2 -2 2 -12q0 -21 -25 -21h-75q-22 0 -35 19z" />
    <glyph glyph-name="ygrave" unicode="&#x1ef3;" horiz-adv-x="1103" 
d="M-211 -389q0 118 140 205.5t436 156.5l51 111q-148 -115 -289 -115q-97 0 -151 54t-54 147q0 97 51 199l58 123l157 344q9 20 35 20h246q17 0 22 -10t-2 -23l-188 -411q-47 -109 -47 -162q0 -70 61 -70q68 0 146.5 86.5t150.5 241.5l152 328q9 20 35 20h245
q14 0 20.5 -10t0.5 -23l-340 -735q139 59 238 154t172 250q9 20 34 20q20 0 38 -13.5t18 -31.5l-4 -16q-103 -214 -236 -320q-135 -108 -321 -172q-115 -224 -267 -371q-156 -153 -370 -153q-114 0 -176 46.5t-62 129.5zM311 -137q-163 -45 -274 -113q-105 -68 -105 -125
q0 -27 23 -45t61 -18q74 0 150 82.5t145 218.5zM625 1004l-152 251q-4 8 -4 17q0 17 18 20l134 35l10 2q18 0 24 -20l103 -291q2 -2 2 -12q0 -21 -25 -21h-76q-21 0 -34 19z" />
    <glyph glyph-name="uni2002" unicode="&#x2002;" horiz-adv-x="983" 
 />
    <glyph glyph-name="uni2003" unicode="&#x2003;" horiz-adv-x="1218" 
 />
    <glyph glyph-name="uni2009" unicode="&#x2009;" horiz-adv-x="348" 
 />
    <glyph glyph-name="endash" unicode="&#x2013;" horiz-adv-x="1130" 
d="M170 440l33 72q9 20 35 20h790q17 0 22.5 -9t-1.5 -23l-31 -70q-9 -22 -35 -22h-793q-14 0 -20 9.5t0 22.5z" />
    <glyph glyph-name="emdash" unicode="&#x2014;" horiz-adv-x="1658" 
d="M170 440l33 72q9 20 35 20h1321q14 0 20 -9.5t0 -22.5l-33 -72q-9 -20 -35 -20h-1321q-14 0 -20 9.5t0 22.5z" />
    <glyph glyph-name="quoteleft" unicode="&#x2018;" horiz-adv-x="567" 
d="M737 1464q15 0 23 -14l8 -14q4 -8 4 -17q0 -13 -12 -22q-131 -96 -189 -221q54 0 86.5 -30.5t32.5 -80.5q0 -65 -53 -121q-53 -53 -119 -53q-60 0 -92.5 34.5t-32.5 92.5q0 105 91 233t237 209z" />
    <glyph glyph-name="quoteright" unicode="&#x2019;" horiz-adv-x="276" 
d="M233 881q-14 0 -22 14l-8 14q-4 8 -4 17q0 13 12 22q129 95 188 221q-54 0 -86 30.5t-32 80.5q0 66 53 119q52 55 119 55q60 0 92.5 -34.5t32.5 -92.5q0 -105 -91 -233t-237 -209q-16 -4 -17 -4z" />
    <glyph glyph-name="quotesinglbase" unicode="&#x201a;" horiz-adv-x="634" 
d="M4 -305q-14 0 -22 14l-9 15q-4 8 -4 16q0 12 13 22q129 94 188 222q-54 0 -86.5 30t-32.5 80q0 66 53 119q52 55 119 55q60 0 92.5 -34.5t32.5 -92.5q0 -105 -91 -233t-237 -209z" />
    <glyph glyph-name="quotedblleft" unicode="&#x201c;" horiz-adv-x="903" 
d="M737 1464q15 0 23 -14l8 -14q4 -8 4 -17q0 -13 -12 -22q-131 -96 -189 -221q54 0 86.5 -30.5t32.5 -80.5q0 -65 -53 -121q-53 -53 -119 -53q-60 0 -92.5 34.5t-32.5 92.5q0 105 91 233t237 209zM1073 1464q15 0 23 -14l8 -14q4 -8 4 -17q0 -13 -12 -22
q-131 -96 -189 -221q54 0 86.5 -30.5t32.5 -80.5q0 -65 -53 -121q-53 -53 -119 -53q-60 0 -92.5 34.5t-32.5 92.5q0 105 91 233t237 209z" />
    <glyph glyph-name="quotedblright" unicode="&#x201d;" horiz-adv-x="614" 
d="M233 881q-14 0 -22 14l-8 14q-4 8 -4 17q0 13 12 22q129 95 188 221q-54 0 -86 30.5t-32 80.5q0 66 53 119q52 55 119 55q60 0 92.5 -34.5t32.5 -92.5q0 -105 -91 -233t-237 -209q-16 -4 -17 -4zM571 881q-14 0 -22 14l-8 14q-4 8 -4 17q0 13 12 22q129 95 188 221
q-54 0 -86.5 30.5t-32.5 80.5q0 65 54 119q52 55 119 55q60 0 92 -34.5t32 -92.5q0 -105 -90.5 -233t-236.5 -209q-16 -4 -17 -4z" />
    <glyph glyph-name="quotedblbase" unicode="&#x201e;" horiz-adv-x="972" 
d="M342 -305q-15 0 -23 14l-8 15q-4 8 -4 16q0 13 12 22q130 95 189 222q-54 0 -86.5 30t-32.5 80q0 66 53 119q52 55 119 55q60 0 92.5 -34.5t32.5 -92.5q0 -105 -91 -233t-237 -209zM4 -305q-14 0 -22 14l-9 15q-4 8 -4 16q0 12 13 22q129 94 188 222q-54 0 -86.5 30
t-32.5 80q0 66 53 119q52 55 119 55q60 0 92.5 -34.5t32.5 -92.5q0 -105 -91 -233t-237 -209z" />
    <glyph glyph-name="dagger" unicode="&#x2020;" horiz-adv-x="819" 
d="M18 -223l555 1196h-194q-14 0 -20.5 10t-0.5 23l11 22q10 23 34 23h207l191 409q9 21 35 21h34q14 0 20.5 -10t0.5 -23l-184 -397h198q14 0 20.5 -10t0.5 -23l-11 -23q-9 -22 -34 -22h-211l-561 -1209q-9 -20 -35 -20h-35q-14 0 -20.5 10t-0.5 23z" />
    <glyph glyph-name="daggerdbl" unicode="&#x2021;" horiz-adv-x="827" 
d="M18 -223l344 739h-196q-14 0 -20.5 10t-0.5 23l11 22q10 23 34 23h207l176 379h-194q-14 0 -20.5 10t-0.5 23l11 22q10 23 34 23h207l191 409q9 21 35 21h34q14 0 20.5 -10t0.5 -23l-184 -397h198q14 0 20.5 -10t0.5 -23l-11 -23q-9 -22 -34 -22h-211l-176 -379h196
q17 0 23 -10t0 -23l-11 -22q-10 -23 -34 -23h-209l-350 -752q-9 -20 -35 -20h-35q-14 0 -20.5 10t-0.5 23z" />
    <glyph glyph-name="bullet" unicode="&#x2022;" horiz-adv-x="735" 
d="M303 627q0 93 80 170t178 77q72 0 118 -44.5t46 -112.5q0 -93 -80 -170.5t-178 -77.5q-73 0 -118.5 44.5t-45.5 113.5z" />
    <glyph glyph-name="ellipsis" unicode="&#x2026;" horiz-adv-x="1558" 
d="M49 94q0 67 55 119q55 55 125 55q51 0 83 -31t32 -79q0 -66 -55 -121q-56 -53 -125 -53q-51 0 -83 30.5t-32 79.5zM524 94q0 66 56 119q55 55 125 55q51 0 82.5 -31t31.5 -79q0 -66 -55 -121q-56 -53 -125 -53q-51 0 -83 30.5t-32 79.5zM999 94q0 66 56 119q55 55 125 55
q51 0 82.5 -31t31.5 -79q0 -66 -55 -121q-56 -53 -125 -53q-51 0 -83 30.5t-32 79.5z" />
    <glyph glyph-name="perthousand" unicode="&#x2030;" horiz-adv-x="2037" 
d="M317 -6l-12 6q-16 10 -16 20q0 8 8 19l590 737q-82 -55 -156 -55h-4q-65 -93 -152.5 -148t-179.5 -55q-89 0 -134.5 47.5t-45.5 134.5q-2 73 34 159.5t95 159t141.5 120t163.5 43.5q88 0 133 -48.5t45 -132.5q0 -88 -49 -192q73 0 168 80.5t256 277.5q12 15 23 15
q9 0 18 -6l12 -7q15 -9 15 -20q0 -13 -8 -21l-906 -1126q-9 -12 -22 -12q-9 0 -17 4zM696 147q-2 73 34 159.5t95 159t141.5 120t163.5 43.5q88 0 133.5 -48t45.5 -132q2 -98 -58.5 -212.5t-164 -195.5t-209.5 -76q-89 0 -135 48t-46 134zM1186 461q0 90 -68 90
q-51 5 -112.5 -67t-100.5 -168t-37 -162q0 -86 64 -86q53 -5 115 65.5t101.5 165.5t37.5 162zM623 764q-21 27 -21 72q0 55 31 109t72 67v2q0 90 -68 90q-51 5 -112.5 -67t-100.5 -168t-37 -162q0 -86 64 -86q42 0 87 39t85 104zM1292 147q-2 73 34 159.5t95 159t141.5 120
t163.5 43.5q88 0 133.5 -48t45.5 -132q2 -98 -58.5 -212.5t-164 -195.5t-209.5 -76q-89 0 -135 48t-46 134zM1782 461q0 90 -68 90q-51 5 -112.5 -67t-100.5 -168t-37 -162q0 -86 64 -86q53 -5 115 65.5t101.5 165.5t37.5 162z" />
    <glyph glyph-name="guilsinglleft" unicode="&#x2039;" horiz-adv-x="763" 
d="M737 874q0 -10 -12 -22l-403 -420l145 -405q1 -3 2 -6.5t1.5 -5.5t0.5 -3q0 -13 -10 -20q-2 -1 -4.5 -2t-3.5 -1.5t-2 -0.5q-11 0 -21 16l-311 406q-8 11 -8 20q0 10 12 19l577 430q23 16 33 6q4 -4 4 -11z" />
    <glyph glyph-name="guilsinglright" unicode="&#x203a;" horiz-adv-x="753" 
d="M-10 2q0 11 12 23l404 419l-146 406q-1 3 -2 6.5t-1.5 5t-0.5 2.5q0 14 10 21q2 1 4.5 2t3.5 1.5t2 0.5q11 0 21 -17l311 -405q8 -11 8 -21q0 -9 -12 -18l-577 -430q-23 -16 -33 -6q-4 4 -4 10z" />
    <glyph glyph-name="fraction" unicode="&#x2044;" horiz-adv-x="468" 
d="M-242 -70q0 8 11 23l1034 1218q14 17 35 17h4q24 0 24 -17q0 -10 -8 -18l-1036 -1219q-16 -16 -35 -16h-14q-15 0 -15 12z" />
    <glyph glyph-name="Euro" unicode="&#x20ac;" horiz-adv-x="1212" 
d="M162 289q0 96 26 184h-129q-34 0 -24 27v2q9 22 35 22h133q25 75 59 144h-112q-14 0 -21.5 8t-3.5 18l2 4q9 21 33 21h129q116 212 289 348q177 139 358 139q120 0 187 -60t67 -149q0 -68 -37.5 -113.5t-99.5 -45.5q-42 0 -63 20.5t-21 56.5q0 37 25 71t63 46
q-6 32 -36 53t-73 21q-104 0 -217 -113q-114 -111 -196 -274h210q17 0 24 -6.5t3 -18.5l-2 -6q-9 -20 -35 -20h-225q-33 -65 -55 -144h202q17 0 23.5 -6.5t1.5 -17.5l-2 -6q-9 -21 -35 -21h-203q-20 -73 -20 -149q0 -106 48 -165t144 -59q132 0 275 107q8 8 20 8t21 -12
l16 -21q8 -8 8 -22q0 -12 -8 -17q-198 -182 -450 -182q-166 0 -250 87t-84 241z" />
    <glyph glyph-name="uni2116" unicode="&#x2116;" horiz-adv-x="1867" 
d="M-156 37l-2 8q0 18 23 25q96 32 199.5 159.5t226.5 366.5l213 412q8 18 33 22l176 10h4q26 0 20 -30q-2 -8 -2 -37q0 -15 6 -82l54 -514l141 303q107 229 183 332.5t157 103.5q75 0 100 -51l4 -12q0 -16 -18 -25q-87 -49 -162 -153.5t-153 -272.5l-267 -565
q-9 -22 -32 -25l-113 -18h-10q-18 0 -21 24l-76 746l-127 -246q-158 -303 -261 -436t-189 -133q-45 0 -71 20t-36 68zM1051 113l18 43q9 22 35 22h473q17 0 22 -10t-2 -23l-18 -43q-9 -22 -35 -22h-473q-17 0 -22 10t2 23zM1174 502q-1 64 23 135.5t69.5 137.5t104.5 119
t134.5 83.5t151.5 28.5q116 0 176.5 -62t60.5 -168q2 -81 -36.5 -171.5t-102.5 -165t-155.5 -122t-186.5 -43.5q-118 0 -178.5 61t-60.5 167zM1782 793q0 48 -20 74t-58 26q-43 3 -93.5 -37.5t-89.5 -99t-64 -126t-23 -116.5q0 -92 82 -92q63 -5 127.5 60t102.5 154t36 157z
" />
    </font>
</defs>
</svg>
